<?xml version="1.0" encoding="UTF-8"?>
<svg width="370px" height="248px" viewBox="0 0 370 248" version="1.1" xmlns="http://www.w3.org/2000/svg" xmlns:xlink="http://www.w3.org/1999/xlink">
    <!-- Generator: Sketch 61.2 (89653) - https://sketch.com -->
    <title>Group</title>
    <desc>Created with Sketch.</desc>
    <g id="Page-1" stroke="none" stroke-width="1" fill="none" fill-rule="evenodd">
        <g id="Feb071" transform="translate(-1285.000000, -265.000000)" fill-rule="nonzero" stroke="#e2ddd7" stroke-width="3">
            <g id="Group" transform="translate(1286.000000, 267.000000)">
                <path d="M290.022,141.706 C286.013,145.936 281.104,149.398 275.66,151.749 C274.32,152.395 272.897,152.821 271.505,153.347 C270.076,153.743 268.661,154.229 267.198,154.512 C264.298,155.214 261.321,155.571 258.334,155.754 C246.38,156.41 234.061,152.99 224.123,145.69 C221.643,143.868 219.333,141.78 217.285,139.442 C216.213,138.313 215.305,137.044 214.347,135.812 C213.897,135.175 213.482,134.513 213.049,133.862 L212.409,132.878 L211.84,131.851 C210.242,129.15 209.09,126.209 208.107,123.229 C207.196,120.214 206.582,117.15 206.23,114.043 C205.58,107.83 206.047,101.52 207.551,95.464 L207.821,94.325 L208.153,93.203 C208.38,92.457 208.586,91.702 208.833,90.962 C209.365,89.494 209.86,88.009 210.507,86.583 C211.709,83.693 213.194,80.916 214.891,78.266 C216.556,75.59 218.533,73.113 220.679,70.763 C221.787,69.609 222.892,68.447 224.127,67.418 C225.301,66.319 226.608,65.381 227.892,64.411 C230.53,62.578 233.326,60.935 236.3,59.7 C237.757,59.006 239.298,58.539 240.809,57.985 C241.576,57.749 242.354,57.547 243.127,57.329 L244.289,57.01 L245.467,56.766 C248.599,56.031 251.804,55.77 254.998,55.621 C256.595,55.64 258.199,55.58 259.789,55.734 C260.584,55.797 261.385,55.827 262.177,55.923 L264.549,56.243 C265.344,56.332 266.121,56.504 266.903,56.66 C267.682,56.825 268.471,56.958 269.243,57.154 C270.775,57.578 272.341,57.936 273.823,58.478 L276.071,59.241 L278.27,60.13 C279.754,60.687 281.149,61.438 282.586,62.101 C288.234,64.959 293.408,68.728 297.973,73.132 C302.48,77.597 306.37,82.729 309.347,88.393 C312.301,94.079 314.249,100.294 315.281,106.512 C316.271,112.768 316.375,119.124 315.701,125.364 C315.029,131.61 313.463,137.709 311.307,143.557 C309.144,149.409 306.29,154.993 302.789,160.161 C299.292,165.333 295.175,170.083 290.584,174.287 C285.965,178.46 280.898,182.107 275.507,185.123 C270.128,188.163 264.451,190.601 258.624,192.479 C252.799,194.367 246.83,195.72 240.807,196.577 C228.756,198.261 216.491,197.925 204.611,195.637 C198.684,194.478 192.797,192.909 187.178,190.741 C185.773,190.202 184.344,189.723 182.962,189.133 L178.839,187.308 C178.154,187 177.462,186.708 176.784,186.386 L174.787,185.344 L170.803,183.254 C160.361,177.357 150.82,170.001 142.461,161.54 C134.231,152.952 127.184,143.276 121.747,132.799 C119.159,127.495 116.742,122.115 114.995,116.502 C114.558,115.1 114.083,113.714 113.681,112.306 C113.287,110.894 112.929,109.474 112.594,108.05 C111.923,105.203 111.384,102.33 110.957,99.446 C112.43,105.085 114.133,110.653 116.509,115.94 C118.658,121.311 121.423,126.399 124.33,131.353 C130.389,141.133 137.697,150.078 146.115,157.778 C154.55,165.45 163.956,172.003 174.072,177.063 L177.919,178.842 L179.838,179.735 C180.486,180.014 181.146,180.263 181.799,180.529 L185.723,182.102 C187.036,182.61 188.39,183.005 189.72,183.462 C195.038,185.302 200.501,186.543 206.034,187.424 C211.565,188.299 217.169,188.671 222.754,188.641 C228.339,188.622 233.919,188.214 239.412,187.322 C250.372,185.496 261.057,181.956 270.466,176.353 C275.163,173.556 279.594,170.35 283.571,166.661 C287.527,162.954 291.04,158.805 294.017,154.298 C295.538,152.065 296.856,149.695 298.12,147.304 C299.306,144.873 300.438,142.41 301.347,139.863 C303.198,134.788 304.526,129.513 305.088,124.172 C305.681,118.838 305.607,113.453 304.8,108.199 C303.941,102.928 302.35,97.91 299.988,93.227 C297.594,88.554 294.42,84.262 290.702,80.489 C286.925,76.773 282.615,73.575 277.935,71.05 C276.737,70.476 275.582,69.804 274.344,69.317 L272.512,68.526 L270.637,67.848 C269.394,67.355 268.117,67.051 266.854,66.662 C266.219,66.484 265.571,66.368 264.93,66.215 C264.287,66.072 263.647,65.909 262.994,65.827 L261.044,65.519 C260.393,65.424 259.736,65.393 259.082,65.324 C257.773,65.159 256.46,65.197 255.147,65.142 C252.531,65.219 249.898,65.357 247.342,65.911 L246.377,66.085 L245.429,66.328 C244.798,66.493 244.161,66.639 243.533,66.816 C242.306,67.249 241.038,67.584 239.854,68.129 C237.415,69.06 235.158,70.377 232.955,71.762 C231.893,72.516 230.795,73.227 229.815,74.094 C228.775,74.889 227.845,75.813 226.9,76.723 C225.058,78.605 223.302,80.633 221.813,82.856 C215.715,91.661 212.591,102.667 213.177,113.459 C213.348,116.154 213.753,118.839 214.397,121.438 C215.117,124.015 215.961,126.584 217.224,128.965 L217.666,129.874 L218.177,130.745 C218.524,131.323 218.85,131.915 219.212,132.486 C219.993,133.588 220.719,134.736 221.61,135.764 C222.43,136.849 223.391,137.817 224.318,138.819 C224.795,139.306 225.313,139.755 225.808,140.227 L226.555,140.933 L227.349,141.587 C235.77,148.687 246.983,152.584 258.286,152.809 C269.58,153.077 281.207,149.421 290.022,141.706 Z" id="Path"></path>
                <path d="M270.733,167.508 C263.957,169.679 256.725,170.61 249.484,170.366 C242.251,170.026 235.008,168.514 228.176,165.788 C221.347,163.061 214.952,159.095 209.413,154.089 C203.866,149.074 199.29,143.03 195.809,136.396 C192.326,129.76 190.024,122.511 188.863,115.071 C187.771,107.618 187.983,99.95 189.468,92.508 C190.974,85.05 193.922,77.933 197.871,71.5 L199.445,69.142 L200.237,67.967 L201.095,66.839 L202.825,64.597 L204.693,62.469 L205.629,61.409 L206.626,60.405 L208.626,58.406 L210.754,56.544 L211.819,55.617 L212.938,54.753 L215.178,53.036 L217.532,51.477 L218.709,50.702 L219.931,49.998 L222.377,48.602 L224.905,47.36 L226.169,46.745 L227.469,46.205 L230.07,45.142 L232.739,44.263 C234.5,43.63 236.348,43.274 238.146,42.792 C239.058,42.597 239.982,42.45 240.897,42.279 C241.814,42.112 242.728,41.937 243.651,41.855 L246.409,41.544 C247.33,41.468 248.254,41.438 249.174,41.385 C251.013,41.24 252.857,41.345 254.691,41.332 C262.021,41.675 269.274,42.891 276.127,45.278 C283.007,47.561 289.518,50.823 295.468,54.892 C301.419,58.961 306.712,63.972 311.211,69.584 C315.655,75.247 319.294,81.528 322.039,88.178 C324.786,94.829 326.709,101.826 327.747,108.976 C328.3,112.548 328.543,116.163 328.676,119.788 C328.675,121.601 328.74,123.421 328.621,125.235 C328.575,126.142 328.554,127.053 328.486,127.961 L328.232,130.68 C327.528,137.938 325.748,145.09 323.251,151.985 C320.666,158.847 317.274,165.446 313.048,171.488 C304.631,183.643 293.295,193.573 280.452,200.897 C274.007,204.511 267.191,207.46 260.159,209.717 C253.12,211.957 245.861,213.444 238.544,214.324 C231.225,215.235 223.829,215.321 216.49,214.857 C209.148,214.381 201.859,213.237 194.73,211.476 C180.46,208 166.824,202 154.605,194.032 L150.072,190.969 L148.94,190.203 L147.853,189.375 L145.681,187.718 L143.511,186.061 C142.782,185.516 142.065,184.957 141.385,184.351 L137.244,180.802 C135.831,179.658 134.585,178.326 133.269,177.078 C131.984,175.796 130.633,174.583 129.408,173.245 C126.97,170.559 124.433,167.972 122.197,165.12 C117.474,159.633 113.471,153.585 109.646,147.492 L106.971,142.799 C106.531,142.015 106.07,141.243 105.649,140.449 L104.449,138.032 L102.082,133.193 L99.98,128.236 L98.933,125.762 L98.021,123.233 L96.226,118.176 L94.726,113.027 L93.984,110.457 C93.752,109.596 93.577,108.719 93.372,107.852 C91.647,100.934 90.627,93.869 90.141,86.817 L91.2,86.674 C92.601,93.558 94.386,100.32 96.756,106.864 C97.037,107.686 97.287,108.517 97.593,109.329 L98.556,111.751 L100.485,116.578 L102.66,121.295 L103.736,123.651 L104.943,125.946 L107.349,130.527 L109.999,134.967 L111.312,137.187 C111.766,137.917 112.259,138.624 112.73,139.343 L115.581,143.635 C119.624,149.187 123.821,154.615 128.529,159.577 C130.776,162.153 133.307,164.457 135.725,166.856 C136.94,168.05 138.276,169.117 139.542,170.254 C140.835,171.362 142.074,172.529 143.433,173.553 L147.43,176.717 C148.084,177.259 148.774,177.753 149.475,178.233 L151.558,179.696 L153.638,181.16 L154.677,181.892 L155.758,182.561 L160.075,185.238 C161.487,186.174 163.024,186.895 164.496,187.724 L166.724,188.932 C167.465,189.337 168.199,189.755 168.972,190.096 C172.03,191.524 175.041,193.055 178.175,194.284 C184.409,196.824 190.845,198.854 197.39,200.379 C200.661,201.154 203.963,201.774 207.278,202.313 C210.601,202.79 213.936,203.182 217.282,203.416 C223.971,203.893 230.697,203.868 237.36,203.222 C250.69,201.97 263.766,198.235 275.603,192.037 C281.501,188.904 287.055,185.137 292.203,180.861 C297.383,176.597 301.984,171.687 306.119,166.433 C307.159,165.12 308.108,163.739 309.083,162.375 C309.985,160.965 310.96,159.593 311.781,158.13 C313.565,155.281 315.061,152.267 316.502,149.221 C319.216,143.065 321.323,136.581 322.435,129.884 C323.564,123.199 323.93,116.329 323.246,109.514 C322.972,106.1 322.378,102.719 321.669,99.362 C321.225,97.707 320.869,96.022 320.321,94.395 L319.553,91.936 L318.665,89.518 L318.22,88.309 L317.713,87.125 L316.7,84.754 L315.547,82.449 C315.167,81.678 314.772,80.915 314.327,80.18 L313.039,77.948 C312.59,77.217 312.104,76.508 311.639,75.787 C310.737,74.323 309.656,72.985 308.65,71.594 C306.515,68.909 304.231,66.329 301.668,64.049 C299.183,61.683 296.398,59.655 293.548,57.757 C282.047,50.246 268.149,46.678 254.71,47.227 C247.988,47.616 241.357,48.838 235.278,51.39 C232.201,52.57 229.3,54.15 226.472,55.798 L224.419,57.155 L223.395,57.832 L222.415,58.575 L220.458,60.055 L218.586,61.64 C213.597,65.873 209.449,71.006 206.011,76.514 C202.696,82.11 200.138,88.151 198.76,94.469 C196.034,107.133 197.611,120.796 203.214,132.705 C203.963,134.166 204.638,135.673 205.516,137.066 L206.769,139.194 L208.139,141.25 L208.823,142.281 C209.063,142.616 209.323,142.935 209.572,143.264 L211.081,145.227 C211.588,145.88 212.166,146.465 212.705,147.089 C213.266,147.692 213.772,148.351 214.378,148.912 C215.583,150.039 216.703,151.269 218.013,152.29 L219.919,153.893 L221.93,155.369 C223.238,156.409 224.686,157.242 226.086,158.161 C226.776,158.639 227.542,158.984 228.268,159.404 C229.008,159.797 229.729,160.233 230.488,160.594 C236.532,163.517 243.053,165.646 249.824,166.641 C256.593,167.619 263.564,167.563 270.473,166.47 L270.733,167.508 Z" id="Path"></path>
                <path d="M232.562,176.059 C226.538,174.952 220.662,172.913 215.103,170.186 C209.56,167.42 204.36,163.912 199.638,159.818 C194.901,155.734 190.711,150.996 187.112,145.824 C183.521,140.639 180.521,135.035 178.291,129.039 C173.868,117.032 172.971,103.796 175.142,91.143 C176.207,84.801 178.104,78.6 180.678,72.691 C183.249,66.779 186.513,61.158 190.411,55.967 C194.308,50.78 198.844,46.054 203.888,41.93 C208.935,37.808 214.511,34.333 220.405,31.532 C232.191,25.903 245.351,23.2 258.4,23.44 C271.461,23.648 284.479,26.863 296.212,32.697 C307.938,38.535 318.342,47.116 326.364,57.429 C334.372,67.73 340.243,79.586 343.716,92.094 C347.143,104.602 348.198,117.833 346.481,130.718 C344.781,143.586 340.591,156.006 334.434,167.255 C331.361,172.884 327.831,178.249 323.868,183.264 C319.895,188.27 315.503,192.933 310.759,197.196 C301.269,205.713 290.396,212.638 278.726,217.509 C267.061,222.395 254.713,225.403 242.269,226.601 C217.372,228.877 192.097,224.267 170.142,213.385 C193.117,221.768 217.889,224.485 241.526,220.703 C265.145,217.124 287.524,206.604 304.312,190.288 C308.505,186.216 312.355,181.797 315.801,177.091 C319.263,172.399 322.358,167.444 324.994,162.267 C330.252,151.915 333.817,140.73 335.081,129.323 C336.382,117.942 335.373,106.341 332.201,95.321 C329.082,84.299 323.854,73.861 316.825,64.879 C309.873,55.862 300.958,48.503 290.838,43.358 C280.746,38.168 269.475,35.304 258.096,34.892 C246.712,34.458 235.272,36.617 224.842,41.206 C214.432,45.814 205.068,52.859 197.829,61.759 C190.566,70.645 185.465,81.371 182.891,92.664 C180.315,103.961 180.502,115.971 183.9,127.167 C190.619,149.638 209.038,168.98 232.562,176.059 Z" id="Path"></path>
                <path d="M13.921,106.668 C12.847,104.051 12.4,101.118 12.724,98.243 C13.044,95.371 13.986,92.541 15.531,90.059 C17.036,87.551 19.072,85.351 21.492,83.622 C23.896,81.85 26.829,80.659 29.894,80.256 C32.96,79.895 36.138,80.275 39.021,81.407 C41.932,82.489 44.531,84.283 46.717,86.461 C51.04,90.816 53.716,96.836 53.809,103.219 C53.816,106.394 53.205,109.668 51.768,112.608 C50.374,115.558 48.378,118.106 46.004,120.223 C41.237,124.423 35.114,126.89 28.695,127.169 C22.287,127.536 15.517,125.159 10.674,120.806 C5.741,116.508 2.618,110.619 1.206,104.44 C0.527,101.332 0.278,98.117 0.519,94.9 C0.792,91.688 1.536,88.466 2.851,85.436 C4.2,82.372 6.014,79.686 8.103,77.281 C10.213,74.882 12.642,72.787 15.312,71.062 C20.62,67.589 26.937,65.548 33.41,65.36 C39.854,65.202 46.13,66.838 51.654,69.521 C62.779,74.891 71.205,84.233 76.874,94.354 C79.745,99.416 82.063,104.653 84.061,109.903 C86.08,115.148 87.792,120.41 89.477,125.592 L92.005,133.268 C92.88,135.785 93.77,138.299 94.742,140.778 C96.648,145.754 98.804,150.624 101.121,155.415 C103.44,160.207 105.992,164.885 108.787,169.419 C110.169,171.696 111.643,173.915 113.139,176.123 L115.474,179.376 C116.25,180.463 117.025,181.553 117.864,182.593 C124.372,191.073 131.723,198.963 139.888,205.946 C148.067,212.902 156.945,219.1 166.486,224.093 C176.011,229.102 186.115,233.065 196.594,235.545 C207.053,238.062 217.804,239.51 228.567,239.42 C239.316,239.407 250.078,238.279 260.481,235.687 L264.375,234.705 C265.678,234.399 266.942,233.949 268.226,233.579 C269.502,233.179 270.79,232.82 272.049,232.372 L275.815,231.004 L277.695,230.318 L279.54,229.543 L283.227,227.996 C284.446,227.459 285.634,226.853 286.837,226.286 C288.028,225.692 289.257,225.178 290.41,224.512 C328.259,204.95 353.504,164.663 355.435,123.152 L355.538,121.21 L355.542,119.266 L355.54,115.38 L355.335,111.503 L355.23,109.566 C355.179,108.922 355.093,108.28 355.027,107.637 L354.607,103.783 L353.984,99.96 L353.671,98.05 C353.55,97.417 353.395,96.79 353.259,96.159 L352.428,92.381 L351.398,88.655 L350.882,86.793 C350.691,86.178 350.471,85.573 350.267,84.962 L349.027,81.306 L347.587,77.726 L346.866,75.937 C346.609,75.348 346.321,74.773 346.05,74.19 L344.407,70.703 L342.574,67.313 L341.656,65.62 C341.344,65.059 340.984,64.525 340.652,63.977 L338.622,60.704 C337.919,59.631 337.151,58.6 336.421,57.545 C335.001,55.408 333.318,53.447 331.758,51.404 C328.432,47.481 324.984,43.636 321.133,40.212 C313.608,33.172 304.986,27.375 295.841,22.74 C294.688,22.18 293.515,21.666 292.353,21.124 L290.607,20.32 C290.02,20.064 289.417,19.849 288.823,19.611 L285.248,18.21 L281.603,17.019 L279.78,16.425 L277.928,15.941 L274.222,14.972 L270.47,14.227 L268.593,13.852 L266.699,13.602 L262.909,13.097 L259.099,12.846 L257.193,12.716 L255.28,12.717 L251.451,12.712 L247.623,12.952 L245.707,13.062 L243.8,13.293 L239.982,13.758 L236.195,14.457 C216.033,18.376 196.956,28.908 183.257,44.412 L180.754,47.372 C179.913,48.355 179.21,49.441 178.428,50.47 C176.829,52.516 175.539,54.738 174.14,56.907 C171.6,61.387 169.246,66.036 167.611,70.98 L166.947,72.816 C166.722,73.427 166.58,74.065 166.392,74.688 L165.323,78.452 C165.022,79.721 164.777,81.005 164.499,82.283 L164.092,84.203 L163.802,86.144 L163.227,90.036 L162.914,93.962 L162.761,95.929 L162.736,97.901 C162.725,99.216 162.688,100.535 162.695,101.853 C163.064,112.368 164.953,122.981 169.064,132.83 L169.822,134.681 C170.07,135.301 170.315,135.923 170.627,136.512 L172.392,140.11 C173.569,142.514 174.964,144.803 176.428,147.051 C179.382,151.529 182.774,155.756 186.613,159.582 L185.799,160.478 C181.569,156.96 177.662,153.001 174.24,148.625 C172.542,146.431 170.903,144.171 169.479,141.779 L167.341,138.185 C166.604,136.996 166.064,135.708 165.42,134.467 C160.397,124.468 157.532,113.411 156.511,102.181 C155.693,90.947 156.6,79.434 159.981,68.509 C161.512,62.999 163.831,57.727 166.421,52.597 C167.842,50.099 169.188,47.532 170.866,45.205 C171.685,44.028 172.431,42.792 173.316,41.663 L175.964,38.266 C176.818,37.106 177.812,36.07 178.762,34.994 C179.733,33.938 180.65,32.824 181.67,31.816 C183.735,29.826 185.721,27.735 187.952,25.925 C192.242,22.093 196.985,18.818 201.849,15.761 C204.359,14.369 206.804,12.836 209.42,11.639 C210.714,11.015 211.994,10.354 213.304,9.762 L217.286,8.099 C217.953,7.83 218.609,7.53 219.286,7.287 L221.325,6.576 C222.687,6.109 224.041,5.617 225.412,5.173 L229.574,4.002 C230.269,3.812 230.96,3.602 231.66,3.43 L233.775,2.971 L238.012,2.068 L242.3,1.415 L244.447,1.098 L246.611,0.906 L250.944,0.547 L255.297,0.462 L257.475,0.425 L259.654,0.524 L264.013,0.732 L268.346,1.218 L270.513,1.467 L272.658,1.846 L276.947,2.617 L281.175,3.651 L283.286,4.183 L285.361,4.829 L289.507,6.138 L293.569,7.674 C294.244,7.936 294.928,8.176 295.594,8.457 L297.576,9.339 C298.894,9.934 300.224,10.504 301.53,11.123 C304.084,12.47 306.713,13.693 309.158,15.23 C310.395,15.973 311.65,16.688 312.87,17.458 L316.466,19.864 C317.681,20.644 318.832,21.512 319.981,22.382 C321.128,23.254 322.299,24.096 323.424,24.996 C325.619,26.861 327.897,28.635 329.95,30.66 C334.226,34.527 338.067,38.842 341.753,43.265 C343.504,45.556 345.329,47.784 346.9,50.216 C347.704,51.416 348.543,52.592 349.314,53.812 L351.54,57.528 C351.904,58.151 352.294,58.759 352.635,59.395 L353.64,61.313 C354.304,62.594 354.988,63.866 355.632,65.156 L357.416,69.099 C357.708,69.758 358.018,70.41 358.295,71.075 L359.074,73.093 L360.617,77.132 L361.942,81.246 C362.158,81.933 362.39,82.615 362.593,83.305 L363.14,85.394 L364.218,89.574 L365.072,93.803 C365.208,94.509 365.363,95.211 365.483,95.919 L365.791,98.052 L366.391,102.319 L366.771,106.608 C366.829,107.323 366.906,108.037 366.948,108.752 L367.022,110.902 L367.156,115.2 L367.072,119.497 L367.019,121.644 L366.863,123.785 L366.541,128.065 L366.002,132.32 L365.729,134.446 L365.349,136.555 L364.583,140.77 C363.321,146.339 361.918,151.87 359.933,157.205 C356.165,167.939 350.958,178.143 344.483,187.442 C331.667,206.138 313.688,221.103 293.334,230.46 C283.193,235.207 272.452,238.464 261.581,240.703 C260.227,241.015 258.855,241.232 257.484,241.45 L253.376,242.117 L249.244,242.599 C247.866,242.753 246.493,242.938 245.108,243.013 C242.344,243.213 239.586,243.474 236.816,243.499 C235.432,243.532 234.049,243.592 232.666,243.602 L228.516,243.529 C206.397,243.062 184.42,237.572 164.703,227.565 C162.205,226.377 159.82,224.979 157.375,223.684 C156.158,223.027 154.994,222.279 153.801,221.581 C152.625,220.855 151.405,220.195 150.263,219.413 C147.959,217.884 145.609,216.414 143.39,214.759 C142.27,213.947 141.133,213.155 140.025,212.324 L136.739,209.782 C127.958,203.008 119.996,195.196 112.681,186.805 C105.371,178.41 98.963,169.147 93.522,159.386 C90.775,154.513 88.332,149.478 86.074,144.37 C83.819,139.283 81.758,134.005 79.932,128.885 C76.189,118.642 72.607,108.59 67.478,99.762 C64.898,95.377 62.007,91.27 58.541,87.787 C55.085,84.313 51.201,81.249 46.937,79.147 C42.69,77.012 38.118,75.814 33.628,75.859 C29.19,75.931 24.709,77.272 20.855,79.723 C18.939,80.946 17.134,82.366 15.598,84.028 C14.063,85.694 12.75,87.552 11.844,89.459 C10.927,91.41 10.36,93.556 10.099,95.768 C9.869,97.986 9.974,100.27 10.39,102.505 C11.256,106.971 13.446,111.205 16.622,114.256 C18.21,115.78 20.042,117.006 22.061,117.801 C23.058,118.234 24.121,118.493 25.19,118.735 C26.274,118.91 27.383,119.044 28.506,119.036 C33,119.073 37.65,117.424 41.213,114.584 C42.128,113.894 42.913,113.075 43.678,112.242 C44.385,111.376 45.086,110.459 45.585,109.496 C46.677,107.588 47.223,105.385 47.365,103.122 C47.481,100.851 47.088,98.511 46.309,96.287 C45.478,94.085 44.296,91.965 42.742,90.153 C39.693,86.538 35.048,84.227 30.289,84.475 C27.931,84.636 25.565,85.296 23.453,86.597 C21.311,87.859 19.399,89.579 17.911,91.635 C16.398,93.673 15.313,96.042 14.773,98.555 C14.235,101.069 14.359,103.723 15.061,106.258 L13.921,106.668 Z" id="Path"></path>
            </g>
        </g>
    </g>
</svg>
