<?xml version="1.0" encoding="UTF-8"?>
<svg width="254px" height="556px" viewBox="0 0 254 556" version="1.1" xmlns="http://www.w3.org/2000/svg" xmlns:xlink="http://www.w3.org/1999/xlink">
    <!-- Generator: Sketch 61.2 (89653) - https://sketch.com -->
    <title>Fill 10</title>
    <desc>Created with Sketch.</desc>
    <g id="Page-1" stroke="none" stroke-width="1" fill="none" fill-rule="evenodd">
        <g id="Scroll-Work-03" transform="translate(-1717.000000, 154.000000)" stroke="#f3f1ef" stroke-width="5">
            <g id="Group">
                <g id="Chinese-Clouds-02">
                    <path d="M1587.43298,98.1851986 C1594.70198,91.0251986 1604.73198,87.1611986 1614.81198,86.7171986 C1624.48198,86.2901986 1633.34098,89.8231986 1641.34098,94.8441986 C1640.06798,96.8951986 1638.93898,99.0031986 1637.99598,101.154199 C1627.90898,124.145199 1648.08198,145.561199 1668.97398,151.974199 C1679.70398,155.267199 1691.87498,153.072199 1700.21398,145.449199 C1701.83298,143.969199 1703.17098,142.328199 1704.26798,140.567199 C1708.40198,143.074199 1711.48198,146.844199 1716.23998,148.698199 C1720.78998,150.471199 1725.56798,150.503199 1730.25498,149.392199 C1737.33698,147.712199 1748.48698,135.744199 1742.10298,128.455199 C1741.33898,127.582199 1739.91698,127.516199 1739.35898,128.684199 C1737.96198,131.613199 1737.99198,134.859199 1736.47198,137.789199 C1734.26198,142.049199 1729.65198,144.151199 1725.10698,144.582199 C1720.92598,144.978199 1716.61998,143.303199 1713.22498,140.991199 C1710.82998,139.360199 1708.91498,137.371199 1706.33798,136.393199 C1709.04198,129.507199 1709.01898,121.470199 1708.02098,114.142199 C1706.40898,102.304199 1696.72898,95.3461986 1685.19298,94.7071986 C1674.79098,94.1311986 1665.10698,100.835199 1664.18198,111.582199 C1663.63398,117.935199 1667.26298,123.674199 1673.29898,125.682199 C1678.74498,127.495199 1685.69398,125.938199 1687.87398,120.171199 C1688.71498,117.945199 1686.09498,116.211199 1684.41098,117.934199 C1681.83798,120.568199 1678.28698,121.358199 1674.82998,120.106199 C1670.10698,118.395199 1669.57198,112.945199 1671.12998,108.826199 C1675.32298,97.7381986 1692.05598,99.4501986 1698.66998,107.065199 C1701.75998,110.623199 1702.01798,115.965199 1702.22298,120.427199 C1702.47198,125.875199 1702.03998,131.276199 1699.57298,136.213199 C1694.80398,145.757199 1682.56098,148.198199 1673.04598,146.451199 C1653.52398,142.866199 1635.52998,122.596199 1644.28898,102.650199 C1648.24998,93.6301986 1656.21298,86.6801986 1664.18198,81.2491986 C1672.29098,75.7231986 1681.48698,73.5761986 1691.06698,73.3821986 C1693.92998,78.6391986 1697.65598,83.4041986 1702.28298,87.3591986 C1710.60398,94.4711986 1722.04798,97.9601986 1732.87698,96.4301986 C1743.19598,94.9731986 1751.80098,88.1091986 1757.37798,79.5911986 C1764.90398,68.0951986 1768.95698,50.0241986 1762.05698,37.3331986 C1754.85398,24.0851986 1735.86398,21.8021986 1722.99498,27.2531986 C1709.00298,33.1791986 1705.77698,50.9911986 1716.06698,61.7881986 C1721.01998,66.9851986 1729.30798,68.7941986 1736.03598,66.7501986 C1742.14398,64.8941986 1746.58198,58.3741986 1744.34698,52.1831986 C1743.10698,48.7471986 1737.86398,50.6811986 1739.03298,54.1381986 C1741.66798,61.9331986 1729.06698,62.0731986 1724.84998,60.3711986 C1718.28898,57.7241986 1715.39198,50.8091986 1716.50298,44.1411986 C1718.62298,31.4271986 1735.10598,30.0801986 1744.99098,32.4191986 C1758.95798,35.7241986 1759.94198,50.7241986 1757.35598,62.4281986 C1754.97298,73.2171986 1748.00098,83.5111986 1737.67998,87.9661986 C1726.31198,92.8711986 1713.36498,88.1511986 1704.73898,80.1921986 C1695.21498,71.4041986 1691.40198,57.6561986 1690.80498,45.1271986 C1690.12198,30.7631986 1697.72198,21.0961986 1709.68998,14.1851986 C1721.49098,7.37119856 1735.85098,5.06519856 1749.00098,8.76419856 C1773.75498,15.7291986 1777.74598,43.6271986 1781.65298,65.2491986 C1782.04498,67.4161986 1784.84098,67.6241986 1785.62998,66.0671986 C1785.97498,66.0031986 1786.31198,65.7971986 1786.58798,65.3841986 C1797.35398,49.3341986 1816.42098,44.3721986 1834.62298,49.1371986 C1853.89498,54.1831986 1867.56898,73.0111986 1862.13898,92.9591986 C1857.43498,110.239199 1827.01598,122.327199 1818.03098,102.367199 C1813.61498,92.5571986 1816.25998,80.0331986 1826.78198,75.6701986 C1831.73198,73.6171986 1837.34498,75.4771986 1840.76598,79.3791986 C1843.84898,82.8951986 1844.28498,92.9511986 1837.25598,91.3731986 C1834.20798,90.6891986 1833.55698,95.1401986 1836.38398,96.0231986 C1840.45398,97.2941986 1843.92698,95.2401986 1846.30798,91.9601986 C1849.13898,88.0611986 1848.90298,83.1001986 1847.02698,78.8821986 C1842.83698,69.4621986 1830.94898,67.0271986 1822.37098,71.3501986 C1812.06898,76.5421986 1808.64498,88.5691986 1810.94698,99.2301986 C1811.22298,100.506199 1811.57598,101.714199 1811.98398,102.871199 C1805.70998,107.337199 1799.41898,110.638199 1791.23498,110.160199 C1786.61298,109.890199 1781.85098,108.136199 1778.92398,104.449199 C1775.12098,99.6591986 1779.08998,95.4971986 1780.52098,90.9191986 C1780.86698,89.8131986 1779.46098,89.2901986 1778.67898,89.7331986 C1774.20898,92.2691986 1771.34198,98.1501986 1772.61298,103.232199 C1774.10798,109.208199 1778.88398,113.494199 1784.76798,115.104199 C1794.52698,117.776199 1807.24498,115.233199 1813.88998,107.073199 C1817.72098,113.748199 1824.31598,117.623199 1832.96298,118.226199 C1843.07998,118.931199 1852.79698,114.732199 1859.99598,107.790199 C1866.33798,101.674199 1869.14998,92.9701986 1869.21398,84.3261986 C1875.14398,81.3691986 1880.89698,78.9311986 1887.68498,78.1541986 C1895.78398,77.2271986 1903.86798,79.0991986 1910.98098,82.9581986 C1919.86398,87.7771986 1923.06898,96.1631986 1925.06398,105.545199 C1927.01698,114.726199 1926.67998,124.657199 1920.64698,132.270199 C1911.83798,143.387199 1887.58498,141.284199 1885.28498,125.583199 C1883.94498,116.436199 1892.25098,107.622199 1900.78598,106.072199 C1905.32398,105.248199 1910.07698,107.439199 1912.16298,111.578199 C1914.57898,116.370199 1910.33698,120.473199 1906.05098,121.667199 C1903.97298,122.247199 1904.36698,125.481199 1906.39698,125.799199 C1915.72098,127.261199 1921.17898,115.203199 1916.44398,107.897199 C1910.25998,98.3521986 1898.43998,98.8941986 1889.82998,104.703199 C1881.30698,110.452199 1877.04098,121.988199 1880.80598,131.647199 C1883.04998,137.406199 1888.11798,141.231199 1893.81598,143.316199 C1906.37898,155.504199 1926.50298,153.537199 1941.84898,147.932199 C1963.35098,140.077199 1981.68398,123.805199 2005.44498,122.998199 C2025.54398,122.315199 2044.37598,133.374199 2062.17998,141.214199 C2070.47798,144.869199 2079.43698,148.594199 2088.47798,149.839199 C2091.02098,150.189199 2093.73098,150.357199 2096.36398,150.136199 C2088.60598,154.930199 2079.51598,157.574199 2070.18998,157.433199 C2058.96498,157.262199 2048.58698,151.369199 2038.72198,146.670199 C2028.03598,141.579199 2016.79798,137.878199 2005.03398,136.367199 C1985.00298,133.793199 1964.38098,139.207199 1949.52098,153.143199 C1941.52798,160.639199 1937.62298,171.168199 1927.19398,175.986199 C1918.16898,180.156199 1907.57298,179.795199 1897.73398,179.721199 C1899.94798,171.552199 1898.93798,162.474199 1892.47098,157.062199 C1883.37098,149.445199 1864.54798,151.351199 1863.12098,164.978199 C1862.54198,170.508199 1865.84298,175.291199 1870.85698,177.319199 C1874.87998,178.947199 1882.30198,178.545199 1884.00598,173.793199 C1884.39898,172.696199 1883.72198,171.085199 1882.30998,171.338199 C1878.52098,172.014199 1876.01898,173.997199 1872.01098,172.306199 C1867.42298,170.371199 1867.59098,164.414199 1870.13298,160.993199 C1873.12198,156.972199 1880.12698,158.060199 1884.31098,158.958199 C1890.09598,160.200199 1893.09598,164.732199 1893.58898,170.340199 C1894.34998,178.996199 1889.27598,189.991199 1880.87998,192.988199 C1871.52798,196.327199 1860.54398,195.235199 1850.64498,195.627199 C1853.11798,188.182199 1852.84698,180.171199 1847.93798,172.427199 C1843.46398,165.369199 1833.36198,160.155199 1825.01698,162.438199 C1817.74698,164.427199 1811.95298,174.222199 1819.30198,179.850199 C1821.52498,181.553199 1824.66698,178.887199 1822.97398,176.493199 C1820.10898,172.442199 1823.40698,168.750199 1827.61198,168.088199 C1831.62198,167.457199 1835.81698,169.407199 1838.94598,171.719199 C1846.02598,176.951199 1846.98298,186.065199 1844.88298,193.999199 C1840.91398,208.993199 1823.59198,218.927199 1810.29998,224.366199 C1782.13198,235.893199 1751.60498,231.425199 1725.32098,217.491199 C1728.02298,211.416199 1728.87298,204.916199 1728.04398,198.762199 C1729.91398,193.330199 1731.53498,187.916199 1734.55998,182.822199 C1739.16998,175.061199 1746.34798,168.882199 1754.44798,165.022199 C1771.37598,156.956199 1793.94298,161.985199 1800.81798,180.777199 C1803.53398,188.199199 1801.66998,196.870199 1797.00798,203.061199 C1791.29398,210.651199 1779.81498,212.908199 1770.87598,211.701199 C1760.52398,210.303199 1754.49598,199.821199 1758.52198,190.250199 C1760.39198,185.805199 1764.52698,182.639199 1769.30898,182.244199 C1773.97998,181.858199 1776.21998,188.552199 1771.47398,189.752199 C1768.90298,190.402199 1770.04398,194.146199 1772.43398,194.086199 C1780.80598,193.873199 1781.18198,182.571199 1775.62498,178.414199 C1767.00098,171.961199 1756.05898,181.203199 1752.72798,188.971199 C1748.49298,198.848199 1753.46098,209.672199 1762.21398,214.946199 C1771.82998,220.740199 1786.32498,217.750199 1795.36298,212.359199 C1803.97098,207.225199 1807.89198,196.605199 1807.77098,187.031199 C1807.63798,176.574199 1800.85198,167.188199 1792.42598,161.586199 C1789.37498,159.557199 1786.17298,158.078199 1782.89398,157.078199 C1792.72498,153.103199 1801.01498,145.413199 1798.43198,133.830199 C1797.28198,128.673199 1792.72798,124.945199 1788.22498,122.754199 C1784.36898,120.877199 1777.66098,119.039199 1773.44298,120.588199 C1763.50498,124.237199 1763.53598,141.607199 1773.72898,144.759199 C1777.42998,145.904199 1784.33598,147.001199 1786.51698,142.491199 C1788.01698,139.390199 1787.34798,135.793199 1783.80098,134.746199 C1782.34798,134.317199 1781.38598,136.500199 1782.55098,137.374199 C1786.04598,139.995199 1780.51298,141.704199 1778.55998,141.552199 C1776.68798,141.406199 1774.69898,140.769199 1773.16298,139.702199 C1769.61298,137.237199 1770.35398,132.377199 1771.84598,129.059199 C1774.65198,122.821199 1782.42198,125.251199 1787.33898,127.501199 C1794.00898,130.554199 1796.41198,137.945199 1793.32698,144.462199 C1790.53298,150.362199 1782.63298,152.179199 1777.78398,155.786199 C1777.73598,155.821199 1777.69798,155.861199 1777.65598,155.899199 C1760.65798,153.343199 1742.54098,162.606199 1732.29598,176.497199 C1729.60198,180.151199 1726.99198,184.608199 1725.29198,189.309199 C1721.46898,181.109199 1714.15898,174.568199 1703.84098,172.187199 C1693.26498,169.748199 1681.98998,173.646199 1674.92698,181.717199 C1668.13498,189.478199 1667.76198,200.690199 1674.21098,208.699199 C1680.04698,215.946199 1691.24498,217.906199 1699.22798,213.097199 C1702.88598,210.894199 1707.30398,206.743199 1706.77198,201.950199 C1706.31698,197.847199 1703.70198,194.255199 1699.32898,194.032199 C1695.74098,193.849199 1694.64198,199.389199 1698.28398,199.598199 C1703.27298,199.883199 1700.20298,205.122199 1698.22298,206.848199 C1696.14298,208.660199 1693.39398,209.471199 1690.72298,209.826199 C1685.26898,210.553199 1680.49298,207.554199 1677.53198,203.216199 C1671.74298,194.732199 1678.43998,184.789199 1685.89198,180.353199 C1694.56998,175.187199 1706.29298,177.395199 1713.77798,183.502199 C1721.39898,189.720199 1723.90598,199.761199 1721.93698,209.093199 C1717.50298,230.099199 1693.42398,239.200199 1674.57498,241.509199 C1664.27998,242.771199 1653.78298,241.387199 1644.63398,236.376199 C1640.79498,234.274199 1637.37098,231.284199 1634.56498,227.948199 C1634.10298,227.398199 1633.67198,226.822199 1633.25698,226.235199 C1632.75498,224.650199 1631.84398,223.074199 1631.29098,221.694199 C1630.68598,220.184199 1630.01098,218.801199 1629.12298,217.529199 C1628.90198,217.094199 1628.65998,216.758199 1628.39598,216.577199 C1628.35098,216.522199 1628.30798,216.466199 1628.26098,216.412199 C1628.98998,216.335199 1629.67798,215.704199 1629.57698,214.996199 C1637.72398,211.616199 1645.13498,208.465199 1650.67098,200.925199 C1655.92198,193.774199 1657.38698,184.937199 1655.18898,176.433199 C1650.64898,158.864199 1629.08398,151.615199 1615.39698,163.760199 C1607.61598,170.665199 1607.74198,180.982199 1609.19698,190.496199 C1610.43198,198.573199 1622.74398,197.321199 1628.17798,194.338199 C1634.30598,190.975199 1640.25098,182.023199 1635.58498,175.113199 C1633.57098,172.130199 1630.66398,170.705199 1627.06998,171.357199 C1623.76098,171.957199 1621.18698,174.626199 1621.77598,178.066199 C1622.11198,180.034199 1625.04098,181.012199 1625.92598,178.826199 C1627.42898,175.117199 1630.96198,176.949199 1631.34198,180.304199 C1631.66498,183.163199 1629.74398,185.989199 1627.71398,187.769199 C1624.19698,190.851199 1619.22798,191.495199 1615.01398,189.828199 C1613.67798,180.516199 1613.61898,171.353199 1622.62398,165.844199 C1630.88098,160.793199 1640.83498,163.981199 1646.40098,171.267199 C1651.95698,178.541199 1651.65298,188.011199 1647.47298,195.787199 C1645.22898,199.961199 1641.56398,203.235199 1637.61298,205.738199 C1633.58998,208.287199 1628.57498,208.962199 1624.82298,211.929199 C1624.51798,211.799199 1624.19198,211.720199 1623.85098,211.726199 C1620.48998,211.784199 1617.21798,212.490199 1613.84298,212.517199 C1610.07498,212.546199 1606.23098,211.599199 1602.73198,210.281199 C1595.87398,207.697199 1590.61098,202.510199 1586.93498,196.294199 C1579.14098,183.116199 1584.25598,167.780199 1590.88098,155.293199 C1594.18498,155.881199 1597.69498,155.770199 1600.76198,155.386199 C1607.54498,154.538199 1613.53598,150.826199 1618.11798,145.905199 C1622.43598,141.268199 1624.91398,134.974199 1625.59698,128.745199 C1626.38498,121.571199 1623.32898,115.754199 1618.29998,110.860199 C1613.92798,106.607199 1607.90398,105.273199 1602.13298,106.848199 C1595.56398,108.640199 1594.10898,114.898199 1594.01798,120.809199 C1593.92398,126.882199 1595.91898,132.976199 1601.52198,135.913199 C1605.87498,138.196199 1611.48198,135.351199 1612.57598,130.805199 C1613.01598,128.980199 1610.33798,128.219199 1609.53598,129.813199 C1605.91998,136.992199 1598.97398,130.643199 1598.32998,125.175199 C1597.84198,121.027199 1599.18898,115.675199 1602.72198,113.253199 C1611.18998,107.449199 1619.92798,119.964199 1620.02998,127.106199 C1620.14598,135.230199 1614.84198,142.856199 1608.28398,147.128199 C1604.69298,149.467199 1600.28798,150.388199 1596.08098,150.661199 C1594.49398,150.764199 1592.95798,150.602199 1591.44098,150.341199 C1591.16498,149.989199 1590.82098,149.702199 1590.40498,149.548199 C1580.63198,145.936199 1575.42098,136.972199 1574.82098,126.857199 C1574.17598,115.989199 1579.91398,105.591199 1587.43298,98.1851986 Z M1601.84698,51.9491986 C1602.89798,39.8121986 1611.43798,30.1211986 1621.97598,24.8571986 C1615.67298,34.0001986 1615.55598,48.7501986 1620.51398,57.6821986 C1624.37698,64.6421986 1630.71798,69.5351986 1638.53398,71.1901986 C1646.49798,72.8761986 1658.33498,69.4821986 1663.15998,62.6821986 C1667.62698,56.3861986 1669.49598,47.4391986 1665.61298,40.4481986 C1661.74298,33.4781986 1653.11798,28.9951986 1645.17098,31.4251986 C1637.61998,33.7351986 1633.31598,41.1741986 1636.64098,48.7131986 C1639.18298,54.4771986 1648.27698,58.4131986 1652.47998,52.3431986 C1653.33798,51.1041986 1652.31298,49.1411986 1650.69198,49.7881986 C1643.83898,52.5231986 1637.09898,44.3201986 1643.29098,38.8641986 C1647.61898,35.0501986 1654.11598,36.7131986 1658.10498,40.0171986 C1662.87398,43.9691986 1662.52698,50.5421986 1660.39098,55.6831986 C1657.62698,62.3351986 1651.60998,64.6501986 1644.82698,65.7701986 C1633.37098,67.6621986 1624.43598,57.9531986 1622.49698,47.5141986 C1620.60598,37.3331986 1624.66298,27.4041986 1632.67198,21.2741986 C1651.85698,17.7801986 1671.87898,28.7141986 1683.63898,43.8041986 C1683.65398,43.8241986 1683.67198,43.8361986 1683.68698,43.8551986 C1683.72498,48.4791986 1684.34498,53.1211986 1685.27398,57.5141986 C1686.02198,61.0551986 1687.07598,64.5221986 1688.43698,67.8491986 C1671.65898,67.0261986 1654.58298,76.9771986 1644.26698,90.5911986 C1635.21798,82.6081986 1623.37798,79.7811986 1611.79298,81.0361986 C1604.40798,73.7761986 1600.97098,62.0701986 1601.84698,51.9491986 Z M1931.02598,125.043199 C1949.40398,129.595199 1963.74298,112.315199 1979.28698,105.347199 C1996.52598,97.6201986 2016.82198,98.0851986 2034.30698,104.706199 C2043.06898,108.024199 2050.81698,113.149199 2057.71298,119.441199 C2065.25698,126.325199 2071.91098,133.942199 2080.66798,139.373199 C2087.97398,143.904199 2097.49998,145.318199 2105.52598,142.825199 C2105.34598,143.008199 2105.16398,143.188199 2104.98098,143.367199 C2098.73598,146.268199 2090.70298,145.014199 2084.40298,143.331199 C2075.28798,140.895199 2066.57598,136.803199 2058.01398,132.907199 C2041.91398,125.582199 2025.75798,117.860199 2007.77598,117.151199 C1986.73698,116.322199 1968.58698,128.746199 1950.57498,137.775199 C1936.94398,144.609199 1921.72798,148.954199 1907.54798,145.052199 C1915.97398,144.161199 1923.39198,139.590199 1927.98898,132.171199 C1929.38298,129.921199 1930.35698,127.524199 1931.02598,125.043199 Z M1584.93498,153.739199 C1577.22198,168.877199 1573.55598,185.413199 1582.75698,200.986199 C1586.94698,208.078199 1593.86398,213.338199 1601.48998,216.215199 C1606.32798,218.039199 1612.35498,219.131199 1617.89598,218.485199 C1620.17198,218.848199 1622.43398,219.043199 1624.10798,220.746199 C1625.07898,223.864199 1627.29198,227.201199 1628.44798,229.023199 C1634.31798,238.276199 1644.44998,243.923199 1654.83898,246.493199 C1667.37898,249.595199 1680.97498,247.413199 1693.08198,243.561199 C1704.55898,239.909199 1715.31998,233.219199 1722.16798,223.156199 C1722.68498,222.395199 1723.15698,221.619199 1723.60898,220.836199 C1753.64598,243.816199 1799.40698,241.150199 1829.94698,220.771199 C1837.88098,215.477199 1845.50098,207.634199 1849.42798,198.770199 C1857.06798,200.473199 1865.10298,200.113199 1872.83698,199.329199 C1879.99698,198.603199 1886.54898,197.238199 1891.48898,191.654199 C1893.36698,189.532199 1894.96898,186.942199 1896.19398,184.117199 C1905.89098,185.135199 1915.64298,185.170199 1925.11598,182.543199 C1935.73398,179.598199 1941.82198,171.896199 1948.07698,163.418199 C1962.86398,143.377199 1988.90698,138.573199 2012.12098,143.345199 C2034.45998,147.937199 2053.32898,165.159199 2076.97298,162.922199 C2095.26098,161.193199 2112.18498,148.949199 2118.79998,131.779199 C2119.86398,129.017199 2115.78098,127.008199 2114.61798,129.782199 C2114.39798,130.253199 2114.16798,130.717199 2113.93298,131.178199 C2110.25898,137.673199 2101.88098,139.310199 2094.85698,138.552199 C2085.79898,137.574199 2078.50998,131.540199 2072.10898,125.539199 C2065.39998,119.249199 2059.27898,112.500199 2051.63298,107.293199 C2044.91398,102.718199 2037.50098,99.4541986 2029.74598,97.0881986 C2013.92398,92.2621986 1996.49798,92.7951986 1980.93898,98.2921986 C1972.58098,101.244199 1965.39198,106.277199 1958.08498,111.162199 C1950.27398,116.382199 1941.61998,121.789199 1932.02798,119.345199 C1932.69898,111.625199 1930.97898,103.481199 1928.86098,96.3641986 C1922.14098,73.7791986 1893.19298,66.9181986 1873.56398,76.4631986 C1871.93698,77.2551986 1870.37698,78.1551986 1868.92198,79.1951986 C1868.88598,78.8851986 1868.85798,78.5721986 1868.81398,78.2631986 C1865.54898,54.9911986 1843.05598,41.9241986 1821.12998,41.8221986 C1807.91598,41.7601986 1791.88698,47.6021986 1785.31198,59.7561986 C1784.08898,48.3291986 1782.26098,36.7481986 1777.71598,26.1801986 C1773.13198,15.5231986 1764.38898,7.68319856 1753.73498,3.36519856 C1732.17398,-5.37580144 1701.76998,3.49219856 1688.98998,23.2411986 C1686.22998,27.5051986 1684.72398,32.2881986 1684.07398,37.2401986 C1667.83798,19.4121986 1641.29498,9.27619856 1618.67598,21.3761986 C1606.91598,27.6681986 1598.40698,38.7511986 1597.23898,52.2591986 C1596.36098,62.3941986 1599.73698,73.8841986 1606.39898,81.9141986 C1597.58698,83.8441986 1589.21498,88.0921986 1582.69098,94.1761986 C1566.13498,109.617199 1562.01198,142.731199 1584.93498,153.739199 L1584.93498,153.739199 Z" id="Fill-10" transform="translate(1843.987578, 123.983892) rotate(-90.000000) translate(-1843.987578, -123.983892) "></path>
                </g>
            </g>
        </g>
    </g>
</svg>
