<?xml version="1.0" encoding="UTF-8"?>
<svg width="476px" height="208px" viewBox="0 0 476 208" version="1.1" xmlns="http://www.w3.org/2000/svg" xmlns:xlink="http://www.w3.org/1999/xlink">
    <!-- Generator: Sketch 61.2 (89653) - https://sketch.com -->
    <title>Path</title>
    <desc>Created with Sketch.</desc>
    <g id="Page-1" stroke="none" stroke-width="1" fill="none" fill-rule="evenodd">
        <g id="Feb071" transform="translate(-637.000000, -526.000000)" fill-rule="nonzero" stroke="#e2ddd7" stroke-width="2">
            <path d="M641.047,548.504 C649.16,569.161 658.905,589.178 671.391,607.286 C683.802,625.382 699.103,641.491 717.191,653.384 C726.173,659.394 735.943,664.116 746.043,667.669 C751.126,669.34 756.257,670.879 761.499,671.838 C764.1,672.425 766.743,672.731 769.37,673.116 C770.682,673.325 772.011,673.363 773.329,673.496 C774.65,673.587 775.967,673.771 777.291,673.763 C798.415,674.807 819.699,668.576 836.322,656.035 L839.337,653.58 C839.833,653.164 840.357,652.78 840.832,652.34 L842.246,651.013 C843.174,650.115 844.169,649.282 845.045,648.336 L847.673,645.503 L848.33,644.796 L848.932,644.044 L850.138,642.543 C850.938,641.54 851.781,640.568 852.468,639.486 L854.645,636.326 C855.306,635.235 855.925,634.119 856.571,633.02 C856.884,632.465 857.227,631.926 857.518,631.36 L858.335,629.636 C858.861,628.479 859.476,627.361 859.936,626.179 L861.285,622.622 L861.625,621.734 C861.723,621.433 861.8,621.125 861.889,620.822 L862.409,618.996 C863.206,616.587 863.578,614.076 864.089,611.602 C864.317,610.359 864.376,609.088 864.536,607.835 C864.678,606.578 864.839,605.325 864.862,604.049 C865.318,593.898 863.488,583.645 859.401,574.456 C855.318,565.28 849.004,557.174 840.976,551.445 C836.97,548.583 832.579,546.267 827.914,544.655 C823.257,542.992 818.356,542.034 813.46,541.703 C808.548,541.348 803.592,541.806 798.764,542.835 C793.932,543.877 789.258,545.646 784.837,547.898 C776.054,552.525 768.444,559.463 763.234,567.888 C761.887,569.969 760.804,572.197 759.756,574.434 C758.809,576.714 757.91,579.021 757.279,581.411 C756.571,583.78 756.139,586.22 755.766,588.667 C755.499,591.123 755.27,593.614 755.335,596.108 C755.397,606.076 758.239,616.052 763.69,624.342 C766.462,628.457 769.788,632.144 773.723,635.243 C777.658,638.322 782.036,640.91 786.727,642.745 C796.069,646.519 806.581,647.35 816.204,644.625 C825.866,641.891 834.685,635.725 840.849,627.589 C842.394,625.554 843.731,623.374 844.935,621.126 C846.058,618.835 847.1,616.524 847.793,614.08 C848.499,611.648 849.064,609.153 849.28,606.608 C849.54,604.071 849.591,601.499 849.36,598.942 C849.299,597.658 849.067,596.391 848.904,595.114 C848.636,593.856 848.442,592.577 848.074,591.339 C847.454,588.832 846.548,586.398 845.489,584.036 C844.458,581.657 843.115,579.42 841.691,577.257 C840.932,576.214 840.215,575.134 839.357,574.166 C838.935,573.677 838.552,573.152 838.101,572.689 L836.76,571.287 C829.473,563.954 819.25,559.44 808.828,559.52 C803.618,559.48 798.435,560.608 793.736,562.739 C789.005,564.85 784.87,568.197 781.576,572.189 L780.425,573.756 L779.85,574.54 L779.346,575.372 L778.335,577.034 L777.477,578.779 L777.045,579.651 L776.696,580.559 L775.992,582.373 L775.454,584.243 L775.184,585.179 C775.103,585.493 775.058,585.816 774.993,586.133 C773.955,591.221 773.97,596.571 775.476,601.524 C775.667,602.143 775.834,602.77 776.041,603.384 L776.771,605.19 L777.138,606.092 L777.585,606.959 L778.474,608.696 C779.844,610.906 781.287,613.101 783.115,614.974 C786.613,618.861 791.098,621.8 795.928,623.668 C800.778,625.539 806.064,626.003 811.19,625.309 L813.093,624.928 L814.044,624.737 L814.973,624.456 L816.829,623.896 L818.624,623.166 C818.921,623.041 819.227,622.933 819.518,622.795 L820.375,622.347 C820.943,622.042 821.528,621.767 822.083,621.443 C823.147,620.721 824.282,620.097 825.247,619.247 C829.325,616.117 832.346,611.777 833.89,606.98 L834.335,605.143 L834.559,604.225 L834.67,603.285 L834.892,601.406 C834.908,600.774 834.889,600.14 834.893,599.508 C834.927,596.979 834.454,594.508 833.602,592.168 C831.909,587.492 828.555,583.429 824.301,580.933 C820.061,578.411 814.949,577.565 810.248,578.717 C809.068,578.982 807.921,579.394 806.812,579.899 C805.706,580.388 804.596,581.019 803.7,581.704 C801.82,583.049 800.29,584.828 799.227,586.897 C797.154,591.075 797.002,596.234 798.618,600.636 C799.426,602.842 800.735,604.81 802.355,606.393 L802.954,606.999 L803.636,607.505 C804.104,607.837 804.486,608.214 805.069,608.495 L806.682,609.407 L807.487,609.863 L808.35,610.217 C812.893,612.225 818.008,613.013 823.203,613.028 C828.411,613.042 833.711,612.31 838.983,611.23 C844.263,610.149 849.522,608.691 854.831,607.154 L862.822,604.821 C865.461,604.056 868.089,603.236 870.716,602.42 C875.964,600.754 881.19,598.996 886.403,597.175 C896.828,593.523 907.198,589.614 917.626,585.719 C928.071,581.839 938.483,577.91 949.274,574.428 C960.046,571 971.055,568.075 982.336,566.061 C993.608,564.069 1005.175,562.907 1016.858,563.464 C1028.518,563.981 1040.287,566.097 1051.438,570.261 C1052.826,570.795 1054.242,571.26 1055.605,571.855 L1059.656,573.742 C1062.357,574.961 1065.052,576.364 1067.61,577.962 C1072.77,581.089 1077.589,584.759 1081.972,588.886 C1090.773,597.103 1097.887,607.092 1102.81,618.12 C1107.734,629.141 1110.412,641.277 1110.256,653.526 C1110.158,659.643 1109.378,665.773 1107.882,671.734 C1106.346,677.691 1104.164,683.413 1101.377,688.873 C1095.741,699.739 1087.682,709.377 1077.788,716.71 C1067.947,724.094 1056.225,729.102 1043.929,731.018 C1037.783,731.974 1031.507,732.106 1025.315,731.52 C1019.117,730.879 1013.058,729.491 1007.222,727.425 C995.595,723.233 984.753,716.259 976.525,706.573 L975,704.749 L973.572,702.842 C972.592,701.592 971.775,700.219 970.884,698.901 C969.255,696.197 967.729,693.434 966.487,690.55 C963.914,684.819 962.169,678.768 961.179,672.609 C960.154,666.452 960.009,660.167 960.58,653.939 C961.167,647.717 962.605,641.543 964.963,635.56 C969.782,623.705 978.195,613.521 988.59,606.471 C989.865,605.551 991.229,604.767 992.557,603.929 C993.933,603.175 995.277,602.359 996.7,601.693 C999.49,600.251 1002.421,599.103 1005.382,598.066 C1011.344,596.1 1017.575,594.862 1023.896,594.645 C1030.208,594.36 1036.585,595.094 1042.723,596.738 C1048.855,598.388 1054.714,601.046 1060.077,604.556 C1065.392,608.09 1070.048,612.482 1073.987,617.413 C1077.905,622.366 1081.027,627.936 1083.272,633.87 C1085.5,639.815 1086.701,646.179 1086.789,652.63 C1086.866,659.078 1085.649,665.433 1083.537,671.415 C1081.431,677.41 1078.188,682.967 1074.166,687.899 C1070.154,692.846 1065.111,697.008 1059.463,700.128 C1053.781,703.317 1047.42,705.072 1041.084,705.683 C1039.498,705.893 1037.902,705.869 1036.311,705.92 C1034.721,705.925 1033.131,705.811 1031.547,705.704 C1028.391,705.342 1025.241,704.847 1022.194,703.9 C1019.121,703.063 1016.175,701.784 1013.306,700.373 C1010.503,698.815 1007.749,697.127 1005.301,695.002 C1002.777,692.982 1000.6,690.543 998.579,687.998 C996.7,685.364 994.965,682.623 993.71,679.678 C992.346,676.778 991.439,673.712 990.701,670.629 L990.272,668.289 L990.067,667.118 L989.945,665.935 L989.711,663.57 C989.673,662.779 989.669,661.984 989.651,661.192 C989.52,654.853 990.847,648.457 993.536,642.607 C996.133,636.727 1000.528,631.563 1005.643,627.757 C1008.258,625.936 1010.978,624.262 1013.907,623.082 C1015.333,622.4 1016.853,621.971 1018.333,621.444 C1019.084,621.215 1019.853,621.042 1020.612,620.842 C1021.373,620.646 1022.132,620.447 1022.913,620.338 L1025.237,619.949 C1026.015,619.842 1026.804,619.802 1027.587,619.729 C1029.149,619.545 1030.737,619.632 1032.31,619.62 C1035.461,619.825 1038.632,620.193 1041.685,621.177 C1047.841,622.913 1053.496,626.548 1057.715,631.274 C1061.942,636.022 1064.881,641.836 1066.093,648.054 C1067.321,654.241 1066.782,660.936 1064.053,666.796 C1062.716,669.723 1060.868,672.416 1058.634,674.682 C1056.402,676.954 1053.883,678.847 1051.06,680.336 C1048.25,681.817 1045.152,682.779 1041.97,683.18 C1038.787,683.587 1035.5,683.295 1032.4,682.405 C1029.293,681.517 1026.428,679.884 1024.005,677.867 C1021.574,675.85 1019.579,673.403 1018.04,670.695 C1016.513,667.986 1015.395,665.001 1015.028,661.838 C1014.647,658.695 1014.955,655.386 1016.146,652.388 C1017.344,649.403 1019.263,646.766 1021.691,644.768 C1022.894,643.763 1024.199,642.893 1025.586,642.207 C1026.963,641.504 1028.406,640.945 1029.891,640.565 C1031.37,640.168 1032.885,639.916 1034.412,639.846 C1035.936,639.765 1037.472,639.82 1038.985,640.086 C1042.007,640.566 1044.97,641.806 1047.373,643.826 C1049.761,645.863 1051.445,648.703 1052.101,651.682 C1052.773,654.663 1052.678,657.681 1052.01,660.568 C1051.295,663.433 1050.002,666.188 1048.006,668.396 C1046.059,670.639 1043.377,672.219 1040.521,672.892 L1040.146,671.439 C1050.675,668.504 1053.18,652.362 1045.262,646.414 C1041.363,643.433 1035.764,643.037 1031.049,644.558 C1029.856,644.925 1028.715,645.437 1027.648,646.052 C1026.569,646.65 1025.583,647.389 1024.694,648.21 C1022.905,649.837 1021.565,651.908 1020.783,654.115 C1019.254,658.563 1020.273,663.686 1022.91,667.799 C1025.499,671.965 1029.583,675.15 1034.091,676.248 C1038.626,677.38 1043.568,676.487 1047.702,674.128 C1049.754,672.948 1051.675,671.388 1053.271,669.634 C1054.879,667.881 1056.141,665.867 1057.032,663.702 C1058.853,659.385 1059.091,654.431 1057.988,649.779 C1056.902,645.11 1054.474,640.746 1051.176,637.313 C1047.852,633.894 1043.719,631.377 1039.119,630.249 C1036.851,629.575 1034.44,629.398 1032.055,629.298 C1030.852,629.362 1029.65,629.305 1028.452,629.499 C1027.854,629.577 1027.252,629.617 1026.657,629.718 L1024.88,630.076 C1024.283,630.17 1023.704,630.349 1023.124,630.52 C1022.546,630.695 1021.958,630.837 1021.387,631.031 C1020.269,631.487 1019.104,631.827 1018.041,632.395 C1015.826,633.351 1013.836,634.703 1011.93,636.096 C1008.257,639.059 1005.301,642.707 1003.531,647.082 C1001.719,651.394 1000.844,656.17 1001.061,660.947 L1001.143,662.735 L1001.369,664.514 L1001.476,665.403 L1001.659,666.28 L1002.02,668.033 C1002.645,670.33 1003.361,672.613 1004.431,674.719 C1005.397,676.88 1006.732,678.814 1008.103,680.679 C1009.597,682.428 1011.162,684.151 1013.032,685.55 C1014.815,687.046 1016.872,688.206 1018.938,689.314 C1021.086,690.283 1023.273,691.199 1025.59,691.756 C1027.871,692.419 1030.252,692.71 1032.616,692.939 C1033.804,692.979 1034.995,693.045 1036.181,693.011 C1037.366,692.931 1038.557,692.944 1039.726,692.745 C1044.426,692.177 1048.968,690.773 1052.955,688.439 C1061.081,683.851 1067.311,675.808 1070.369,666.789 C1071.866,662.273 1072.694,657.523 1072.544,652.845 C1072.388,648.187 1071.444,643.474 1069.686,639.041 C1067.913,634.614 1065.474,630.408 1062.425,626.695 C1059.357,623.003 1055.771,619.745 1051.799,617.16 C1047.829,614.639 1043.421,612.682 1038.801,611.502 C1034.186,610.331 1029.389,609.822 1024.593,610.102 C1014.998,610.569 1005.498,613.96 997.568,619.472 C989.591,624.95 983.352,632.73 979.842,641.505 C979.026,643.74 978.263,645.926 977.765,648.314 C977.451,649.48 977.288,650.684 977.051,651.871 C976.881,653.071 976.7,654.271 976.592,655.481 C976.161,660.318 976.264,665.24 977.081,670.052 C977.861,674.866 979.227,679.585 981.22,683.995 C982.173,686.222 983.358,688.328 984.589,690.386 C985.262,691.365 985.846,692.403 986.589,693.338 L987.65,694.776 L988.798,696.152 C994.953,703.484 1003.384,709.027 1012.627,712.404 C1017.268,714.052 1022.106,715.213 1026.962,715.768 C1031.831,716.27 1036.756,716.223 1041.605,715.519 C1051.295,714.103 1060.684,710.247 1068.684,704.362 C1072.718,701.466 1076.359,698.022 1079.637,694.27 C1082.898,690.498 1085.703,686.331 1088.068,681.931 C1090.373,677.509 1092.241,672.809 1093.543,668.015 C1094.813,663.206 1095.509,658.245 1095.657,653.25 C1095.913,643.253 1093.851,633.14 1089.826,623.816 C1085.808,614.491 1079.881,605.922 1072.516,598.874 C1068.851,595.33 1064.816,592.177 1060.5,589.488 C1058.359,588.113 1056.134,586.908 1053.784,585.807 L1050.306,584.109 C1049.133,583.571 1047.905,583.157 1046.708,582.672 C1037.081,578.896 1026.744,576.827 1016.214,576.183 C1013.579,576.04 1010.926,576.031 1008.28,575.951 C1005.621,576.051 1002.963,576.075 1000.299,576.218 L996.3,576.52 C994.967,576.621 993.632,576.701 992.3,576.888 L988.3,577.37 L986.299,577.616 L984.303,577.939 C973.647,579.578 963.051,582.112 952.562,585.176 C942.095,588.221 931.571,591.811 921.061,595.362 C910.544,598.931 899.988,602.549 889.317,605.928 C883.979,607.613 878.614,609.238 873.214,610.773 C870.508,611.524 867.804,612.279 865.081,612.979 L856.995,615.076 C851.582,616.471 846.075,617.831 840.427,618.817 C834.784,619.799 828.988,620.447 823.073,620.261 C817.182,620.075 811.1,618.993 805.519,616.349 L804.468,615.877 L803.468,615.291 L801.481,614.101 C800.817,613.751 800.171,613.174 799.525,612.677 L798.563,611.902 L797.705,611.017 C795.414,608.668 793.667,605.827 792.629,602.784 C790.573,596.708 790.917,589.894 793.933,584.134 C795.472,581.283 797.716,578.783 800.397,576.966 C801.748,576.013 803.09,575.306 804.538,574.697 C805.245,574.37 805.999,574.139 806.731,573.871 C807.488,573.665 808.23,573.409 809.004,573.266 C812.068,572.569 815.278,572.522 818.363,573.054 C819.907,573.327 821.411,573.763 822.873,574.3 C824.324,574.867 825.72,575.555 827.049,576.35 C832.346,579.571 836.394,584.656 838.403,590.462 C839.413,593.354 839.94,596.446 839.864,599.474 C839.851,600.231 839.856,600.988 839.821,601.743 L839.526,604 L839.368,605.127 L839.089,606.232 C838.898,606.967 838.721,607.707 838.512,608.436 L837.695,610.562 C837.55,610.912 837.436,611.277 837.265,611.615 L836.743,612.625 C836.382,613.29 836.068,613.985 835.663,614.622 L834.399,616.504 C832.608,618.924 830.545,621.161 828.14,622.946 C823.44,626.683 817.712,628.884 811.865,629.834 C805.994,630.633 799.862,630.06 794.33,627.909 C788.804,625.771 783.779,622.399 779.807,618.039 C777.743,615.926 776.087,613.46 774.536,610.953 L773.515,608.985 L773.007,607.999 L772.581,606.974 L771.745,604.916 C771.504,604.216 771.306,603.499 771.087,602.791 C767.725,591.317 770.453,578.536 777.786,569.179 L779.232,567.489 L779.96,566.647 C780.216,566.379 780.487,566.126 780.75,565.865 L782.345,564.312 L784.058,562.891 C785.17,561.902 786.458,561.147 787.667,560.285 C788.297,559.892 788.954,559.545 789.598,559.174 C790.245,558.808 790.886,558.431 791.573,558.145 C796.95,555.593 802.861,554.219 808.771,554.16 C811.734,554.048 814.694,554.377 817.617,554.854 C819.064,555.171 820.528,555.429 821.94,555.888 C822.647,556.108 823.374,556.276 824.065,556.542 L826.15,557.318 C828.89,558.442 831.569,559.755 834.043,561.397 C836.557,562.978 838.878,564.849 841.049,566.875 L842.637,568.44 C843.17,568.959 843.633,569.542 844.134,570.092 C845.151,571.181 846.02,572.39 846.927,573.57 C848.634,575.991 850.232,578.5 851.502,581.187 C852.799,583.854 853.919,586.622 854.726,589.49 C855.187,590.908 855.467,592.375 855.814,593.826 C856.056,595.298 856.358,596.764 856.481,598.257 C856.836,601.228 856.873,604.241 856.658,607.239 C856.481,610.243 855.933,613.223 855.192,616.151 C854.464,619.091 853.326,621.918 852.092,624.654 C850.773,627.358 849.283,629.982 847.552,632.441 C840.634,642.26 830.598,649.908 818.961,653.67 C813.141,655.517 806.956,656.387 800.861,656.151 C794.758,655.93 788.712,654.763 782.993,652.69 C777.247,650.678 771.845,647.733 766.932,644.089 C762.022,640.448 757.661,635.919 754.094,630.906 C747.04,620.784 743.125,608.615 742.826,596.358 C742.692,593.293 742.891,590.227 743.173,587.155 C743.561,584.099 744.054,581.043 744.868,578.062 C745.6,575.058 746.682,572.156 747.833,569.292 C749.089,566.474 750.421,563.679 752.051,561.06 C755.205,555.756 759.147,550.952 763.616,546.729 C768.091,542.507 773.158,538.939 778.569,536.015 C789.428,530.241 801.934,527.414 814.314,528.229 C820.507,528.631 826.611,529.881 832.416,531.989 C838.246,534.048 843.78,536.998 848.791,540.629 C858.839,547.906 866.605,558.015 871.406,569.202 C876.24,580.4 878.264,592.645 877.599,604.688 C877.549,606.195 877.355,607.699 877.171,609.203 C876.967,610.703 876.85,612.217 876.561,613.703 C875.925,616.666 875.399,619.655 874.421,622.528 L873.76,624.7 C873.647,625.061 873.545,625.426 873.422,625.783 L873.006,626.838 L871.331,631.052 C870.757,632.448 870.023,633.771 869.373,635.131 L868.365,637.156 C868.01,637.82 867.603,638.454 867.223,639.103 C866.445,640.391 865.688,641.692 864.886,642.962 L862.282,646.633 C861.447,647.883 860.459,649.008 859.508,650.163 L858.074,651.888 L857.356,652.749 L856.582,653.557 L853.474,656.776 C852.435,657.845 851.283,658.79 850.191,659.8 L848.53,661.289 C847.974,661.781 847.37,662.215 846.792,662.68 L843.282,665.416 C824.071,679.381 799.927,685.654 776.698,683.891 C775.24,683.851 773.8,683.617 772.353,683.474 C770.911,683.288 769.456,683.196 768.027,682.93 C765.166,682.432 762.293,682.004 759.484,681.291 C753.818,680.069 748.308,678.281 742.907,676.28 C732.179,672.079 721.962,666.662 712.683,659.974 C703.395,653.326 694.791,645.754 687.265,637.265 C679.705,628.814 672.913,619.737 666.997,610.161 C661.072,600.589 655.904,590.6 651.382,580.364 C646.848,570.128 643.016,559.623 639.635,549.007 L641.047,548.504 Z" id="Path"></path>
        </g>
    </g>
</svg>
