<?xml version="1.0" encoding="UTF-8"?>
<svg width="425px"  viewBox="0 0 425 228" version="1.1" xmlns="http://www.w3.org/2000/svg" xmlns:xlink="http://www.w3.org/1999/xlink">
    <!-- Generator: Sketch 61.2 (89653) - https://sketch.com -->
    <title>Group 15</title>
    <desc>Created with Sketch.</desc>
    <g id="Page-1" stroke="none" stroke-width="1" fill="none" fill-rule="evenodd">
        <g id="PINSTRIPE" transform="translate(-443.000000, -523.000000)" stroke="#f3f1ef" stroke-width="4">
            <g id="Group-15" transform="translate(444.598000, 525.526792)">
                <path d="M210.926,214.429208 C210.668,210.466208 209.748,206.575208 208.407,202.877208 C207.041,199.185208 205.159,195.697208 202.731,192.651208 C200.276,189.631208 197.275,187.098208 193.921,185.202208 C190.56,183.307208 186.836,182.124208 183.039,181.452208 C179.229,180.791208 175.329,180.719208 171.456,180.914208 C167.569,181.072208 163.727,181.770208 159.881,182.499208 C155.988,183.292208 152.121,184.135208 148.205,184.885208 C144.296,185.651208 140.379,186.380208 136.446,187.033208 C132.526,187.751208 128.562,188.271208 124.615,188.876208 C120.64,189.332208 116.679,189.894208 112.669,190.159208 C108.677,190.553208 104.644,190.620208 100.617,190.714208 L94.558,190.600208 C92.537,190.503208 90.515,190.295208 88.493,190.146208 L86.977,190.019208 L85.467,189.791208 L82.447,189.334208 C80.423,189.095208 78.442,188.572208 76.45,188.115208 C75.457,187.873208 74.453,187.674208 73.469,187.394208 L70.544,186.446208 L67.618,185.493208 C66.662,185.123208 65.729,184.689208 64.783,184.289208 L61.956,183.061208 C61.478,182.871208 61.022,182.636208 60.576,182.379208 L59.225,181.639208 L56.524,180.154208 C56.079,179.898208 55.612,179.676208 55.185,179.392208 L53.91,178.530208 L51.361,176.804208 C50.518,176.220208 49.637,175.683208 48.869,175.004208 L44.115,171.115208 L41.967,169.357208 L44.039,167.449208 C45.123,166.451208 46.075,165.697208 47.126,164.920208 L48.685,163.798208 L50.28,162.754208 C52.418,161.379208 54.634,160.160208 56.893,159.036208 C61.427,156.826208 66.15,155.051208 70.988,153.719208 C72.186,153.344208 73.422,153.127208 74.638,152.825208 C75.863,152.566208 77.07,152.210208 78.309,152.033208 L82.012,151.430208 L83.863,151.131208 L85.727,150.953208 C88.214,150.740208 90.696,150.406208 93.19,150.413208 C95.68,150.368208 98.174,150.205208 100.658,150.380208 L104.386,150.533208 L106.249,150.611208 L108.101,150.811208 C110.545,151.082208 113.091,151.334208 115.451,151.629208 L122.697,152.575208 L129.854,153.273208 C132.245,153.445208 134.645,153.557208 137.04,153.692208 L140.625,153.730208 C141.82,153.747208 143.017,153.769208 144.201,153.692208 L147.764,153.542208 L151.287,153.185208 C152.472,153.101208 153.608,152.846208 154.763,152.654208 C155.337,152.549208 155.92,152.469208 156.488,152.346208 L158.166,151.913208 C158.723,151.763208 159.293,151.639208 159.841,151.469208 L161.451,150.890208 C162.555,150.553208 163.536,150.011208 164.559,149.536208 C166.507,148.455208 168.383,147.231208 169.853,145.579208 C171.346,143.982208 172.626,142.044208 173.638,140.028208 C174.012,139.193208 174.333,138.104208 174.505,137.050208 C174.685,135.980208 174.754,134.874208 174.732,133.760208 C174.579,129.314208 173.047,124.747208 170.176,121.353208 C169.453,120.513208 168.652,119.751208 167.779,119.089208 C166.895,118.444208 165.94,117.910208 164.932,117.497208 C162.889,116.681208 160.714,116.432208 158.386,116.685208 C157.117,116.729208 156.102,116.996208 154.979,117.182208 L153.328,117.654208 C152.768,117.790208 152.266,118.066208 151.73,118.263208 C149.642,119.163208 147.723,120.460208 146.232,122.155208 C144.738,123.842208 143.697,125.926208 143.303,128.156208 C142.901,130.384208 143.136,132.732208 143.915,134.916208 C144.368,135.992208 144.775,137.068208 145.445,138.047208 C146.053,138.973208 146.85,139.849208 147.771,140.504208 C149.61,141.839208 152.04,142.353208 154.318,141.847208 C156.593,141.375208 158.726,140.004208 160.018,137.999208 C161.354,136.014208 161.707,133.437208 161.148,131.067208 C161.844,133.396208 161.66,136.055208 160.382,138.221208 C159.147,140.399208 156.975,142.023208 154.512,142.668208 C152.055,143.343208 149.278,142.922208 147.098,141.494208 C146,140.782208 145.079,139.876208 144.299,138.804208 C143.541,137.802208 143.003,136.610208 142.466,135.468208 C141.489,133.107208 141.116,130.454208 141.471,127.869208 C141.82,125.281208 142.934,122.799208 144.588,120.775208 C146.237,118.740208 148.387,117.161208 150.719,116.044208 C151.314,115.793208 151.885,115.464208 152.504,115.282208 L154.346,114.682208 C155.611,114.412208 156.97,114.074208 158.141,114.003208 C160.64,113.644208 163.458,113.829208 165.973,114.766208 C167.235,115.235208 168.438,115.860208 169.547,116.619208 C170.643,117.393208 171.642,118.288208 172.539,119.267208 C174.318,121.239208 175.686,123.532208 176.636,125.968208 C177.608,128.399208 178.165,130.985208 178.309,133.623208 C178.366,134.945208 178.316,136.280208 178.122,137.617208 C177.919,138.968208 177.611,140.252208 177.012,141.652208 C175.891,144.010208 174.517,146.214208 172.734,148.222208 C170.988,150.258208 168.764,151.807208 166.497,153.120208 C165.329,153.706208 164.174,154.356208 162.951,154.768208 L161.138,155.463208 C160.528,155.667208 159.909,155.820208 159.294,156.000208 L157.445,156.519208 C156.826,156.667208 156.204,156.770208 155.583,156.897208 C154.338,157.123208 153.094,157.412208 151.847,157.520208 L148.106,157.950208 L144.37,158.160208 C143.122,158.256208 141.883,158.251208 140.643,158.251208 L136.92,158.262208 C134.451,158.158208 131.981,158.075208 129.512,157.931208 L122.114,157.309208 L114.856,156.462208 L107.676,155.715208 L105.894,155.530208 L104.107,155.465208 L100.533,155.334208 C98.149,155.173208 95.773,155.346208 93.394,155.398208 C91.009,155.398208 88.655,155.733208 86.289,155.944208 L84.517,156.118208 L82.763,156.412208 L79.256,156.998208 C78.082,157.169208 76.947,157.515208 75.791,157.764208 C74.645,158.056208 73.474,158.262208 72.349,158.622208 C70.09,159.312208 67.816,159.958208 65.628,160.840208 C64.519,161.239208 63.413,161.646208 62.347,162.144208 C61.279,162.635208 60.17,163.047208 59.135,163.600208 C57.028,164.637208 54.966,165.759208 53,167.011208 L51.534,167.960208 L50.123,168.967208 C49.209,169.627208 48.256,170.399208 47.542,171.043208 L47.466,167.378208 L51.913,171.047208 C52.63,171.692208 53.451,172.190208 54.236,172.739208 L56.609,174.362208 L57.795,175.176208 C58.192,175.444208 58.627,175.649208 59.04,175.889208 L61.551,177.282208 L62.806,177.980208 C63.219,178.223208 63.643,178.444208 64.088,178.621208 L66.719,179.774208 C67.598,180.152208 68.465,180.561208 69.354,180.915208 L72.079,181.839208 L74.804,182.767208 C75.723,183.043208 76.668,183.239208 77.599,183.480208 C79.469,183.934208 81.324,184.459208 83.246,184.708208 L86.107,185.181208 L87.537,185.419208 L88.986,185.559208 C90.919,185.725208 92.846,185.953208 94.787,186.073208 L100.631,186.262208 C104.537,186.230208 108.45,186.195208 112.368,185.898208 C116.288,185.729208 120.204,185.262208 124.124,184.902208 C128.035,184.391208 131.956,183.968208 135.862,183.342208 L141.724,182.455208 L147.577,181.486208 C151.48,180.864208 155.395,180.136208 159.304,179.467208 C163.273,178.841208 167.289,178.241208 171.348,178.201208 C175.396,178.109208 179.481,178.348208 183.474,179.208208 C187.454,180.076208 191.355,181.489208 194.837,183.638208 C198.321,185.777208 201.354,188.610208 203.749,191.873208 C206.113,195.163208 207.89,198.828208 209.061,202.656208 C210.204,206.489208 210.897,210.455208 210.926,214.429208" id="Fill-106"></path>
                <path d="M206.938,166.290208 C206.938,166.290208 205.833,168.218208 203.557,171.376208 C202.415,172.950208 200.999,174.849208 199.242,176.925208 C197.491,179.005208 195.437,181.301208 192.999,183.634208 C190.559,185.961208 187.789,188.400208 184.485,190.561208 C182.851,191.662208 181.076,192.686208 179.163,193.592208 C177.254,194.502208 175.184,195.267208 172.948,195.730208 C171.83,195.950208 170.683,196.144208 169.499,196.185208 C169.187,196.198208 168.947,196.231208 168.574,196.225208 L167.781,196.220208 C167.252,196.216208 166.721,196.213208 166.188,196.209208 C165.147,196.227208 163.987,196.131208 162.862,196.075208 C161.72,196.031208 160.61,195.883208 159.488,195.757208 C155.003,195.230208 150.477,194.178208 146.157,192.616208 C141.845,191.035208 137.725,189.038208 133.886,186.882208 C130.027,184.754208 126.395,182.525208 122.825,180.611208 C119.253,178.699208 115.759,177.010208 112.288,175.827208 C108.82,174.653208 105.433,173.822208 102.236,173.358208 C100.636,173.154208 99.094,172.944208 97.615,172.867208 C96.876,172.817208 96.154,172.751208 95.451,172.716208 C94.746,172.701208 94.061,172.686208 93.398,172.671208 C92.067,172.609208 90.824,172.704208 89.666,172.702208 C88.507,172.697208 87.447,172.790208 86.485,172.845208 C84.56,172.943208 83.049,173.102208 82.016,173.198208 C80.98,173.287208 80.427,173.335208 80.427,173.335208 C80.427,173.335208 80.961,173.187208 81.963,172.909208 C82.969,172.651208 84.435,172.196208 86.348,171.835208 C88.251,171.417208 90.589,170.991208 93.308,170.714208 C96.023,170.384208 99.129,170.278208 102.528,170.433208 C105.927,170.590208 109.622,171.131208 113.414,172.175208 C117.214,173.189208 121.084,174.720208 124.887,176.566208 C128.702,178.400208 132.454,180.507208 136.245,182.512208 C140.04,184.513208 143.899,186.363208 147.892,187.801208 C151.872,189.269208 155.998,190.242208 160.132,190.840208 C161.167,190.980208 162.202,191.134208 163.213,191.201208 C164.237,191.286208 165.212,191.413208 166.303,191.434208 C168.552,191.545208 170.226,191.595208 172.105,191.282208 C173.948,191.004208 175.748,190.410208 177.49,189.738208 C179.23,189.054208 180.906,188.238208 182.486,187.321208 C184.076,186.424208 185.571,185.436208 187.003,184.445208 C188.445,183.468208 189.789,182.437208 191.07,181.433208 C196.156,177.350208 200.087,173.481208 202.781,170.725208 C205.472,167.959208 206.938,166.290208 206.938,166.290208" id="Fill-107"></path>
                <path d="M178.759,164.815208 C178.759,164.815208 178.097,165.146208 176.816,165.684208 C175.537,166.227208 173.644,166.995208 171.167,167.794208 C168.693,168.603208 165.638,169.447208 162.063,170.171208 C158.481,170.840208 154.379,171.393208 149.84,171.478208 C145.309,171.495208 140.334,171.061208 135.233,169.641208 C133.975,169.234208 132.665,168.908208 131.398,168.409208 C130.141,167.869208 128.87,167.322208 127.585,166.769208 C125.157,165.595208 122.774,164.326208 120.302,163.063208 C115.389,160.516208 110.294,157.980208 105.117,155.463208 C99.935,152.957208 94.591,150.635208 89.145,148.696208 C83.72,146.713208 78.175,145.123208 72.636,144.247208 C67.104,143.402208 61.583,143.104208 56.34,143.838208 C51.06,144.559208 46.15,146.046208 41.567,147.971208 C37.003,149.899208 32.791,152.139208 28.764,154.084208 C24.758,156.056208 20.854,157.641208 17.197,158.393208 C15.372,158.772208 13.622,158.935208 12.014,158.927208 C10.403,158.915208 8.936,158.724208 7.642,158.464208 C5.041,157.950208 3.163,157.065208 1.893,156.512208 C0.659,155.874208 2.84217094e-14,155.534208 2.84217094e-14,155.534208 C2.84217094e-14,155.534208 0.694,155.784208 1.996,156.254208 C3.317,156.649208 5.268,157.216208 7.791,157.456208 C10.31,157.698208 13.386,157.496208 16.717,156.493208 C20.052,155.479208 23.585,153.668208 27.391,151.485208 C31.193,149.294208 35.3,146.719208 39.998,144.485208 C42.341,143.361208 44.823,142.312208 47.442,141.426208 C50.028,140.532208 52.895,139.839208 55.671,139.379208 C61.388,138.439208 67.432,138.452208 73.378,139.359208 C79.333,140.242208 85.208,141.861208 90.885,143.884208 C96.544,145.964208 102.022,148.416208 107.279,151.023208 C112.547,153.608208 117.564,156.428208 122.417,159.095208 C124.833,160.436208 127.207,161.755208 129.532,163.046208 C130.668,163.603208 131.792,164.155208 132.902,164.700208 C134.03,165.213208 135.214,165.564208 136.346,166.000208 C140.967,167.504208 145.589,168.257208 149.905,168.553208 C154.23,168.743208 158.231,168.576208 161.774,168.243208 C165.305,167.824208 168.39,167.351208 170.906,166.815208 C173.418,166.271208 175.396,165.809208 176.724,165.423208 C178.059,165.057208 178.759,164.815208 178.759,164.815208" id="Fill-108"></path>
                <path d="M54.009,153.668208 C54.009,153.668208 55.092,152.611208 57.109,150.906208 C58.118,150.056208 59.348,149.024208 60.808,147.908208 C62.259,146.779208 63.911,145.519208 65.774,144.232208 C67.626,142.928208 69.657,141.542208 71.867,140.167208 C74.075,138.790208 76.451,137.401208 78.976,136.067208 C81.498,134.731208 84.168,133.441208 86.976,132.296208 C89.78,131.142208 92.727,130.141208 95.809,129.413208 C97.346,129.047208 98.938,128.801208 100.549,128.629208 C101.36,128.561208 102.181,128.516208 103.005,128.516208 C103.77,128.544208 104.533,128.572208 105.293,128.600208 C106.029,128.627208 106.762,128.654208 107.491,128.681208 C108.2,128.698208 108.801,128.629208 109.458,128.614208 L110.421,128.576208 C110.747,128.543208 111.077,128.488208 111.403,128.447208 C112.054,128.346208 112.713,128.297208 113.353,128.181208 C115.914,127.701208 118.327,126.912208 120.559,125.964208 C122.764,124.958208 124.783,123.803208 126.576,122.589208 C128.321,121.317208 129.925,120.098208 131.239,118.879208 C132.57,117.680208 133.687,116.565208 134.591,115.624208 C135.474,114.667208 136.195,113.921208 136.648,113.383208 C137.12,112.855208 137.372,112.574208 137.372,112.574208 C137.372,112.574208 137.205,112.913208 136.892,113.548208 C136.572,114.181208 136.092,115.106208 135.401,116.241208 C134.704,117.371208 133.843,118.751208 132.676,120.210208 C131.554,121.710208 130.121,123.281208 128.419,124.880208 C126.692,126.451208 124.668,128.025208 122.309,129.399208 C119.925,130.718208 117.244,131.871208 114.322,132.618208 C113.593,132.800208 112.845,132.928208 112.094,133.074208 C111.716,133.142208 111.343,133.221208 110.957,133.278208 L109.768,133.392208 C108.984,133.455208 108.138,133.561208 107.388,133.579208 C106.658,133.575208 105.924,133.570208 105.188,133.565208 C104.475,133.560208 103.759,133.555208 103.041,133.550208 C102.386,133.577208 101.717,133.620208 101.046,133.681208 C99.696,133.841208 98.327,134.063208 96.955,134.402208 C94.204,135.022208 91.462,135.931208 88.779,136.916208 C86.1,137.917208 83.481,139.014208 80.96,140.136208 C78.443,141.264208 76.017,142.402208 73.73,143.524208 C71.445,144.649208 69.278,145.719208 67.288,146.736208 C59.321,150.895208 54.009,153.668208 54.009,153.668208" id="Fill-109"></path>
                <path d="M170.541,159.832208 C170.541,159.832208 170.877,159.536208 171.473,158.953208 C172.081,158.385208 172.914,157.487208 173.956,156.353208 C174.977,155.196208 176.162,153.751208 177.411,152.034208 C178.619,150.290208 179.939,148.300208 181.071,145.993208 C182.192,143.689208 183.26,141.129208 183.903,138.323208 C184.536,135.514208 184.953,132.547208 184.692,129.402208 C184.661,129.003208 184.691,128.530208 184.609,128.187208 L184.423,127.100208 C184.302,126.374208 184.235,125.651208 183.982,124.886208 C183.755,124.136208 183.607,123.361208 183.322,122.619208 C183.037,121.878208 182.75,121.132208 182.462,120.384208 C181.128,117.455208 179.33,114.655208 177.191,112.092208 C175.081,109.503208 172.618,107.162208 170.013,105.065208 C167.403,102.972208 164.671,101.087208 161.906,99.4502083 C161.205,99.0572083 160.51,98.6682083 159.822,98.2822083 C159.13,97.9022083 158.424,97.5702083 157.741,97.2042083 C156.32,96.4632083 154.919,95.8172083 153.527,95.0692083 C150.751,93.6422083 148.226,92.1402083 145.965,90.5992083 C143.695,89.0842083 141.739,87.4712083 140.158,85.8782083 C138.563,84.3002083 137.399,82.6832083 136.644,81.2592083 C135.844,79.8492083 135.607,78.5752083 135.425,77.7602083 C135.354,76.9192083 135.317,76.4702083 135.317,76.4702083 C135.317,76.4702083 135.453,76.8922083 135.709,77.6832083 C136.045,78.4402083 136.542,79.5362083 137.5,80.7062083 C138.432,81.8892083 139.767,83.1432083 141.443,84.3992083 C143.13,85.6452083 145.172,86.8702083 147.478,88.0792083 C149.789,89.2722083 152.39,90.4342083 155.137,91.6022083 C156.49,92.1912083 157.99,92.7382083 159.471,93.3572083 C161.021,93.9572083 162.538,94.7112083 164.089,95.4682083 C167.148,97.0582083 170.193,98.9442083 173.085,101.163208 C175.997,103.355208 178.727,105.927208 181.129,108.823208 C183.514,111.726208 185.58,114.958208 187.028,118.451208 C187.344,119.343208 187.659,120.231208 187.972,121.115208 C188.266,122.005208 188.419,122.939208 188.642,123.839208 C188.886,124.720208 188.965,125.701208 189.069,126.649208 C189.116,127.124208 189.163,127.597208 189.209,128.068208 C189.269,128.554208 189.212,128.924208 189.219,129.355208 C189.327,132.877208 188.534,136.334208 187.561,139.383208 C186.605,142.479208 185.098,145.145208 183.602,147.462208 C182.125,149.807208 180.421,151.683208 178.902,153.289208 C177.367,154.888208 175.88,156.115208 174.646,157.094208 C172.146,159.022208 170.541,159.832208 170.541,159.832208" id="Fill-110"></path>
                <path d="M194.316,137.231208 C194.316,137.231208 194.23,135.969208 193.984,133.804208 C193.864,132.723208 193.685,131.415208 193.463,129.931208 C193.363,129.187208 193.219,128.402208 193.058,127.578208 C192.913,126.752208 192.758,125.889208 192.555,124.997208 C192.382,124.100208 192.155,123.178208 191.892,122.234208 C191.77,121.762208 191.647,121.281208 191.521,120.793208 C191.373,120.313208 191.223,119.826208 191.071,119.332208 C190.911,118.842208 190.781,118.336208 190.609,117.839208 C190.427,117.346208 190.243,116.847208 190.057,116.343208 C189.713,115.325208 189.271,114.331208 188.818,113.326208 C187.929,111.308208 186.812,109.347208 185.545,107.477208 C185.259,106.985208 184.898,106.551208 184.534,106.119208 L183.469,104.797208 C183.144,104.327208 182.691,103.980208 182.302,103.571208 L181.096,102.380208 C180.183,101.504208 179.269,100.629208 178.359,99.7572083 C177.457,98.7992083 176.559,97.7832083 175.71,96.7932083 C174.101,94.7832083 172.647,92.7052083 171.448,90.5792083 C170.857,89.5102083 170.253,88.4762083 169.789,87.3972083 C169.544,86.8672083 169.301,86.3422083 169.061,85.8232083 C168.852,85.2922083 168.645,84.7672083 168.441,84.2492083 C167.621,82.1842083 167.071,80.1522083 166.623,78.2802083 C166.412,77.3402083 166.235,76.4332083 166.081,75.5722083 C165.975,74.6972083 165.853,73.8782083 165.783,73.1012083 C165.632,71.5482083 165.618,70.1872083 165.663,69.0702083 C165.688,67.9552083 165.837,67.0812083 165.929,66.4962083 C166.065,65.9182083 166.138,65.6102083 166.138,65.6102083 C166.138,65.6102083 166.168,65.9222083 166.224,66.5072083 C166.295,67.0882083 166.446,67.9282083 166.677,68.9812083 C166.906,70.0342083 167.276,71.2922083 167.703,72.7162083 C168.159,74.1362083 168.748,75.7062083 169.425,77.3912083 C170.146,79.0612083 170.964,80.8442083 171.951,82.6562083 C172.195,83.1092083 172.441,83.5692083 172.691,84.0352083 C172.963,84.4862083 173.239,84.9432083 173.518,85.4052083 C174.058,86.3382083 174.671,87.2502083 175.298,88.1722083 C175.894,89.1132083 176.626,89.9822083 177.291,90.9102083 C177.984,91.8192083 178.769,92.6702083 179.494,93.5772083 C180.272,94.4012083 181.056,95.2322083 181.843,96.0652083 L183.887,97.9712083 L184.229,98.2892083 L184.314,98.3692083 C184.291,98.3482083 184.396,98.4442083 184.267,98.3272083 L184.29,98.3492083 L184.335,98.3942083 L184.516,98.5732083 L185.953,100.017208 C186.415,100.511208 186.942,100.951208 187.328,101.504208 L188.553,103.101208 C188.962,103.631208 189.364,104.162208 189.68,104.741208 C190.336,105.881208 191.088,106.967208 191.567,108.155208 C192.095,109.321208 192.664,110.453208 193.018,111.636208 C193.422,112.800208 193.833,113.937208 194.079,115.089208 C194.373,116.229208 194.65,117.341208 194.805,118.443208 C195.001,119.538208 195.175,120.601208 195.249,121.640208 C195.359,122.675208 195.434,123.673208 195.458,124.633208 C195.575,126.546208 195.508,128.302208 195.41,129.846208 C195.34,131.390208 195.152,132.729208 194.997,133.824208 C194.85,134.920208 194.652,135.771208 194.534,136.350208 C194.405,136.929208 194.316,137.231208 194.316,137.231208" id="Fill-111"></path>
                <path d="M205.471,180.086208 C205.471,180.086208 205.185,180.613208 204.581,181.562208 C203.964,182.501208 203.07,183.896208 201.778,185.560208 C200.488,187.226208 198.864,189.217208 196.796,191.331208 C194.727,193.439208 192.237,195.703208 189.209,197.812208 C186.167,199.929208 182.707,201.939208 178.441,203.263208 C177.947,203.403208 177.451,203.544208 176.951,203.686208 L176.198,203.900208 L175.358,204.053208 C174.791,204.152208 174.221,204.251208 173.648,204.351208 C173.072,204.454208 172.491,204.553208 171.938,204.584208 C170.819,204.668208 169.674,204.815208 168.534,204.830208 C167.397,204.835208 166.241,204.867208 165.085,204.849208 C160.461,204.754208 155.785,204.175208 151.098,203.493208 C146.409,202.816208 141.713,201.978208 137.042,201.284208 C132.378,200.567208 127.729,199.982208 123.217,199.840208 C122.121,199.842208 121.03,199.844208 119.944,199.847208 L118.215,199.958208 C117.725,200.030208 117.243,200.068208 116.744,200.156208 C114.727,200.509208 112.827,201.142208 111.249,202.135208 C108.056,204.073208 106.328,207.610208 106.411,211.159208 C106.473,214.686208 108.107,218.050208 110.702,219.588208 C113.283,221.166208 116.552,221.103208 119.062,220.228208 C121.609,219.336208 123.552,217.750208 124.634,216.104208 C125.734,214.447208 125.951,212.794208 125.89,211.707208 C125.855,211.160208 125.797,210.734208 125.725,210.455208 C125.663,210.172208 125.631,210.026208 125.631,210.026208 C125.631,210.026208 125.688,210.164208 125.799,210.432208 C125.919,210.699208 126.061,211.111208 126.182,211.670208 C126.408,212.764208 126.515,214.592208 125.522,216.603208 C124.566,218.591208 122.652,220.699208 119.807,222.040208 C118.388,222.702208 116.748,223.189208 114.935,223.301208 C113.12,223.399208 111.164,223.092208 109.269,222.155208 C107.415,221.281208 105.753,219.663208 104.622,217.792208 C103.472,215.901208 102.787,213.689208 102.594,211.356208 C102.421,209.030208 102.739,206.534208 103.793,204.219208 C104.801,201.886208 106.591,199.831208 108.737,198.352208 C110.884,196.849208 113.373,195.968208 115.863,195.449208 C116.495,195.318208 117.163,195.234208 117.817,195.131208 L119.56,194.963208 C120.802,194.934208 122.049,194.904208 123.302,194.874208 C128.191,194.910208 133.037,195.520208 137.806,196.223208 C142.572,196.961208 147.271,197.816208 151.865,198.594208 C156.458,199.350208 160.958,200.053208 165.281,200.326208 C166.36,200.391208 167.424,200.406208 168.483,200.450208 C169.541,200.477208 170.567,200.403208 171.598,200.396208 C172.123,200.402208 172.602,200.345208 173.079,200.289208 C173.56,200.240208 174.038,200.190208 174.513,200.141208 L175.229,200.067208 L175.994,199.901208 C176.502,199.790208 177.006,199.680208 177.507,199.571208 L178.257,199.408208 L178.841,199.216208 C179.297,199.066208 179.75,198.918208 180.199,198.771208 C181.112,198.514208 181.952,198.083208 182.817,197.757208 C183.686,197.438208 184.491,197.002208 185.299,196.609208 C186.115,196.231208 186.882,195.790208 187.631,195.348208 C190.628,193.590208 193.253,191.704208 195.479,189.894208 C197.682,188.057208 199.54,186.354208 201.016,184.892208 C203.96,181.955208 205.471,180.086208 205.471,180.086208" id="Fill-112"></path>
                <path d="M89.38,197.404208 C86.514,197.325208 83.66,197.021208 80.832,196.584208 C79.414,196.377208 77.999,196.143208 76.599,195.846208 C75.193,195.566208 73.79,195.266208 72.392,194.937208 C70.998,194.594208 69.606,194.234208 68.225,193.834208 C66.846,193.426208 65.464,193.015208 64.102,192.543208 C62.738,192.075208 61.372,191.605208 60.031,191.060208 C58.683,190.537208 57.346,189.975208 56.023,189.378208 C54.71,188.755208 53.38,188.166208 52.1,187.462208 C50.802,186.798208 49.54,186.052208 48.273,185.318208 C47.035,184.524208 45.792,183.744208 44.597,182.871208 C43.986,182.458208 43.401,182.006208 42.825,181.536208 C42.252,181.064208 41.651,180.635208 41.102,180.126208 L39.441,178.630208 L37.868,177.024208 C36.855,175.915208 35.872,174.773208 35.009,173.524208 L34.349,172.603208 C34.139,172.288208 33.955,171.952208 33.758,171.627208 C33.383,170.965208 32.956,170.342208 32.65,169.637208 C32.33,168.944208 31.981,168.270208 31.714,167.556208 L30.569,164.276208 L31.359,163.602208 C32.445,162.675208 33.515,161.816208 34.624,160.965208 C35.723,160.110208 36.871,159.314208 38.045,158.556208 C38.639,158.183208 39.222,157.803208 39.836,157.457208 C40.444,157.109208 41.079,156.796208 41.712,156.491208 C42.031,156.341208 42.366,156.213208 42.688,156.075208 C43.004,155.926208 43.364,155.846208 43.699,155.740208 C44.028,155.622208 44.397,155.584208 44.742,155.525208 C45.081,155.438208 45.461,155.533208 45.791,155.534208 C45.449,155.642208 45.122,155.661208 44.82,155.831208 C44.516,155.981208 44.215,156.097208 43.937,156.298208 C43.656,156.486208 43.373,156.644208 43.106,156.855208 C42.838,157.058208 42.566,157.245208 42.306,157.457208 C41.267,158.304208 40.288,159.229208 39.315,160.153208 C38.352,161.093208 37.432,162.082208 36.496,163.046208 C35.573,164.019208 34.656,165.031208 33.805,166.028208 L34.202,164.230208 L35.092,165.991208 C35.39,166.574208 35.786,167.111208 36.113,167.676208 C36.426,168.249208 36.867,168.755208 37.245,169.290208 C37.618,169.828208 38.047,170.331208 38.482,170.830208 C39.305,171.858208 40.28,172.773208 41.217,173.710208 L42.697,175.057208 L44.255,176.330208 C44.758,176.770208 45.329,177.143208 45.861,177.554208 C46.394,177.966208 46.952,178.347208 47.515,178.726208 C48.615,179.514208 49.78,180.223208 50.933,180.946208 C52.112,181.637208 53.276,182.352208 54.494,182.990208 C55.692,183.656208 56.92,184.283208 58.147,184.910208 C59.391,185.507208 60.623,186.133208 61.887,186.703208 C63.144,187.285208 64.413,187.852208 65.689,188.406208 C66.968,188.952208 68.25,189.502208 69.543,190.029208 C70.841,190.543208 72.132,191.086208 73.444,191.579208 C74.746,192.100208 76.055,192.612208 77.376,193.095208 L81.345,194.557208 L89.38,197.404208" id="Fill-113"></path>
                <path d="M210.926,214.429208 C210.954,210.455208 211.647,206.489208 212.791,202.656208 C213.962,198.828208 215.738,195.163208 218.103,191.873208 C220.497,188.610208 223.53,185.777208 227.014,183.638208 C230.497,181.489208 234.397,180.076208 238.377,179.208208 C242.37,178.348208 246.455,178.109208 250.504,178.201208 C254.563,178.241208 258.579,178.841208 262.547,179.467208 C266.456,180.136208 270.371,180.864208 274.275,181.486208 L280.127,182.455208 L285.99,183.342208 C289.895,183.968208 293.816,184.391208 297.728,184.902208 C301.648,185.262208 305.564,185.729208 309.483,185.898208 C313.402,186.195208 317.314,186.230208 321.221,186.262208 L327.064,186.073208 C329.005,185.953208 330.932,185.725208 332.866,185.559208 L334.314,185.419208 L335.745,185.181208 L338.605,184.708208 C340.527,184.459208 342.382,183.934208 344.252,183.480208 C345.183,183.239208 346.128,183.043208 347.048,182.767208 L349.773,181.839208 L352.497,180.915208 C353.386,180.561208 354.253,180.152208 355.133,179.774208 L357.763,178.621208 C358.209,178.444208 358.633,178.223208 359.046,177.980208 L360.301,177.282208 L362.811,175.889208 C363.225,175.649208 363.659,175.444208 364.056,175.176208 L365.242,174.362208 L367.615,172.739208 C368.4,172.190208 369.221,171.692208 369.939,171.047208 L374.385,167.378208 L374.309,171.043208 C373.595,170.399208 372.643,169.627208 371.728,168.967208 L370.317,167.960208 L368.852,167.011208 C366.886,165.759208 364.823,164.637208 362.716,163.600208 C361.682,163.047208 360.572,162.635208 359.505,162.144208 C358.439,161.646208 357.332,161.239208 356.223,160.840208 C354.036,159.958208 351.761,159.312208 349.502,158.622208 C348.377,158.262208 347.206,158.056208 346.061,157.764208 C344.904,157.515208 343.77,157.169208 342.595,156.998208 L339.088,156.412208 L337.334,156.118208 L335.562,155.944208 C333.197,155.733208 330.842,155.398208 328.457,155.398208 C326.079,155.346208 323.702,155.173208 321.318,155.334208 L317.744,155.465208 L315.957,155.530208 L314.175,155.715208 L306.995,156.462208 L299.737,157.309208 L292.339,157.931208 C289.87,158.075208 287.401,158.158208 284.931,158.262208 L281.209,158.251208 C279.969,158.251208 278.729,158.256208 277.481,158.160208 L273.746,157.950208 L270.004,157.520208 C268.757,157.412208 267.513,157.123208 266.269,156.897208 C265.648,156.770208 265.025,156.667208 264.406,156.519208 L262.557,156.000208 C261.943,155.820208 261.324,155.667208 260.714,155.463208 L258.9,154.768208 C257.677,154.356208 256.523,153.706208 255.354,153.120208 C253.087,151.807208 250.863,150.258208 249.118,148.222208 C247.334,146.214208 245.96,144.010208 244.84,141.652208 C244.241,140.252208 243.932,138.968208 243.729,137.617208 C243.535,136.280208 243.485,134.945208 243.543,133.623208 C243.687,130.985208 244.244,128.399208 245.215,125.968208 C246.165,123.532208 247.534,121.239208 249.312,119.267208 C250.209,118.288208 251.209,117.393208 252.304,116.619208 C253.413,115.860208 254.616,115.235208 255.878,114.766208 C258.393,113.829208 261.211,113.644208 263.71,114.003208 C264.881,114.074208 266.24,114.412208 267.505,114.682208 L269.347,115.282208 C269.966,115.464208 270.537,115.793208 271.132,116.044208 C273.464,117.161208 275.614,118.740208 277.264,120.775208 C278.917,122.799208 280.031,125.281208 280.381,127.869208 C280.736,130.454208 280.363,133.107208 279.385,135.468208 C278.848,136.610208 278.311,137.802208 277.553,138.804208 C276.772,139.876208 275.851,140.782208 274.753,141.494208 C272.574,142.922208 269.796,143.343208 267.339,142.668208 C264.877,142.023208 262.704,140.399208 261.47,138.221208 C260.192,136.055208 260.008,133.396208 260.704,131.067208 C260.144,133.437208 260.498,136.014208 261.833,137.999208 C263.126,140.004208 265.258,141.375208 267.533,141.847208 C269.811,142.353208 272.241,141.839208 274.08,140.504208 C275.001,139.849208 275.799,138.973208 276.407,138.047208 C277.077,137.068208 277.484,135.992208 277.936,134.916208 C278.715,132.732208 278.95,130.384208 278.549,128.156208 C278.154,125.926208 277.114,123.842208 275.62,122.155208 C274.129,120.460208 272.209,119.163208 270.121,118.263208 C269.585,118.066208 269.084,117.790208 268.523,117.654208 L266.873,117.182208 C265.749,116.996208 264.734,116.729208 263.465,116.685208 C261.138,116.432208 258.962,116.681208 256.92,117.497208 C255.912,117.910208 254.956,118.444208 254.072,119.089208 C253.199,119.751208 252.398,120.513208 251.676,121.353208 C248.804,124.747208 247.272,129.314208 247.12,133.760208 C247.097,134.874208 247.167,135.980208 247.347,137.050208 C247.518,138.104208 247.84,139.193208 248.214,140.028208 C249.225,142.044208 250.505,143.982208 251.998,145.579208 C253.469,147.231208 255.344,148.455208 257.293,149.536208 C258.316,150.011208 259.296,150.553208 260.4,150.890208 L262.01,151.469208 C262.558,151.639208 263.128,151.763208 263.685,151.913208 L265.364,152.346208 C265.931,152.469208 266.515,152.549208 267.089,152.654208 C268.244,152.846208 269.38,153.101208 270.565,153.185208 L274.087,153.542208 L277.65,153.692208 C278.834,153.769208 280.031,153.747208 281.227,153.730208 L284.811,153.692208 C287.207,153.557208 289.607,153.445208 291.998,153.273208 L299.155,152.575208 L306.401,151.629208 C308.76,151.334208 311.306,151.082208 313.751,150.811208 L315.602,150.611208 L317.466,150.533208 L321.194,150.380208 C323.677,150.205208 326.171,150.368208 328.662,150.413208 C331.156,150.406208 333.637,150.740208 336.124,150.953208 L337.988,151.131208 L339.84,151.430208 L343.543,152.033208 C344.781,152.210208 345.989,152.566208 347.213,152.825208 C348.429,153.127208 349.665,153.344208 350.864,153.719208 C355.702,155.051208 360.425,156.826208 364.958,159.036208 C367.218,160.160208 369.433,161.379208 371.571,162.754208 L373.167,163.798208 L374.725,164.920208 C375.776,165.697208 376.728,166.451208 377.812,167.449208 L379.885,169.357208 L372.982,175.004208 C372.214,175.683208 371.333,176.220208 370.49,176.804208 L367.941,178.530208 L366.666,179.392208 C366.239,179.676208 365.773,179.898208 365.328,180.154208 L362.626,181.639208 L361.275,182.379208 C360.83,182.636208 360.373,182.871208 359.895,183.061208 L357.068,184.289208 C356.123,184.689208 355.19,185.123208 354.233,185.493208 L351.308,186.446208 L348.382,187.394208 C347.399,187.674208 346.394,187.873208 345.401,188.115208 C343.409,188.572208 341.428,189.095208 339.404,189.334208 L336.384,189.791208 L334.874,190.019208 L333.358,190.146208 C331.336,190.295208 329.314,190.503208 327.294,190.600208 L321.234,190.714208 C317.207,190.620208 313.174,190.553208 309.182,190.159208 C305.173,189.894208 301.212,189.332208 297.236,188.876208 C293.289,188.271208 289.325,187.751208 285.406,187.033208 C281.473,186.380208 277.555,185.651208 273.646,184.885208 C269.731,184.135208 265.864,183.292208 261.97,182.499208 C258.125,181.770208 254.282,181.072208 250.395,180.914208 C246.522,180.719208 242.623,180.791208 238.813,181.452208 C235.016,182.124208 231.292,183.307208 227.93,185.202208 C224.576,187.098208 221.575,189.631208 219.12,192.651208 C216.692,195.697208 214.81,199.185208 213.444,202.877208 C212.104,206.575208 211.184,210.466208 210.926,214.429208" id="Fill-114"></path>
                <path d="M214.913,166.290208 C214.913,166.290208 216.379,167.959208 219.07,170.725208 C221.765,173.481208 225.695,177.350208 230.781,181.433208 C232.063,182.437208 233.407,183.468208 234.849,184.445208 C236.281,185.436208 237.776,186.424208 239.366,187.321208 C240.945,188.238208 242.621,189.054208 244.362,189.738208 C246.103,190.410208 247.903,191.004208 249.746,191.282208 C251.625,191.595208 253.3,191.545208 255.548,191.434208 C256.639,191.413208 257.614,191.286208 258.638,191.201208 C259.649,191.134208 260.685,190.980208 261.72,190.840208 C265.853,190.242208 269.979,189.269208 273.959,187.801208 C277.952,186.363208 281.811,184.513208 285.606,182.512208 C289.398,180.507208 293.149,178.400208 296.964,176.566208 C300.767,174.720208 304.637,173.189208 308.438,172.175208 C312.229,171.131208 315.925,170.590208 319.323,170.433208 C322.722,170.278208 325.828,170.384208 328.543,170.714208 C331.262,170.991208 333.6,171.417208 335.503,171.835208 C337.417,172.196208 338.883,172.651208 339.889,172.909208 C340.89,173.187208 341.424,173.335208 341.424,173.335208 C341.424,173.335208 340.872,173.287208 339.835,173.198208 C338.802,173.102208 337.292,172.943208 335.366,172.845208 C334.405,172.790208 333.345,172.697208 332.186,172.702208 C331.028,172.704208 329.784,172.609208 328.454,172.671208 C327.79,172.686208 327.105,172.701208 326.401,172.716208 C325.697,172.751208 324.976,172.817208 324.237,172.867208 C322.757,172.944208 321.216,173.154208 319.616,173.358208 C316.418,173.822208 313.032,174.653208 309.563,175.827208 C306.092,177.010208 302.598,178.699208 299.027,180.611208 C295.456,182.525208 291.824,184.754208 287.966,186.882208 C284.127,189.038208 280.006,191.035208 275.695,192.616208 C271.374,194.178208 266.848,195.230208 262.364,195.757208 C261.241,195.883208 260.132,196.031208 258.99,196.075208 C257.864,196.131208 256.704,196.227208 255.663,196.209208 C255.131,196.213208 254.599,196.216208 254.07,196.220208 L253.277,196.225208 C252.904,196.231208 252.664,196.198208 252.353,196.185208 C251.168,196.144208 250.021,195.950208 248.903,195.730208 C246.667,195.267208 244.597,194.502208 242.688,193.592208 C240.776,192.686208 239.001,191.662208 237.366,190.561208 C234.062,188.400208 231.292,185.961208 228.853,183.634208 C226.414,181.301208 224.361,179.005208 222.61,176.925208 C220.852,174.849208 219.437,172.950208 218.294,171.376208 C216.018,168.218208 214.913,166.290208 214.913,166.290208" id="Fill-115"></path>
                <path d="M243.092,164.815208 C243.092,164.815208 243.792,165.057208 245.127,165.423208 C246.455,165.809208 248.434,166.271208 250.945,166.815208 C253.461,167.351208 256.546,167.824208 260.077,168.243208 C263.621,168.576208 267.622,168.743208 271.946,168.553208 C276.262,168.257208 280.884,167.504208 285.505,166.000208 C286.638,165.564208 287.822,165.213208 288.949,164.700208 C290.06,164.155208 291.184,163.603208 292.32,163.046208 C294.644,161.755208 297.019,160.436208 299.434,159.095208 C304.287,156.428208 309.304,153.608208 314.573,151.023208 C319.829,148.416208 325.307,145.964208 330.967,143.884208 C336.643,141.861208 342.519,140.242208 348.474,139.359208 C354.419,138.452208 360.463,138.439208 366.181,139.379208 C368.956,139.839208 371.824,140.532208 374.41,141.426208 C377.028,142.312208 379.51,143.361208 381.853,144.485208 C386.552,146.719208 390.658,149.294208 394.461,151.485208 C398.266,153.668208 401.8,155.479208 405.134,156.493208 C408.466,157.496208 411.542,157.698208 414.061,157.456208 C416.583,157.216208 418.535,156.649208 419.855,156.254208 C421.157,155.784208 421.851,155.534208 421.851,155.534208 C421.851,155.534208 421.193,155.874208 419.958,156.512208 C418.688,157.065208 416.81,157.950208 414.21,158.464208 C412.915,158.724208 411.449,158.915208 409.838,158.927208 C408.23,158.935208 406.479,158.772208 404.655,158.393208 C400.998,157.641208 397.093,156.056208 393.087,154.084208 C389.061,152.139208 384.849,149.899208 380.285,147.971208 C375.701,146.046208 370.791,144.559208 365.512,143.838208 C360.268,143.104208 354.748,143.402208 349.215,144.247208 C343.676,145.123208 338.131,146.713208 332.706,148.696208 C327.261,150.635208 321.917,152.957208 316.735,155.463208 C311.558,157.980208 306.463,160.516208 301.55,163.063208 C299.077,164.326208 296.695,165.595208 294.267,166.769208 C292.981,167.322208 291.71,167.869208 290.454,168.409208 C289.186,168.908208 287.876,169.234208 286.619,169.641208 C281.517,171.061208 276.542,171.495208 272.011,171.478208 C267.473,171.393208 263.37,170.840208 259.788,170.171208 C256.214,169.447208 253.159,168.603208 250.685,167.794208 C248.208,166.995208 246.314,166.227208 245.036,165.684208 C243.754,165.146208 243.092,164.815208 243.092,164.815208" id="Fill-116"></path>
                <path d="M367.842,153.668208 C367.842,153.668208 362.53,150.895208 354.563,146.736208 C352.573,145.719208 350.406,144.649208 348.121,143.524208 C345.834,142.402208 343.409,141.264208 340.891,140.136208 C338.371,139.014208 335.751,137.917208 333.072,136.916208 C330.39,135.931208 327.647,135.022208 324.897,134.402208 C323.525,134.063208 322.156,133.841208 320.805,133.681208 C320.134,133.620208 319.466,133.577208 318.81,133.550208 C318.092,133.555208 317.376,133.560208 316.663,133.565208 C315.927,133.570208 315.193,133.575208 314.463,133.579208 C313.714,133.561208 312.867,133.455208 312.084,133.392208 L310.894,133.278208 C310.509,133.221208 310.135,133.142208 309.758,133.074208 C309.007,132.928208 308.258,132.800208 307.53,132.618208 C304.607,131.871208 301.926,130.718208 299.543,129.399208 C297.183,128.025208 295.16,126.451208 293.433,124.880208 C291.731,123.281208 290.297,121.710208 289.176,120.210208 C288.009,118.751208 287.148,117.371208 286.451,116.241208 C285.76,115.106208 285.279,114.181208 284.96,113.548208 C284.647,112.913208 284.48,112.574208 284.48,112.574208 C284.48,112.574208 284.731,112.855208 285.203,113.383208 C285.656,113.921208 286.377,114.667208 287.261,115.624208 C288.164,116.565208 289.282,117.680208 290.613,118.879208 C291.926,120.098208 293.53,121.317208 295.275,122.589208 C297.069,123.803208 299.088,124.958208 301.293,125.964208 C303.524,126.912208 305.938,127.701208 308.498,128.181208 C309.139,128.297208 309.797,128.346208 310.448,128.447208 C310.775,128.488208 311.104,128.543208 311.43,128.576208 L312.394,128.614208 C313.051,128.629208 313.652,128.698208 314.36,128.681208 C315.09,128.654208 315.823,128.627208 316.559,128.600208 C317.319,128.572208 318.081,128.544208 318.846,128.516208 C319.671,128.516208 320.491,128.561208 321.303,128.629208 C322.914,128.801208 324.506,129.047208 326.043,129.413208 C329.125,130.141208 332.071,131.142208 334.876,132.296208 C337.684,133.441208 340.353,134.731208 342.876,136.067208 C345.4,137.401208 347.776,138.790208 349.985,140.167208 C352.195,141.542208 354.225,142.928208 356.077,144.232208 C357.941,145.519208 359.592,146.779208 361.044,147.908208 C362.504,149.024208 363.733,150.056208 364.743,150.906208 C366.759,152.611208 367.842,153.668208 367.842,153.668208" id="Fill-117"></path>
                <path d="M251.311,159.832208 C251.311,159.832208 249.705,159.022208 247.205,157.094208 C245.972,156.115208 244.484,154.888208 242.949,153.289208 C241.43,151.683208 239.727,149.807208 238.25,147.462208 C236.753,145.145208 235.247,142.479208 234.291,139.383208 C233.317,136.334208 232.525,132.877208 232.633,129.355208 C232.64,128.924208 232.583,128.554208 232.642,128.068208 C232.689,127.597208 232.735,127.124208 232.782,126.649208 C232.887,125.701208 232.966,124.720208 233.209,123.839208 C233.432,122.939208 233.586,122.005208 233.88,121.115208 C234.193,120.231208 234.507,119.343208 234.823,118.451208 C236.271,114.958208 238.338,111.726208 240.723,108.823208 C243.124,105.927208 245.854,103.355208 248.766,101.163208 C251.658,98.9442083 254.704,97.0582083 257.762,95.4682083 C259.313,94.7112083 260.83,93.9572083 262.381,93.3572083 C263.861,92.7382083 265.362,92.1912083 266.715,91.6022083 C269.461,90.4342083 272.063,89.2722083 274.374,88.0792083 C276.68,86.8702083 278.722,85.6452083 280.408,84.3992083 C282.084,83.1432083 283.419,81.8892083 284.351,80.7062083 C285.31,79.5362083 285.806,78.4402083 286.143,77.6832083 C286.398,76.8922083 286.534,76.4702083 286.534,76.4702083 C286.534,76.4702083 286.497,76.9192083 286.427,77.7602083 C286.245,78.5752083 286.008,79.8492083 285.207,81.2592083 C284.452,82.6832083 283.288,84.3002083 281.693,85.8782083 C280.113,87.4712083 278.157,89.0842083 275.886,90.5992083 C273.625,92.1402083 271.1,93.6422083 268.324,95.0692083 C266.932,95.8172083 265.532,96.4632083 264.111,97.2042083 C263.428,97.5702083 262.722,97.9022083 262.03,98.2822083 C261.341,98.6682083 260.646,99.0572083 259.946,99.4502083 C257.18,101.087208 254.449,102.972208 251.839,105.065208 C249.233,107.162208 246.771,109.503208 244.661,112.092208 C242.521,114.655208 240.723,117.455208 239.389,120.384208 C239.102,121.132208 238.815,121.878208 238.529,122.619208 C238.244,123.361208 238.097,124.136208 237.87,124.886208 C237.617,125.651208 237.549,126.374208 237.428,127.100208 L237.242,128.187208 C237.16,128.530208 237.191,129.003208 237.16,129.402208 C236.898,132.547208 237.315,135.514208 237.948,138.323208 C238.591,141.129208 239.659,143.689208 240.78,145.993208 C241.912,148.300208 243.232,150.290208 244.441,152.034208 C245.689,153.751208 246.874,155.196208 247.896,156.353208 C248.938,157.487208 249.77,158.385208 250.378,158.953208 C250.974,159.536208 251.311,159.832208 251.311,159.832208" id="Fill-118"></path>
                <path d="M227.535,137.231208 C227.535,137.231208 227.447,136.929208 227.317,136.350208 C227.2,135.771208 227.001,134.920208 226.854,133.824208 C226.699,132.729208 226.511,131.390208 226.441,129.846208 C226.344,128.302208 226.276,126.546208 226.393,124.633208 C226.417,123.673208 226.492,122.675208 226.602,121.640208 C226.677,120.601208 226.85,119.538208 227.046,118.443208 C227.201,117.341208 227.478,116.229208 227.772,115.089208 C228.018,113.937208 228.429,112.800208 228.834,111.636208 C229.188,110.453208 229.757,109.321208 230.284,108.155208 C230.763,106.967208 231.516,105.881208 232.171,104.741208 C232.488,104.162208 232.889,103.631208 233.299,103.101208 L234.524,101.504208 C234.909,100.951208 235.437,100.511208 235.899,100.017208 L237.335,98.5732083 L237.516,98.3942083 L237.562,98.3492083 L237.584,98.3272083 C237.455,98.4442083 237.561,98.3482083 237.537,98.3692083 L237.623,98.2892083 L240.008,96.0652083 C240.795,95.2322083 241.579,94.4012083 242.357,93.5772083 C243.082,92.6702083 243.868,91.8192083 244.56,90.9102083 C245.225,89.9822083 245.958,89.1132083 246.554,88.1722083 C247.18,87.2502083 247.793,86.3382083 248.333,85.4052083 C248.612,84.9432083 248.888,84.4862083 249.161,84.0352083 C249.41,83.5692083 249.657,83.1092083 249.9,82.6562083 C250.887,80.8442083 251.705,79.0612083 252.427,77.3912083 C253.104,75.7062083 253.692,74.1362083 254.148,72.7162083 C254.576,71.2922083 254.945,70.0342083 255.174,68.9812083 C255.406,67.9282083 255.556,67.0882083 255.628,66.5072083 C255.684,65.9222083 255.714,65.6102083 255.714,65.6102083 C255.714,65.6102083 255.786,65.9182083 255.922,66.4962083 C256.014,67.0812083 256.163,67.9552083 256.189,69.0702083 C256.234,70.1872083 256.219,71.5482083 256.069,73.1012083 C255.999,73.8782083 255.876,74.6972083 255.77,75.5722083 C255.617,76.4332083 255.44,77.3402083 255.229,78.2802083 C254.78,80.1522083 254.231,82.1842083 253.41,84.2492083 C253.206,84.7672083 252.999,85.2922083 252.79,85.8232083 C252.55,86.3422083 252.308,86.8672083 252.062,87.3972083 C251.598,88.4762083 250.994,89.5102083 250.404,90.5792083 C249.205,92.7052083 247.751,94.7832083 246.141,96.7932083 C245.292,97.7832083 244.395,98.7992083 243.492,99.7572083 C242.582,100.629208 241.669,101.504208 240.755,102.380208 L239.55,103.571208 C239.16,103.980208 238.708,104.327208 238.382,104.797208 L237.318,106.119208 C236.953,106.551208 236.592,106.985208 236.307,107.477208 C235.039,109.347208 233.922,111.308208 233.033,113.326208 C232.58,114.331208 232.139,115.325208 231.794,116.343208 C231.608,116.847208 231.424,117.346208 231.242,117.839208 C231.071,118.336208 230.94,118.842208 230.781,119.332208 C230.628,119.826208 230.478,120.313208 230.33,120.793208 C230.205,121.281208 230.081,121.762208 229.96,122.234208 C229.696,123.178208 229.469,124.100208 229.297,124.997208 C229.093,125.889208 228.938,126.752208 228.794,127.578208 C228.632,128.402208 228.488,129.187208 228.389,129.931208 C228.166,131.415208 227.987,132.723208 227.867,133.804208 C227.621,135.969208 227.535,137.231208 227.535,137.231208" id="Fill-119"></path>
                <path d="M216.381,180.086208 C216.381,180.086208 217.891,181.955208 220.835,184.892208 C222.312,186.354208 224.17,188.057208 226.372,189.894208 C228.599,191.704208 231.223,193.590208 234.221,195.348208 C234.969,195.790208 235.736,196.231208 236.552,196.609208 C237.36,197.002208 238.165,197.438208 239.034,197.757208 C239.899,198.083208 240.739,198.514208 241.652,198.771208 C242.102,198.918208 242.554,199.066208 243.01,199.216208 L243.595,199.408208 L244.344,199.571208 C244.845,199.680208 245.35,199.790208 245.858,199.901208 L246.622,200.067208 L247.338,200.141208 C247.814,200.190208 248.292,200.240208 248.773,200.289208 C249.249,200.345208 249.728,200.402208 250.254,200.396208 C251.285,200.403208 252.311,200.477208 253.368,200.450208 C254.427,200.406208 255.492,200.391208 256.571,200.326208 C260.894,200.053208 265.393,199.350208 269.987,198.594208 C274.581,197.816208 279.279,196.961208 284.045,196.223208 C288.815,195.520208 293.66,194.910208 298.549,194.874208 C299.802,194.904208 301.05,194.934208 302.291,194.963208 L304.035,195.131208 C304.688,195.234208 305.357,195.318208 305.988,195.449208 C308.478,195.968208 310.967,196.849208 313.115,198.352208 C315.26,199.831208 317.05,201.886208 318.058,204.219208 C319.113,206.534208 319.43,209.030208 319.257,211.356208 C319.064,213.689208 318.38,215.901208 317.23,217.792208 C316.098,219.663208 314.436,221.281208 312.582,222.155208 C310.688,223.092208 308.731,223.399208 306.916,223.301208 C305.103,223.189208 303.463,222.702208 302.045,222.040208 C299.2,220.699208 297.285,218.591208 296.329,216.603208 C295.337,214.592208 295.443,212.764208 295.669,211.670208 C295.791,211.111208 295.933,210.699208 296.052,210.432208 C296.163,210.164208 296.221,210.026208 296.221,210.026208 C296.221,210.026208 296.189,210.172208 296.126,210.455208 C296.054,210.734208 295.997,211.160208 295.961,211.707208 C295.901,212.794208 296.117,214.447208 297.218,216.104208 C298.3,217.750208 300.243,219.336208 302.789,220.228208 C305.299,221.103208 308.569,221.166208 311.149,219.588208 C313.744,218.050208 315.378,214.686208 315.44,211.159208 C315.523,207.610208 313.795,204.073208 310.603,202.135208 C309.025,201.142208 307.125,200.509208 305.107,200.156208 C304.609,200.068208 304.127,200.030208 303.636,199.958208 L301.908,199.847208 C300.822,199.844208 299.73,199.842208 298.634,199.840208 C294.122,199.982208 289.474,200.567208 284.81,201.284208 C280.139,201.978208 275.442,202.816208 270.753,203.493208 C266.067,204.175208 261.39,204.754208 256.766,204.849208 C255.611,204.867208 254.455,204.835208 253.317,204.830208 C252.177,204.815208 251.033,204.668208 249.913,204.584208 C249.361,204.553208 248.78,204.454208 248.203,204.351208 C247.63,204.251208 247.06,204.152208 246.494,204.053208 L245.653,203.900208 L244.901,203.686208 C244.401,203.544208 243.904,203.403208 243.411,203.263208 C239.144,201.939208 235.684,199.929208 232.643,197.812208 C229.614,195.703208 227.125,193.439208 225.055,191.331208 C222.988,189.217208 221.363,187.226208 220.074,185.560208 C218.781,183.896208 217.887,182.501208 217.271,181.562208 C216.667,180.613208 216.381,180.086208 216.381,180.086208" id="Fill-120"></path>
                <path d="M332.472,197.404208 L340.506,194.557208 L344.476,193.095208 C345.796,192.612208 347.106,192.100208 348.408,191.579208 C349.719,191.086208 351.01,190.543208 352.308,190.029208 C353.602,189.502208 354.884,188.952208 356.163,188.406208 C357.438,187.852208 358.708,187.285208 359.964,186.703208 C361.228,186.133208 362.46,185.507208 363.705,184.910208 C364.932,184.283208 366.16,183.656208 367.358,182.990208 C368.575,182.352208 369.739,181.637208 370.918,180.946208 C372.071,180.223208 373.236,179.514208 374.337,178.726208 C374.9,178.347208 375.458,177.966208 375.99,177.554208 C376.523,177.143208 377.094,176.770208 377.597,176.330208 L379.155,175.057208 L380.634,173.710208 C381.571,172.773208 382.547,171.858208 383.37,170.830208 C383.805,170.331208 384.234,169.828208 384.607,169.290208 C384.984,168.755208 385.425,168.249208 385.739,167.676208 C386.065,167.111208 386.461,166.574208 386.76,165.991208 L387.649,164.230208 L388.046,166.028208 C387.196,165.031208 386.278,164.019208 385.356,163.046208 C384.419,162.082208 383.499,161.093208 382.536,160.153208 C381.564,159.229208 380.584,158.304208 379.546,157.457208 C379.286,157.245208 379.014,157.058208 378.745,156.855208 C378.479,156.644208 378.196,156.486208 377.915,156.298208 C377.637,156.097208 377.336,155.981208 377.031,155.831208 C376.729,155.661208 376.402,155.642208 376.061,155.534208 C376.39,155.533208 376.77,155.438208 377.11,155.525208 C377.454,155.584208 377.823,155.622208 378.153,155.740208 C378.487,155.846208 378.848,155.926208 379.163,156.075208 C379.486,156.213208 379.821,156.341208 380.139,156.491208 C380.772,156.796208 381.407,157.109208 382.015,157.457208 C382.629,157.803208 383.212,158.183208 383.806,158.556208 C384.981,159.314208 386.128,160.110208 387.227,160.965208 C388.336,161.816208 389.407,162.675208 390.493,163.602208 L391.282,164.276208 L390.89,165.401208 L390.137,167.556208 C389.871,168.270208 389.521,168.944208 389.201,169.637208 C388.896,170.342208 388.468,170.965208 388.093,171.627208 C387.896,171.952208 387.712,172.288208 387.503,172.603208 L386.842,173.524208 C385.979,174.773208 384.997,175.915208 383.983,177.024208 L382.411,178.630208 L380.749,180.126208 C380.201,180.635208 379.6,181.064208 379.026,181.536208 C378.451,182.006208 377.865,182.458208 377.254,182.871208 C376.06,183.744208 374.816,184.524208 373.579,185.318208 C372.312,186.052208 371.049,186.798208 369.752,187.462208 C368.471,188.166208 367.141,188.755208 365.829,189.378208 C364.506,189.975208 363.169,190.537208 361.82,191.060208 C360.48,191.605208 359.113,192.075208 357.75,192.543208 C356.387,193.015208 355.006,193.426208 353.627,193.834208 C352.245,194.234208 350.853,194.594208 349.46,194.937208 C348.062,195.266208 346.658,195.566208 345.253,195.846208 C343.852,196.143208 342.437,196.377208 341.019,196.584208 C338.191,197.021208 335.337,197.325208 332.472,197.404208" id="Fill-121"></path>
                <path d="M206.204,148.812208 C206.204,148.812208 205.8,146.171208 205.091,141.550208 C204.375,136.935208 203.339,130.349208 202.012,122.478208 C201.34,118.544208 200.568,114.292208 199.749,109.802208 C198.914,105.315208 197.927,100.609208 196.893,95.7552083 C195.85,90.9032083 194.588,85.9392083 193.231,80.9422083 C191.852,75.9542083 190.254,70.9492083 188.26,66.1802083 C187.258,63.8092083 186.209,61.4542083 184.934,59.3122083 C184.337,58.2012083 183.62,57.2222083 182.936,56.2142083 L182.904,56.1672083 C182.912,56.1752083 182.84,56.0812083 182.915,56.1742083 L182.837,56.0772083 L182.683,55.8842083 L182.375,55.4962083 L181.758,54.7232083 C181.344,54.1762083 180.949,53.7802083 180.55,53.3232083 C178.932,51.5452083 177.119,49.8592083 175.212,48.4712083 C173.293,47.0792083 171.229,45.9692083 169.092,45.2122083 C164.828,43.6962083 160.256,43.5732083 156.347,44.9202083 C152.466,46.2412083 149.244,48.9632083 148.048,52.2162083 L147.835,52.8212083 L147.69,53.4362083 C147.63,53.6402083 147.606,53.8462083 147.585,54.0522083 L147.528,54.5142083 L147.518,54.5902083 L147.513,54.6292083 C147.509,54.4582083 147.512,54.6072083 147.511,54.5812083 C147.515,55.0602083 147.519,55.5332083 147.523,56.0012083 C147.528,56.2292083 147.518,56.4802083 147.537,56.6852083 L147.624,57.2612083 C147.698,57.6422083 147.686,58.0342083 147.816,58.4052083 C147.931,58.7812083 148.044,59.1512083 148.156,59.5172083 C148.483,60.1892083 148.792,60.8702083 149.271,61.3902083 C150.165,62.4872083 151.365,63.1782083 152.586,63.5442083 C153.827,63.8422083 155.051,63.8382083 156.135,63.6302083 C158.295,63.1662083 159.846,62.0832083 160.675,61.1882083 C160.915,60.9892083 161.089,60.7792083 161.227,60.5872083 C161.374,60.4002083 161.497,60.2432083 161.596,60.1162083 C161.795,59.8612083 161.898,59.7292083 161.898,59.7292083 C161.898,59.7292083 161.816,59.8732083 161.656,60.1542083 C161.575,60.2962083 161.475,60.4712083 161.355,60.6802083 C161.243,60.8962083 161.097,61.1342083 160.884,61.3712083 C160.683,61.6192083 160.458,61.8972083 160.211,62.2022083 C159.917,62.4682083 159.597,62.7572083 159.25,63.0702083 C158.89,63.3702083 158.447,63.6182083 157.993,63.9222083 C157.51,64.1632083 156.979,64.4082083 156.398,64.6142083 C155.222,64.9902083 153.828,65.1812083 152.289,64.9972083 C150.765,64.7602083 149.139,64.0182083 147.832,62.7202083 C147.144,62.0912083 146.649,61.2822083 146.151,60.4442083 C145.964,60.0002083 145.773,59.5502083 145.58,59.0932083 C145.377,58.6382083 145.312,58.1142083 145.175,57.6102083 L144.999,56.8352083 C144.953,56.5852083 144.952,56.3682083 144.926,56.1312083 C144.886,55.6652083 144.845,55.1942083 144.804,54.7162083 C144.802,54.6602083 144.802,54.7792083 144.799,54.5792083 L144.801,54.5282083 L144.804,54.4252083 L144.812,54.2202083 L144.829,53.8062083 C144.837,53.5282083 144.851,53.2492083 144.904,52.9742083 L145.036,52.1392083 C145.097,51.8642083 145.177,51.5922083 145.25,51.3162083 C145.847,49.0992083 147.174,47.0732083 148.841,45.3452083 C150.554,43.6612083 152.657,42.2802083 155.002,41.3432083 C157.345,40.4092083 159.916,39.8412083 162.565,39.7712083 C165.214,39.6842083 167.92,40.1182083 170.524,40.9372083 C175.757,42.6052083 180.466,45.8752083 184.239,50.0332083 C184.711,50.5582083 185.237,51.1042083 185.623,51.6052083 L186.248,52.3712083 L186.561,52.7552083 L186.718,52.9472083 L186.796,53.0432083 L186.916,53.2072083 C187.737,54.3712083 188.59,55.5332083 189.27,56.7562083 C190.734,59.1692083 191.895,61.6852083 192.985,64.2152083 C195.049,69.3142083 196.637,74.5122083 197.999,79.6552083 C199.373,84.7972083 200.376,89.9212083 201.302,94.8722083 C202.231,99.8232083 202.915,104.640208 203.51,109.207208 C204.119,113.772208 204.554,118.103208 204.914,122.102208 C205.295,126.098208 205.534,129.770208 205.722,133.025208 C205.925,136.278208 206.025,139.119208 206.1,141.457208 C206.186,143.795208 206.182,145.637208 206.198,146.890208 C206.202,148.143208 206.204,148.812208 206.204,148.812208" id="Fill-122"></path>
                <path d="M206.204,86.8632083 C206.204,86.8632083 205.666,84.9982083 204.655,81.7782083 C203.636,78.5612083 202.124,73.9912083 200.104,68.6212083 C199.085,65.9402083 197.907,63.0712083 196.608,60.0772083 C195.292,57.0892083 193.772,54.0102083 192.082,50.9202083 C190.379,47.8382083 188.46,44.7642083 186.268,41.8792083 C184.076,38.9972083 181.579,36.3212083 178.742,34.2122083 L177.612,33.3602083 L176.449,32.5032083 C175.668,31.8952083 174.811,31.2312083 174.056,30.5672083 C172.499,29.2652083 171.071,27.7822083 169.748,26.2082083 C168.431,24.6272083 167.257,22.8942083 166.364,20.9872083 C165.472,19.0882083 164.839,17.0092083 164.719,14.8532083 C164.616,12.7032083 164.985,10.4892083 165.972,8.59620825 C166.928,6.69720825 168.389,5.13620825 170.059,4.07620825 C173.414,1.91520825 177.495,1.74820825 180.593,3.16920825 C182.135,3.88320825 183.421,4.92720825 184.323,6.14420825 C185.224,7.35820825 185.792,8.69820825 186.025,10.0052083 C186.257,11.3112083 186.198,12.5842083 185.837,13.6672083 C185.494,14.7542083 184.926,15.6412083 184.307,16.3062083 C183.059,17.6562083 181.702,18.1312083 180.852,18.4292083 C180.419,18.5852083 180.069,18.6402083 179.841,18.6952083 C179.611,18.7452083 179.493,18.7712083 179.493,18.7712083 C179.493,18.7712083 179.603,18.7202083 179.817,18.6212083 C180.028,18.5212083 180.348,18.3872083 180.735,18.1592083 C181.503,17.7272083 182.639,16.9872083 183.508,15.6752083 C184.38,14.3862083 184.787,12.4382083 184.122,10.4742083 C183.485,8.52620825 181.791,6.64820825 179.503,5.89920825 C177.236,5.15120825 174.35,5.61720825 172.225,7.22520825 C170.063,8.83920825 168.904,11.6042083 169.246,14.5012083 C169.58,17.4252083 171.261,20.3952083 173.539,22.9992083 C174.685,24.3052083 175.962,25.5492083 177.354,26.7092083 C178.046,27.3062083 178.717,27.8162083 179.458,28.3872083 L180.629,29.2352083 L181.813,30.1182083 C185.151,32.6422083 187.939,35.6942083 190.246,38.9192083 C192.576,42.1352083 194.485,45.5052083 196.104,48.8412083 C197.735,52.1752083 199.029,55.5032083 200.149,58.6782083 C201.284,61.8492083 202.16,64.9042083 202.893,67.7352083 C204.373,73.3942083 205.176,78.1932083 205.643,81.5572083 C206.104,84.9232083 206.204,86.8632083 206.204,86.8632083" id="Fill-123"></path>
                <path d="M215.647,148.812208 C215.647,148.812208 215.649,148.143208 215.653,146.890208 C215.67,145.637208 215.665,143.795208 215.752,141.457208 C215.827,139.119208 215.926,136.278208 216.13,133.025208 C216.317,129.770208 216.557,126.098208 216.937,122.102208 C217.297,118.103208 217.732,113.772208 218.341,109.207208 C218.937,104.640208 219.62,99.8232083 220.55,94.8722083 C221.476,89.9212083 222.478,84.7972083 223.852,79.6552083 C225.214,74.5122083 226.802,69.3142083 228.867,64.2152083 C229.957,61.6852083 231.117,59.1692083 232.582,56.7562083 C233.261,55.5332083 234.114,54.3712083 234.936,53.2072083 L235.056,53.0432083 L235.29,52.7552083 L235.603,52.3712083 L236.228,51.6052083 C236.614,51.1042083 237.141,50.5582083 237.612,50.0332083 C241.385,45.8752083 246.095,42.6052083 251.327,40.9372083 C253.932,40.1182083 256.638,39.6842083 259.287,39.7712083 C261.935,39.8412083 264.506,40.4092083 266.85,41.3432083 C269.194,42.2802083 271.298,43.6612083 273.011,45.3452083 C274.677,47.0732083 276.004,49.0992083 276.601,51.3162083 C276.674,51.5922083 276.755,51.8642083 276.816,52.1392083 L276.947,52.9742083 C277,53.2492083 277.014,53.5282083 277.023,53.8062083 L277.039,54.2202083 L277.051,54.5282083 L277.052,54.5792083 C277.049,54.7792083 277.049,54.6602083 277.048,54.7162083 C277.007,55.1942083 276.966,55.6652083 276.926,56.1312083 C276.9,56.3682083 276.899,56.5852083 276.852,56.8352083 L276.676,57.6102083 C276.54,58.1142083 276.474,58.6382083 276.272,59.0932083 C276.078,59.5502083 275.888,60.0002083 275.7,60.4442083 C275.202,61.2822083 274.707,62.0912083 274.019,62.7202083 C272.712,64.0182083 271.087,64.7602083 269.562,64.9972083 C268.023,65.1812083 266.63,64.9902083 265.453,64.6142083 C264.873,64.4082083 264.341,64.1632083 263.858,63.9222083 C263.405,63.6182083 262.961,63.3702083 262.601,63.0702083 C262.255,62.7572083 261.934,62.4682083 261.64,62.2022083 C261.393,61.8972083 261.168,61.6192083 260.967,61.3712083 C260.755,61.1342083 260.609,60.8962083 260.496,60.6802083 C260.377,60.4712083 260.276,60.2962083 260.196,60.1542083 C260.036,59.8732083 259.953,59.7292083 259.953,59.7292083 C259.953,59.7292083 260.056,59.8612083 260.256,60.1162083 C260.355,60.2432083 260.478,60.4002083 260.624,60.5872083 C260.762,60.7792083 260.937,60.9892083 261.177,61.1882083 C262.005,62.0832083 263.556,63.1662083 265.717,63.6302083 C266.801,63.8382083 268.024,63.8422083 269.266,63.5442083 C270.487,63.1782083 271.687,62.4872083 272.58,61.3902083 C273.06,60.8702083 273.369,60.1892083 273.695,59.5172083 C273.807,59.1512083 273.921,58.7812083 274.036,58.4052083 C274.166,58.0342083 274.154,57.6422083 274.228,57.2612083 L274.315,56.6852083 C274.333,56.4802083 274.323,56.2292083 274.329,56.0012083 C274.333,55.5332083 274.337,55.0602083 274.34,54.5812083 C274.34,54.6072083 274.343,54.4582083 274.339,54.6292083 L274.334,54.5902083 L274.324,54.5142083 L274.304,54.3602083 L274.267,54.0522083 C274.246,53.8462083 274.222,53.6402083 274.162,53.4362083 L274.016,52.8212083 L273.803,52.2162083 C272.607,48.9632083 269.386,46.2412083 265.504,44.9202083 C261.595,43.5732083 257.024,43.6962083 252.759,45.2122083 C250.622,45.9692083 248.559,47.0792083 246.639,48.4712083 C244.732,49.8592083 242.919,51.5452083 241.302,53.3232083 C240.902,53.7802083 240.508,54.1762083 240.093,54.7232083 L239.477,55.4962083 L239.168,55.8842083 L239.014,56.0772083 L238.937,56.1742083 C239.011,56.0812083 238.939,56.1752083 238.947,56.1672083 L238.915,56.2142083 C238.231,57.2222083 237.515,58.2012083 236.917,59.3122083 C235.642,61.4542083 234.594,63.8092083 233.591,66.1802083 C231.597,70.9492083 230,75.9542083 228.62,80.9422083 C227.263,85.9392083 226.001,90.9032083 224.958,95.7552083 C223.924,100.609208 222.938,105.315208 222.102,109.802208 C221.284,114.292208 220.512,118.544208 219.84,122.478208 C218.512,130.349208 217.476,136.935208 216.76,141.550208 C216.052,146.171208 215.647,148.812208 215.647,148.812208" id="Fill-124"></path>
                <path d="M215.647,86.8632083 C215.647,86.8632083 215.748,84.9232083 216.209,81.5572083 C216.675,78.1932083 217.479,73.3942083 218.958,67.7352083 C219.692,64.9042083 220.568,61.8492083 221.702,58.6782083 C222.822,55.5032083 224.116,52.1752083 225.747,48.8412083 C227.367,45.5052083 229.276,42.1352083 231.605,38.9192083 C233.912,35.6942083 236.7,32.6422083 240.039,30.1182083 L241.223,29.2352083 L242.393,28.3872083 C243.135,27.8162083 243.806,27.3062083 244.498,26.7092083 C245.89,25.5492083 247.166,24.3052083 248.312,22.9992083 C250.59,20.3952083 252.271,17.4252083 252.605,14.5012083 C252.948,11.6042083 251.789,8.83920825 249.626,7.22520825 C247.501,5.61720825 244.615,5.15120825 242.349,5.89920825 C240.06,6.64820825 238.366,8.52620825 237.729,10.4742083 C237.064,12.4382083 237.471,14.3862083 238.343,15.6752083 C239.213,16.9872083 240.348,17.7272083 241.117,18.1592083 C241.504,18.3872083 241.823,18.5212083 242.035,18.6212083 C242.248,18.7202083 242.358,18.7712083 242.358,18.7712083 C242.358,18.7712083 242.24,18.7452083 242.011,18.6952083 C241.782,18.6402083 241.432,18.5852083 241,18.4292083 C240.149,18.1312083 238.793,17.6562083 237.544,16.3062083 C236.926,15.6412083 236.357,14.7542083 236.015,13.6672083 C235.653,12.5842083 235.595,11.3112083 235.827,10.0052083 C236.059,8.69820825 236.627,7.35820825 237.529,6.14420825 C238.43,4.92720825 239.716,3.88320825 241.258,3.16920825 C244.356,1.74820825 248.437,1.91520825 251.792,4.07620825 C253.462,5.13620825 254.923,6.69720825 255.879,8.59620825 C256.866,10.4892083 257.235,12.7032083 257.132,14.8532083 C257.012,17.0092083 256.379,19.0882083 255.487,20.9872083 C254.594,22.8942083 253.42,24.6272083 252.103,26.2082083 C250.781,27.7822083 249.352,29.2652083 247.796,30.5672083 C247.04,31.2312083 246.183,31.8952083 245.403,32.5032083 L244.239,33.3602083 L243.109,34.2122083 C240.272,36.3212083 237.775,38.9972083 235.584,41.8792083 C233.392,44.7642083 231.472,47.8382083 229.769,50.9202083 C228.08,54.0102083 226.559,57.0892083 225.244,60.0772083 C223.944,63.0712083 222.767,65.9402083 221.747,68.6212083 C219.727,73.9912083 218.215,78.5612083 217.197,81.7782083 C216.185,84.9982083 215.647,86.8632083 215.647,86.8632083" id="Fill-125"></path>
                <path d="M208.722,74.5762083 C208.722,74.5762083 208.017,72.2952083 206.99,68.2492083 C206.482,66.2252083 205.866,63.7652083 205.255,60.9222083 C204.63,58.0822083 203.95,54.8702083 203.334,51.3402083 C202.695,47.8142083 202.061,43.9782083 201.565,39.8892083 C201.056,35.8022083 200.591,31.4692083 200.409,26.9392083 C200.306,24.6742083 200.278,22.3602083 200.346,20.0002083 C200.414,17.6412083 200.567,15.2362083 200.961,12.7832083 C201.148,11.5572083 201.397,10.3182083 201.743,9.06420825 C202.089,7.81220825 202.518,6.54320825 203.174,5.27720825 C203.828,4.02220825 204.705,2.72020825 206.062,1.67020825 C206.732,1.15020825 207.516,0.701208251 208.363,0.427208251 C208.779,0.256208251 209.216,0.202208251 209.646,0.106208251 C209.863,0.0562082506 210.073,0.0602082506 210.288,0.0382082506 L210.608,0.0172082506 L210.768,0.00720825063 L210.848,0.00320825063 C210.952,0.00420825063 210.729,-0.00579174937 211.101,0.00520825063 L211.545,0.0352082506 L211.768,0.0502082506 L211.879,0.0582082506 L212.063,0.0872082506 C212.546,0.174208251 213.112,0.265208251 213.495,0.428208251 C214.344,0.703208251 215.127,1.15720825 215.798,1.67820825 C217.155,2.73420825 218.025,4.04220825 218.674,5.30020825 C219.942,7.84420825 220.467,10.3682083 220.854,12.8172083 C221.235,15.2722083 221.381,17.6772083 221.437,20.0372083 C221.492,22.3972083 221.458,24.7112083 221.343,26.9762083 C221.139,31.5052083 220.66,35.8362083 220.129,39.9212083 C219.614,44.0072083 218.967,47.8412083 218.311,51.3642083 C217.678,54.8912083 216.987,58.1012083 216.347,60.9382083 C215.722,63.7772083 215.096,66.2352083 214.578,68.2572083 C213.534,72.2982083 212.818,74.5762083 212.818,74.5762083 C212.818,74.5762083 213.094,72.2102083 213.577,68.0702083 C214.053,63.9342083 214.715,58.0302083 215.399,50.9582083 C215.73,47.4212083 216.037,43.5892083 216.326,39.5462083 C216.594,35.5012083 216.77,31.2372083 216.804,26.8572083 C216.812,22.4882083 216.673,17.9552083 215.951,13.6092083 C215.588,11.4542083 215.02,9.32520825 214.162,7.62520825 C213.73,6.78720825 213.207,6.09820825 212.672,5.70520825 C212.405,5.50420825 212.144,5.35120825 211.859,5.26920825 C211.696,5.18820825 211.658,5.23420825 211.566,5.17820825 C211.554,5.17320825 211.55,5.16720825 211.532,5.16220825 L211.421,5.15520825 L211.199,5.14120825 L210.754,5.11220825 C211.089,5.12420825 210.829,5.11720825 210.896,5.12120825 L210.864,5.12420825 L210.802,5.12920825 L210.678,5.13820825 C210.598,5.14820825 210.506,5.13120825 210.434,5.15720825 C210.29,5.20620825 210.123,5.19420825 209.992,5.26720825 C209.851,5.31420825 209.708,5.36020825 209.578,5.44620825 C209.438,5.50120825 209.309,5.61020825 209.174,5.70420825 C208.636,6.09920825 208.109,6.78420825 207.673,7.62120825 C206.807,9.31920825 206.223,11.4422083 205.852,13.5972083 C205.103,17.9392083 204.952,22.4732083 204.935,26.8412083 C204.95,31.2212083 205.103,35.4872083 205.356,39.5322083 C205.629,43.5762083 205.915,47.4102083 206.234,50.9482083 C206.887,58.0232083 207.527,63.9302083 207.987,68.0672083 C208.455,72.2092083 208.722,74.5762083 208.722,74.5762083" id="Fill-126"></path>
            </g>
        </g>
    </g>
</svg>
