<?xml version="1.0" encoding="UTF-8"?>
<svg width="525px" height="604px" viewBox="0 0 525 604" version="1.1" xmlns="http://www.w3.org/2000/svg" xmlns:xlink="http://www.w3.org/1999/xlink">
    <!-- Generator: Sketch 61.2 (89653) - https://sketch.com -->
    <title>Group 20</title>
    <desc>Created with Sketch.</desc>
    <g id="Page-1" stroke="none" stroke-width="1" fill="none" fill-rule="evenodd">
        <g id="Pin-Stripe-Ornaments-2" transform="translate(-491.000000, 0.000000)" fill-rule="nonzero" stroke="#000000">
            <g id="ornaments">
                <g id="Group-20" transform="translate(492.000000, 0.000000)">
                    <path d="M289.07708,79 C294.603767,79.5822381 299.977422,81.1762636 304.931855,83.7031149 C309.982176,86.3114011 314.209421,90.2799703 317.140031,95.164244 C319.943131,100.148836 321.565701,105.714397 321.88205,111.429786 C322.22687,117.07433 321.814804,122.739802 320.656908,128.274173 C318.309265,139.229995 314.498498,149.817264 309.327951,159.748864 C304.249303,169.648557 298.418637,179.140752 291.887699,188.141207 C285.344002,197.012005 278.915611,205.882803 272.761076,214.970668 C266.521386,223.937631 260.882889,233.311506 255.882948,243.030175 C253.435807,247.870776 251.387075,252.90421 249.75724,258.080143 C248.075797,263.216703 247.228983,268.591552 247.249303,273.998378 C247.272941,279.408866 248.619154,284.730799 251.169756,289.49695 C253.861062,294.276116 257.40865,298.514939 261.633907,302 C257.028107,298.847389 253.105732,294.791171 250.103163,290.075795 C247.156753,285.260798 245.4251,279.796679 245.058462,274.15756 C244.79255,268.505382 245.434965,262.847093 246.961035,257.4 C248.432132,252.001029 250.360967,246.738438 252.726407,241.66989 C257.520853,231.630363 263.041565,221.957049 269.244199,212.727644 C275.326667,203.495068 281.812711,194.522972 288.269928,185.637703 C294.717013,176.842211 300.498572,167.574039 305.566045,157.911032 C310.729243,148.35666 314.652768,138.177885 317.240925,127.622972 C318.472647,122.409869 319.044091,117.061526 318.94171,111.704737 C318.907838,106.331277 317.65586,101.036089 315.280698,96.220636 C312.776004,91.4163117 308.98781,87.4075037 304.340904,84.6437378 C299.601627,81.9219314 294.442635,80.014415 289.07708,79 L289.07708,79 Z" id="Path"></path>
                    <path d="M330.254603,117 C331.867604,125.686126 330.686657,134.878942 328.396772,143.478206 C325.960231,152.084993 322.579031,160.392698 318.315517,168.248141 C314.089728,176.097943 309.320598,183.639655 304.043341,190.817591 C298.858695,198.056029 293.501229,205.019407 288.201369,212.069646 C282.901509,219.119884 277.486435,226.083262 272.359397,233.191408 C267.115081,240.207912 262.305389,247.542254 257.957604,255.152829 C255.845182,258.931523 254.043753,262.877563 252.571334,266.951483 C251.065606,270.973531 250.242853,275.221302 250.137431,279.517411 C250.070753,283.821481 251.096788,288.07158 253.118602,291.866187 C255.235362,295.731519 258.048257,299.167789 261.414035,302 C257.711685,299.494621 254.53983,296.276707 252.081673,292.532123 C249.635329,288.655208 248.235623,284.204686 248.020368,279.61875 C247.875557,275.052735 248.503778,270.495189 249.878199,266.140778 C251.205318,261.827737 252.911452,257.641903 254.976433,253.632757 C263.171053,237.708193 274.159621,223.622193 284.716135,209.492762 C290.102406,202.495605 295.44067,195.479145 300.730929,188.443384 C306.028898,181.503669 310.91018,174.252343 315.348748,166.728069 C319.793441,159.197798 323.488578,151.245293 326.380521,142.985993 C329.401486,134.675116 330.719258,125.835957 330.254603,117 Z" id="Path"></path>
                    <path d="M338,156 C336.358497,163.231303 332.643515,169.927489 328.755744,176.247647 C324.867972,182.567806 320.562626,188.58425 316.199682,194.615156 C311.836739,200.646062 307.185813,206.416642 302.491689,212.143834 C297.797565,217.871025 292.930651,223.439128 288.092536,229.050619 C283.25442,234.66211 278.416305,240.172363 273.693383,245.841704 C268.984084,251.421959 264.617843,257.285367 260.618952,263.399307 C258.678529,266.44273 256.988235,269.639903 255.564849,272.959089 C254.158148,276.216385 253.334381,279.697329 253.131392,283.242001 C252.938472,286.815393 253.714827,290.374373 255.37766,293.539376 C257.131514,296.758556 259.459678,299.626434 262.246056,302 C259.117887,299.935575 256.430539,297.265884 254.340921,294.146805 C252.252422,290.883191 251.096828,287.105958 251,283.227538 C250.983228,279.373244 251.656299,275.547268 252.987401,271.932244 C254.267149,268.361224 255.877296,264.918533 257.796718,261.649331 C265.385071,248.632987 275.277289,237.424468 284.838327,226.187023 C294.399365,214.949579 304.305982,204.015849 313.507041,192.547003 C315.810905,189.654482 318.028375,186.761961 320.303441,183.86944 C322.578507,180.976919 324.824775,178.084398 326.984648,175.076176 C331.534333,169.271446 335.242916,162.848993 338,156 L338,156 Z" id="Path"></path>
                    <path d="M262.080003,0 C256.445126,13.1876446 251.581949,26.7950935 249.354207,40.8802507 C246.992076,54.9043074 247.357843,69.2486749 250.431677,83.1357223 C253.689402,96.9748791 258.525651,110.399029 264.846481,123.147413 C270.976412,136.045537 277.950848,148.581761 285.114568,160.973225 C286.890938,164.085567 288.710989,167.140005 290.501919,170.339203 C292.292849,173.538401 293.967296,176.708648 295.568941,179.96575 C298.789152,186.479766 301.614075,193.179677 304.028537,200.029499 C309.021039,213.743674 311.711769,228.180589 311.99308,242.762679 C312.086685,250.079518 311.230257,257.377783 309.445009,264.476693 C307.678991,271.62674 304.550248,278.373761 300.228271,284.352254 C295.845556,290.26604 290.016968,294.969647 283.294517,298.017607 C279.966709,299.500655 276.471287,300.579656 272.883826,301.231281 C269.312596,301.844664 265.687478,302.092052 262.065443,301.969557 C269.26149,301.836304 276.340012,300.131294 282.799463,296.975334 C289.131862,293.739961 294.52927,288.951805 298.481022,283.063889 C302.408123,277.209181 305.180113,270.665708 306.649411,263.781844 C308.169788,256.892444 308.81548,249.840728 308.571385,242.791631 C307.967204,228.633746 305.111986,214.660268 300.111788,201.390244 C297.696626,194.716359 294.89638,188.186491 291.724993,181.833155 C290.142762,178.648433 288.473169,175.507139 286.716213,172.409273 L281.314302,163.115675 C274.150581,150.622878 267.176146,137.985322 261.089896,124.870058 C255.003645,111.754793 249.80558,98.1039161 247.111904,83.7871428 C244.247826,69.4900815 244.297337,54.7671001 247.257508,40.4893985 C250.383635,26.4029482 255.36757,12.7887389 262.080003,0 L262.080003,0 Z" id="Path"></path>
                    <path d="M238,80 C238.917735,90.6697468 241.356888,101.153371 245.243359,111.132384 C249.067887,121.102719 253.53432,130.814805 258.614598,140.207625 C263.655976,149.638608 268.972601,158.924721 274.549987,168.1384 C280.011502,177.494659 284.907139,187.169963 289.210545,197.112233 C293.488384,207.094418 296.942903,217.409665 299.539574,227.954879 C302.19828,238.556901 303.334807,249.483322 302.914979,260.405572 C302.658282,265.9122 301.684282,271.361808 300.017636,276.616431 C298.337779,281.914382 295.564078,286.800506 291.876101,290.958479 C288.122002,295.024433 283.403722,298.078652 278.15718,299.838959 C273.000494,301.53742 267.569099,302.245232 262.149357,301.925075 C267.468862,301.759798 272.72102,300.686814 277.679118,298.75244 C282.554204,296.779722 286.85738,293.617043 290.195642,289.553248 C293.46702,285.48444 295.863821,280.784474 297.236186,275.747216 C298.630529,270.694573 299.384911,265.486836 299.481628,260.246216 C299.565981,249.669689 298.225996,239.129951 295.49778,228.911015 C292.860326,218.613126 289.406382,208.541811 285.168751,198.792716 C280.983854,188.991006 276.238867,179.438022 270.957281,170.181055 C265.640656,160.851481 260.367491,151.434985 255.630335,141.743238 C250.769915,132.109001 246.639262,122.123628 243.273165,111.871216 C239.868482,101.586413 238.089362,90.8333456 238,80 Z" id="Path"></path>
                    <path d="M233,120 C235.887643,128.442548 239.667119,136.551331 244.273997,144.188115 C248.691209,151.932364 253.469305,159.473961 258.088613,167.145835 C267.477126,182.488338 275.657901,198.541809 282.556506,215.160183 C285.975188,223.52529 288.867921,232.09694 291.217707,240.824772 C293.62034,249.620258 294.891337,258.68776 295,267.806606 C295.013781,272.423084 294.401895,277.020046 293.180912,281.471227 C291.947294,285.997677 289.650577,290.162055 286.482917,293.615947 C283.250348,296.950009 279.189005,299.358571 274.718119,300.59301 C270.359492,301.763177 265.838908,302.208171 261.336563,301.910256 C265.765461,301.745606 270.144724,300.916125 274.328365,299.449466 C278.418276,297.999334 282.060342,295.504708 284.89503,292.21185 C287.617915,288.889224 289.513048,284.964438 290.423763,280.76194 C291.368496,276.521718 291.766315,272.177396 291.607461,267.835557 C291.197081,259.047165 289.743288,250.339175 287.27686,241.895939 C284.896707,233.366651 282.004361,224.989502 278.615659,216.81036 C275.309967,208.573952 271.600086,200.482297 267.65924,192.506443 C263.718393,184.53059 259.546581,176.670538 255.244851,168.853912 C250.943122,161.037286 246.497038,153.249611 242.484015,145.215856 C238.470992,137.182102 234.789982,128.815417 233,120 Z" id="Path"></path>
                    <path d="M83,166.329767 C86.2685586,161.808478 90.3382114,157.929715 95.005569,154.887328 C99.7925036,151.800752 105.339085,150.108817 111.027441,150 C116.738187,150.050051 122.360068,151.424918 127.453834,154.017181 C132.505375,156.54741 137.198631,159.741876 141.409766,163.51629 C149.704385,171.058764 156.949684,179.687882 162.950444,189.171137 C168.961657,198.558904 174.24559,208.39634 178.755609,218.596623 C183.08975,228.748343 187.582809,238.798546 192.36481,248.703724 C196.99471,258.634389 202.27465,268.246377 208.169976,277.476599 C211.128999,282.033374 214.453223,286.340371 218.109605,290.354781 C221.70051,294.383579 225.909503,297.810667 230.577482,300.506501 C235.272838,303.189672 240.549155,304.683052 245.949233,304.857239 C251.431039,304.882374 256.871066,303.899321 262,301.956747 C256.971102,304.361634 251.513783,305.732421 245.949233,305.98843 C240.305247,306.134537 234.711093,304.894929 229.652865,302.377318 C224.634195,299.781512 220.06362,296.393093 216.1159,292.341618 C212.194491,288.339335 208.622568,284.006532 205.439467,279.390924 C199.173584,270.19095 193.591509,260.540025 188.738579,250.516531 C183.812107,240.582348 179.290153,230.44513 174.854883,220.365923 C170.486207,210.32647 165.371961,200.630852 159.555367,191.361008 C153.879373,182.078821 147.048701,173.560173 139.228249,166.010713 C135.313884,162.302505 130.944517,159.1104 126.225827,156.511603 C121.557175,153.927917 116.365739,152.440386 111.041889,152.160866 C105.656372,151.957881 100.320279,153.258106 95.6267958,155.917003 C90.8682058,158.655857 86.6002263,162.175472 83,166.329767 L83,166.329767 Z" id="Path"></path>
                    <path d="M136,149 C144.362168,151.985293 151.628604,157.579094 157.900231,163.88299 C164.100402,170.326262 169.569345,177.441848 174.206459,185.098859 C178.864604,192.710738 182.983785,200.642826 186.533449,208.836285 C190.123414,216.951645 193.511534,225.124972 196.928489,233.283806 C200.345444,241.442641 203.647059,249.572492 207.150519,257.687852 C210.585341,265.75252 214.509485,273.597632 218.900807,281.17892 C221.112979,284.907608 223.615009,288.45464 226.383506,291.786854 C229.104755,295.105076 232.360174,297.941282 236.014418,300.177556 C239.687578,302.401607 243.867877,303.639195 248.153979,303.771501 C252.53209,303.841063 256.885876,303.104331 261,301.597744 C256.983801,303.556328 252.624198,304.703535 248.168397,304.974314 C243.599802,305.176945 239.057663,304.177928 234.990773,302.075971 C230.974294,299.91922 227.351923,297.09168 224.278547,293.714252 C221.232986,290.39435 218.478599,286.816072 216.046136,283.019367 C206.371972,267.861035 199.768743,251.268023 192.877163,234.993829 C189.532295,226.80601 186.17301,218.632684 182.78489,210.517324 C179.419358,202.406738 175.567614,194.508751 171.250865,186.866848 C166.992586,179.219954 161.983993,172.020378 156.299885,165.375636 C150.69214,158.606169 143.789048,153.03754 136,149 L136,149 Z" id="Path"></path>
                    <path d="M173,163 C178.512502,168.068996 182.425069,174.586277 185.944926,181.175972 C189.464782,187.765666 192.548292,194.50019 195.602713,201.32161 C198.657134,208.143031 201.318843,215.080314 203.951463,222.03208 C206.584082,228.983846 208.954895,236.022509 211.412976,243.017723 C213.871057,250.012938 216.21278,257.008153 218.801765,263.91647 C221.288052,270.81492 224.202645,277.552784 227.528681,284.091074 C229.201217,287.311535 231.147642,290.383465 233.346625,293.273199 C235.454176,296.160461 238.065185,298.647513 241.055401,300.616002 C244.070314,302.566334 247.55718,303.671971 251.149534,303.81671 C254.841846,303.891246 258.517422,303.302522 262,302.078769 C258.610957,303.748799 254.923056,304.733297 251.149534,304.975338 C247.255236,305.163089 243.38454,304.275973 239.964537,302.411874 C236.596989,300.496057 233.601814,297.99437 231.121262,295.025623 C228.666315,292.119138 226.480523,288.997426 224.590619,285.69867 C217.070927,272.548246 212.329302,258.340574 207.38405,244.379111 C202.438797,230.417648 197.900801,216.325839 192.548292,202.567135 C191.239255,199.120218 189.784769,195.731232 188.403007,192.284314 C187.021245,188.837397 185.610394,185.433928 184.126818,182.059425 C181.33519,175.217497 177.589441,168.801303 173,163 L173,163 Z" id="Path"></path>
                    <path d="M0,151 C8.68900207,162.451678 18.000716,173.425599 29.0936753,182.40163 C40.0694344,191.438793 52.6728465,198.293964 66.2246774,202.597699 C79.8364713,206.711706 93.872861,209.261712 108.062222,210.19837 C122.283222,211.356568 136.591113,211.646117 150.913484,211.646117 C154.490457,211.646117 158.052948,211.646117 161.702328,211.646117 C165.351709,211.646117 168.943164,211.863279 172.563581,212.109396 C179.810236,212.602052 187.020662,213.530288 194.155751,214.88907 C208.514161,217.451927 222.357446,222.342128 235.138878,229.366539 C241.516187,232.944889 247.409728,237.323624 252.67618,242.396261 C258.002046,247.510372 262.302786,253.593539 265.347641,260.319367 C268.308959,267.044909 269.50042,274.415868 268.808761,281.731544 C268.446692,285.343393 267.644246,288.897438 266.419285,292.314573 C265.176501,295.696556 263.589679,298.942047 261.683779,302 C265.131583,295.760518 267.172904,288.842793 267.664709,281.731544 C268.004382,274.636954 266.518547,267.573808 263.349171,261.21697 C260.224315,254.906399 255.934916,249.242892 250.706673,244.524449 C245.491287,239.77569 239.707703,235.690912 233.487967,232.363375 C220.917898,225.801223 207.389169,221.266896 193.402704,218.928284 C186.419202,217.666608 179.36982,216.8014 172.288429,216.336817 C168.745247,216.124481 165.192411,215.994183 161.62992,215.945925 L150.942448,215.945925 C136.562149,215.945925 122.138406,215.555034 107.743626,214.237584 C93.3488455,212.920134 78.9540655,210.560307 65.1964788,205.753787 C58.3143958,203.382814 51.6755528,200.35766 45.3710725,196.719847 C39.0997747,193.051619 33.20187,188.779788 27.7613616,183.965197 C17.0979976,174.244845 7.76370937,163.160855 0,151 Z" id="Path"></path>
                    <path d="M58,212 C67.6987804,216.536773 78.0004823,219.653237 88.5878585,221.253419 C99.1339109,222.914158 109.77753,223.88164 120.450211,224.149638 C131.124099,224.511665 141.81247,224.555109 152.54429,224.381335 C163.369689,224.323263 174.188737,224.918067 184.942509,226.16251 C195.722658,227.444112 206.379285,229.609077 216.804862,232.635559 C227.317586,235.632825 237.34903,240.113989 246.596162,245.943685 C251.230929,248.919473 255.457065,252.487876 259.167308,256.558327 C262.903435,260.669314 265.744226,265.511869 267.509451,270.778761 C269.161583,276.066264 269.445611,281.686342 268.334976,287.113435 C267.225023,292.419341 265.12718,297.469262 262.150783,302 C264.676655,297.297259 266.385777,292.199909 267.205311,286.925181 C267.94641,281.713026 267.358561,276.39814 265.49633,271.473854 C263.618233,266.593464 260.748093,262.155653 257.067289,258.440869 C253.391812,254.703937 249.260713,251.444228 244.771318,248.738536 C235.652,243.407634 225.855362,239.330672 215.646231,236.61786 C205.418254,233.74836 194.976321,231.704784 184.421125,230.506838 C173.847619,229.230316 163.20898,228.567901 152.558773,228.522928 C141.81247,228.522928 131.022719,228.305712 120.276416,227.552695 C109.487271,226.943423 98.7590965,225.525117 88.1823376,223.309735 C77.5978193,221.120856 67.4163112,217.305706 58,212 L58,212 Z" id="Path"></path>
                    <path d="M90,236 C98.753422,237.710887 107.66621,238.478894 116.584554,238.290766 C125.494285,238.290766 134.404016,237.94499 143.371602,237.772102 C161.346447,237.299862 179.330953,238.2199 197.162656,240.523903 C206.113516,241.736079 214.978315,243.511735 223.703819,245.84021 C232.515553,248.112236 240.998019,251.501649 248.943235,255.925344 C252.946193,258.217149 256.61956,261.03774 259.863441,264.310413 C263.161145,267.629366 265.615719,271.684582 267.023046,276.138834 C268.279914,280.59484 268.32484,285.303586 267.153221,289.78258 C265.988315,294.131359 264.111793,298.259154 261.599103,302 C263.657932,298.083215 265.120324,293.883127 265.938257,289.537656 C266.727986,285.279339 266.38898,280.88948 264.954716,276.801572 C263.441321,272.790662 260.992267,269.19563 257.809574,266.313032 C254.621247,263.381314 251.061925,260.877243 247.222037,258.86444 C239.418364,254.859508 231.16422,251.793226 222.633494,249.73019 C214.062245,247.555121 205.368541,245.890527 196.598566,244.745252 C187.81901,243.491814 178.967134,242.685003 170.086331,242.10871 C161.205528,241.532417 152.310261,241.24427 143.40053,241.071382 C134.490799,240.898494 125.508749,240.869679 116.541163,240.336608 C107.573576,239.803536 98.519207,238.838245 90,236 Z" id="Path"></path>
                    <path d="M54.9172892,390 C52.648266,384.886316 51.3321658,379.399037 51.0341261,373.809744 C50.7661952,368.093782 52.0800654,362.414901 54.8303527,357.401486 C57.7492642,352.45423 61.7591012,348.243288 66.552289,345.09166 C71.2789746,341.963187 76.4001576,339.480346 81.7806635,337.708671 C92.4623896,334.25574 103.560211,332.266044 114.77306,331.793559 C125.890024,331.25562 137.03182,331.581171 148.098713,332.7673 C159.081689,334.031709 170.006708,335.194385 180.975195,335.993724 C191.88829,336.93987 202.852222,337.153503 213.793718,336.633196 C219.219737,336.341643 224.613107,335.607704 229.920436,334.438646 C235.205684,333.315991 240.278136,331.353458 244.945959,328.625268 C249.624873,325.883392 253.560586,322.030544 256.407086,317.40545 C259.204685,312.661188 261.101041,307.437755 262,302 C261.55441,307.58417 259.992314,313.021163 257.406856,317.986788 C254.704424,322.998498 250.81911,327.269862 246.090623,330.427415 C241.329072,333.501633 236.103465,335.78374 230.615928,337.185467 C225.186157,338.599329 219.645313,339.542628 214.054528,340.004955 C202.962852,340.846363 191.824776,340.875507 180.728875,340.092155 C169.658962,339.409083 158.632518,338.260941 147.67852,337.069199 C136.807643,335.859151 125.862164,335.460808 114.932444,335.877457 C104.059831,336.187486 93.2705662,337.882094 82.8239014,340.920562 C77.6594229,342.470037 72.7125853,344.672599 68.1026563,347.475145 C63.5000754,350.224428 59.5848386,353.992489 56.6560189,358.491495 C53.7823929,363.085093 52.2327493,368.386995 52.1787899,373.809744 C52.1895494,379.321534 53.1150329,384.793077 54.9172892,390 L54.9172892,390 Z" id="Path"></path>
                    <path d="M67,334 C73.7831128,328.298441 82.2764977,324.834744 90.8858332,322.596882 C99.5802113,320.451934 108.491443,319.271008 117.453025,319.076169 C126.387064,318.825579 135.327936,319.197108 144.208637,320.187973 C153.049874,321.100223 161.833135,322.226281 170.616397,323.309577 C179.399658,324.392873 188.153932,325.5902 196.908206,326.50245 C205.619474,327.508472 214.385598,327.984508 223.156533,327.92784 C227.501109,327.878523 231.834467,327.482869 236.114018,326.744766 C240.353784,326.04609 244.444539,324.653686 248.216367,322.62539 C251.979163,320.592693 255.152028,317.648975 257.434443,314.073051 C259.695295,310.357646 261.242834,306.26537 262,302 C261.687968,306.406574 260.490902,310.708623 258.477999,314.657461 C256.352958,318.663563 253.200265,322.053971 249.332392,324.49265 C245.446238,326.870542 241.177418,328.581615 236.708265,329.552784 C232.296768,330.535233 227.805457,331.131475 223.286978,331.334521 C205.300134,332.175501 187.61766,329.666815 170.065631,327.557238 C161.28237,326.402673 152.513602,325.262361 143.759328,324.207572 C135.055255,323.083632 126.289475,322.483851 117.511,322.411581 C108.761388,322.304067 100.022451,323.048904 91.422105,324.635189 C82.7229156,326.106501 74.4158805,329.291886 67,334 Z" id="Path"></path>
                    <path d="M97,309.114362 C104.099692,306.906457 111.718874,306.819872 119.107171,307.036333 C126.495469,307.252795 133.869336,308.003194 141.272063,308.782455 C148.674791,309.561715 155.976507,310.716176 163.292653,311.928359 C170.608799,313.140542 177.838363,314.598049 185.096788,315.96897 C192.355213,317.339892 199.527057,318.855121 206.742191,320.038443 C213.925851,321.347735 221.183765,322.210425 228.474175,322.621548 C232.071463,322.800659 235.677455,322.675145 239.253586,322.246349 C242.771139,321.866572 246.192226,320.859761 249.354773,319.273613 C252.536587,317.658585 255.219952,315.209557 257.118258,312.188113 C259.022652,309.057233 260.338222,305.604357 261,302 C260.758826,305.753129 259.778001,309.421538 258.113946,312.794204 C256.337365,316.228273 253.651893,319.108513 250.350462,321.12075 C247.02826,323.067771 243.381184,324.397581 239.585482,325.045915 C235.860948,325.707187 232.083687,326.025995 228.301012,325.998345 C213.221381,325.926191 198.61795,322.910163 184.1011,320.226043 C169.58425,317.541923 155.240563,314.453741 140.665992,312.13039 C137.043995,311.553159 133.450858,311.105806 129.742279,310.571868 C126.0337,310.03793 122.440563,309.561715 118.789705,309.128793 C111.563238,308.100005 104.227824,308.095147 97,309.114362 L97,309.114362 Z" id="Path"></path>
                    <path d="M0,453 C14.2077196,451.252177 28.3720789,448.666553 41.654779,443.524197 C54.9487712,438.559322 67.1660099,431.091139 77.6438144,421.524733 C87.9996159,411.818583 97.2130804,400.962861 105.105327,389.168332 C113.199247,377.482472 120.599402,365.262152 127.753849,352.897385 C129.560527,349.806193 131.294939,346.715001 133.159431,343.59492 C135.023923,340.474838 136.960682,337.441426 138.940802,334.436903 C142.969156,328.401418 147.356437,322.613076 152.078968,317.103117 C161.463649,305.974657 172.610567,296.459304 185.076144,288.935714 C191.351235,285.19454 198.084724,282.281345 205.108595,280.268821 C212.143777,278.238162 219.50092,277.561708 226.788736,278.275436 C234.079901,279.076731 241.045204,281.726942 247.023535,285.974526 C249.969718,288.08976 252.64441,290.559101 254.987374,293.32694 C257.2904,296.085104 259.305093,299.071463 261,302.239395 C257.303562,296.132548 252.316414,290.906802 246.387584,286.927884 C240.447147,283.099182 233.626005,280.851684 226.571935,280.398824 C219.560772,279.945594 212.52729,280.827932 205.845719,282.998892 C199.134122,285.128929 192.715227,288.088985 186.738288,291.810234 C174.79426,299.393238 164.125838,308.817005 155.128641,319.732074 C150.604303,325.161198 146.391596,330.842314 142.510799,336.748074 C140.583675,339.694818 138.695094,342.694526 136.845055,345.747198 L131.497287,355.035219 C124.270573,367.414431 116.783697,379.706974 108.458523,391.479504 C100.133348,403.252034 90.9120611,414.562329 79.826282,424.052577 C74.3446657,428.820378 68.4153544,433.048241 62.1208329,436.677351 C55.8190735,440.261271 49.1824062,443.222046 42.3051833,445.517582 C28.5915587,449.850002 14.3684655,452.365607 0,453 L0,453 Z" id="Path"></path>
                    <path d="M82,434 C90.7700287,427.863796 98.6137981,420.49712 105.290712,412.125937 C112.037914,403.812547 118.23682,395.067577 123.84801,385.946641 C129.493366,376.857816 134.863691,367.609537 140.089264,358.230797 C145.446676,348.8208 151.368251,339.744352 157.821472,331.051296 C164.311252,322.342342 171.510816,314.18714 179.3462,306.669471 C187.190029,299.054047 196.080975,292.60095 205.749095,287.50611 C210.640275,284.974028 215.842974,283.097628 221.22316,281.925252 C226.650431,280.73721 232.265154,280.692781 237.710495,281.794791 C243.081805,283.035322 248.057924,285.601646 252.185766,289.260094 C256.230953,292.877132 259.5603,297.224186 262,302.074323 C259.1903,297.526526 255.626525,293.492002 251.462002,290.144334 C247.323889,286.897715 242.434827,284.748871 237.247286,283.896672 C232.093594,283.091529 226.829043,283.367963 221.787696,284.708433 C216.737949,286.022808 211.874324,287.971008 207.312425,290.506727 C198.11401,295.722788 189.661247,302.15909 182.183353,309.641096 C174.561981,317.105493 167.552639,325.171815 161.22316,333.761998 C154.829638,342.28227 148.937846,351.168751 143.577805,360.376166 C138.149578,369.653436 132.634499,378.930706 126.612786,387.918061 C120.681103,396.917774 114.091267,405.464693 106.897467,413.488536 C99.7070403,421.573458 91.3080845,428.492832 82,434 Z" id="Path"></path>
                    <path d="M119,417 C124.869089,410.264201 130.000633,402.915903 134.306473,395.08135 C138.782894,387.359842 142.970514,379.450006 147.302535,371.598116 C155.868013,355.762518 165.644353,340.616977 176.543674,326.297641 C182.07457,319.173488 188.04012,312.399968 194.406039,306.016008 C200.799314,299.523686 207.996243,293.880879 215.82066,289.225713 C219.802449,286.899184 224.082671,285.129879 228.542361,283.966976 C233.0666,282.772757 237.810185,282.68334 242.375947,283.706212 C246.822553,284.849465 250.888065,287.153726 254.159043,290.384664 C257.353163,293.585175 260.002023,297.28994 262,301.351232 C259.626149,297.582256 256.706115,294.188918 253.335959,291.28285 C250.030943,288.458216 246.049558,286.545949 241.783904,285.734375 C237.54927,285.026357 233.207277,285.344245 229.119964,286.661535 C224.986386,287.948624 221.039333,289.775122 217.380188,292.094116 C210.002309,296.862097 203.215936,302.493594 197.164092,308.869923 C190.991964,315.213304 185.2055,321.923173 179.836009,328.963227 C174.363223,335.96039 169.251439,343.232804 164.327376,350.693548 C159.403312,358.154291 154.69585,365.672982 150.103908,373.322055 C145.511966,380.971128 140.992225,388.736096 136.053721,396.2403 C131.115218,403.744504 125.714632,411.016918 119,417 Z" id="Path"></path>
                    <path d="M233.945826,525 C228.41209,524.427512 223.031712,522.83297 218.076352,520.296885 C213.028987,517.68973 208.803373,513.726691 205.871285,508.850227 C203.061023,503.866668 201.432025,498.301151 201.110443,492.584685 C200.779871,486.940235 201.192178,481.276699 202.33672,475.740299 C204.682397,464.781253 208.501976,454.1928 213.690607,444.265607 C218.768595,434.362874 224.604917,424.870272 231.147028,415.873264 C237.696792,406.987995 244.131142,398.117197 250.291383,389.043803 C256.529192,380.069627 262.167967,370.691135 267.170732,360.969825 C269.627262,356.130684 271.682797,351.097057 273.316546,345.919857 C274.987856,340.780853 275.830407,335.40713 275.812381,330.001622 C275.792263,324.590683 274.444586,319.267903 271.888294,314.50305 C269.200697,309.723777 265.654504,305.484707 261.428868,302 C266.008725,305.16043 269.904935,309.216275 272.883742,313.924205 C275.844056,318.760532 277.577741,324.250841 277.93312,329.914796 C278.218371,335.560019 277.589876,341.214311 276.072064,346.657884 C274.597214,352.051405 272.666652,357.308988 270.301346,362.373524 C265.505076,372.414431 259.979138,382.087934 253.76824,391.315769 C247.665707,400.548345 241.188076,409.520441 234.724873,418.405711 C228.272156,427.196375 222.485236,436.459711 217.41272,446.11791 C212.248752,455.680839 208.317218,465.863242 205.71259,476.420441 C204.469358,481.656099 203.902066,487.030313 204.024655,492.411032 C204.094628,497.759471 205.382565,503.021092 207.790048,507.793835 C210.300227,512.572316 214.086661,516.555779 218.725558,519.298378 C223.450025,522.029497 228.593161,523.956153 233.945826,525 Z" id="Path"></path>
                    <path d="M192.748383,487 C191.135428,478.242175 192.30194,469.122457 194.606162,460.523865 C197.046004,451.918924 200.426958,443.612236 204.687129,435.755869 C208.917929,427.90509 213.686686,420.359507 218.958899,413.173709 C224.143397,406.008216 229.500711,398.973005 234.80042,391.923318 C240.100128,384.873631 245.515048,377.925274 250.64194,370.803208 C255.886026,363.792226 260.69559,356.463278 265.043323,348.857981 C267.152647,345.073012 268.953894,341.122726 270.42944,337.045775 C271.930472,333.028284 272.748364,328.785579 272.848872,324.495305 C272.920521,320.188164 271.89953,315.933657 269.882187,312.13302 C267.756983,308.273795 264.945369,304.83926 261.586991,302 C265.289235,304.505183 268.461,307.722845 270.919087,311.467136 C273.355157,315.348516 274.753951,319.795916 274.980277,324.379499 C275.122537,328.949768 274.494411,333.511286 273.122498,337.870892 C271.795417,342.183596 270.089332,346.369102 268.024409,350.377934 C259.815621,366.301252 248.841768,380.38615 238.271153,394.5 C232.899437,401.50626 227.542123,408.51252 222.271217,415.562207 C216.962773,422.518836 212.081248,429.794333 207.653814,437.3482 C203.206193,444.871193 199.510994,452.818586 196.622355,461.073944 C193.602992,469.364459 192.285184,478.183719 192.748383,487 L192.748383,487 Z" id="Path"></path>
                    <path d="M186,448 C187.626293,440.769414 191.353814,434.073891 195.225255,427.754358 C199.096696,421.434826 203.42868,415.418978 207.789448,409.40313 C212.150216,403.387282 216.798824,397.602813 221.476215,391.861727 C226.153606,386.120642 231.046878,380.567552 235.868189,374.971078 C240.6895,369.374604 245.553987,363.835975 250.260162,358.167195 C254.982871,352.600123 259.347688,346.736285 263.328074,340.611331 C265.275482,337.577936 266.965309,334.385206 268.379657,331.066957 C269.819823,327.807634 270.667924,324.315661 270.883861,320.756141 C271.076229,317.187765 270.300212,313.633911 268.638713,310.474247 C266.877799,307.256567 264.552014,304.385575 261.773741,302 C264.900767,304.069661 267.586654,306.743883 269.674935,309.866878 C271.760229,313.124966 272.910608,316.897938 273,320.770602 C273.021331,324.628358 272.353497,328.458701 271.02778,332.079239 C269.733766,335.643689 268.12505,339.084697 266.220861,342.361133 C258.636291,355.376189 248.749005,366.569136 239.192735,377.805468 C229.636464,389.041799 219.734786,399.974445 210.538315,411.456616 C208.221207,414.348851 206.019235,417.241086 203.730912,420.13332 C201.442588,423.025555 199.226224,425.917789 197.053036,428.925713 C192.491083,434.727673 188.769794,441.149522 186,448 L186,448 Z" id="Path"></path>
                    <path d="M261.934281,604 C267.569237,590.798417 272.417919,577.205998 274.660253,563.121415 C277.008548,549.10122 276.637873,534.763895 273.568208,520.88214 C270.3197,507.038156 265.488115,493.609265 259.167766,480.857605 C253.037749,467.974482 246.063218,455.438768 238.899398,443.047809 C237.108443,439.935594 235.288367,436.866805 233.511973,433.682213 C231.735579,430.49762 230.046548,427.298553 228.444881,424.041583 C225.219923,417.533007 222.390095,410.838195 219.970607,403.993127 C214.991768,390.275805 212.301425,375.841752 212.005954,361.261688 C211.919215,353.94463 212.780518,346.646922 214.568621,339.548559 C216.338812,332.411759 219.462056,325.676132 223.770926,319.702758 C228.146044,313.776995 233.969475,309.058815 240.690353,305.994536 C244.020031,304.503044 247.521377,303.423782 251.115749,302.780993 C254.686476,302.162383 258.311689,301.910151 261.934281,302.028271 C254.737769,302.171669 247.660308,303.881272 241.199974,307.036766 C234.86554,310.262637 229.466989,315.046562 225.518199,320.933169 C221.593417,326.794181 218.821664,333.341651 217.349697,340.228903 C215.831788,347.113647 215.181273,354.159375 215.413136,361.203786 C216.015798,375.365981 218.871079,389.343893 223.87285,402.617962 C226.292972,409.291822 229.098117,415.82142 232.274321,422.174254 C233.861428,425.358846 235.521337,428.500012 237.283171,431.583277 L242.685157,440.876496 C249.834415,453.368783 256.823508,466.005825 262.895281,479.13503 C268.967055,492.264236 274.179753,505.900081 276.902587,520.216271 C279.752069,534.50979 279.697612,549.225487 276.74242,563.497776 C273.614756,577.585806 268.635974,591.203436 261.934281,604 L261.934281,604 Z" id="Path"></path>
                    <path d="M286,524 C285.082269,513.333649 282.639885,502.853547 278.74723,492.878865 C274.923326,482.90514 270.450925,473.191685 265.358617,463.800599 C260.310689,454.363805 255.021002,445.052578 249.489556,435.866917 C244.010009,426.515634 239.107671,416.838652 234.80995,406.89007 C230.520159,396.914253 227.060963,386.602215 224.4675,376.058703 C221.798117,365.456852 220.660005,354.528257 221.087709,343.604634 C221.34193,338.097118 222.317261,332.646581 223.988817,327.392088 C225.685465,322.095629 228.461025,317.207132 232.140931,313.034059 C235.910074,308.976202 240.638108,305.927528 245.892182,304.167144 C251.033387,302.480051 256.444988,301.767546 261.848276,302.066323 C256.498076,302.229344 251.214876,303.302377 246.22581,305.239287 C241.33425,307.20135 237.01827,310.36599 233.678518,314.439437 C230.404895,318.502446 228.009497,323.198792 226.643331,328.232416 C225.241125,333.289256 224.485664,338.503094 224.394972,343.749518 C224.303312,354.322801 225.645172,364.859812 228.383996,375.073491 C231.021262,385.37353 234.479792,395.446178 238.726446,405.194924 C242.910941,414.995647 247.662266,424.545136 252.95638,433.795073 C258.265408,443.125618 263.55993,452.543093 268.288736,462.235849 C273.156735,471.89231 277.297446,481.897715 280.676467,492.168933 C284.087882,502.440584 285.883736,513.178556 286,524 Z" id="Path"></path>
                    <path d="M290,484 C287.107658,475.556775 283.323336,467.447866 278.711562,459.811541 C274.294347,452.081657 269.530684,444.539953 264.911374,436.86797 C255.525766,421.52361 247.345105,405.470143 240.443468,388.852938 C237.020534,380.489305 234.127709,371.917263 231.782263,363.187985 C229.372605,354.393828 228.10148,345.325285 228,336.205766 C227.987196,331.584528 228.599053,326.982856 229.819056,322.526476 C231.073698,317.993072 233.395503,313.828028 236.589232,310.381583 C239.82839,307.051661 243.894505,304.648188 248.368472,303.418896 C252.726202,302.243325 257.246887,301.793424 261.750034,302.087156 C257.320274,302.255382 252.940828,303.089788 248.758226,304.562456 C244.665563,306.007171 241.022193,308.502724 238.191555,311.800176 C235.468668,315.122848 233.573535,319.04769 232.662819,323.250248 C231.711656,327.484612 231.313752,331.82505 231.479121,336.16234 C231.895212,344.950244 233.348893,353.657684 235.809723,362.102327 C238.194291,370.635081 241.086542,379.016903 244.470929,387.202738 C247.762187,395.439263 251.486506,403.516558 255.412919,411.507001 C259.339332,419.497443 263.525581,427.343131 267.841749,435.145393 C272.157916,442.947655 276.575131,450.764392 280.588157,458.79826 C284.601182,466.832129 288.267759,475.198933 290,484 Z" id="Path"></path>
                    <path d="M441,436.668753 C437.736094,441.185672 433.670829,445.060043 429.00791,448.097725 C424.234257,451.181315 418.703382,452.878072 413.028089,453 C407.313092,452.943324 401.687541,451.568754 396.585923,448.982455 C391.538221,446.438817 386.845642,443.239904 382.628864,439.467981 C374.307699,431.935375 367.037207,423.309987 361.014206,413.825313 C354.999491,404.433434 349.715019,394.59005 345.207765,384.382657 C340.873275,374.230017 336.365405,364.178903 331.597465,354.272827 C326.976803,344.341909 321.70609,334.72905 315.819921,325.497344 C312.864487,320.941249 309.544888,316.633939 305.893938,312.617995 C302.298377,308.587619 298.084091,305.160158 293.410606,302.465355 C288.723265,299.774378 283.449274,298.280237 278.052062,298.114224 C272.568988,298.0795 267.126793,299.062955 262,301.014978 C267.027935,298.610199 272.487592,297.248677 278.052062,297.011937 C283.71063,296.863397 289.319849,298.103059 294.393091,300.623376 C299.415053,303.220811 303.986513,306.614817 307.931149,310.67449 C311.860916,314.673785 315.438201,319.007271 318.622891,323.626358 C324.886195,332.824067 330.468601,342.470813 335.325127,352.488863 C340.251998,362.423947 344.759868,372.562083 349.209944,382.642204 C353.579776,392.679488 358.689387,402.37557 364.496247,411.649747 C370.177583,420.93771 377.013594,429.461918 384.839454,437.016844 C388.758269,440.716307 393.127423,443.903415 397.842925,446.50231 C402.507197,449.102006 407.700511,450.60001 413.028089,450.882449 C418.415874,451.085632 423.753714,449.779946 428.444427,447.111469 C433.178807,444.355409 437.422198,440.826098 441,436.668753 L441,436.668753 Z" id="Path"></path>
                    <path d="M388,454 C379.574821,451.014392 372.239105,445.434495 365.920221,439.115442 C359.674435,432.679448 354.168772,425.567479 349.505649,417.91183 C344.812404,410.299148 340.662185,402.366225 337.085774,394.171902 C333.468757,386.055687 330.055107,377.867006 326.612405,369.707311 C323.169703,361.547617 319.84321,353.358936 316.255246,345.315187 C312.786587,337.25551 308.828108,329.414581 304.401891,321.836137 C302.182672,318.100813 299.661256,314.552657 296.862808,311.227085 C294.127208,307.904009 290.852075,305.062523 287.173853,302.821005 C283.461228,300.611472 279.248676,299.375002 274.928291,299.226681 C270.521615,299.169357 266.141128,299.910879 262,301.415161 C266.042498,299.443484 270.436595,298.290801 274.928291,298.023742 C279.52592,297.829638 284.09543,298.828357 288.190685,300.92239 C292.236659,303.080551 295.886137,305.908243 298.983629,309.28499 C302.05675,312.606532 304.832183,316.190412 307.278072,319.995495 C317.039659,335.140932 323.678119,351.735693 330.621628,368.011602 C333.991699,376.205114 337.381139,384.36964 340.789947,392.505179 C344.180951,400.611875 348.061724,408.505865 352.410883,416.143655 C356.707863,423.787213 361.753751,430.986914 367.474522,437.637131 C373.147449,444.409432 380.127705,449.974078 388,454 Z" id="Path"></path>
                    <path d="M350,441 C344.491999,435.930478 340.582626,429.412521 337.05111,422.822142 C333.519595,416.231763 330.453135,409.511024 327.415741,402.688896 C324.378347,395.866767 321.689745,388.928764 319.059275,381.976276 C316.428805,375.023789 314.059928,367.984395 311.603854,360.988454 C309.147779,353.992513 306.807969,346.982088 304.23563,340.087538 C301.748537,333.184782 298.836405,326.441572 295.515839,319.896355 C293.838332,316.679181 291.893825,313.607452 289.702645,310.713278 C287.589091,307.83245 284.98153,305.346395 282.000163,303.369712 C278.960415,301.410705 275.444743,300.309477 271.827074,300.183156 C268.14195,300.100411 264.47267,300.689458 261,301.921277 C264.381269,300.251476 268.061333,299.266845 271.827074,299.024408 C275.716294,298.838222 279.582135,299.720031 283.002939,301.573653 C286.370461,303.485771 289.363844,305.988266 291.838994,308.960671 C294.29567,311.869761 296.479893,314.996953 298.364304,318.303077 C305.877858,331.440381 310.615611,345.649528 315.571359,359.612441 C320.527106,373.575354 325.046865,387.668626 330.38047,401.443242 C331.702972,404.876033 333.141737,408.279855 334.522371,411.72713 C335.903005,415.174405 337.312704,418.578227 338.882266,421.938596 C341.666543,428.783715 345.409634,435.201261 350,441 Z" id="Path"></path>
                    <path d="M523,453 C514.309144,441.559509 504.995444,430.567949 493.900117,421.603817 C482.931331,412.533205 470.323828,405.650718 456.761193,401.329529 C443.1462,397.215562 429.106957,394.664848 414.914722,393.726671 C400.690688,392.553659 386.379745,392.278508 372.054318,392.278508 C368.476582,392.278508 364.913331,392.278508 361.263172,392.278508 C357.613012,392.278508 354.020792,392.075765 350.399602,391.829577 C343.151915,391.347119 335.939909,390.428283 328.802825,389.078067 C314.438081,386.526866 300.589869,381.634561 287.810955,374.596432 C281.428718,371.022554 275.533246,366.642058 270.26991,361.562962 C264.966625,356.467633 260.684629,350.407287 257.653685,343.707107 C254.690524,336.974875 253.49881,329.596816 254.191827,322.274288 C254.548605,318.66053 255.351369,315.104812 256.581812,311.688213 C257.827751,308.306491 259.41477,305.060354 261.318329,302 C257.859398,308.268205 255.817372,315.218494 255.336123,322.361178 C254.981283,329.433946 256.447542,336.479443 259.594642,342.823727 C262.727842,349.130353 267.034168,354.782415 272.283292,359.477606 C277.497608,364.226385 283.282876,368.307791 289.505672,371.627697 C302.079091,378.187162 315.610743,382.717918 329.599487,385.052172 C336.585314,386.299643 343.636195,387.150594 350.718267,387.60094 C354.271861,387.832646 357.820627,387.967808 361.364565,388.006426 L372.112257,388.006426 C386.495623,388.093315 400.907959,388.39743 415.305811,389.72974 C429.703662,391.06205 444.115998,393.408075 457.87652,398.215978 C471.694945,402.905238 484.435576,410.31064 495.348593,419.996356 C505.972692,429.738375 515.269501,440.834685 523,453 L523,453 Z" id="Path"></path>
                    <path d="M466,392 C456.299129,387.466464 445.998517,384.34595 435.41219,382.733591 C424.864301,381.088095 414.221673,380.120858 403.549887,379.837838 C392.861533,379.490347 382.173179,379.446911 371.441376,379.606178 C360.620632,379.671478 349.805981,379.076744 339.057691,377.82529 C328.277559,376.543893 317.620949,374.379277 307.195388,371.353282 C296.682247,368.364387 286.650392,363.888628 277.404136,358.061776 C272.769867,355.085801 268.54382,351.518041 264.833009,347.448842 C261.094062,343.332573 258.248727,338.48652 256.476396,333.216216 C254.836542,327.931971 254.557577,322.319383 255.665356,316.898649 C256.76892,311.587122 258.867173,306.532109 261.849539,302 C259.31718,306.704324 257.607728,311.806744 256.795019,317.086873 C256.056185,322.292313 256.638893,327.599923 258.489514,332.521236 C260.370754,337.402672 263.246026,341.840086 266.933024,345.552124 C270.608496,349.288454 274.739588,352.547639 279.228976,355.252896 C288.339871,360.610512 298.131538,364.716003 308.339535,367.458494 C318.574346,370.316173 329.020547,372.354469 339.579074,373.554054 C350.151609,374.842513 360.79066,375.509682 371.441376,375.552124 C382.173179,375.624517 392.962913,375.754826 403.723682,376.507722 C414.513079,377.122698 425.241164,378.545606 435.81771,380.764479 C446.401148,382.919679 456.584051,386.71032 466,392 L466,392 Z" id="Path"></path>
                    <path d="M433,368 C424.254683,366.29046 415.349841,365.523281 406.43948,365.711731 C397.532959,365.711731 388.611979,366.042739 379.662081,366.215438 C361.689186,366.699572 343.705757,365.785321 325.875944,363.481029 C316.933076,362.270147 308.076282,360.496423 299.358801,358.170519 C290.546073,355.880309 282.066256,352.470244 274.128476,348.024422 C270.123854,345.7455 266.451082,342.932268 263.212204,339.662887 C259.884586,336.35903 257.404953,332.306344 255.982884,327.847362 C254.718093,323.397408 254.673161,318.691568 255.852756,314.218491 C257.017248,309.869973 258.893037,305.741943 261.404874,302 C259.332091,305.911261 257.869477,310.11377 257.067282,314.463149 C256.271074,318.716463 256.610093,323.10328 258.050469,327.185347 C259.558374,331.190296 262.00746,334.777813 265.193037,337.648059 C268.374569,340.580998 271.927785,343.087202 275.762302,345.102922 C283.565204,349.098893 291.815815,352.161625 300.341988,354.227213 C308.910462,356.398518 317.600951,358.06128 326.367538,359.206716 C335.158391,360.444396 344.007078,361.250327 352.870223,361.825992 C361.733369,362.401657 370.63989,362.68949 379.560871,362.862189 C388.481851,363.034889 397.446207,363.078064 406.396104,363.596162 C415.346002,364.114261 424.483862,365.208024 433,368 Z" id="Path"></path>
                    <path d="M469.12031,214 C471.376166,219.11245 472.677509,224.597049 472.959627,230.181067 C473.252461,235.897606 471.947789,241.582544 469.19275,246.594746 C466.286645,251.553143 462.274719,255.768085 457.471966,258.90864 C452.753367,262.046148 447.637034,264.534954 442.259576,266.308607 C431.559618,269.762895 420.443063,271.748417 409.21247,272.211135 C398.096601,272.749485 386.955882,272.423825 375.890092,271.237073 C364.893707,269.986783 353.969763,268.809186 343.016842,268.009582 C332.104423,267.070664 321.142069,266.85697 310.201544,267.369899 C304.771949,267.668702 299.374867,268.402801 294.061923,269.565174 C288.778113,270.691302 283.706637,272.654298 279.037877,275.380472 C274.363289,278.122015 270.428734,281.970389 267.577876,286.58946 C264.789559,291.338184 262.898595,296.562533 262,302 C262.437505,296.414368 263.994704,290.974937 266.578205,286.00793 C269.286375,280.998196 273.176269,276.730426 277.907813,273.57773 C282.668897,270.502497 287.89399,268.219635 293.380987,266.817446 C298.81126,265.416636 304.351646,264.487603 309.94076,264.040641 C321.030777,263.184463 332.168821,263.155307 343.263138,263.953412 C354.317474,264.636709 365.357323,265.78523 376.310244,266.962828 C387.174694,268.180212 398.114798,268.578707 409.038614,268.154964 C419.920051,267.872317 430.720086,266.186593 441.172976,263.13927 C446.339735,261.590895 451.290484,259.3927 455.907263,256.597059 C460.503203,253.838722 464.416389,250.071021 467.352775,245.577069 C470.226608,240.982966 471.771526,235.677796 471.815076,230.253758 C471.827462,224.722863 470.916606,219.228944 469.12031,214 L469.12031,214 Z" id="Path"></path>
                    <path d="M457,269 C450.216887,274.869275 441.723502,278.449533 433.099673,280.73855 C424.402718,282.93299 415.492991,284.148449 406.532481,284.362828 C397.598547,284.606114 388.658688,284.223699 379.776869,283.218319 C370.950126,282.264562 362.152371,281.10538 353.36911,279.990218 C344.585848,278.875056 335.846068,277.642508 327.0773,276.703424 C318.364843,275.681841 309.599565,275.19185 300.828973,275.236105 C296.488807,275.291738 292.160263,275.703941 287.885982,276.468653 C283.642372,277.182781 279.546811,278.611151 275.769139,280.694531 C272.002664,282.821009 268.830948,285.880514 266.551063,289.586483 C264.296939,293.407738 262.754387,297.615216 262,302 C262.305205,297.469102 263.497503,293.044905 265.507507,288.984882 C267.64114,284.858473 270.797741,281.364479 274.667608,278.845709 C278.553184,276.399944 282.822489,274.643301 287.291735,273.651401 C291.699375,272.643389 296.185158,272.024792 300.698528,271.802579 C318.685372,270.936861 336.367846,273.519342 353.934369,275.690974 C362.71763,276.894175 371.471904,278.06803 380.240672,279.139173 C388.945127,280.294253 397.710498,280.916549 406.489,281.002668 C415.239042,281.107163 423.977852,280.335512 432.577895,278.698977 C441.280736,277.1641 449.587594,273.86512 457,269 L457,269 Z" id="Path"></path>
                    <path d="M426,294.885481 C418.88212,297.107866 411.273352,297.194453 403.866714,296.963555 C396.460076,296.732658 389.096751,296.011105 381.690114,295.217396 C374.283476,294.423687 366.977903,293.283632 359.67233,292.085853 C352.366758,290.888074 345.104499,289.416104 337.856678,288.045152 C330.608856,286.6742 323.418787,285.158938 316.199842,283.97559 C309.042543,282.656607 301.80931,281.789029 294.543006,281.377997 C290.938563,281.210873 287.32647,281.341195 283.743463,281.767636 C280.224843,282.151378 276.802638,283.158009 273.63694,284.740437 C270.460204,286.358668 267.777321,288.801032 265.869355,291.811662 C263.966956,294.942627 262.655457,298.395915 262,302 C262.23443,298.250269 263.216179,294.58517 264.887578,291.219988 C266.66265,287.784971 269.343733,284.90055 272.640725,282.878828 C275.96942,280.944785 279.616888,279.620392 283.411392,278.968007 C287.142319,278.301967 290.926363,277.978326 294.71626,278.001125 C309.789418,278.087712 324.415001,281.103806 338.925081,283.773555 C353.435162,286.443303 367.800863,289.545984 382.383132,291.869387 C386.007043,292.44663 389.602078,292.908424 393.327053,293.427943 C397.052029,293.947461 400.618188,294.452549 404.270975,294.87105 C411.477653,295.891722 418.791971,295.89658 426,294.885481 Z" id="Path"></path>
                    <path d="M523,151 C508.795427,152.748508 494.634204,155.335145 481.339996,160.465066 C468.052874,165.439943 455.839799,172.910161 445.35893,182.473151 C435.004599,192.182322 425.793091,203.042397 417.903499,214.842231 C409.796922,226.547122 402.398405,238.75778 395.259993,251.127393 C393.453715,254.219796 391.719688,257.312199 389.841158,260.433503 C387.962629,263.554808 386.040749,266.589409 384.061067,269.595109 C380.033237,275.632698 375.646944,281.423286 370.925811,286.935688 C361.523833,298.048326 350.370923,307.551652 337.907042,315.070778 C331.620882,318.799046 324.886007,321.712526 317.864578,323.741067 C310.830023,325.767664 303.474524,326.439478 296.189237,325.720783 C288.901327,324.922216 281.937979,322.276097 275.958919,318.033126 C273.021307,315.912657 270.352502,313.442757 268.011294,310.677831 C265.708604,307.913543 263.69438,304.921205 262,301.747433 C265.691328,307.863906 270.677983,313.097274 276.609179,317.079395 C282.543254,320.909013 289.358084,323.15745 296.40599,323.611013 C303.420147,324.057848 310.455573,323.17534 317.142066,321.009926 C323.852177,318.879055 330.26965,315.917838 336.245266,312.195132 C348.183922,304.599735 358.849297,295.168002 367.847913,284.247899 C372.412913,278.836436 376.663457,273.167335 380.578563,267.268582 C382.50526,264.320683 384.388606,261.3198 386.228601,258.265931 L391.589636,248.988721 C398.814749,236.604658 406.299967,224.292847 414.623298,212.515704 C422.946628,200.738561 432.165873,189.467184 443.191396,179.987668 C448.665398,175.209891 454.594213,170.979788 460.892924,167.357946 C467.192227,163.7766 473.821761,160.810194 480.689735,158.4998 C494.40427,154.159373 508.629189,151.637903 523,151 Z" id="Path"></path>
                    <path d="M442,170 C433.224398,176.142414 425.372539,183.511705 418.683563,191.883431 C411.965724,200.178019 405.788325,208.897229 400.189718,217.986928 C394.556119,227.079646 389.168718,236.317383 383.940623,245.70014 C378.585662,255.118656 372.666067,264.20383 366.214337,272.905784 C359.711,281.618988 352.508747,289.786492 344.679218,297.327055 C336.831603,304.945741 327.936364,311.401601 318.263577,316.498623 C313.367304,319.025515 308.162934,320.902414 302.782042,322.081871 C297.351146,323.265633 291.733714,323.305142 286.286749,322.197887 C280.912547,320.965711 275.933055,318.402774 271.80449,314.743888 C267.764644,311.116433 264.439132,306.763289 262,301.909669 C264.806698,306.462655 268.372807,310.499601 272.543085,313.844768 C276.680742,317.099598 281.572715,319.254593 286.764663,320.109607 C291.920843,320.915095 297.187936,320.638542 302.231716,319.297498 C307.280797,317.973114 312.145616,316.024542 316.713975,313.496721 C325.900839,308.296425 334.34733,301.88222 341.826213,294.426667 C349.406303,286.965509 356.379907,278.910718 362.680666,270.33894 C369.093165,261.798647 375.006976,252.894085 380.392469,243.669868 C385.823316,234.403127 391.326575,225.107382 397.365677,216.116177 C403.291906,207.070108 409.885227,198.480355 417.090514,190.418735 C424.284346,182.358435 432.688277,175.469588 442,170 Z" id="Path"></path>
                    <path d="M405,186 C399.147303,192.73151 394.030397,200.072401 389.736847,207.89705 C385.260426,215.601567 381.072806,223.523317 376.812986,231.372656 C368.264499,247.231607 358.487396,262.392779 347.571847,276.716348 C342.053376,283.844219 336.09224,290.616004 329.723922,296.991394 C323.330304,303.477109 316.133333,309.113249 308.3093,313.761753 C304.32772,316.091421 300.047626,317.864971 295.5876,319.033265 C291.05847,320.227197 286.310187,320.31658 281.739574,319.293944 C277.245868,318.14479 273.138721,315.815286 269.840957,312.545251 C266.643624,309.348517 263.994361,305.644391 262,301.582244 C264.363451,305.379023 267.284308,308.796626 270.664041,311.719767 C273.963065,314.555521 277.946479,316.473135 282.216096,317.280922 C286.451087,317.980884 290.791237,317.663234 294.880036,316.354063 C299.010131,315.058308 302.956038,313.232933 306.619812,310.923247 C313.997691,306.156814 320.784064,300.527146 326.835908,294.152888 C333.007693,287.806162 338.794122,281.093675 344.163991,274.051628 C349.622337,267.071219 354.748561,259.786685 359.672624,252.328364 C364.596688,244.870044 369.30415,237.353795 373.896092,229.707206 C378.488034,222.060617 383.007775,214.298171 387.946279,206.796404 C392.884782,199.294637 398.270928,191.952174 405,186 Z" id="Path"></path>
                </g>
            </g>
        </g>
    </g>
</svg>