 <svg version="1.0" xmlns="http://www.w3.org/2000/svg" width="700.000000pt" height="235.000000pt" viewBox="0 0 700.000000 235.000000">
<g transform="translate(0.000000,235.000000) scale(0.100000,-0.100000)" fill="#8a6960" stroke="none">
<path d="M5985 1999 c-98 -28 -195 -122 -237 -229 -42 -109 -34 -281 18 -383
23 -43 35 -22 17 29 -22 64 -14 213 14 276 29 63 91 128 196 205 86 64 106 94
71 107 -20 8 -41 6 -79 -5z"></path>
<path d="M5648 1877 c-26 -19 -54 -54 -71 -87 -41 -80 -35 -162 21 -283 43
-91 80 -152 89 -143 3 3 -5 27 -17 53 -18 36 -25 71 -28 140 -5 104 7 152 59
236 17 27 33 65 36 84 5 30 3 33 -20 33 -14 0 -45 -15 -69 -33z"></path>
<path d="M5449 1681 c-42 -43 -41 -101 5 -165 35 -49 163 -163 173 -153 3 3
-9 23 -26 44 -43 55 -84 149 -88 208 -8 106 -16 114 -64 66z"></path>
<path d="M5261 1681 c-39 -39 -23 -108 41 -167 37 -36 147 -108 154 -102 2 3
-13 24 -35 47 -46 50 -98 143 -109 196 -9 46 -24 53 -51 26z"></path>
<path d="M4981 1671 c-6 -11 -11 -26 -11 -35 0 -23 43 -69 91 -96 l44 -24 -36
42 c-20 23 -41 60 -48 82 -14 48 -26 57 -40 31z"></path>
<path d="M4776 1673 c-13 -13 -5 -35 20 -58 36 -33 51 -32 25 1 -12 15 -21 33
-21 40 0 15 -15 26 -24 17z"></path>
<path d="M4865 1669 c-13 -21 6 -59 42 -83 43 -30 56 -26 25 7 -12 13 -27 37
-33 55 -11 33 -23 40 -34 21z"></path>
<path d="M5110 1661 c-21 -40 -12 -73 33 -115 24 -23 63 -52 87 -65 l45 -25
-37 42 c-42 46 -72 101 -83 150 -7 36 -29 42 -45 13z"></path>
<path d="M4390 1580 c-233 -30 -414 -141 -490 -301 l-29 -63 -106 -37 c-172
-60 -441 -203 -650 -346 -97 -65 -402 -219 -500 -252 -92 -30 -269 -57 -310
-47 -14 4 -79 -15 -175 -50 -300 -109 -540 -161 -790 -171 -407 -16 -816 76
-1094 245 -86 53 -113 49 -31 -3 208 -134 462 -218 775 -257 152 -19 651 -16
860 4 91 9 206 20 255 23 139 10 212 30 311 87 49 28 181 95 294 148 235 110
288 140 518 291 189 125 403 236 540 279 51 17 94 30 96 30 2 0 7 -17 11 -38
16 -99 111 -199 250 -267 100 -49 191 -68 300 -63 111 5 185 39 216 100 101
199 -217 385 -596 349 -49 -5 -92 -7 -94 -5 -2 2 4 23 15 46 28 64 112 141
196 182 117 58 208 76 374 76 307 0 519 -63 1085 -323 198 -91 431 -165 634
-203 141 -27 464 -27 513 -1 21 12 32 24 30 35 -3 15 -26 18 -198 23 -274 9
-489 39 -640 89 -210 70 -333 115 -513 189 -313 129 -517 193 -697 221 -103
15 -282 21 -360 10z m-8 -402 c150 -50 238 -129 238 -216 0 -38 -5 -50 -38
-82 -45 -45 -92 -60 -192 -60 -223 0 -437 146 -465 317 l-7 42 39 10 c70 18
87 19 218 17 107 -3 143 -7 207 -28z"></path>
</g>
</svg>
