<?xml version="1.0" encoding="UTF-8"?>
<svg width="416px" viewBox="0 0 416 208" version="1.1" xmlns="http://www.w3.org/2000/svg" xmlns:xlink="http://www.w3.org/1999/xlink">
    <!-- Generator: Sketch 61.2 (89653) - https://sketch.com -->
    <title>Group 18</title>
    <desc>Created with Sketch.</desc>
    <g id="Page-1" stroke="none" stroke-width="1" fill="none" fill-rule="evenodd">
        <g id="PINSTRIPE" transform="translate(0.000000, -255.000000)" stroke="#f3f1ef" stroke-width="4">
            <g id="Group-18" transform="translate(2.622138, 265.850000)">
                <path d="M206.228862,92.155 C206.228862,92.155 206.848862,91.551 208.076862,90.487 C209.311862,89.432 211.131862,87.881 213.619862,86.125 C216.100862,84.363 219.209862,82.323 223.052862,80.428 C226.893862,78.568 231.477862,76.711 236.904862,76.116 C239.605862,75.827 242.520862,75.882 245.468862,76.564 C246.947862,76.878 248.405862,77.423 249.829862,78.086 C250.552862,78.399 251.215862,78.839 251.918862,79.219 C252.541862,79.593 253.169862,79.969 253.802862,80.348 C254.437862,80.725 255.079862,81.133 255.720862,81.492 C256.358862,81.842 257.001862,82.194 257.648862,82.549 C258.918862,83.284 260.309862,83.892 261.655862,84.581 C264.417862,85.815 267.259862,86.996 270.228862,87.873 C276.148862,89.597 282.587862,90.097 288.563862,88.296 C289.304862,88.06 290.053862,87.846 290.772862,87.532 L291.806862,87.118 C292.170862,86.939 292.633862,86.743 292.897862,86.581 C294.137862,85.917 295.473862,84.999 296.641862,84 C299.011862,81.973 301.046862,79.462 302.503862,76.727 C303.986862,74.014 304.843862,71.006 304.638862,68.218 C304.530862,66.828 304.134862,65.515 303.489862,64.324 C303.171862,63.724 302.763862,63.17 302.327862,62.632 L301.611862,61.863 L300.752862,61.103 C300.298862,60.774 299.757862,60.374 299.188862,60.129 C298.634862,59.845 298.072862,59.707 297.523862,59.629 C296.432862,59.485 295.325862,59.725 294.319862,60.371 C292.283862,61.623 290.879862,64.319 291.002862,66.656 C291.052862,67.826 291.448862,68.882 292.174862,69.729 C292.330862,69.96 292.575862,70.129 292.764862,70.34 L293.616862,71.005 C294.262862,71.56 294.770862,71.812 295.319862,72.192 C297.650862,73.574 300.275862,74.271 302.915862,74.101 C305.561862,74.005 308.170862,73.166 310.624862,72.141 C313.073862,71.103 315.432862,69.855 317.561862,68.505 C321.702862,65.791 325.476862,62.553 329.491862,60.756 C333.436862,58.763 337.589862,58.65 340.574862,59.421 C343.604862,60.188 345.683862,61.487 347.029862,62.381 C348.353862,63.323 349.059862,63.826 349.059862,63.826 C349.059862,63.826 348.304862,63.406 346.888862,62.62 C345.472862,61.873 343.273862,60.892 340.380862,60.421 C337.492862,59.977 333.874862,60.424 330.382862,62.501 C328.610862,63.47 326.865862,64.787 325.058862,66.262 C323.240862,67.728 321.368862,69.349 319.174862,70.963 C317.012862,72.518 314.664862,73.955 312.043862,75.26 C309.424862,76.532 306.479862,77.626 303.178862,77.914 C299.895862,78.273 296.311862,77.532 293.221862,75.852 C292.455862,75.396 291.576862,74.903 291.007862,74.449 L289.974862,73.679 C289.605862,73.33 289.201862,73.023 288.876862,72.615 C287.477862,71.086 286.631862,68.991 286.502862,66.93 C286.359862,64.86 286.819862,62.829 287.708862,61.02 C288.599862,59.214 289.922862,57.569 291.717862,56.377 C293.474862,55.164 295.814862,54.511 298.074862,54.762 C299.191862,54.893 300.287862,55.194 301.253862,55.661 C302.239862,56.096 303.097862,56.678 303.996862,57.374 C304.193862,57.531 304.326862,57.659 304.494862,57.803 L305.054862,58.3 C305.401862,58.662 305.755862,59.018 306.091862,59.393 C306.742862,60.17 307.354862,60.997 307.851862,61.905 C308.859862,63.711 309.480862,65.757 309.653862,67.797 C309.978862,71.908 308.800862,75.804 307.013862,79.144 C305.187862,82.49 302.763862,85.414 299.886862,87.84 C298.422862,89.055 296.917862,90.103 295.126862,91.037 C294.646862,91.3 294.315862,91.427 293.911862,91.622 C293.377862,91.855 293.019862,91.976 292.565862,92.158 C291.711862,92.516 290.820862,92.77 289.938862,93.039 C286.393862,94.094 282.688862,94.391 279.134862,94.157 C275.571862,93.93 272.144862,93.191 268.914862,92.173 C265.694862,91.119 262.658862,89.81 259.798862,88.349 C258.400862,87.56 256.987862,86.866 255.652862,86.018 C254.980862,85.61 254.312862,85.204 253.648862,84.801 C252.993862,84.395 252.390862,83.974 251.766862,83.566 C251.141862,83.154 250.521862,82.745 249.906862,82.339 C249.333862,82.005 248.798862,81.603 248.206862,81.32 C247.042862,80.718 245.842862,80.211 244.606862,79.863 C242.143862,79.134 239.591862,78.918 237.133862,79.034 C232.199862,79.299 227.690862,80.696 223.847862,82.207 C220.009862,83.776 216.767862,85.465 214.168862,86.976 C208.963862,90.005 206.228862,92.155 206.228862,92.155" id="Fill-38"></path>
                <path d="M206.228862,96.251 C206.228862,96.251 207.145862,95.67 208.948862,94.718 C210.755862,93.78 213.438862,92.43 217.051862,91.159 C220.657862,89.928 225.202862,88.575 230.676862,88.521 C233.397862,88.49 236.365862,88.836 239.333862,89.907 C239.701862,90.049 240.071862,90.192 240.444862,90.336 C240.805862,90.51 241.169862,90.685 241.534862,90.861 C242.211862,91.203 242.897862,91.548 243.590862,91.898 C244.934862,92.566 246.382862,93.204 247.848862,93.829 C250.801862,95.057 253.939862,96.199 257.241862,97.204 C260.534862,98.234 263.986862,99.142 267.565862,99.894 C271.145862,100.628 274.855862,101.211 278.648862,101.51 C282.436862,101.821 286.317862,101.887 290.153862,101.448 C292.070862,101.233 293.969862,100.877 295.798862,100.344 C296.719862,100.069 297.567862,99.777 298.576862,99.396 C299.525862,99.028 300.478862,98.658 301.434862,98.287 C305.275862,96.739 309.207862,95.121 313.242862,93.592 C317.280862,92.069 321.423862,90.624 325.727862,89.494 C330.021862,88.361 334.494862,87.52 339.115862,87.417 C343.711862,87.315 348.542862,88.039 352.882862,90.157 C355.137862,91.287 356.778862,92.437 358.578862,93.314 C360.399862,94.243 362.273862,95.072 364.191862,95.773 C371.850862,98.571 380.039862,99.869 387.744862,99.185 C391.582862,98.831 395.289862,97.952 398.561862,96.455 C400.193862,95.701 401.704862,94.777 403.024862,93.682 L403.275862,93.479 L403.337862,93.429 C403.365862,93.406 403.312862,93.455 403.366862,93.405 L403.498862,93.284 C403.673862,93.123 403.861862,92.953 403.972862,92.832 C404.224862,92.582 404.519862,92.263 404.761862,91.954 C405.266862,91.329 405.698862,90.656 406.052862,89.947 C407.477862,87.097 407.514862,83.702 406.563862,80.736 C405.622862,77.753 403.677862,75.188 401.250862,73.602 C398.822862,71.983 395.934862,71.439 393.229862,71.727 C391.873862,71.868 390.554862,72.193 389.312862,72.658 C389.000862,72.771 388.693862,72.892 388.392862,73.025 C388.090862,73.146 387.811862,73.285 387.489862,73.436 C386.937862,73.711 386.381862,74.024 385.867862,74.361 C383.804862,75.701 382.355862,77.585 381.904862,79.622 C381.430862,81.659 381.913862,83.695 382.758862,85.273 C383.614862,86.863 384.811862,88.047 386.004862,88.813 C387.205862,89.584 388.420862,89.913 389.410862,89.97 C390.407862,90.028 391.174862,89.839 391.668862,89.681 C392.164862,89.513 392.406862,89.388 392.406862,89.388 C392.406862,89.388 392.177862,89.534 391.693862,89.747 C391.209862,89.949 390.448862,90.213 389.406862,90.245 C388.372862,90.277 387.058862,90.048 385.703862,89.338 C384.350862,88.639 382.955862,87.47 381.886862,85.782 C380.832862,84.115 380.077862,81.846 380.460862,79.35 C380.801862,76.842 382.482862,74.44 384.744862,72.775 C385.312862,72.353 385.904862,71.968 386.551862,71.596 C386.837862,71.441 387.163862,71.255 387.494862,71.097 C387.817862,70.931 388.149862,70.775 388.489862,70.628 C389.842862,70.027 391.323862,69.559 392.902862,69.297 C396.049862,68.75 399.679862,69.262 402.785862,71.121 C405.893862,72.95 408.425862,75.975 409.775862,79.621 C411.140862,83.239 411.267862,87.629 409.490862,91.564 C409.047862,92.538 408.493862,93.472 407.841862,94.339 C407.513862,94.782 407.181862,95.175 406.774862,95.608 C406.565862,95.837 406.403862,95.991 406.234862,96.158 L406.107862,96.284 L405.930862,96.445 L405.633862,96.704 C404.058862,98.106 402.277862,99.274 400.392862,100.225 C396.613862,102.14 392.433862,103.162 388.200862,103.651 C379.714862,104.542 370.867862,103.42 362.494862,100.408 C360.399862,99.657 358.341862,98.766 356.328862,97.756 C354.263862,96.751 352.326862,95.462 350.708862,94.686 C347.251862,93.025 343.263862,92.409 339.218862,92.526 C335.166862,92.621 331.045862,93.323 326.994862,94.374 C322.937862,95.409 318.935862,96.771 314.981862,98.233 C311.024862,99.696 307.126862,101.301 303.170862,102.777 C302.168862,103.143 301.170862,103.507 300.175862,103.87 C299.234862,104.206 298.116862,104.571 297.052862,104.859 C294.905862,105.434 292.752862,105.783 290.626862,105.976 C282.105862,106.734 274.073862,105.432 266.710862,103.662 C259.339862,101.852 252.598862,99.381 246.636862,96.528 C245.144862,95.802 243.711862,95.084 242.306862,94.296 C241.628862,93.911 240.958862,93.53 240.296862,93.154 C239.986862,92.984 239.677862,92.816 239.370862,92.648 C239.051862,92.502 238.734862,92.357 238.419862,92.212 C235.867862,91.108 233.180862,90.61 230.632862,90.484 C228.077862,90.336 225.654862,90.554 223.429862,90.867 C221.202862,91.187 219.171862,91.644 217.355862,92.134 C213.728862,93.139 210.937862,94.188 209.066862,94.97 C207.194862,95.754 206.228862,96.251 206.228862,96.251" id="Fill-39"></path>
                <path d="M206.228862,100.346 C206.228862,100.346 206.651862,100.643 207.480862,101.129 C208.296862,101.634 209.547862,102.285 211.151862,103.04 C212.757862,103.796 214.787862,104.518 217.117862,105.202 C219.473862,105.82 222.175862,106.232 225.096862,106.317 C228.028862,106.342 231.147862,105.813 234.282862,104.828 C235.051862,104.531 235.830862,104.231 236.619862,103.927 C237.400862,103.611 238.135862,103.143 238.907862,102.757 C239.289862,102.555 239.673862,102.352 240.058862,102.148 C240.421862,101.913 240.786862,101.676 241.153862,101.439 C241.932862,100.919 242.767862,100.407 243.521862,99.868 C246.318862,97.785 249.092862,95.151 251.330862,92.17 C253.568862,89.177 255.328862,85.769 256.276862,82.152 C257.259862,78.548 257.412862,74.756 256.753862,71.169 C256.076862,67.587 254.629862,64.197 252.534862,61.35 C251.435862,59.793 250.217862,57.859 249.503862,55.993 C248.738862,54.102 248.250862,52.148 248.037862,50.224 C247.583862,46.364 248.313862,42.677 249.664862,39.658 C251.013862,36.62 252.996862,34.245 255.058862,32.591 C257.127862,30.926 259.276862,29.994 261.084862,29.561 C262.895862,29.108 264.357862,29.117 265.326862,29.176 C265.812862,29.194 266.180862,29.278 266.428862,29.301 C266.675862,29.335 266.802862,29.353 266.802862,29.353 C266.802862,29.353 266.282862,29.373 265.333862,29.471 C264.386862,29.573 263.009862,29.866 261.405862,30.528 C259.800862,31.186 258.024862,32.355 256.377862,34.04 C254.750862,35.747 253.315862,38.032 252.403862,40.726 C251.525862,43.43 251.248862,46.55 251.819862,49.677 C252.110862,51.239 252.626862,52.796 253.360862,54.287 C254.122862,55.819 254.957862,57.085 256.154862,58.608 C258.775862,61.839 260.726862,65.868 261.625862,70.204 C262.552862,74.538 262.370862,79.154 261.221862,83.469 C260.058862,87.787 257.955862,91.793 255.270862,95.182 C254.647862,96.073 253.898862,96.844 253.171862,97.627 L252.077862,98.791 C251.697862,99.16 251.290862,99.496 250.899862,99.848 L249.719862,100.885 C249.335862,101.235 248.935862,101.571 248.493862,101.872 C247.632862,102.487 246.777862,103.096 245.930862,103.701 C245.091862,104.235 244.273862,104.679 243.455862,105.165 L242.845862,105.52 L242.540862,105.697 L242.388862,105.785 L242.350862,105.807 C242.350862,105.807 242.164862,105.914 242.225862,105.876 L242.139862,105.914 C241.684862,106.117 241.230862,106.318 240.779862,106.518 C239.868862,106.898 239.006862,107.35 238.089862,107.649 C237.167862,107.93 236.256862,108.207 235.358862,108.48 C231.711862,109.389 228.131862,109.602 224.915862,109.238 C221.700862,108.854 218.869862,108.019 216.486862,107.047 C214.116862,106.037 212.171862,104.944 210.658862,103.924 C209.136862,102.918 208.035862,102.006 207.307862,101.365 C206.575862,100.729 206.228862,100.346 206.228862,100.346" id="Fill-40"></path>
                <path d="M211.850862,100.005 C211.850862,100.005 213.744862,99.688 216.917862,98.75 C218.503862,98.289 220.394862,97.622 222.483862,96.739 C224.568862,95.851 226.824862,94.646 229.017862,93.068 C231.208862,91.489 233.228862,89.38 234.621862,86.826 C236.026862,84.267 236.586862,81.198 236.345862,77.993 C236.236862,76.389 235.926862,74.753 235.484862,73.112 C235.258862,72.291 234.998862,71.471 234.711862,70.65 L234.249862,69.423 L233.734862,68.11 C232.381862,64.589 231.074862,60.966 229.935862,57.272 C228.791862,53.578 227.796862,49.806 227.153862,45.963 C226.511862,42.131 226.227862,38.186 226.780862,34.304 C227.081862,32.37 227.598862,30.467 228.368862,28.707 C229.166862,26.961 230.175862,25.359 231.331862,23.991 C232.493862,22.652 233.388862,21.647 234.217862,20.425 C235.042862,19.254 235.756862,18.066 236.279862,16.863 C237.343862,14.462 237.730862,12.046 237.576862,9.892 C237.400862,7.739 236.772862,5.865 236.074862,4.405 C235.371862,2.942 234.667862,1.837 234.154862,1.113 C233.632862,0.387 233.353862,2.84217094e-14 233.353862,2.84217094e-14 C233.353862,2.84217094e-14 233.728862,0.297 234.383862,0.915 C235.033862,1.536 235.991862,2.469 236.977862,3.875 C237.970862,5.264 239.026862,7.153 239.563862,9.59 C239.839862,10.803 239.961862,12.143 239.906862,13.556 C239.841862,14.968 239.555862,16.438 239.097862,17.911 C238.643862,19.388 237.981862,20.851 237.186862,22.29 C236.405862,23.692 235.299862,25.166 234.414862,26.37 C232.702862,28.787 231.659862,31.672 231.358862,34.877 C231.053862,38.087 231.418862,41.563 232.084862,45.087 C232.757862,48.615 233.733862,52.202 234.812862,55.777 C235.907862,59.351 237.091862,62.915 238.327862,66.417 C238.635862,67.327 238.943862,68.233 239.248862,69.134 C239.539862,70.076 239.802862,71.025 240.026862,71.983 C240.465862,73.901 240.715862,75.864 240.751862,77.821 C240.847862,81.735 239.773862,85.653 237.794862,88.702 C235.846862,91.792 233.126862,93.91 230.553862,95.424 C227.957862,96.953 225.379862,97.842 223.102862,98.497 C220.820862,99.155 218.782862,99.468 217.115862,99.694 C215.444862,99.915 214.123862,99.966 213.226862,100.002 C212.328862,100.027 211.850862,100.005 211.850862,100.005" id="Fill-41"></path>
                <path d="M208.437862,89.395 C208.437862,89.395 208.301862,88.99 208.137862,88.204 C207.991862,87.418 207.748862,86.253 207.692862,84.737 C207.636862,83.225 207.661862,81.346 208.189862,79.22 C208.697862,77.113 209.731862,74.675 211.769862,72.651 C212.768862,71.633 213.995862,70.749 215.355862,70.046 C216.063862,69.732 216.719862,69.372 217.535862,69.123 C218.210862,68.913 218.896862,68.699 219.592862,68.483 C222.665862,67.684 225.683862,67.175 228.860862,66.717 C232.022862,66.267 235.232862,65.841 238.461862,65.333 C241.688862,64.827 244.892862,64.164 248.020862,63.324 C251.139862,62.468 254.116862,61.309 256.909862,59.937 C257.589862,59.567 258.241862,59.157 258.907862,58.775 L259.904862,58.203 L260.820862,57.533 C261.432862,57.087 262.040862,56.644 262.643862,56.204 C263.194862,55.702 263.742862,55.204 264.285862,54.71 L265.104862,53.974 L265.155862,53.928 C265.004862,54.104 265.127862,53.961 265.100862,53.993 L265.124862,53.966 L265.221862,53.855 L265.415862,53.635 L265.802862,53.195 C266.321862,52.613 266.834862,52.037 267.342862,51.468 C267.800862,50.906 268.145862,50.362 268.554862,49.818 L269.145862,49.008 C269.339862,48.736 269.485862,48.421 269.656862,48.133 C269.990862,47.542 270.319862,46.96 270.643862,46.387 C270.900862,45.784 271.141862,45.184 271.408862,44.601 C271.698862,44.025 271.875862,43.422 272.059862,42.831 C272.227862,42.238 272.479862,41.669 272.573862,41.079 C272.695862,40.491 272.814862,39.916 272.931862,39.353 C273.039862,38.787 273.058862,38.224 273.142862,37.676 C273.177862,37.402 273.211862,37.13 273.245862,36.862 C273.255862,36.593 273.264862,36.327 273.274862,36.065 C273.286862,35.54 273.323862,35.025 273.316862,34.528 C273.255862,32.538 273.068862,30.782 272.794862,29.347 C272.500862,27.922 272.228862,26.789 271.974862,26.04 C271.741862,25.282 271.581862,24.886 271.581862,24.886 C271.581862,24.886 271.842862,25.225 272.243862,25.92 C272.650862,26.612 273.210862,27.655 273.771862,29.061 C274.326862,30.466 274.895862,32.233 275.266862,34.344 C275.584862,36.452 275.813862,38.909 275.470862,41.582 C275.440862,42.258 275.249862,42.92 275.140862,43.614 C275.014862,44.306 274.892862,45.015 274.652862,45.704 C274.446862,46.404 274.210862,47.109 273.976862,47.83 C273.666862,48.517 273.351862,49.216 273.033862,49.924 C272.863862,50.276 272.728862,50.641 272.526862,50.99 C272.319862,51.338 272.110862,51.688 271.901862,52.04 C271.477862,52.731 271.050862,53.49 270.598862,54.149 C270.134862,54.756 269.666862,55.369 269.193862,55.988 L268.835862,56.451 L268.565862,56.799 L268.542862,56.828 L268.439862,56.949 L268.384862,57.006 L267.501862,57.915 C266.904862,58.522 266.302862,59.134 265.696862,59.75 C265.023862,60.291 264.346862,60.836 263.664862,61.385 L262.631862,62.205 L261.521862,62.917 C260.772862,63.38 260.027862,63.869 259.258862,64.313 C256.132862,65.995 252.784862,67.295 249.386862,68.256 C245.978862,69.144 242.544862,69.829 239.177862,70.24 C235.817862,70.68 232.513862,70.96 229.374862,71.215 C226.257862,71.494 223.184862,71.73 220.574862,72.162 C219.864862,72.315 219.165862,72.467 218.475862,72.617 C217.925862,72.725 217.329862,73 216.755862,73.155 C215.630862,73.57 214.606862,74.127 213.734862,74.82 C211.983862,76.2 210.790862,78.033 210.042862,79.823 C209.307862,81.623 208.918862,83.346 208.704862,84.783 C208.503862,86.223 208.444862,87.384 208.428862,88.175 C208.414862,88.968 208.437862,89.395 208.437862,89.395" id="Fill-42"></path>
                <path d="M206.228862,106.49 C206.228862,106.49 206.476862,106.719 206.941862,107.147 C207.404862,107.574 208.121862,108.16 209.009862,108.911 C209.467862,109.272 209.973862,109.671 210.523862,110.106 C211.082862,110.524 211.687862,110.976 212.333862,111.459 C212.994862,111.916 213.697862,112.401 214.439862,112.913 C215.192862,113.399 215.983862,113.911 216.809862,114.445 C217.656862,114.936 218.538862,115.448 219.451862,115.979 C220.380862,116.467 221.342862,116.973 222.330862,117.492 C223.337862,117.962 224.372862,118.444 225.429862,118.938 C226.507862,119.373 227.608862,119.818 228.728862,120.27 C229.867862,120.659 231.026862,121.053 232.198862,121.453 C233.377862,121.829 234.603862,122.099 235.810862,122.454 C237.018862,122.815 238.290862,122.957 239.529862,123.249 C240.768862,123.555 242.050862,123.651 243.317862,123.827 C244.651862,124.015 245.984862,124.203 247.313862,124.39 C248.639862,124.583 249.911862,124.734 251.329862,125.126 C254.130862,125.737 256.704862,126.642 259.124862,127.708 C261.538862,128.797 263.764862,130.082 265.720862,131.504 C266.680862,132.244 267.650862,132.903 268.462862,133.705 C269.302862,134.469 270.105862,135.206 270.795862,135.999 C271.149862,136.382 271.496862,136.757 271.835862,137.124 C272.150862,137.513 272.457862,137.892 272.743862,138.271 C273.337862,139.011 273.836862,139.76 274.294862,140.467 C275.234862,141.861 275.882862,143.181 276.388862,144.263 C276.896862,145.347 277.187862,146.245 277.388862,146.847 C277.575862,147.457 277.643862,147.789 277.643862,147.789 C277.643862,147.789 277.467862,147.498 277.122862,146.973 C276.776862,146.448 276.228862,145.706 275.517862,144.792 C274.793862,143.885 273.876862,142.823 272.761862,141.687 C272.205862,141.116 271.610862,140.519 270.925862,139.949 C270.597862,139.653 270.261862,139.349 269.916862,139.039 C269.552862,138.751 269.180862,138.458 268.800862,138.157 C268.063862,137.535 267.223862,136.98 266.359862,136.41 C265.526862,135.8 264.578862,135.298 263.636862,134.747 C261.736862,133.671 259.636862,132.728 257.411862,131.913 C255.179862,131.118 252.792862,130.459 250.434862,130.011 C249.304862,129.707 247.928862,129.606 246.617862,129.418 C245.305862,129.247 243.988862,129.076 242.671862,128.905 C239.899862,128.587 237.164862,127.975 234.521862,127.242 C233.212862,126.825 231.900862,126.455 230.646862,125.971 C229.401862,125.46 228.160862,124.989 226.976862,124.445 C225.811862,123.856 224.655862,123.306 223.555862,122.71 C222.481862,122.063 221.421862,121.454 220.416862,120.821 C219.441862,120.136 218.484862,119.492 217.585862,118.833 C216.720862,118.133 215.883862,117.456 215.080862,116.806 C214.314862,116.112 213.568862,115.469 212.890862,114.824 C212.237862,114.152 211.619862,113.515 211.037862,112.916 C210.485862,112.289 209.956862,111.72 209.498862,111.165 C209.054862,110.6 208.646862,110.081 208.278862,109.612 C207.559862,108.661 207.058862,107.869 206.716862,107.334 C206.383862,106.788 206.228862,106.49 206.228862,106.49" id="Fill-43"></path>
                <path d="M206.228862,113.658 C206.228862,113.658 207.755862,115.439 210.565862,118.395 C211.957862,119.884 213.717862,121.625 215.736862,123.603 C217.770862,125.567 220.129862,127.708 222.762862,129.947 C224.093862,131.05 225.470862,132.205 226.969862,133.299 C228.427862,134.449 229.999862,135.532 231.606862,136.653 C232.401862,137.227 233.270862,137.702 234.113862,138.242 C234.964862,138.767 235.814862,139.318 236.727862,139.766 C237.623862,140.243 238.529862,140.726 239.443862,141.214 C240.383862,141.628 241.332862,142.046 242.289862,142.468 C243.229862,142.937 244.242862,143.196 245.230862,143.55 C245.725862,143.72 246.223862,143.89 246.723862,144.061 C247.294862,144.258 247.805862,144.395 248.352862,144.565 C249.408862,144.889 250.636862,145.298 251.727862,145.728 C252.847862,146.154 253.961862,146.638 255.064862,147.188 C257.262862,148.29 259.466862,149.586 261.416862,151.441 C262.388862,152.364 263.308862,153.411 264.063862,154.649 C264.816862,155.882 265.396862,157.323 265.607862,158.887 C265.813862,160.443 265.651862,162.105 265.059862,163.58 C264.480862,165.058 263.567862,166.37 262.439862,167.385 C261.884862,167.906 261.268862,168.343 260.629862,168.732 C260.310862,168.928 259.973862,169.089 259.641862,169.257 L259.127862,169.473 L258.870862,169.579 C258.998862,169.537 258.622862,169.668 258.643862,169.659 L258.591862,169.674 L258.487862,169.704 C258.193862,169.784 258.002862,169.864 257.485862,169.951 C257.037862,170.036 256.573862,170.104 256.240862,170.107 C255.497862,170.163 254.809862,170.122 254.127862,170.069 C251.439862,169.8 249.079862,169.01 246.859862,168.07 C244.643862,167.127 242.581862,166.009 240.653862,164.78 C236.781862,162.342 233.443862,159.489 230.515862,156.596 C227.563862,153.72 225.087862,150.722 222.977862,147.851 C220.843862,144.996 219.120862,142.225 217.707862,139.718 C216.258862,137.231 215.188862,134.963 214.308862,133.106 C213.461862,131.231 212.847862,129.739 212.455862,128.711 C212.061862,127.686 211.850862,127.14 211.850862,127.14 C211.850862,127.14 212.153862,127.641 212.720862,128.582 C213.257862,129.536 214.135862,130.885 215.202862,132.618 C216.317862,134.324 217.686862,136.378 219.352862,138.653 C221.012862,140.932 222.987862,143.419 225.263862,146.003 C227.551862,148.578 230.170862,151.227 233.114862,153.794 C236.061862,156.356 239.378862,158.802 243.000862,160.893 C244.816862,161.925 246.706862,162.879 248.662862,163.634 C250.608862,164.385 252.648862,164.968 254.545862,165.121 C255.008862,165.145 255.473862,165.164 255.880862,165.12 C256.126862,165.115 256.229862,165.076 256.351862,165.064 C256.410862,165.089 256.765862,164.966 257.027862,164.886 L257.130862,164.854 L257.182862,164.838 C257.238862,164.821 256.895862,164.935 257.056862,164.879 L257.198862,164.814 L257.483862,164.689 C257.662862,164.587 257.850862,164.499 258.024862,164.389 C258.372862,164.171 258.710862,163.934 258.997862,163.654 C260.194862,162.548 260.755862,161.063 260.535862,159.573 C260.365862,158.061 259.345862,156.462 257.918862,155.115 C256.500862,153.751 254.715862,152.591 252.826862,151.614 C251.885862,151.118 250.903862,150.674 249.907862,150.263 C249.411862,150.044 248.916862,149.851 248.422862,149.669 C247.932862,149.481 247.445862,149.292 246.895862,149.114 C246.372862,148.932 245.804862,148.758 245.325862,148.571 C244.771862,148.363 244.220862,148.156 243.670862,147.95 C242.578862,147.524 241.465862,147.157 240.460862,146.609 C239.437862,146.101 238.422862,145.597 237.417862,145.097 C236.464862,144.52 235.521862,143.947 234.588862,143.381 C233.641862,142.835 232.778862,142.198 231.914862,141.585 C231.060862,140.961 230.176862,140.396 229.382862,139.744 C226.123862,137.238 223.272862,134.623 220.777862,132.097 C219.515862,130.848 218.371862,129.591 217.274862,128.409 C216.228862,127.178 215.205862,126.044 214.304862,124.925 C212.473862,122.716 210.973862,120.716 209.784862,119.04 C208.573862,117.38 207.711862,116.013 207.110862,115.094 C206.519862,114.165 206.228862,113.658 206.228862,113.658" id="Fill-44"></path>
                <path d="M234.686862,113.658 C234.686862,113.658 235.398862,113.493 236.746862,113.241 C238.095862,112.996 240.079862,112.639 242.631862,112.359 C245.181862,112.077 248.295862,111.799 251.889862,111.774 C255.481862,111.737 259.562862,111.882 263.987862,112.6 C268.399862,113.304 273.219862,114.53 277.909862,117.052 C279.079862,117.682 280.228862,118.404 281.352862,119.206 C281.897862,119.633 282.466862,120.036 282.999862,120.495 C283.508862,120.955 284.020862,121.418 284.536862,121.883 C285.492862,122.781 286.458862,123.689 287.433862,124.606 C288.415862,125.459 289.365862,126.35 290.393862,127.193 C294.472862,130.612 299.006862,133.738 303.893862,136.15 C306.343862,137.339 308.901862,138.273 311.506862,138.943 C314.120862,139.553 316.782862,139.801 319.391862,139.624 C322.012862,139.496 324.548862,138.835 326.931862,137.731 L327.916862,137.286 L328.666862,136.82 L329.425862,136.368 C329.681862,136.225 329.915862,135.994 330.162862,135.814 C330.648862,135.428 331.166862,135.073 331.565862,134.609 C331.990862,134.17 332.451862,133.759 332.782862,133.252 C334.266862,131.345 335.195862,129.074 335.476862,126.727 C335.769862,124.379 335.347862,121.965 334.320862,119.915 C334.054862,119.409 333.813862,118.886 333.457862,118.445 L332.973862,117.748 L332.400862,117.135 C332.223862,116.953 331.996862,116.672 331.863862,116.567 C331.623862,116.367 331.323862,116.085 331.154862,115.984 C330.800862,115.709 330.309862,115.373 329.827862,115.121 C327.882862,114.056 325.588862,113.547 323.361862,113.52 C318.903862,113.462 314.598862,115.333 312.611862,118.562 C311.584862,120.148 311.152862,122.004 311.102862,123.823 C311.018862,125.608 311.454862,127.275 312.323862,128.538 C313.206862,129.797 314.504862,130.642 315.845862,131.078 C317.183862,131.529 318.552862,131.616 319.747862,131.468 C322.169862,131.197 323.891862,130.002 324.573862,128.87 C325.293862,127.73 325.166862,126.907 325.217862,126.932 C325.159862,126.914 325.409862,127.701 324.817862,129.003 C324.256862,130.283 322.574862,131.898 319.924862,132.471 C318.619862,132.778 317.087862,132.862 315.456862,132.509 C313.828862,132.188 312.094862,131.282 310.775862,129.738 C309.468862,128.184 308.725862,126.05 308.629862,123.858 C308.492862,121.711 308.871862,119.288 310.066862,117.09 C311.239862,114.887 313.186862,112.992 315.517862,111.748 C317.848862,110.489 320.527862,109.816 323.299862,109.699 C326.069862,109.595 328.986862,110.047 331.742862,111.363 C332.440862,111.692 333.076862,112.059 333.795862,112.565 C334.184862,112.828 334.370862,113.007 334.650862,113.225 C335.039862,113.538 335.234862,113.785 335.535862,114.073 L336.358862,114.916 L337.070862,115.857 C337.575862,116.47 337.947862,117.167 338.333862,117.861 C341.403862,123.422 340.841862,131.006 336.697862,136.27 C336.231862,136.964 335.636862,137.538 335.062862,138.134 C334.509862,138.761 333.849862,139.249 333.207862,139.765 C332.875862,140.014 332.583862,140.292 332.215862,140.516 L331.117862,141.19 L330.008862,141.851 L329.015862,142.312 C326.151862,143.671 322.948862,144.549 319.743862,144.729 C316.536862,144.917 313.342862,144.57 310.309862,143.825 C307.295862,143.024 304.414862,141.926 301.713862,140.582 C299.030862,139.215 296.473862,137.684 294.132862,135.957 C291.745862,134.284 289.556862,132.442 287.450862,130.593 C286.394862,129.67 285.393862,128.676 284.380862,127.734 C283.401862,126.783 282.504862,125.822 281.585862,124.874 C279.872862,123.03 278.052862,121.592 276.017862,120.356 C274.006862,119.128 271.874862,118.181 269.755862,117.376 C267.633862,116.575 265.507862,115.946 263.425862,115.472 C259.262862,114.52 255.327862,114.009 251.823862,113.722 C248.315862,113.455 245.231862,113.364 242.689862,113.371 C240.148862,113.394 238.143862,113.435 236.779862,113.516 C235.414862,113.588 234.686862,113.658 234.686862,113.658" id="Fill-45"></path>
                <path d="M204.582862,92.155 C204.582862,92.155 201.848862,90.005 196.642862,86.976 C194.044862,85.465 190.801862,83.776 186.963862,82.207 C183.121862,80.696 178.611862,79.299 173.677862,79.034 C171.219862,78.918 168.667862,79.134 166.204862,79.863 C164.968862,80.211 163.769862,80.718 162.604862,81.32 C162.012862,81.603 161.478862,82.005 160.904862,82.339 C160.289862,82.745 159.669862,83.154 159.045862,83.566 C158.420862,83.974 157.817862,84.395 157.163862,84.801 C156.499862,85.204 155.830862,85.61 155.158862,86.018 C153.823862,86.866 152.411862,87.56 151.012862,88.349 C148.152862,89.81 145.117862,91.119 141.897862,92.173 C138.666862,93.191 135.239862,93.93 131.677862,94.157 C128.122862,94.391 124.417862,94.094 120.872862,93.039 C119.990862,92.77 119.099862,92.516 118.245862,92.158 C117.791862,91.976 117.433862,91.855 116.900862,91.622 C116.495862,91.427 116.164862,91.3 115.684862,91.037 C113.894862,90.103 112.389862,89.055 110.924862,87.84 C108.047862,85.414 105.624862,82.49 103.797862,79.144 C102.011862,75.804 100.832862,71.908 101.157862,67.797 C101.330862,65.757 101.951862,63.711 102.959862,61.905 C103.456862,60.997 104.068862,60.17 104.719862,59.393 C105.055862,59.018 105.409862,58.662 105.756862,58.3 L106.316862,57.803 C106.484862,57.659 106.617862,57.531 106.814862,57.374 C107.713862,56.678 108.572862,56.096 109.558862,55.661 C110.523862,55.194 111.619862,54.893 112.737862,54.762 C114.996862,54.511 117.337862,55.164 119.094862,56.377 C120.888862,57.569 122.211862,59.214 123.103862,61.02 C123.991862,62.829 124.452862,64.86 124.308862,66.93 C124.179862,68.991 123.334862,71.086 121.934862,72.615 C121.609862,73.023 121.205862,73.33 120.837862,73.679 L119.804862,74.449 C119.235862,74.903 118.355862,75.396 117.589862,75.852 C114.500862,77.532 110.915862,78.273 107.633862,77.914 C104.331862,77.626 101.386862,76.532 98.7678615,75.26 C96.1478615,73.955 93.7988615,72.518 91.6378615,70.963 C89.4438615,69.349 87.5708615,67.728 85.7528615,66.262 C83.9458615,64.787 82.2008615,63.47 80.4298615,62.501 C76.9368615,60.424 73.3188615,59.977 70.4308615,60.421 C67.5378615,60.892 65.3388615,61.873 63.9228615,62.62 C62.5068615,63.406 61.7518615,63.826 61.7518615,63.826 C61.7518615,63.826 62.4578615,63.323 63.7818615,62.381 C65.1278615,61.487 67.2078615,60.188 70.2368615,59.421 C73.2228615,58.65 77.3748615,58.763 81.3198615,60.756 C85.3348615,62.553 89.1088615,65.791 93.2498615,68.505 C95.3788615,69.855 97.7378615,71.103 100.187862,72.141 C102.640862,73.166 105.250862,74.005 107.895862,74.101 C110.535862,74.271 113.160862,73.574 115.492862,72.192 C116.040862,71.812 116.548862,71.56 117.195862,71.005 L118.047862,70.34 C118.235862,70.129 118.481862,69.96 118.636862,69.729 C119.362862,68.882 119.759862,67.826 119.808862,66.656 C119.931862,64.319 118.527862,61.623 116.491862,60.371 C115.486862,59.725 114.378862,59.485 113.287862,59.629 C112.738862,59.707 112.177862,59.845 111.622862,60.129 C111.054862,60.374 110.512862,60.774 110.058862,61.103 L109.199862,61.863 L108.483862,62.632 C108.047862,63.17 107.639862,63.724 107.322862,64.324 C106.676862,65.515 106.280862,66.828 106.172862,68.218 C105.967862,71.006 106.824862,74.014 108.307862,76.727 C109.764862,79.462 111.799862,81.973 114.169862,84 C115.338862,84.999 116.673862,85.917 117.913862,86.581 C118.177862,86.743 118.640862,86.939 119.005862,87.118 L120.038862,87.532 C120.757862,87.846 121.507862,88.06 122.248862,88.296 C128.223862,90.097 134.662862,89.597 140.582862,87.873 C143.552862,86.996 146.394862,85.815 149.155862,84.581 C150.501862,83.892 151.892862,83.284 153.163862,82.549 C153.809862,82.194 154.452862,81.842 155.090862,81.492 C155.731862,81.133 156.374862,80.725 157.009862,80.348 C157.641862,79.969 158.269862,79.593 158.892862,79.219 C159.595862,78.839 160.258862,78.399 160.981862,78.086 C162.406862,77.423 163.864862,76.878 165.342862,76.564 C168.290862,75.882 171.205862,75.827 173.906862,76.116 C179.333862,76.711 183.918862,78.568 187.758862,80.428 C191.601862,82.323 194.710862,84.363 197.191862,86.125 C199.679862,87.881 201.500862,89.432 202.734862,90.487 C203.962862,91.551 204.582862,92.155 204.582862,92.155" id="Fill-46"></path>
                <path d="M204.582862,96.251 C204.582862,96.251 203.616862,95.754 201.744862,94.97 C199.873862,94.188 197.082862,93.139 193.455862,92.134 C191.640862,91.644 189.608862,91.187 187.381862,90.867 C185.156862,90.554 182.733862,90.336 180.178862,90.484 C177.630862,90.61 174.943862,91.108 172.391862,92.212 C172.076862,92.357 171.759862,92.502 171.440862,92.648 C171.133862,92.816 170.825862,92.984 170.514862,93.154 C169.852862,93.53 169.182862,93.911 168.504862,94.296 C167.099862,95.084 165.666862,95.802 164.175862,96.528 C158.212862,99.381 151.472862,101.852 144.101862,103.662 C136.738862,105.432 128.705862,106.734 120.184862,105.976 C118.059862,105.783 115.906862,105.434 113.758862,104.859 C112.695862,104.571 111.576862,104.206 110.635862,103.87 C109.640862,103.507 108.642862,103.143 107.641862,102.777 C103.684862,101.301 99.7878615,99.696 95.8298615,98.233 C91.8758615,96.771 87.8748615,95.409 83.8168615,94.374 C79.7658615,93.323 75.6448615,92.621 71.5928615,92.526 C67.5478615,92.409 63.5598615,93.025 60.1028615,94.686 C58.4848615,95.462 56.5488615,96.751 54.4828615,97.756 C52.4698615,98.766 50.4118615,99.657 48.3178615,100.408 C39.9438615,103.42 31.0978615,104.542 22.6108615,103.651 C18.3788615,103.162 14.1988615,102.14 10.4198615,100.225 C8.53386154,99.274 6.75286154,98.106 5.17886154,96.704 L4.88186154,96.445 L4.70486154,96.284 L4.57686154,96.158 C4.40786154,95.991 4.24586154,95.837 4.03686154,95.608 C3.62986154,95.175 3.29786154,94.782 2.96986154,94.339 C2.31886154,93.472 1.76386154,92.538 1.32186154,91.564 C-0.456138457,87.629 -0.328138457,83.239 1.03686154,79.621 C2.38686154,75.975 4.91786154,72.95 8.02586154,71.121 C11.1318615,69.262 14.7618615,68.75 17.9088615,69.297 C19.4888615,69.559 20.9688615,70.027 22.3218615,70.628 C22.6618615,70.775 22.9938615,70.931 23.3168615,71.097 C23.6478615,71.255 23.9748615,71.441 24.2598615,71.596 C24.9078615,71.968 25.4998615,72.353 26.0668615,72.775 C28.3288615,74.44 30.0098615,76.842 30.3518615,79.35 C30.7338615,81.846 29.9788615,84.115 28.9248615,85.782 C27.8558615,87.47 26.4608615,88.639 25.1088615,89.338 C23.7538615,90.048 22.4388615,90.277 21.4048615,90.245 C20.3628615,90.213 19.6018615,89.949 19.1188615,89.747 C18.6338615,89.534 18.4048615,89.388 18.4048615,89.388 C18.4048615,89.388 18.6478615,89.513 19.1428615,89.681 C19.6368615,89.839 20.4038615,90.028 21.4008615,89.97 C22.3908615,89.913 23.6058615,89.584 24.8068615,88.813 C25.9998615,88.047 27.1968615,86.863 28.0528615,85.273 C28.8978615,83.695 29.3808615,81.659 28.9078615,79.622 C28.4568615,77.585 27.0078615,75.701 24.9438615,74.361 C24.4298615,74.024 23.8738615,73.711 23.3228615,73.436 C22.9998615,73.285 22.7208615,73.146 22.4188615,73.025 C22.1178615,72.892 21.8108615,72.771 21.4988615,72.658 C20.2578615,72.193 18.9378615,71.868 17.5818615,71.727 C14.8768615,71.439 11.9888615,71.983 9.56186154,73.602 C7.13386154,75.188 5.18886154,77.753 4.24786154,80.736 C3.29686154,83.702 3.33386154,87.097 4.75886154,89.947 C5.11286154,90.656 5.54486154,91.329 6.04986154,91.954 C6.29186154,92.263 6.58686154,92.582 6.83886154,92.832 C6.94986154,92.953 7.13786154,93.123 7.31386154,93.284 L7.44486154,93.405 C7.49886154,93.455 7.44586154,93.406 7.47386154,93.429 L7.53686154,93.479 L7.78686154,93.682 C9.10686154,94.777 10.6188615,95.701 12.2498615,96.455 C15.5218615,97.952 19.2288615,98.831 23.0678615,99.185 C30.7718615,99.869 38.9608615,98.571 46.6208615,95.773 C48.5378615,95.072 50.4118615,94.243 52.2328615,93.314 C54.0328615,92.437 55.6738615,91.287 57.9298615,90.157 C62.2698615,88.039 67.1008615,87.315 71.6958615,87.417 C76.3168615,87.52 80.7898615,88.361 85.0848615,89.494 C89.3888615,90.624 93.5308615,92.069 97.5688615,93.592 C101.603862,95.121 105.535862,96.739 109.377862,98.287 C110.332862,98.658 111.285862,99.028 112.235862,99.396 C113.244862,99.777 114.091862,100.069 115.012862,100.344 C116.841862,100.877 118.740862,101.233 120.657862,101.448 C124.493862,101.887 128.374862,101.821 132.162862,101.51 C135.956862,101.211 139.665862,100.628 143.246862,99.894 C146.824862,99.142 150.276862,98.234 153.569862,97.204 C156.871862,96.199 160.010862,95.057 162.963862,93.829 C164.428862,93.204 165.876862,92.566 167.221862,91.898 C167.914862,91.548 168.599862,91.203 169.276862,90.861 C169.642862,90.685 170.005862,90.51 170.366862,90.336 C170.739862,90.192 171.109862,90.049 171.477862,89.907 C174.445862,88.836 177.413862,88.49 180.134862,88.521 C185.608862,88.575 190.153862,89.928 193.759862,91.159 C197.372862,92.43 200.056862,93.78 201.863862,94.718 C203.665862,95.67 204.582862,96.251 204.582862,96.251" id="Fill-47"></path>
                <path d="M204.582862,100.346 C204.582862,100.346 204.235862,100.729 203.503862,101.365 C202.775862,102.006 201.674862,102.918 200.153862,103.924 C198.640862,104.944 196.694862,106.037 194.324862,107.047 C191.941862,108.019 189.110862,108.854 185.895862,109.238 C182.679862,109.602 179.099862,109.389 175.453862,108.48 C174.554862,108.207 173.643862,107.93 172.721862,107.649 C171.804862,107.35 170.942862,106.898 170.032862,106.518 C169.580862,106.318 169.127862,106.117 168.671862,105.914 L168.585862,105.876 C168.646862,105.914 168.460862,105.807 168.460862,105.807 L168.270862,105.697 L167.966862,105.52 L167.355862,105.165 C166.537862,104.679 165.719862,104.235 164.880862,103.701 C164.033862,103.096 163.178862,102.487 162.318862,101.872 C161.875862,101.571 161.475862,101.235 161.092862,100.885 L159.911862,99.848 C159.521862,99.496 159.113862,99.16 158.733862,98.791 L157.640862,97.627 C156.912862,96.844 156.163862,96.073 155.541862,95.182 C152.855862,91.793 150.752862,87.787 149.589862,83.469 C148.441862,79.154 148.258862,74.538 149.185862,70.204 C150.084862,65.868 152.036862,61.839 154.656862,58.608 C155.854862,57.085 156.688862,55.819 157.450862,54.287 C158.185862,52.796 158.700862,51.239 158.991862,49.677 C159.563862,46.55 159.285862,43.43 158.407862,40.726 C157.496862,38.032 156.060862,35.747 154.434862,34.04 C152.786862,32.355 151.010862,31.186 149.405862,30.528 C147.802862,29.866 146.425862,29.573 145.477862,29.471 C144.528862,29.373 144.008862,29.353 144.008862,29.353 C144.008862,29.353 144.136862,29.335 144.382862,29.301 C144.630862,29.278 144.999862,29.194 145.485862,29.176 C146.453862,29.117 147.915862,29.108 149.726862,29.561 C151.534862,29.994 153.683862,30.926 155.752862,32.591 C157.815862,34.245 159.797862,36.62 161.146862,39.658 C162.497862,42.677 163.227862,46.364 162.774862,50.224 C162.561862,52.148 162.072862,54.102 161.308862,55.993 C160.594862,57.859 159.375862,59.793 158.276862,61.35 C156.182862,64.197 154.734862,67.587 154.057862,71.169 C153.398862,74.756 153.551862,78.548 154.535862,82.152 C155.482862,85.769 157.242862,89.177 159.480862,92.17 C161.718862,95.151 164.492862,97.785 167.289862,99.868 C168.044862,100.407 168.878862,100.919 169.658862,101.439 C170.024862,101.676 170.389862,101.913 170.752862,102.148 C171.138862,102.352 171.522862,102.555 171.904862,102.757 C172.675862,103.143 173.410862,103.611 174.191862,103.927 C174.980862,104.231 175.759862,104.531 176.528862,104.828 C179.663862,105.813 182.782862,106.342 185.714862,106.317 C188.635862,106.232 191.337862,105.82 193.693862,105.202 C196.024862,104.518 198.053862,103.796 199.659862,103.04 C201.263862,102.285 202.515862,101.634 203.330862,101.129 C204.159862,100.643 204.582862,100.346 204.582862,100.346" id="Fill-48"></path>
                <path d="M198.960862,100.005 C198.960862,100.005 198.482862,100.027 197.584862,100.002 C196.688862,99.966 195.366862,99.915 193.696862,99.694 C192.028862,99.468 189.990862,99.155 187.708862,98.497 C185.431862,97.842 182.853862,96.953 180.257862,95.424 C177.685862,93.91 174.964862,91.792 173.016862,88.702 C171.038862,85.653 169.964862,81.735 170.059862,77.821 C170.095862,75.864 170.345862,73.901 170.784862,71.983 C171.009862,71.025 171.271862,70.076 171.562862,69.134 C171.868862,68.233 172.175862,67.327 172.483862,66.417 C173.719862,62.915 174.904862,59.351 175.999862,55.777 C177.078862,52.202 178.053862,48.615 178.726862,45.087 C179.392862,41.563 179.757862,38.087 179.453862,34.877 C179.151862,31.672 178.108862,28.787 176.397862,26.37 C175.511862,25.166 174.405862,23.692 173.624862,22.29 C172.829862,20.851 172.168862,19.388 171.713862,17.911 C171.255862,16.438 170.970862,14.968 170.904862,13.556 C170.850862,12.143 170.971862,10.803 171.247862,9.59 C171.784862,7.153 172.840862,5.264 173.834862,3.875 C174.819862,2.469 175.777862,1.536 176.427862,0.915 C177.082862,0.297 177.457862,2.84217094e-14 177.457862,2.84217094e-14 C177.457862,2.84217094e-14 177.179862,0.387 176.656862,1.113 C176.143862,1.837 175.440862,2.942 174.736862,4.405 C174.039862,5.865 173.411862,7.739 173.234862,9.892 C173.080862,12.046 173.467862,14.462 174.531862,16.863 C175.054862,18.066 175.768862,19.254 176.593862,20.425 C177.422862,21.647 178.317862,22.652 179.479862,23.991 C180.636862,25.359 181.644862,26.961 182.442862,28.707 C183.212862,30.467 183.729862,32.37 184.030862,34.304 C184.584862,38.186 184.300862,42.131 183.657862,45.963 C183.015862,49.806 182.019862,53.578 180.876862,57.272 C179.736862,60.966 178.429862,64.589 177.076862,68.11 L176.561862,69.423 L176.100862,70.65 C175.812862,71.471 175.552862,72.291 175.326862,73.112 C174.884862,74.753 174.575862,76.389 174.465862,77.993 C174.224862,81.198 174.785862,84.267 176.189862,86.826 C177.582862,89.38 179.602862,91.489 181.793862,93.068 C183.986862,94.646 186.242862,95.851 188.328862,96.739 C190.417862,97.622 192.308862,98.289 193.894862,98.75 C197.066862,99.688 198.960862,100.005 198.960862,100.005" id="Fill-49"></path>
                <path d="M202.373862,89.395 C202.373862,89.395 202.396862,88.968 202.382862,88.175 C202.367862,87.384 202.308862,86.223 202.107862,84.783 C201.893862,83.346 201.504862,81.623 200.768862,79.823 C200.021862,78.033 198.827862,76.2 197.077862,74.82 C196.204862,74.127 195.180862,73.57 194.055862,73.155 C193.481862,73 192.885862,72.725 192.335862,72.617 C191.646862,72.467 190.946862,72.315 190.237862,72.162 C187.626862,71.73 184.554862,71.494 181.436862,71.215 C178.297862,70.96 174.994862,70.68 171.634862,70.24 C168.266862,69.829 164.832862,69.144 161.424862,68.256 C158.026862,67.295 154.678862,65.995 151.553862,64.313 C150.783862,63.869 150.039862,63.38 149.289862,62.917 L148.179862,62.205 L147.146862,61.385 C146.465862,60.836 145.787862,60.291 145.115862,59.75 C144.508862,59.134 143.907862,58.522 143.310862,57.915 L142.426862,57.006 L142.371862,56.949 L142.268862,56.828 L142.246862,56.799 L141.617862,55.988 C141.144862,55.369 140.676862,54.756 140.213862,54.149 C139.760862,53.49 139.334862,52.731 138.909862,52.04 C138.700862,51.688 138.491862,51.338 138.284862,50.99 C138.083862,50.641 137.947862,50.276 137.778862,49.924 C137.459862,49.216 137.144862,48.517 136.835862,47.83 C136.601862,47.109 136.364862,46.404 136.158862,45.704 C135.919862,45.015 135.796862,44.306 135.670862,43.614 C135.561862,42.92 135.371862,42.258 135.341862,41.582 C134.997862,38.909 135.226862,36.452 135.544862,34.344 C135.915862,32.233 136.484862,30.466 137.039862,29.061 C137.600862,27.655 138.160862,26.612 138.567862,25.92 C138.968862,25.225 139.230862,24.886 139.230862,24.886 C139.230862,24.886 139.069862,25.282 138.836862,26.04 C138.582862,26.789 138.311862,27.922 138.017862,29.347 C137.742862,30.782 137.555862,32.538 137.494862,34.528 C137.487862,35.025 137.524862,35.54 137.537862,36.065 C137.546862,36.327 137.556862,36.593 137.565862,36.862 C137.599862,37.13 137.633862,37.402 137.668862,37.676 C137.752862,38.224 137.771862,38.787 137.879862,39.353 C137.996862,39.916 138.115862,40.491 138.237862,41.079 C138.331862,41.669 138.583862,42.238 138.751862,42.831 C138.935862,43.422 139.112862,44.025 139.402862,44.601 C139.669862,45.184 139.910862,45.784 140.167862,46.387 C140.491862,46.96 140.820862,47.542 141.154862,48.133 C141.326862,48.421 141.471862,48.736 141.665862,49.008 L142.257862,49.818 C142.665862,50.362 143.010862,50.906 143.468862,51.468 C143.976862,52.037 144.490862,52.613 145.008862,53.195 L145.395862,53.635 L145.589862,53.855 L145.686862,53.966 L145.710862,53.993 C145.683862,53.961 145.806862,54.104 145.655862,53.928 L145.706862,53.974 L146.526862,54.71 C147.069862,55.204 147.616862,55.702 148.167862,56.204 C148.771862,56.644 149.378862,57.087 149.990862,57.533 L150.906862,58.203 L151.904862,58.775 C152.569862,59.157 153.221862,59.567 153.901862,59.937 C156.694862,61.309 159.671862,62.468 162.790862,63.324 C165.919862,64.164 169.122862,64.827 172.349862,65.333 C175.578862,65.841 178.789862,66.267 181.950862,66.717 C185.127862,67.175 188.146862,67.684 191.219862,68.483 C191.914862,68.699 192.600862,68.913 193.276862,69.123 C194.091862,69.372 194.747862,69.732 195.455862,70.046 C196.816862,70.749 198.043862,71.633 199.041862,72.651 C201.079862,74.675 202.113862,77.113 202.622862,79.22 C203.149862,81.346 203.174862,83.225 203.118862,84.737 C203.062862,86.253 202.820862,87.418 202.673862,88.204 C202.509862,88.99 202.373862,89.395 202.373862,89.395" id="Fill-50"></path>
                <path d="M204.582862,106.49 C204.582862,106.49 204.427862,106.788 204.094862,107.334 C203.752862,107.869 203.252862,108.661 202.533862,109.612 C202.164862,110.081 201.756862,110.6 201.312862,111.165 C200.854862,111.72 200.326862,112.289 199.773862,112.916 C199.192862,113.515 198.573862,114.152 197.921862,114.824 C197.243862,115.469 196.496862,116.112 195.730862,116.806 C194.927862,117.456 194.091862,118.133 193.225862,118.833 C192.326862,119.492 191.369862,120.136 190.394862,120.821 C189.390862,121.454 188.330862,122.063 187.256862,122.71 C186.156862,123.306 184.999862,123.856 183.834862,124.445 C182.650862,124.989 181.409862,125.46 180.164862,125.971 C178.910862,126.455 177.598862,126.825 176.289862,127.242 C173.646862,127.975 170.911862,128.587 168.139862,128.905 C166.822862,129.076 165.505862,129.247 164.194862,129.418 C162.883862,129.606 161.506862,129.707 160.377862,130.011 C158.018862,130.459 155.632862,131.118 153.400862,131.913 C151.175862,132.728 149.075862,133.671 147.174862,134.747 C146.232862,135.298 145.284862,135.8 144.451862,136.41 C143.587862,136.98 142.747862,137.535 142.010862,138.157 C141.630862,138.458 141.258862,138.751 140.894862,139.039 C140.550862,139.349 140.213862,139.653 139.885862,139.949 C139.201862,140.519 138.605862,141.116 138.050862,141.687 C136.935862,142.823 136.017862,143.885 135.293862,144.792 C134.582862,145.706 134.034862,146.448 133.688862,146.973 C133.343862,147.498 133.167862,147.789 133.167862,147.789 C133.167862,147.789 133.235862,147.457 133.422862,146.847 C133.624862,146.245 133.915862,145.347 134.422862,144.263 C134.928862,143.181 135.577862,141.861 136.517862,140.467 C136.974862,139.76 137.473862,139.011 138.067862,138.271 C138.353862,137.892 138.660862,137.513 138.975862,137.124 C139.314862,136.757 139.661862,136.382 140.015862,135.999 C140.705862,135.206 141.508862,134.469 142.348862,133.705 C143.161862,132.903 144.130862,132.244 145.090862,131.504 C147.046862,130.082 149.272862,128.797 151.687862,127.708 C154.107862,126.642 156.680862,125.737 159.481862,125.126 C160.899862,124.734 162.172862,124.583 163.497862,124.39 C164.826862,124.203 166.160862,124.015 167.494862,123.827 C168.760862,123.651 170.043862,123.555 171.281862,123.249 C172.520862,122.957 173.792862,122.815 175.000862,122.454 C176.208862,122.099 177.434862,121.829 178.612862,121.453 C179.785862,121.053 180.943862,120.659 182.082862,120.27 C183.202862,119.818 184.303862,119.373 185.381862,118.938 C186.439862,118.444 187.473862,117.962 188.481862,117.492 C189.469862,116.973 190.430862,116.467 191.360862,115.979 C192.273862,115.448 193.155862,114.936 194.001862,114.445 C194.827862,113.911 195.619862,113.399 196.371862,112.913 C197.113862,112.401 197.816862,111.916 198.478862,111.459 C199.123862,110.976 199.728862,110.524 200.287862,110.105 C200.838862,109.671 201.344862,109.272 201.801862,108.911 C202.689862,108.16 203.406862,107.574 203.869862,107.147 C204.334862,106.719 204.582862,106.49 204.582862,106.49" id="Fill-51"></path>
                <path d="M204.582862,113.658 C204.582862,113.658 204.291862,114.165 203.700862,115.094 C203.100862,116.013 202.237862,117.38 201.026862,119.04 C199.837862,120.716 198.338862,122.716 196.506862,124.925 C195.606862,126.044 194.582862,127.178 193.536862,128.409 C192.439862,129.591 191.295862,130.848 190.033862,132.097 C187.538862,134.623 184.687862,137.238 181.428862,139.744 C180.634862,140.396 179.750862,140.961 178.896862,141.585 C178.032862,142.198 177.170862,142.835 176.223862,143.381 C175.289862,143.947 174.346862,144.52 173.394862,145.097 C172.388862,145.597 171.373862,146.101 170.350862,146.609 C169.346862,147.157 168.232862,147.524 167.140862,147.95 C166.591862,148.156 166.039862,148.363 165.486862,148.571 C165.006862,148.758 164.438862,148.932 163.916862,149.114 C163.365862,149.292 162.878862,149.481 162.388862,149.669 C161.895862,149.851 161.400862,150.044 160.904862,150.263 C159.907862,150.674 158.926862,151.118 157.984862,151.614 C156.096862,152.591 154.310862,153.751 152.892862,155.115 C151.466862,156.462 150.445862,158.061 150.275862,159.573 C150.056862,161.063 150.616862,162.548 151.813862,163.654 C152.101862,163.934 152.439862,164.171 152.786862,164.389 C152.960862,164.499 153.148862,164.587 153.327862,164.689 L153.612862,164.814 L153.754862,164.879 C153.916862,164.935 153.572862,164.821 153.628862,164.838 L153.680862,164.854 L153.784862,164.886 C154.045862,164.966 154.400862,165.089 154.460862,165.064 C154.581862,165.076 154.685862,165.115 154.930862,165.12 C155.337862,165.164 155.802862,165.145 156.265862,165.121 C158.162862,164.968 160.203862,164.385 162.149862,163.634 C164.104862,162.879 165.994862,161.925 167.810862,160.893 C171.432862,158.802 174.749862,156.356 177.696862,153.794 C180.640862,151.227 183.260862,148.578 185.547862,146.003 C187.823862,143.419 189.798862,140.932 191.458862,138.653 C193.124862,136.378 194.494862,134.324 195.608862,132.618 C196.676862,130.885 197.553862,129.536 198.091862,128.582 C198.658862,127.641 198.960862,127.14 198.960862,127.14 C198.960862,127.14 198.749862,127.686 198.355862,128.711 C197.963862,129.739 197.350862,131.231 196.502862,133.106 C195.622862,134.963 194.552862,137.231 193.103862,139.718 C191.690862,142.225 189.967862,144.996 187.833862,147.851 C185.723862,150.722 183.247862,153.72 180.296862,156.596 C177.367862,159.489 174.029862,162.342 170.158862,164.78 C168.230862,166.009 166.167862,167.127 163.951862,168.07 C161.732862,169.01 159.371862,169.8 156.683862,170.069 C156.002862,170.122 155.313862,170.163 154.570862,170.107 C154.238862,170.104 153.773862,170.036 153.325862,169.951 C152.808862,169.864 152.618862,169.784 152.324862,169.704 L152.219862,169.674 L152.167862,169.659 C152.188862,169.668 151.812862,169.537 151.940862,169.579 L151.683862,169.473 L151.170862,169.257 C150.838862,169.089 150.500862,168.928 150.182862,168.732 C149.543862,168.343 148.927862,167.906 148.372862,167.385 C147.243862,166.37 146.330862,165.058 145.751862,163.58 C145.160862,162.105 144.997862,160.443 145.204862,158.887 C145.415862,157.323 145.994862,155.882 146.747862,154.649 C147.502862,153.411 148.422862,152.364 149.394862,151.441 C151.345862,149.586 153.548862,148.29 155.746862,147.188 C156.849862,146.638 157.963862,146.154 159.083862,145.728 C160.174862,145.298 161.402862,144.889 162.458862,144.565 C163.005862,144.395 163.517862,144.258 164.088862,144.061 C164.587862,143.89 165.085862,143.72 165.581862,143.55 C166.569862,143.196 167.581862,142.937 168.521862,142.468 C169.478862,142.046 170.427862,141.628 171.367862,141.214 C172.282862,140.726 173.187862,140.243 174.083862,139.766 C174.996862,139.318 175.846862,138.767 176.697862,138.242 C177.540862,137.702 178.409862,137.227 179.204862,136.653 C180.811862,135.532 182.384862,134.449 183.841862,133.299 C185.340862,132.205 186.717862,131.05 188.048862,129.947 C190.682862,127.708 193.041862,125.567 195.074862,123.603 C197.093862,121.625 198.853862,119.884 200.245862,118.395 C203.055862,115.439 204.582862,113.658 204.582862,113.658" id="Fill-52"></path>
                <path d="M176.124862,113.658 C176.124862,113.658 175.397862,113.588 174.032862,113.516 C172.667862,113.435 170.662862,113.394 168.121862,113.371 C165.579862,113.364 162.495862,113.455 158.988862,113.722 C155.483862,114.009 151.548862,114.52 147.385862,115.472 C145.304862,115.946 143.177862,116.575 141.055862,117.376 C138.936862,118.181 136.804862,119.128 134.793862,120.356 C132.758862,121.592 130.938862,123.03 129.225862,124.874 C128.306862,125.822 127.409862,126.783 126.431862,127.734 C125.417862,128.676 124.416862,129.67 123.360862,130.593 C121.254862,132.442 119.065862,134.284 116.679862,135.957 C114.337862,137.684 111.780862,139.215 109.098862,140.582 C106.397862,141.926 103.515862,143.024 100.502862,143.825 C97.4688615,144.57 94.2758615,144.917 91.0678615,144.729 C87.8628615,144.549 84.6598615,143.671 81.7958615,142.312 L80.8028615,141.851 L79.6948615,141.19 L78.5958615,140.516 C78.2278615,140.292 77.9358615,140.014 77.6038615,139.765 C76.9618615,139.249 76.3018615,138.761 75.7498615,138.134 C75.1748615,137.538 74.5798615,136.964 74.1138615,136.27 C69.9708615,131.006 69.4088615,123.422 72.4788615,117.861 C72.8648615,117.167 73.2358615,116.47 73.7408615,115.857 L74.4528615,114.916 L75.2768615,114.073 C75.5778615,113.785 75.7718615,113.538 76.1618615,113.225 C76.4418615,113.007 76.6278615,112.828 77.0158615,112.565 C77.7348615,112.059 78.3718615,111.692 79.0688615,111.363 C81.8248615,110.047 84.7428615,109.595 87.5118615,109.699 C90.2838615,109.816 92.9628615,110.489 95.2938615,111.748 C97.6248615,112.992 99.5718615,114.887 100.744862,117.09 C101.939862,119.288 102.318862,121.711 102.181862,123.858 C102.085862,126.05 101.342862,128.184 100.036862,129.738 C98.7178615,131.282 96.9828615,132.188 95.3548615,132.509 C93.7248615,132.862 92.1918615,132.778 90.8868615,132.471 C88.2368615,131.898 86.5548615,130.283 85.9948615,129.003 C85.4018615,127.701 85.6518615,126.914 85.5938615,126.932 C85.6448615,126.907 85.5188615,127.73 86.2388615,128.87 C86.9198615,130.002 88.6418615,131.197 91.0648615,131.468 C92.2598615,131.616 93.6278615,131.529 94.9668615,131.078 C96.3068615,130.642 97.6048615,129.797 98.4878615,128.538 C99.3568615,127.275 99.7928615,125.608 99.7088615,123.823 C99.6588615,122.004 99.2278615,120.148 98.1998615,118.562 C96.2138615,115.333 91.9078615,113.462 87.4498615,113.52 C85.2238615,113.547 82.9298615,114.056 80.9838615,115.121 C80.5018615,115.373 80.0118615,115.709 79.6568615,115.984 C79.4878615,116.085 79.1888615,116.367 78.9478615,116.567 C78.8158615,116.672 78.5888615,116.953 78.4108615,117.135 L77.8378615,117.748 L77.3548615,118.445 C76.9988615,118.886 76.7578615,119.409 76.4918615,119.915 C75.4638615,121.965 75.0418615,124.379 75.3348615,126.727 C75.6168615,129.074 76.5458615,131.345 78.0288615,133.252 C78.3598615,133.759 78.8208615,134.17 79.2468615,134.609 C79.6458615,135.073 80.1638615,135.428 80.6498615,135.814 C80.8968615,135.994 81.1308615,136.225 81.3868615,136.368 L82.1448615,136.82 L82.8948615,137.286 L83.8808615,137.731 C86.2628615,138.835 88.7998615,139.496 91.4198615,139.624 C94.0288615,139.801 96.6918615,139.553 99.3058615,138.943 C101.909862,138.273 104.467862,137.339 106.918862,136.15 C111.804862,133.738 116.338862,130.612 120.417862,127.193 C121.445862,126.35 122.395862,125.459 123.377862,124.606 C124.353862,123.689 125.319862,122.781 126.275862,121.883 C126.790862,121.418 127.302862,120.955 127.812862,120.495 C128.345862,120.036 128.914862,119.633 129.458862,119.206 C130.582862,118.404 131.731862,117.682 132.901862,117.052 C137.591862,114.53 142.411862,113.304 146.823862,112.6 C151.248862,111.882 155.329862,111.737 158.921862,111.774 C162.515862,111.799 165.630862,112.077 168.180862,112.359 C170.731862,112.639 172.715862,112.996 174.064862,113.241 C175.412862,113.493 176.124862,113.658 176.124862,113.658" id="Fill-53"></path>
                <path d="M205.716862,120.891 C206.775862,123.638 207.772862,126.415 208.760862,129.202 C209.297862,130.584 209.625862,132.025 210.062862,133.438 L211.300862,137.704 C211.742862,139.122 211.977862,140.588 212.323862,142.031 L213.284862,146.385 C213.563862,147.847 213.752862,149.326 213.980862,150.8 C214.188862,152.277 214.461862,153.746 214.553862,155.243 L214.945862,159.725 C215.035862,161.224 215.005862,162.735 215.039862,164.242 C215.099862,165.749 214.989862,167.265 214.890862,168.78 L214.741862,171.054 L214.433862,173.328 C214.323862,174.085 214.242862,174.846 214.100862,175.601 L213.602862,177.863 C213.322862,179.378 212.777862,180.858 212.342862,182.355 C211.773862,183.827 211.200862,185.297 210.433862,186.724 C210.091862,187.446 209.613862,188.139 209.198862,188.845 C208.678862,189.567 208.304862,190.164 207.474862,191.014 L205.370862,193.172 L202.321862,188.723 C201.858862,188.07 201.515862,187.352 201.109862,186.669 C200.698862,185.987 200.365862,185.271 200.037862,184.552 C199.706862,183.836 199.353862,183.127 199.103862,182.383 C198.838862,181.645 198.535862,180.917 198.306862,180.171 L197.640862,177.929 C197.274862,176.422 196.893862,174.915 196.674862,173.391 C196.392862,171.873 196.255862,170.346 196.094862,168.825 C195.974862,167.302 195.890862,165.779 195.881862,164.26 C195.854862,163.5 195.866862,162.743 195.883862,161.986 C195.904862,161.229 195.888862,160.471 195.950862,159.718 L196.089862,157.458 L196.298862,155.209 C196.456862,153.714 196.625862,152.222 196.852862,150.74 C197.058862,149.256 197.313862,147.781 197.599862,146.314 C197.902862,144.85 198.204862,143.388 198.552862,141.938 C198.892862,140.487 199.247862,139.041 199.649862,137.608 C200.465862,134.745 201.335862,131.905 202.346862,129.115 C203.355862,126.325 204.437862,123.563 205.716862,120.891 Z M205.716862,120.891 C204.972862,123.754 204.311862,126.624 203.706862,129.5 C203.110862,132.378 202.540862,135.253 202.094862,138.145 C201.615862,141.029 201.206862,143.918 200.905862,146.812 C200.778862,148.261 200.617862,149.703 200.515862,151.148 C200.392862,152.592 200.327862,154.038 200.272862,155.48 L200.218862,157.642 L200.231862,159.799 C200.259862,161.234 200.276862,162.668 200.381862,164.092 C200.455862,165.519 200.615862,166.932 200.765862,168.342 C200.964862,169.743 201.136862,171.15 201.443862,172.52 C201.696862,173.906 202.063862,175.252 202.418862,176.599 L203.051862,178.581 C203.267862,179.239 203.549862,179.866 203.793862,180.51 C204.028862,181.16 204.332862,181.77 204.626862,182.387 C204.913862,183.008 205.202862,183.627 205.561862,184.203 C205.914862,184.781 206.205862,185.403 206.604862,185.947 L207.757862,187.61 L203.958862,187.294 L204.145862,187.074 C204.233862,186.964 204.322862,186.878 204.412862,186.752 L204.954862,186.006 C205.278862,185.445 205.655862,184.934 205.942862,184.328 C206.580862,183.171 207.073862,181.902 207.586862,180.644 C207.987862,179.328 208.503862,178.056 208.781862,176.682 L209.275862,174.653 C209.415862,173.968 209.513862,173.269 209.638862,172.578 L209.996862,170.497 L210.206862,168.382 C210.338862,166.97 210.522862,165.561 210.529862,164.128 C210.568862,162.7 210.656862,161.273 210.656862,159.838 L210.571862,155.524 C210.584862,154.082 210.413862,152.643 210.310862,151.201 L209.967862,146.869 L209.432862,142.542 C209.232862,141.101 209.123862,139.643 208.841862,138.211 L208.132862,133.886 C207.876862,132.447 207.700862,130.987 207.388862,129.556 C206.804862,126.684 206.229862,123.803 205.716862,120.891 L205.716862,120.891 Z" id="Fill-54"></path>
                <path d="M205.457862,78.97 C204.398862,76.223 203.401862,73.446 202.412862,70.659 C201.876862,69.276 201.548862,67.836 201.110862,66.423 L199.873862,62.157 C199.431862,60.739 199.195862,59.273 198.850862,57.83 L197.889862,53.476 C197.610862,52.014 197.421862,50.535 197.193862,49.061 C196.985862,47.584 196.712862,46.115 196.620862,44.618 L196.228862,40.136 C196.138862,38.637 196.168862,37.126 196.134862,35.619 C196.073862,34.112 196.184862,32.596 196.283862,31.081 L196.432862,28.807 L196.740862,26.533 C196.850862,25.775 196.931862,25.015 197.072862,24.26 L197.571862,21.998 C197.851862,20.483 198.396862,19.002 198.831862,17.506 C199.400862,16.034 199.973862,14.564 200.740862,13.137 C201.082862,12.415 201.560862,11.721 201.975862,11.016 C202.495862,10.294 202.869862,9.697 203.699862,8.847 L205.803862,6.689 L208.852862,11.138 C209.315862,11.791 209.658862,12.509 210.064862,13.192 C210.475862,13.874 210.808862,14.59 211.136862,15.309 C211.467862,16.025 211.820862,16.734 212.070862,17.478 C212.335862,18.216 212.638862,18.944 212.867862,19.69 L213.533862,21.932 C213.899862,23.439 214.280862,24.946 214.498862,26.47 C214.781862,27.988 214.918862,29.515 215.079862,31.036 C215.199862,32.559 215.283862,34.082 215.292862,35.601 C215.319862,36.361 215.307862,37.118 215.290862,37.875 C215.269862,38.632 215.285862,39.39 215.223862,40.143 L215.084862,42.403 L214.875862,44.652 C214.717862,46.147 214.547862,47.639 214.321862,49.121 C214.115862,50.605 213.859862,52.08 213.574862,53.547 C213.271862,55.011 212.969862,56.473 212.621862,57.923 C212.281862,59.374 211.926862,60.82 211.524862,62.253 C210.708862,65.116 209.837862,67.956 208.827862,70.746 C207.818862,73.536 206.736862,76.298 205.457862,78.97 Z M205.457862,78.97 C206.201862,76.107 206.862862,73.237 207.467862,70.361 C208.063862,67.483 208.633862,64.608 209.079862,61.716 C209.558862,58.832 209.967862,55.943 210.268862,53.049 C210.395862,51.6 210.556862,50.158 210.658862,48.713 C210.780862,47.269 210.846862,45.823 210.901862,44.381 L210.955862,42.219 L210.942862,40.062 C210.914862,38.627 210.897862,37.192 210.792862,35.769 C210.718862,34.342 210.558862,32.929 210.408862,31.519 C210.209862,30.118 210.037862,28.711 209.730862,27.341 C209.477862,25.955 209.109862,24.609 208.755862,23.262 L208.122862,21.28 C207.906862,20.622 207.623862,19.995 207.380862,19.351 C207.145862,18.701 206.841862,18.091 206.547862,17.473 C206.260862,16.853 205.971862,16.233 205.612862,15.657 C205.259862,15.08 204.968862,14.458 204.569862,13.914 L203.416862,12.251 L207.215862,12.567 L207.027862,12.787 C206.940862,12.897 206.851862,12.983 206.761862,13.109 L206.219862,13.855 C205.895862,14.416 205.518862,14.927 205.230862,15.533 C204.592862,16.69 204.100862,17.959 203.587862,19.216 C203.185862,20.533 202.670862,21.804 202.392862,23.179 L201.897862,25.208 C201.758862,25.893 201.660862,26.592 201.535862,27.283 L201.177862,29.364 L200.967862,31.479 C200.835862,32.891 200.651862,34.3 200.643862,35.733 C200.605862,37.161 200.517862,38.588 200.517862,40.023 L200.601862,44.337 C200.589862,45.779 200.759862,47.218 200.863862,48.66 L201.205862,52.992 L201.741862,57.319 C201.941862,58.76 202.050862,60.218 202.331862,61.65 L203.040862,65.975 C203.297862,67.414 203.473862,68.874 203.785862,70.305 C204.369862,73.177 204.944862,76.058 205.457862,78.97 L205.457862,78.97 Z" id="Fill-55"></path>
            </g>
        </g>
    </g>
</svg>
