<?xml version="1.0" encoding="UTF-8"?>
<svg width="403px"  viewBox="0 0 403 404" version="1.1" xmlns="http://www.w3.org/2000/svg" xmlns:xlink="http://www.w3.org/1999/xlink">
    <!-- Generator: Sketch 61.2 (89653) - https://sketch.com -->
    <title>Group 5@1x</title>
    <desc>Created with Sketch.</desc>
    <g id="Page-1" stroke="none" stroke-width="1" fill="none" fill-rule="evenodd">
        <g id="Group-5" transform="translate(2.115402, 1.814052)" stroke="#e2ddd7" stroke-width="3">
            <path d="M382.553598,121.489948 C378.816598,112.774948 374.465598,104.382948 369.730598,96.227948 C364.886598,88.132948 359.506598,80.387948 353.696598,72.958948 C347.766598,65.627948 341.375598,58.663948 334.511598,52.145948 C327.551598,45.736948 320.179598,39.736948 312.332598,34.335948 C304.493598,29.095948 296.357598,24.261948 287.855598,20.124948 C285.750598,19.050948 283.561598,18.151948 281.416598,17.159948 L278.182598,15.706948 C277.093598,15.249948 275.985598,14.834948 274.887598,14.397948 C272.682598,13.545948 270.495598,12.646948 268.273598,11.839948 L261.550598,9.58194802 C252.525598,6.78194802 243.354598,4.37094802 234.016598,2.90494802 L230.528598,2.28994802 L227.014598,1.84594802 C224.671598,1.56294802 222.333598,1.22994802 219.986598,0.989948024 C215.280598,0.663948024 210.584598,0.161948024 205.869598,0.141948024 L202.214598,0.045948024 C200.996598,0.00594802402 199.777598,-0.024051976 198.559598,0.026948024 L191.250598,0.197948024 C190.031598,0.202948024 188.816598,0.304948024 187.600598,0.395948024 L183.953598,0.662948024 L180.306598,0.932948024 C179.090598,1.02294802 177.884598,1.21494802 176.673598,1.35194802 L169.415598,2.26794802 L162.207598,3.52794802 C159.794598,3.89894802 157.428598,4.50494802 155.046598,5.03094802 C152.671598,5.58894802 150.273598,6.05594802 147.936598,6.76394802 C129.070598,11.778948 110.940598,19.597948 94.349598,29.924948 L88.179598,33.881948 L82.208598,38.135948 C80.189598,39.514948 78.320598,41.095948 76.390598,42.594948 C74.471598,44.108948 72.540598,45.608948 70.728598,47.251948 C63.239598,53.544948 56.386598,60.562948 49.953598,67.910948 C43.487598,75.241948 37.697598,83.149948 32.418598,91.355948 L30.455598,94.446948 C29.794598,95.471948 29.143598,96.503948 28.556598,97.574948 L24.925598,103.930948 C23.754598,106.069948 22.689598,108.266948 21.565598,110.430948 C21.021598,111.521948 20.432598,112.590948 19.924598,113.698948 L16.147598,122.026948 L12.765598,130.522948 C11.917598,132.807948 11.164598,135.128948 10.360598,137.430948 C9.97559799,138.587948 9.54259799,139.729948 9.19759799,140.898948 L6.64759799,149.682948 L6.21559799,151.460948 L4.52159799,158.581948 C3.98559799,160.961948 3.60159799,163.373948 3.13559799,165.769948 L2.47059799,169.369948 L1.97959799,172.997948 C-0.808402009,192.331948 -0.622402009,212.071948 2.35359799,231.436948 C3.87259799,241.110948 6.21359799,250.640948 9.07859799,260.004948 C12.054598,269.340948 15.757598,278.428948 19.990598,287.257948 C24.307598,296.051948 29.309598,304.490948 34.787598,312.598948 C40.312598,320.682948 46.502598,328.286948 53.083598,335.519948 C66.370598,349.879948 81.744598,362.300948 98.618598,372.184948 L104.990598,375.813948 L111.522598,379.144948 C113.677598,380.302948 115.948598,381.217948 118.166598,382.244948 C120.393598,383.250948 122.614598,384.273948 124.907598,385.123948 C133.935598,388.885948 143.326598,391.715948 152.802598,394.080948 L159.955598,395.723948 L167.178598,397.028948 C169.579598,397.513948 172.014598,397.774948 174.439598,398.101948 C176.869598,398.388948 179.286598,398.809948 181.731598,398.950948 L189.051598,399.540948 C191.494598,399.693948 193.942598,399.714948 196.388598,399.805948 L200.059598,399.916948 L203.730598,399.849948 C206.177598,399.788948 208.628598,399.785948 211.073598,399.670948 C220.859598,399.150948 230.604598,397.942948 240.234598,396.098948 C249.829598,394.090948 259.297598,391.492948 268.506598,388.161948 C278.689598,384.389948 288.549598,379.802948 297.974598,374.468948 C300.302598,373.085948 302.682598,371.790948 304.960598,370.329948 L311.765598,365.906948 C313.978598,364.351948 316.160598,362.752948 318.356598,361.175948 C318.901598,360.776948 319.457598,360.390948 319.994598,359.980948 L321.581598,358.718948 L324.752598,356.192948 C333.148598,349.384948 341.003598,341.926948 348.240598,333.905948 C355.432598,325.842948 361.959598,317.197948 367.814598,308.114948 C372.893598,300.372948 377.304598,292.138948 381.249598,283.695948 L384.113598,277.313948 L386.669598,270.802948 C387.562598,268.647948 388.272598,266.426948 389.013598,264.219948 L390.120598,260.908948 C390.500598,259.808948 390.856598,258.702948 391.150598,257.577948 C391.774598,255.338948 392.397598,253.101948 393.020598,250.868948 C393.352598,249.757948 393.590598,248.622948 393.844598,247.493948 L394.602598,244.107948 C395.707598,239.616948 396.320598,235.042948 397.106598,230.530948 C397.411598,228.260948 397.640598,225.984948 397.902598,223.721948 L398.278598,220.330948 C398.367598,219.198948 398.420598,218.064948 398.490598,216.934948 C398.617598,214.674948 398.743598,212.421948 398.868598,210.175948 C398.876598,207.927948 398.884598,205.687948 398.892598,203.455948 C398.892598,200.384948 398.444598,202.005948 398.430598,205.096948 C398.474598,213.763948 397.613598,222.486948 396.345598,231.174948 C395.564598,235.496948 394.895598,239.853948 393.795598,244.129948 C393.266598,246.270948 392.839598,248.438948 392.216598,250.558948 L390.363598,256.924948 C389.790598,259.061948 388.986598,261.127948 388.280598,263.223948 L387.188598,266.357948 L386.641598,267.924948 L386.024598,269.465948 L383.533598,275.619948 C383.135598,276.652948 382.680598,277.660948 382.206598,278.660948 L380.813598,281.672948 C379.038598,285.727948 376.896598,289.601948 374.874598,293.526948 C373.833598,295.473948 372.673598,297.353948 371.581598,299.268948 L369.922598,302.128948 C369.366598,303.079948 368.741598,303.988948 368.154598,304.919948 L364.430598,310.707948 L360.445598,316.324948 C359.152598,318.225948 357.709598,320.013948 356.296598,321.826948 L354.175598,324.543948 L353.113598,325.901948 L347.497598,332.446948 C345.979598,334.174948 344.358598,335.809948 342.793598,337.496948 L340.424598,340.008948 L337.942598,342.409948 C336.275598,343.996948 334.654598,345.635948 332.947598,347.179948 C326.129598,353.377948 318.874598,359.080948 311.323598,364.360948 L305.534598,368.128948 C304.561598,368.744948 303.616598,369.404948 302.620598,369.981948 L299.635598,371.716948 L296.649598,373.449948 C295.655598,374.028948 294.664598,374.612948 293.632598,375.121948 L287.500598,378.281948 C286.441598,378.852948 285.339598,379.336948 284.244598,379.833948 L280.959598,381.323948 L277.673598,382.810948 L274.322598,384.144948 C272.079598,385.008948 269.863598,385.947948 267.595598,386.743948 L260.761598,389.047948 C260.191598,389.234948 259.625598,389.437948 259.050598,389.612948 L257.315598,390.103948 L253.846598,391.081948 L250.375598,392.057948 C249.219598,392.383948 248.037598,392.609948 246.869598,392.890948 C244.525598,393.418948 242.187598,393.973948 239.838598,394.474948 L232.740598,395.720948 C223.252598,397.185948 213.671598,398.190948 204.066598,398.241948 L200.467598,398.320948 C199.267598,398.322948 198.067598,398.265948 196.867598,398.239948 L189.667598,398.027948 C184.881598,397.619948 180.076598,397.402948 175.318598,396.687948 L171.742598,396.230948 L169.954598,396.001948 L168.178598,395.688948 L161.078598,394.424948 C158.715598,393.980948 156.385598,393.376948 154.037598,392.859948 L150.521598,392.051948 L147.048598,391.075948 C137.743598,388.615948 128.687598,385.273948 119.864598,381.443948 C111.010598,377.660948 102.539598,373.027948 94.368598,367.956948 C86.165598,362.919948 78.457598,357.109948 71.129598,350.893948 C63.750598,344.696948 56.953598,337.833948 50.606598,330.602948 L48.246598,327.871948 C47.459598,326.961948 46.661598,326.060948 45.935598,325.099948 L41.481598,319.418948 C40.015598,317.510948 38.674598,315.509948 37.267598,313.558948 C36.576598,312.573948 35.864598,311.603948 35.192598,310.606948 L33.247598,307.565948 L31.304598,304.524948 C30.649598,303.515948 30.005598,302.499948 29.425598,301.444948 L25.837598,295.182948 C24.673598,293.077948 23.628598,290.907948 22.520598,288.772948 C21.980598,287.697948 21.411598,286.636948 20.897598,285.549948 L19.414598,282.258948 L17.933598,278.967948 C17.432598,277.873948 16.941598,276.775948 16.521598,275.647948 L13.884598,268.927948 C13.030598,266.677948 12.322598,264.375948 11.536598,262.101948 L10.393598,258.677948 L9.41059799,255.204948 C6.65159799,245.978948 4.79759799,236.507948 3.48459799,226.992948 L2.61359799,219.837948 L2.09159799,212.651948 C1.87159799,210.258948 1.85359799,207.856948 1.80159799,205.457948 L1.72659799,201.857948 C1.69459799,200.658948 1.66859799,199.458948 1.72559799,198.259948 L1.93759799,191.063948 C1.95059799,189.863948 2.04659799,188.667948 2.14859799,187.471948 L2.43559799,183.882948 C2.71159799,179.087948 3.50359799,174.343948 4.08759799,169.580948 C5.67759799,160.109948 7.78259799,150.724948 10.603598,141.534948 C13.511598,132.456948 16.900598,123.518948 21.031598,114.910948 C25.220598,106.339948 29.868598,97.978948 35.206598,90.059948 C40.586598,82.176948 46.395598,74.577948 52.807598,67.501948 C59.258598,60.468948 66.100598,53.788948 73.446598,47.693948 C80.832598,41.656948 88.541598,36.001948 96.661598,30.971948 C104.819598,26.014948 113.248598,21.482948 122.009598,17.658948 C124.184598,16.671948 126.429598,15.847948 128.637598,14.935948 L131.963598,13.600948 L135.348598,12.426948 C137.612598,11.665948 139.850598,10.817948 142.138598,10.131948 L149.019598,8.12894802 C150.161598,7.77494802 151.320598,7.48894802 152.485598,7.22294802 L155.971598,6.39594802 L159.458598,5.57094802 C160.618598,5.28694802 161.802598,5.11794802 162.973598,4.88694802 L170.019598,3.59994802 L177.117598,2.66794802 C179.742598,2.26994802 182.392598,2.11894802 185.034598,1.89594802 C187.678598,1.67994802 190.320598,1.43994802 192.972598,1.41194802 C195.622598,1.34794802 198.272598,1.21094802 200.922598,1.20994802 L208.874598,1.36394802 C219.471598,1.80994802 230.039598,3.01994802 240.470598,5.03694802 C261.263598,9.30594802 281.519598,16.668948 299.918598,27.412948 C309.162598,32.767948 317.977598,38.861948 326.158598,45.707948 C334.321598,52.572948 341.911598,60.085948 348.881598,68.120948 C350.582598,70.165948 352.350598,72.152948 353.992598,74.243948 L358.848598,80.567948 C361.924598,84.901948 365.002598,89.233948 367.763598,93.774948 C373.370598,102.794948 378.378598,112.190948 382.643598,121.937948 C383.221598,123.197948 383.425598,123.767948 383.422598,123.659948 C383.393598,123.562948 383.161598,122.786948 382.553598,121.489948" id="Fill-26"></path>
            <path d="M391.410598,174.048948 C391.074598,170.176948 390.321598,166.360948 389.708598,162.517948 C389.432598,160.588948 388.938598,158.703948 388.537598,156.797948 C388.108598,154.898948 387.709598,152.989948 387.247598,151.095948 C385.219598,143.570948 382.981598,136.066948 380.019598,128.818948 C377.243598,121.497948 373.751598,114.463948 370.119598,107.509948 C366.248598,100.686948 362.239598,93.910948 357.600598,87.545948 C356.256598,85.635948 354.932598,83.713948 353.464598,81.900948 C352.026598,80.064948 350.617598,78.207948 349.159598,76.390948 C346.127598,72.854948 343.163598,69.259948 339.910598,65.928948 L337.523598,63.383948 C336.737598,62.525948 335.867598,61.751948 335.043598,60.930948 C333.368598,59.318948 331.719598,57.675948 330.021598,56.087948 L324.791598,51.471948 L323.482598,50.317948 L322.125598,49.222948 L319.402598,47.040948 L316.678598,44.859948 C315.778598,44.122948 314.806598,43.478948 313.873598,42.783948 C311.984598,41.425948 310.115598,40.035948 308.206598,38.703948 C304.304598,36.162948 300.444598,33.544948 296.367598,31.270948 C294.354598,30.091948 292.351598,28.891948 290.257598,27.854948 C288.183598,26.783948 286.118598,25.688948 284.030598,24.638948 C279.773598,22.705948 275.554598,20.665948 271.156598,19.028948 C266.842598,17.208948 262.357598,15.837948 257.923598,14.318948 C253.403598,13.077948 248.922598,11.668948 244.317598,10.737948 L240.882598,9.96494802 L239.164598,9.58294802 L237.429598,9.28394802 L230.488598,8.08994802 C228.169598,7.72794802 225.829598,7.50694802 223.500598,7.20894802 L220.005598,6.79094802 L216.492598,6.54494802 C207.136598,5.71294802 197.729598,5.86594802 188.384598,6.35894802 L181.383598,6.91294802 C179.052598,7.10594802 176.740598,7.48094802 174.418598,7.75294802 L170.940598,8.19394802 C169.785598,8.36594802 168.639598,8.59294802 167.487598,8.78894802 C165.190598,9.20594802 162.883598,9.57494802 160.594598,10.022948 C151.461598,11.929948 142.478598,14.400948 133.675598,17.414948 C124.931598,20.578948 116.356598,24.207948 108.086598,28.483948 C99.871598,32.848948 91.879598,37.671948 84.307598,43.141948 C76.789598,48.672948 69.568598,54.657948 62.875598,61.245948 C56.091598,68.008948 49.758598,75.241948 43.970598,82.903948 C38.275598,90.634948 33.115598,98.756948 28.518598,107.191948 C24.011598,115.677948 20.145598,124.486948 16.833598,133.493948 C13.599598,142.534948 11.093598,151.809948 9.10259799,161.180948 C7.22359799,170.576948 6.04959799,180.091948 5.39759799,189.644948 L5.16159799,196.820948 C5.13759799,198.016948 5.05259799,199.213948 5.07859799,200.409948 L5.20459799,207.590948 C5.22459799,208.788948 5.23259799,209.985948 5.33759799,211.179948 L5.82659799,218.348948 C5.88359799,219.546948 6.03959799,220.734948 6.18259799,221.924948 L7.03459799,229.064948 C7.19259799,230.252948 7.42459799,231.429948 7.61759799,232.612948 C8.03359799,234.973948 8.39759799,237.345948 8.86159799,239.698948 L10.433598,246.722948 L10.828598,248.478948 L11.303598,250.214948 L12.267598,253.684948 L13.235598,257.153948 C13.543598,258.314948 13.974598,259.438948 14.338598,260.582948 C15.107598,262.857948 15.840598,265.146948 16.646598,267.409948 L19.277598,274.122948 L19.937598,275.799948 L20.675598,277.444948 L22.160598,280.730948 L23.650598,284.015948 C24.151598,285.108948 24.736598,286.161948 25.275598,287.235948 C26.390598,289.365948 27.446598,291.528948 28.617598,293.629948 L32.239598,299.869948 C37.267598,308.069948 42.803598,315.961948 48.940598,323.365948 C55.125598,330.727948 61.791598,337.669948 68.885598,344.143948 C76.066598,350.521948 83.650598,356.421948 91.574598,361.823948 C99.547598,367.160948 107.904598,371.895948 116.513598,376.119948 C125.149598,380.299948 134.125598,383.739948 143.260598,386.671948 L150.171598,388.688948 C152.477598,389.355948 154.832598,389.833948 157.161598,390.413948 L160.665598,391.245948 L164.205598,391.906948 C166.569598,392.323948 168.920598,392.826948 171.297598,393.167948 C180.798598,394.617948 190.403598,395.278948 200.016598,395.404574 C243.340598,395.514948 286.791598,380.858948 320.770598,353.840948 C329.286598,347.142948 337.286598,339.777948 344.565598,331.751948 C351.826598,323.709948 358.424598,315.079948 364.281598,305.975948 C376.072598,287.803948 384.567598,267.573948 389.721598,246.585948 C390.379598,243.696948 390.034598,243.745948 389.372598,246.632948 C384.845598,265.047948 377.495598,282.737948 367.752598,298.955948 C366.607598,301.026948 365.243598,302.963948 363.976598,304.959948 C362.691598,306.943948 361.427598,308.941948 360.008598,310.835948 C358.621598,312.748948 357.264598,314.684948 355.852598,316.578948 L350.343598,323.517948 L349.180598,324.853948 L346.849598,327.521948 L344.519598,330.190948 C343.739598,331.076948 342.894598,331.903948 342.085598,332.763948 C340.439598,334.456948 338.841598,336.196948 337.158598,337.851948 L332.023598,342.731948 C325.025598,349.079948 317.687598,355.072948 309.879598,360.415948 C302.046598,365.710948 293.914598,370.581948 285.417598,374.755948 C276.894598,378.856948 268.135598,382.494948 259.112598,385.361948 C256.871598,386.118948 254.572598,386.690948 252.305598,387.361948 L248.892598,388.331948 L245.437598,389.135948 C243.129598,389.648948 240.836598,390.238948 238.515598,390.682948 L231.531598,391.916948 L229.785598,392.222948 L228.026598,392.442948 L224.509598,392.880948 C222.164598,393.167948 219.824598,393.501948 217.463598,393.623948 L210.397598,394.137948 L203.316598,394.306948 C202.136598,394.323948 200.956598,394.374948 199.776598,394.364948 L196.236598,394.263948 C193.878598,394.173948 191.515598,394.173948 189.161598,394.008948 L182.103598,393.445948 L180.339598,393.303948 L178.583598,393.079948 L175.073598,392.619948 C170.378598,392.109948 165.756598,391.122948 161.110598,390.303948 L154.217598,388.693948 C151.909598,388.199948 149.648598,387.524948 147.382598,386.866948 L143.982598,385.886948 L142.282598,385.394948 L140.608598,384.821948 L133.914598,382.528948 C131.700598,381.715948 129.524598,380.799948 127.328598,379.939948 C126.237598,379.493948 125.128598,379.087948 124.051598,378.608948 L120.831598,377.141948 L116.007598,374.939948 L114.434598,374.133948 L108.156598,370.886948 C106.086598,369.763948 104.073598,368.538948 102.030598,367.368948 C101.017598,366.767948 99.981598,366.205948 98.989598,365.572948 L96.024598,363.652948 L91.580598,360.771948 L90.146598,359.742948 L84.413598,355.620948 C82.540598,354.197948 80.719598,352.705948 78.870598,351.250948 C77.959598,350.506948 77.007598,349.813948 76.130598,349.028948 L73.475598,346.703948 C69.871598,343.674948 66.542598,340.345948 63.149598,337.089948 C59.926598,333.664948 56.608598,330.324948 53.615598,326.690948 C50.478598,323.182948 47.676598,319.398948 44.772598,315.699948 C42.076598,311.843948 39.272598,308.061948 36.826598,304.037948 C34.239598,300.155948 32.029598,296.041948 29.687598,292.005948 C27.577598,287.842948 25.337598,283.740948 23.490598,279.445948 C21.462598,275.232948 19.847598,270.841948 18.092598,266.507948 C16.600598,262.078948 14.940598,257.697948 13.739598,253.172948 L12.765598,249.801948 L12.284598,248.114948 L10.273598,239.575948 C9.77959799,237.289948 9.41059799,234.977948 8.97459799,232.679948 L8.34959799,229.226948 L7.89559799,225.747948 C6.51659799,216.489948 6.11659799,207.118948 6.14559799,197.790948 L6.34259799,190.793948 C6.42559799,188.462948 6.68459799,186.140948 6.84859799,183.814948 L7.13059799,180.328948 C7.24259799,179.168948 7.42359799,178.015948 7.56759799,176.859948 C7.87959799,174.548948 8.16459799,172.234948 8.50259799,169.929948 C10.056598,160.736948 12.173598,151.651948 14.934598,142.757948 C17.822598,133.907948 21.173598,125.209948 25.225598,116.830948 C29.342598,108.489948 33.889598,100.353948 39.093598,92.633948 C44.360598,84.917948 50.047598,77.484948 56.316598,70.563948 C62.627598,63.687948 69.322598,57.164948 76.503598,51.207948 C83.728598,45.313948 91.288598,39.830948 99.241598,34.966948 C107.236598,30.183948 115.498598,25.843948 124.069598,22.193948 C158.321598,7.56094802 196.600598,3.00994802 233.478598,9.30694802 L237.273598,9.97594802 L239.170598,10.315948 L241.047598,10.745948 L248.552598,12.474948 L255.957598,14.574948 C256.572598,14.753948 257.193598,14.916948 257.804598,15.109948 L259.626598,15.726948 L263.268598,16.960948 C272.941598,20.347948 282.387598,24.398948 291.386598,29.298948 C309.360598,39.107948 325.876598,51.638948 339.916598,66.636948 C353.525598,80.887948 365.064598,97.694948 373.846598,115.731948 C378.147598,124.797948 381.742598,134.164948 384.594598,143.661948 C385.250598,146.051948 385.904598,148.436948 386.557598,150.815948 C387.167598,153.203948 387.638598,155.620948 388.178598,158.010948 C388.425598,159.210948 388.732598,160.395948 388.926598,161.602948 C389.124598,162.807948 389.322598,164.010948 389.520598,165.210948 C389.716598,166.411948 389.911598,167.609948 390.107598,168.805948 L390.390598,170.598948 L390.589598,172.400948 C391.077598,176.835948 391.899598,178.515948 391.410598,174.048948" id="Fill-27"></path>
            <path d="M179.789598,10.620948 C170.698598,11.557948 161.671598,13.190948 152.761598,15.360948 C143.898598,17.707948 135.157598,20.557948 126.674598,24.072948 C118.236598,27.682948 109.995598,31.757948 102.117598,36.456948 C94.289598,41.224948 86.720598,46.408948 79.595598,52.140948 C72.524598,57.929948 65.764598,64.136948 59.532598,70.866948 C53.361598,77.646948 47.564598,84.786948 42.359598,92.357948 C37.228598,99.971948 32.511598,107.875948 28.453598,116.121948 C27.415598,118.169948 26.524598,120.288948 25.551598,122.367948 L24.124598,125.502948 L22.848598,128.701948 C22.020598,130.841948 21.096598,132.947948 20.345598,135.115948 L18.106598,141.626948 C6.78259799,176.479948 5.85859799,214.611948 15.376598,250.114948 L17.235598,256.750948 L19.409598,263.287948 C20.087598,265.483948 20.959598,267.609948 21.782598,269.752948 C22.634598,271.883948 23.372598,274.063948 24.351598,276.141948 L27.140598,282.441948 C28.129598,284.512948 29.188598,286.550948 30.208598,288.608948 C30.734598,289.629948 31.213598,290.675948 31.777598,291.675948 L36.006598,299.181948 L36.921598,300.641948 L40.592598,306.478948 C41.852598,308.400948 43.209598,310.258948 44.514598,312.151948 C45.180598,313.088948 45.817598,314.048948 46.507598,314.967948 L48.619598,317.697948 L50.732598,320.426948 C51.429598,321.343948 52.140598,322.247948 52.904598,323.109948 L57.395598,328.359948 C58.920598,330.084948 60.541598,331.724948 62.112598,333.410948 C62.909598,334.242948 63.683598,335.098948 64.501598,335.910948 L66.996598,338.305948 L69.494598,340.698948 C70.320598,341.504948 71.159598,342.295948 72.044598,343.037948 L77.238598,347.550948 C78.990598,349.031948 80.826598,350.410948 82.617598,351.846948 C83.521598,352.552948 84.411598,353.279948 85.328598,353.969948 L88.129598,355.973948 L90.931598,357.977948 C91.864598,358.648948 92.793598,359.324948 93.771598,359.928948 L99.563598,363.667948 C101.501598,364.902948 103.527598,365.994948 105.505598,367.165948 L108.491598,368.892948 L111.556598,370.474948 C113.610598,371.508948 115.621598,372.632948 117.711598,373.592948 C126.011598,377.576948 134.630598,380.856948 143.390598,383.676948 C152.200598,386.350948 161.182598,388.422948 170.263598,389.886948 C188.450598,392.583948 207.029598,392.869948 225.228598,390.309948 C229.797598,389.810948 234.286598,388.810948 238.805598,388.020948 L245.503598,386.436948 C247.747598,385.952948 249.944598,385.293948 252.145598,384.649948 L255.447598,383.692948 L257.098598,383.213948 L258.725598,382.660948 L265.223598,380.424948 C267.383598,379.662948 269.485598,378.748948 271.618598,377.918948 L274.806598,376.645948 L277.928598,375.219948 C311.397598,360.225948 339.818598,335.326948 359.683598,304.807948 L363.344598,299.035948 L366.740598,293.101948 C367.909598,291.143948 368.922598,289.099948 369.952598,287.064948 L371.504598,284.016948 L372.277598,282.490948 L375.787598,274.688948 C376.680598,272.590948 377.471598,270.448948 378.319598,268.329948 C378.730598,267.265948 379.167598,266.210948 379.558598,265.139948 L380.652598,261.895948 C381.356598,259.725948 382.168598,257.588948 382.785598,255.390948 C385.450598,246.654948 387.363598,237.710948 388.839598,228.707948 C389.366598,224.175948 390.103598,219.667948 390.333598,215.109948 L390.585598,211.699948 C390.670598,210.563948 390.769598,209.427948 390.770598,208.287948 L390.923598,201.455948 C390.974598,199.104948 390.622598,199.245948 390.565598,201.595948 C390.457598,237.975948 379.576598,274.341948 359.419598,304.787948 C349.372598,319.996948 337.070598,333.712948 323.088598,345.396948 C309.108598,357.081948 293.478598,366.768948 276.813598,374.081948 C268.472598,377.703948 259.917598,380.880948 251.119598,383.197948 L247.836598,384.119948 L244.512598,384.883948 C242.292598,385.373948 240.085598,385.923948 237.856598,386.364948 C233.375598,387.131948 228.914598,388.019948 224.389598,388.477948 C219.888598,389.132948 215.346598,389.364948 210.816598,389.706948 C208.549598,389.847948 206.274598,389.830948 204.004598,389.900948 L200.597598,389.976948 C199.462598,389.992948 198.327598,389.925948 197.191598,389.903948 L190.380598,389.712948 L183.588598,389.182948 C182.457598,389.083948 181.322598,389.030948 180.195598,388.893948 L176.816598,388.458948 C174.568598,388.144948 172.304598,387.935948 170.068598,387.537948 C134.116598,381.931948 100.010598,365.520948 73.069598,341.177948 C66.345598,335.012948 59.949598,328.485948 54.126598,321.465948 C48.362598,314.405948 42.965598,307.038948 38.217598,299.257948 C36.992598,297.337948 35.930598,295.318948 34.778598,293.353948 L33.082598,290.388948 L31.530598,287.345948 C30.516598,285.306948 29.420598,283.306948 28.473598,281.236948 L25.674598,275.004948 C25.188598,273.974948 24.774598,272.913948 24.365598,271.850948 L21.875598,265.488948 C21.471598,264.424948 21.140598,263.334948 20.768598,262.258948 C20.054598,260.095948 19.297598,257.947948 18.618598,255.774948 L16.768598,249.198948 C7.40859799,213.984948 8.41959799,176.103948 19.680598,141.509948 L21.875598,135.061948 C22.663598,132.933948 23.534598,130.834948 24.357598,128.717948 C24.783598,127.665948 25.170598,126.596948 25.628598,125.557948 L28.435598,119.347948 C28.895598,118.308948 29.364598,117.273948 29.901598,116.271948 L33.002598,110.200948 C34.055598,108.187948 35.241598,106.245948 36.354598,104.264948 L38.054598,101.309948 L39.890598,98.435948 L41.724598,95.561948 C42.337598,94.603948 42.933598,93.634948 43.609598,92.719948 C48.715598,85.189948 54.460598,78.112948 60.547598,71.360948 C66.682598,64.641948 73.383598,58.466948 80.380598,52.672948 C87.419598,46.922948 94.922598,41.752948 102.667598,36.972948 C110.454598,32.250948 118.621598,28.175948 126.977598,24.541948 C135.377598,20.997948 144.046598,18.127948 152.843598,15.746948 C161.687598,13.550948 170.658598,11.872948 179.708598,10.912948 C180.791598,10.763948 181.343598,10.677948 181.356598,10.603948 C181.370598,10.540948 180.842598,10.478948 179.789598,10.620948" id="Fill-28"></path>
            <path d="M358.645598,96.422948 C352.680598,86.740948 344.976598,77.070948 336.274598,68.304948 C327.583598,59.515948 317.917598,51.643948 308.347598,44.960948 C296.984598,36.984948 284.900598,29.964948 272.087598,24.464948 C259.300598,18.935948 245.840598,14.817948 232.046598,12.553948 C231.516598,12.461948 231.786598,13.243948 232.317598,13.337948 C258.077598,17.754948 281.794598,27.715948 303.340598,41.965948 C313.836598,48.927948 323.386598,56.787948 332.064598,65.471948 C340.738598,74.159948 348.546598,83.676948 355.456598,94.071948 C357.452598,97.131948 360.524598,99.561948 358.645598,96.422948" id="Fill-29"></path>
            <path d="M384.681598,197.338948 C384.809572,182.590948 382.829598,167.109948 378.627598,152.196948 C377.506598,148.488948 376.497598,144.744948 375.125598,141.122948 C374.465598,139.304948 373.872598,137.464948 373.164598,135.669948 C372.434598,133.883948 371.705598,132.100948 370.977598,130.320948 C370.607598,129.434948 370.270598,128.534948 369.875598,127.660948 L368.662598,125.056948 C367.859598,123.320948 367.059598,121.589948 366.261598,119.864948 C365.384598,118.177948 364.509598,116.496948 363.638598,114.822948 C363.206598,113.984948 362.774598,113.147948 362.344598,112.312948 C361.910598,111.479948 361.414598,110.682948 360.955598,109.867948 C343.890598,79.354948 318.157598,54.029948 287.457598,37.417948 C270.763598,28.469948 252.726598,21.984948 234.085598,18.584948 C231.750598,18.195948 229.432598,17.693948 227.083598,17.391948 L220.035598,16.495948 C217.685598,16.207948 215.315598,16.109948 212.956598,15.904948 L209.413598,15.642948 L205.860598,15.553948 L202.307598,15.462948 C201.123598,15.429948 199.939598,15.383948 198.755598,15.438948 L191.650598,15.612948 C189.283598,15.685948 186.926598,15.941948 184.564598,16.093948 C183.384598,16.186948 182.201598,16.256948 181.023598,16.367948 L177.500598,16.811948 L173.979598,17.250948 L172.219598,17.467948 C171.634598,17.549948 171.054598,17.666948 170.472598,17.763948 L163.490598,18.974948 C161.175598,19.438948 158.882598,19.995948 156.576598,20.494948 C154.260598,20.957948 151.997598,21.621948 149.723598,22.244948 C145.146598,23.397948 140.699598,24.969948 136.220598,26.439948 L129.613598,28.958948 C128.502598,29.356948 127.421598,29.827948 126.345598,30.308948 L123.105598,31.726948 L119.865598,33.147948 L116.696598,34.723948 L113.525598,36.296948 L111.939598,37.083948 L110.394598,37.948948 L104.207598,41.404948 L98.189598,45.158948 C90.257598,50.314948 82.671598,56.042948 75.551598,62.353948 C68.444598,68.783948 61.810598,75.772948 55.728598,83.231948 C49.600598,90.660948 44.240598,98.711948 39.404598,107.032948 C36.925598,111.165948 34.809598,115.496948 32.644598,119.791948 L29.675598,126.369948 C29.156598,127.455948 28.739598,128.583948 28.296598,129.700948 L26.974598,133.054948 C26.542598,134.175948 26.068598,135.280948 25.671598,136.413948 L24.515598,139.825948 C23.766598,142.105948 22.904598,144.349948 22.299598,146.671948 L20.324598,153.584948 C19.775598,155.916948 19.227598,158.246948 18.679598,160.575948 C10.398598,198.054948 14.229598,238.207948 29.512598,273.432948 L32.449598,280.005948 L35.674598,286.439948 C36.702598,288.609948 37.962598,290.654948 39.118598,292.756948 L40.881598,295.893948 C41.490598,296.927948 42.149598,297.930948 42.779598,298.950948 L44.689598,302.001948 C45.320598,303.021948 45.953598,304.042948 46.657598,305.014948 L50.760598,310.931948 C53.669598,314.749948 56.533598,318.611948 59.708598,322.223948 L62.034598,324.978948 L64.486598,327.623948 L68.173598,331.585948 L69.462598,332.847948 L74.634598,337.889948 L80.051598,342.673948 C87.393598,348.918948 95.219598,354.616948 103.462598,359.679948 C120.008598,369.594948 138.058598,377.161948 156.926598,381.538948 L160.464598,382.354948 C161.641598,382.637948 162.821598,382.903948 164.018598,383.092948 L171.168598,384.365948 C173.562598,384.718948 175.971598,384.984948 178.371598,385.300948 C180.768598,385.656948 183.188598,385.793948 185.602598,385.977948 C190.427598,386.449948 195.277598,386.431948 200.118598,386.574948 C204.959598,386.415948 209.808598,386.417948 214.627598,385.927948 C216.436598,385.766948 218.252598,385.685948 220.052598,385.454948 L225.445598,384.737948 L228.138598,384.376948 C229.035598,384.253948 229.921598,384.054948 230.812598,383.897948 L236.148598,382.894948 C237.934598,382.602948 239.677598,382.105948 241.437598,381.697948 L246.704598,380.419948 L251.897598,378.876948 C253.621598,378.343948 255.373598,377.899948 257.061598,377.257948 C270.738598,372.641948 283.842598,366.466948 296.194598,358.986948 C308.508598,351.431948 319.813598,342.387948 329.983598,332.255948 C331.297598,331.030948 332.490598,329.687948 333.719598,328.379948 L337.392598,324.443948 L340.873598,320.336948 C342.029598,318.964948 343.223598,317.624948 344.288598,316.177948 C346.467598,313.325948 348.729598,310.535948 350.726598,307.547948 L353.812598,303.130948 L356.697598,298.575948 C358.696598,295.583948 360.374598,292.392948 362.202598,289.286948 C363.141598,287.745948 363.890598,286.101948 364.738598,284.509948 C365.557598,282.902948 366.412598,281.311948 367.209598,279.691948 C370.258598,273.147948 373.189598,266.518948 375.501598,259.654948 C376.086598,257.942948 376.708598,256.240948 377.266598,254.518948 L378.788598,249.305948 C379.887598,245.851948 380.593598,242.294948 381.461598,238.781948 C381.922598,237.029948 382.182598,235.236948 382.523598,233.460948 L383.497598,228.124948 L384.191598,222.748948 L384.532598,220.062948 L384.701598,218.720948 L384.800598,217.370948 C384.878598,216.317948 384.424598,216.415948 384.348598,217.466948 C383.407598,226.917948 381.858598,236.307948 379.545598,245.520948 C377.150598,254.709948 374.099598,263.720948 370.409598,272.471948 C362.851598,289.887948 352.754598,306.240948 340.261598,320.582948 C337.216598,324.233948 333.878598,327.622948 330.590598,331.053948 L325.450598,335.995948 C323.737598,337.644948 321.893598,339.148948 320.123598,340.735948 C312.898598,346.910948 305.294598,352.675948 297.207598,357.705948 C289.121598,362.727948 280.672598,367.166948 271.932598,370.963948 C263.160598,374.688948 254.087598,377.679948 244.851598,380.019948 L237.986598,381.602948 C235.682598,382.055948 233.362598,382.432948 231.052598,382.852948 C228.747598,383.312948 226.410598,383.571948 224.079598,383.860948 C221.745598,384.122948 219.424598,384.515948 217.075598,384.627948 L210.045598,385.140948 C207.697598,385.228948 205.346598,385.250948 202.997598,385.310948 C201.822598,385.320948 200.648598,385.395948 199.473598,385.354948 L195.950598,385.249948 L192.428598,385.146948 L190.667598,385.095948 L188.911598,384.958948 L181.889598,384.394948 C179.553598,384.164948 177.232598,383.801948 174.903598,383.513948 C173.741598,383.350948 172.572598,383.231948 171.416598,383.033948 L167.955598,382.398948 L164.493598,381.766948 L162.762598,381.451948 L161.050598,381.049948 L154.201598,379.442948 C151.937598,378.835948 149.692598,378.155948 147.437598,377.519948 C145.169598,376.922948 142.964598,376.120948 140.745598,375.367948 C138.531598,374.602948 136.293598,373.902948 134.133598,372.989948 C125.345598,369.723948 116.927598,365.549948 108.805598,360.925948 L105.774598,359.160948 C104.759598,358.581948 103.753598,357.987948 102.784598,357.331948 L96.906598,353.509948 C93.110598,350.783948 89.264598,348.126948 85.669598,345.139948 C78.383598,339.302948 71.475598,332.977948 65.196598,326.068948 C64.409598,325.208948 63.571598,324.394948 62.824598,323.497948 L60.551598,320.835948 C59.044598,319.054948 57.478598,317.322948 56.088598,315.446948 C54.666598,313.596948 53.208598,311.774948 51.812598,309.905948 L47.784598,304.180948 C42.528598,296.381948 37.831598,288.217948 33.729598,279.763948 C29.741598,271.254948 26.369598,262.471948 23.624598,253.497948 C20.895598,244.512948 19.011598,235.297948 17.652598,226.023948 L16.792598,219.043948 C16.582598,216.708948 16.447598,214.367948 16.268598,212.030948 C16.200598,210.860948 16.060598,209.694948 16.051598,208.521948 L15.979598,205.005948 L15.867598,199.733948 L16.132598,190.944948 C16.255598,188.604948 16.498598,186.272948 16.673598,183.937948 C16.780598,182.771948 16.838598,181.601948 16.984598,180.439948 L17.918598,173.482948 L18.150598,171.743948 L19.755598,163.124948 C20.253598,160.842948 20.832598,158.577948 21.364598,156.303948 C21.857598,154.019948 22.554598,151.788948 23.208598,149.547948 C23.877598,147.311948 24.468598,145.051948 25.287598,142.863948 C28.155598,133.976948 31.937598,125.411948 36.157598,117.100948 L37.773598,113.997948 C38.302598,112.958948 38.845598,111.926948 39.453598,110.930948 L42.977598,104.884948 C45.509598,100.965948 47.970598,96.996948 50.768598,93.255948 C61.614598,78.047948 74.893598,64.563948 89.767598,53.194948 C97.262598,47.582948 105.155598,42.506948 113.372598,38.021948 C121.611598,33.572948 130.224598,29.857948 139.021598,26.717948 C174.248598,14.344948 213.338598,13.281948 249.287598,23.327948 C254.107598,24.596948 258.805598,26.240948 263.505598,27.856948 L270.446598,30.573948 C272.752598,31.493948 274.987598,32.581948 277.263598,33.571948 C286.271598,37.741948 294.950598,42.600948 303.207598,48.108948 C311.454598,53.636948 319.198598,59.901948 326.455598,66.694948 C328.261598,68.403948 330.104598,70.076948 331.792598,71.906948 L334.380598,74.596948 C335.242598,75.493948 336.123598,76.375948 336.922598,77.331948 L341.839598,82.961948 L346.479598,88.831948 C352.158598,96.339948 357.354598,104.297948 361.959598,112.629948 C366.509598,120.992948 370.371598,129.754948 373.596598,138.732948 C376.873598,147.699948 379.194598,156.985948 380.898598,166.307948 L381.810598,171.557948 C381.901598,172.141948 381.956598,172.731948 382.031598,173.317948 C382.310598,175.665948 382.588598,178.008948 382.866598,180.348948 C383.085598,182.693948 383.189598,185.045948 383.353598,187.384948 C383.414598,188.555948 383.533598,189.722948 383.545598,190.893948 L383.579598,194.401948 C383.623598,199.173948 384.688598,202.091948 384.681598,197.338948" id="Fill-30"></path>
            <path d="M363.952598,198.056948 L363.672598,192.086948 C363.546598,190.098948 363.277598,188.119948 363.083598,186.139948 L362.764598,183.170948 L362.300598,180.221948 C361.974598,178.258948 361.708598,176.288948 361.351598,174.336948 C359.890598,166.520948 357.978598,158.851948 356.061598,151.179948 C353.991598,143.572948 351.845598,135.974948 349.185598,128.458948 C346.425598,121.002948 343.254598,113.600948 339.266598,106.551948 C335.208598,99.573948 331.049598,92.626948 326.323598,85.965948 C321.539598,79.373948 316.317598,72.970948 310.300598,67.225948 C304.226598,61.521948 297.480598,56.406948 290.345598,51.893948 C283.162598,47.453948 275.671598,43.528948 268.066598,39.966948 C259.840598,36.207948 251.186598,33.346948 242.379598,31.165948 C233.563598,28.979948 224.567598,27.679948 215.571598,26.648948 L208.810598,25.957948 L202.025598,25.506948 C199.761598,25.292948 197.493598,25.335948 195.220598,25.247948 L191.808598,25.156948 C190.670598,25.114948 189.535598,25.188948 188.396598,25.199948 C179.281598,25.233948 170.132598,26.206948 161.150598,28.101948 L157.783598,28.826948 L156.097598,29.182948 L154.430598,29.613948 L147.743598,31.303948 L141.124598,33.273948 L139.466598,33.764948 L137.833598,34.328948 L134.567598,35.466948 L131.297598,36.611948 L128.087598,37.910948 L124.878598,39.225948 L123.274598,39.888948 L121.706598,40.626948 L115.448598,43.635948 C113.419598,44.746948 111.395598,45.873948 109.382598,47.017948 C101.402598,51.744948 94.081598,57.524948 87.290598,63.773948 C80.516598,70.064948 74.335598,76.871948 68.251598,83.702948 C66.771598,85.438948 65.215598,87.112948 63.805598,88.907948 L59.574598,94.291948 C56.906598,97.995948 54.214598,101.685948 51.824598,105.578948 L49.981598,108.464948 L48.267598,111.428948 L46.562598,114.397948 C45.984598,115.382948 45.426598,116.378948 44.922598,117.402948 L41.796598,123.495948 L38.952598,129.726948 C35.312598,138.097948 32.047598,146.647948 29.449598,155.441948 C26.942598,164.253948 25.079598,173.277948 24.090598,182.417948 C23.166598,191.562948 22.825598,200.754948 23.042598,209.965948 C23.315598,219.176948 24.410598,228.379948 26.260598,237.436948 L27.774598,244.205948 L29.595598,250.900948 L30.049598,252.575948 L30.576598,254.228948 L32.710598,260.836948 L33.925598,264.088948 L35.152598,267.338948 C35.554598,268.426948 35.970598,269.507948 36.450598,270.561948 L39.232598,276.933948 C41.279598,281.090948 43.302598,285.269948 45.675598,289.257948 L47.414598,292.276948 L49.313598,295.198948 L51.236598,298.104948 L52.206598,299.550948 L53.244598,300.950948 L57.431598,306.516948 L61.886598,311.862948 C67.966598,318.870948 74.512598,325.408948 81.259598,331.721948 C88.025598,338.013948 95.199598,343.872948 102.757598,349.251948 C104.674598,350.554948 106.540598,351.946948 108.511598,353.172948 L114.436598,356.853948 C118.488598,359.131948 122.550598,361.431948 126.806598,363.346948 C143.654598,371.327948 161.780598,376.967948 180.444598,379.259948 C189.785598,380.311948 199.223598,380.402948 208.575598,379.687948 C217.931598,378.905948 227.185598,377.444948 236.344598,375.610948 C256.698598,371.347948 276.332598,363.628948 293.555598,352.284948 C302.175598,346.635948 309.939598,339.869948 317.053598,332.611948 C324.165598,325.333948 330.599598,317.509948 336.645598,309.404948 C342.828598,301.092948 348.251598,292.276948 352.739598,283.045948 C357.227598,273.815948 360.841598,264.213948 363.540598,254.396948 C365.832598,245.978948 367.592598,236.788948 368.660598,227.577948 C369.777598,218.369948 370.524598,209.206948 371.414598,200.604948 C371.501598,199.896948 370.199598,199.407948 370.070598,200.083948 C368.037598,212.076948 367.198598,223.759948 365.137598,235.790948 C363.610598,245.065948 361.514598,254.306948 358.606598,263.368948 C355.704598,272.423948 351.958598,281.299948 347.085598,289.576948 C338.034598,304.679948 327.119598,318.719948 314.016598,330.709948 C310.801598,333.771948 307.331598,336.552948 303.877598,339.367948 L298.512598,343.357948 C297.628598,344.039948 296.695598,344.650948 295.766598,345.268948 L292.979598,347.124948 C292.045598,347.736948 291.127598,348.374948 290.178598,348.962948 L287.299598,350.675948 C285.367598,351.795948 283.482598,353.006948 281.481598,354.002948 L275.536598,357.100948 L269.446598,359.895948 C261.006598,363.559948 252.067598,365.908948 243.092598,367.515948 C234.081598,369.046948 225.046598,369.781948 216.060598,370.499948 C198.093598,371.801948 179.851598,370.912948 162.429598,366.365948 L159.172598,365.509948 L157.545598,365.083948 L155.938598,364.582948 L149.518598,362.573948 L143.205598,360.264948 L141.628598,359.687948 L140.081598,359.035948 L136.989598,357.727948 C128.785598,354.169948 120.809598,350.081948 113.370598,345.182948 C105.927598,340.305948 98.574598,335.236948 91.609598,329.617948 C84.637598,324.016948 78.191598,317.729948 72.569598,310.841948 L70.739598,308.520948 C70.131598,307.747948 69.544598,306.958948 69.009598,306.130948 C67.912598,304.496948 66.846598,302.848948 65.802598,301.195948 C64.762598,299.538948 63.868598,297.785948 62.920598,296.083948 L61.531598,293.516948 C61.089598,292.648948 60.685598,291.758948 60.262598,290.883948 C56.777598,283.934948 54.042598,276.718948 50.934598,269.702948 L48.718598,264.380948 C48.008598,262.596948 47.393598,260.773948 46.720598,258.976948 L45.729598,256.273948 L44.872598,253.524948 C44.312598,251.688948 43.697598,249.871948 43.178598,248.026948 C42.229598,244.308948 41.169598,240.625948 40.478598,236.854948 C39.621598,233.122948 39.115598,229.324948 38.541598,225.550948 C38.265598,223.662948 38.111598,221.754948 37.845598,219.860948 L37.458598,217.015948 C37.318598,216.067948 37.268598,215.109948 37.160598,214.156948 L36.544598,208.427948 L35.964598,199.778948 L35.924598,196.887948 C35.905598,194.959948 35.873598,193.028948 35.891598,191.099948 C35.989598,189.175948 36.102598,187.250948 36.237598,185.329948 C36.316598,184.370948 36.353598,183.407948 36.482598,182.454948 L36.892598,179.599948 C37.911598,171.980948 40.038598,164.578948 42.439598,157.366948 L44.362598,151.996948 C45.021598,150.215948 45.790598,148.474948 46.481598,146.711948 L47.530598,144.072948 L48.685598,141.475948 L50.946598,136.269948 C54.094598,129.385948 57.563598,122.654948 61.446598,116.153948 C65.443598,109.729948 69.740598,103.474948 74.620598,97.693948 C75.800598,96.217948 77.131598,94.868948 78.391598,93.463948 L80.312598,91.385948 C80.964598,90.703948 81.659598,90.062948 82.332598,89.401948 C83.695598,88.096948 85.033598,86.770948 86.419598,85.497948 L90.686598,81.799948 C92.076598,80.535948 93.604598,79.428948 95.064598,78.251948 C96.545598,77.096948 97.976598,75.886948 99.521598,74.819948 L104.049598,71.494948 L108.681598,68.322948 C114.881598,64.144948 121.161598,60.034948 127.801598,56.526948 L130.271598,55.171948 C131.103598,54.736948 131.957598,54.346948 132.800598,53.932948 C134.494598,53.123948 136.176598,52.282948 137.887598,51.506948 C141.363598,50.083948 144.809598,48.564948 148.405598,47.466948 C151.947598,46.208948 155.574598,45.233948 159.174598,44.153948 C160.980598,43.633948 162.819598,43.240948 164.639598,42.767948 L167.376598,42.081948 C168.292598,41.870948 169.219598,41.710948 170.141598,41.520948 L175.682598,40.425948 L181.275598,39.622948 C182.209598,39.501948 183.139598,39.334948 184.078598,39.252948 L186.895598,39.013948 C188.775598,38.874948 190.652598,38.668948 192.536598,38.605948 C196.309598,38.548948 200.086598,38.480948 203.844598,38.878948 C205.722598,39.058948 207.602598,39.144948 209.465598,39.434948 L215.043598,40.269948 C222.440598,41.588948 229.718598,43.177948 236.926598,44.970948 C245.889598,47.086948 254.873598,49.271948 263.736598,52.221948 C272.594598,55.143948 281.280598,58.935948 289.259598,63.963948 C305.224598,74.012948 319.275598,87.221948 330.573598,102.319948 C335.708598,109.280948 339.797598,116.891948 343.198598,124.689948 C346.644598,132.481948 349.250598,140.532948 351.695598,148.562948 C354.134598,156.592948 356.144598,164.795948 357.582598,173.132948 C358.030598,175.202948 358.300598,177.302948 358.632598,179.396948 C358.957598,181.491948 359.348598,183.582948 359.560598,185.697948 L360.385598,192.036948 C360.580598,194.159948 360.801598,196.286948 361.049598,198.419948 C361.275598,200.359948 364.040598,200.157948 363.952598,198.056948" id="Fill-31"></path>
        </g>
    </g>
</svg>
