<?xml version="1.0" encoding="UTF-8"?>
<svg width="512px" height="70px" viewBox="0 0 512 70" version="1.1" xmlns="http://www.w3.org/2000/svg" xmlns:xlink="http://www.w3.org/1999/xlink">
    <!-- Generator: Sketch 61.2 (89653) - https://sketch.com -->
    <title>Fill 77</title>
    <desc>Created with Sketch.</desc>
    <g id="Page-1" stroke="none" stroke-width="1" fill="none" fill-rule="evenodd">
        <g id="Group-2" transform="translate(-518.000000, 1.000000)" fill="none" stroke="#e2ddd7" stroke-width='6'>
            <path d="M1028.4269,47.7550798 C1009.7351,19.5789384 990.316963,21.3561837 967.460248,38.2750638 C953.219008,48.8189528 941.200326,62.0225244 924.554261,62.9544442 C916.795709,63.3832923 908.98275,60.5957799 901.893414,56.2825582 C890.606517,49.416866 889.319773,38.1224929 897.206183,25.5663169 C897.657768,24.8488211 897.078325,24.036484 896.528806,24.35812 C891.147875,27.5167508 885.386089,36.1885531 888.60159,45.2727094 C893.759449,59.8246782 906.403821,64.8141603 916.763065,67.2181834 C957.408408,76.6610876 988.62216,-3.63658569 1025.48888,51.7755302 C1027.26258,54.4310893 1030.26045,50.5260979 1028.4269,47.7550798 Z M914.749983,23.4681882 C896.063409,-4.70953962 876.639601,-2.93219428 853.782622,13.9917622 C839.541216,24.5321211 827.525116,37.7364361 810.881578,38.6684084 C803.122937,39.0972806 795.309887,36.3137351 788.220469,31.9961468 C776.930721,25.1300679 775.643962,13.8391827 783.530463,1.28229977 C783.984773,0.560639826 783.402603,-0.251743077 782.853078,0.0740348381 C777.469364,3.22871972 771.710233,11.9010103 774.928491,20.985678 C780.080969,35.5384661 792.728207,40.5282292 803.087571,42.9323877 C843.736106,52.3758235 874.947499,-27.922247 911.814648,27.488865 C913.585642,30.1486973 916.588987,26.2393624 914.749983,23.4681882 Z M773.426794,47.7550798 C754.731431,19.5789384 735.312308,21.3561837 712.464839,38.2750638 C698.223604,48.8189528 686.202631,62.0225244 669.561554,62.9544442 C661.804244,63.3832923 653.987074,60.5957799 646.896387,56.2825582 C635.610058,49.416866 634.320348,38.1224929 642.210982,25.5663169 C642.659932,24.8488211 642.080379,24.036484 641.530755,24.35812 C636.146077,27.5167508 630.385914,36.1885531 633.602028,45.2727094 C638.75815,59.8246782 651.407653,64.8141603 661.768872,67.2181834 C702.413803,76.6610876 733.619903,-3.63658569 770.488212,51.7755302 C772.262245,54.4310893 775.260686,50.5260979 773.426794,47.7550798 Z M656.815781,27.488865 C619.949057,-27.922247 588.735303,52.3758235 548.087236,42.9323877 C537.727992,40.5282292 525.083619,35.5384661 519.92848,20.985678 C516.710259,11.9010103 522.469324,3.22871972 527.852976,0.0740348381 C528.402495,-0.251743077 528.984658,0.560639826 528.533074,1.28229977 C520.643943,13.8391827 521.933408,25.1300679 533.217585,31.9961468 C540.309642,36.3137351 548.119881,39.0972806 555.881154,38.6684084 C572.524499,37.7364361 584.543182,24.5321211 598.784423,13.9917622 C621.64114,-2.93219428 641.059283,-4.70953962 659.751082,23.4681882 C661.587345,26.2393624 658.586755,30.1486973 656.815781,27.488865 L656.815781,27.488865 Z" id="Fill-77"></path>
        </g>
    </g>
</svg>
