<?xml version="1.0" encoding="UTF-8"?>
<svg width="386px" viewBox="0 0 386 257" version="1.1" xmlns="http://www.w3.org/2000/svg" xmlns:xlink="http://www.w3.org/1999/xlink">
    <!-- Generator: Sketch 61.2 (89653) - https://sketch.com -->
    <title>Group 16</title>
    <desc>Created with Sketch.</desc>
    <g id="Page-1" stroke="none" stroke-width="1" fill="none" fill-rule="evenodd">
        <g id="PINSTRIPE" transform="translate(-15.000000, -515.000000)" stroke="#f3f1ef" stroke-width="4">
            <g id="Group-16" transform="translate(16.388000, 518.650000)">
                <path d="M174.492,101.061 C173.198,101.923 172.032,103.006 171.242,104.284 C170.441,105.552 170.136,107.047 170.613,108.356 C171.052,109.676 172.076,110.762 173.2,111.695 C174.335,112.601 175.647,113.521 176.872,113.885 C179.457,114.731 182.167,113.591 184.035,111.595 C185.936,109.602 187.081,106.877 187.423,104.163 C187.78,101.432 187.22,98.671 185.838,96.399 C184.453,94.123 182.317,92.316 179.834,91.012 C177.156,89.632 174.302,88.259 171.517,86.888 C168.708,85.526 165.917,84.111 163.137,82.666 C157.583,79.769 152.028,76.826 146.64,73.561 C143.943,71.934 141.274,70.254 138.642,68.505 C136.016,66.749 133.403,64.958 130.891,63.015 C128.375,61.08 125.92,59.049 123.559,56.894 C121.21,54.728 118.921,52.466 116.876,49.955 C114.816,47.465 112.95,44.765 111.456,41.824 C109.958,38.894 108.911,35.641 108.678,32.276 L111.597,32.736 C111.369,33.213 111.126,33.809 110.914,34.365 C110.699,34.934 110.493,35.51 110.307,36.094 C109.926,37.259 109.608,38.449 109.322,39.648 C108.751,42.047 108.394,44.505 108.267,46.982 C108.161,49.459 108.229,51.96 108.619,54.435 C108.817,55.67 109.053,56.907 109.378,58.125 C109.529,58.738 109.716,59.341 109.909,59.944 C110.092,60.552 110.333,61.137 110.543,61.738 C109.333,59.508 108.31,57.133 107.656,54.639 C106.99,52.15 106.575,49.575 106.472,46.979 C106.366,44.383 106.501,41.771 106.869,39.185 C107.052,37.891 107.318,36.609 107.629,35.334 C107.783,34.696 107.958,34.062 108.147,33.428 C108.343,32.784 108.532,32.186 108.801,31.497 L110.882,26.155 L111.72,31.957 C112.132,34.809 113.251,37.535 114.702,40.085 C116.173,42.632 117.999,45.007 120.036,47.214 C122.076,49.418 124.258,51.522 126.57,53.497 C128.881,55.473 131.297,57.345 133.784,59.132 C136.27,60.918 138.791,62.673 141.376,64.342 C143.956,66.017 146.583,67.631 149.243,69.198 C154.567,72.322 159.953,75.377 165.442,78.276 L173.688,82.633 C176.452,84.106 179.177,85.522 181.994,87.09 C184.971,88.753 187.722,91.21 189.398,94.398 C191.099,97.561 191.61,101.293 190.967,104.718 C190.335,108.148 188.65,111.34 186.069,113.704 C184.772,114.87 183.217,115.83 181.453,116.287 C179.697,116.746 177.758,116.612 176.123,115.902 C175.707,115.728 175.33,115.539 174.933,115.296 C174.496,115.035 174.285,114.873 173.893,114.572 C173.251,114.071 172.625,113.546 172.043,112.958 C170.885,111.804 169.828,110.384 169.453,108.663 C169.05,106.936 169.657,105.123 170.721,103.91 C171.761,102.656 173.09,101.743 174.492,101.061" id="Fill-56"></path>
                <path d="M169.224,96.205 C165.289,95.115 161.401,93.863 157.553,92.508 C155.631,91.826 153.702,91.156 151.797,90.425 L146.092,88.201 C142.296,86.696 138.562,85.042 134.827,83.377 C132.958,82.547 131.117,81.657 129.273,80.771 C127.428,79.884 125.602,78.959 123.782,78.019 C120.139,76.142 116.55,74.149 113.018,72.044 C109.486,69.936 106.02,67.7 102.653,65.29 C100.963,64.094 99.321,62.823 97.698,61.521 C96.075,60.216 94.49,58.855 92.97,57.404 C91.446,55.959 89.969,54.446 88.599,52.812 C87.229,51.181 85.931,49.454 84.846,47.553 L88.619,47.069 C88.438,47.612 88.25,48.396 88.116,49.092 C87.979,49.812 87.868,50.545 87.789,51.283 C87.628,52.76 87.589,54.258 87.656,55.753 C87.689,56.501 87.733,57.251 87.821,57.997 C87.897,58.745 88.015,59.488 88.152,60.229 C88.287,60.972 88.467,61.705 88.652,62.439 C88.865,63.164 89.072,63.895 89.338,64.607 C89.579,65.328 89.879,66.028 90.164,66.737 C90.475,67.435 90.788,68.135 91.154,68.811 C91.49,69.505 91.908,70.152 92.289,70.826 C92.719,71.465 93.118,72.134 93.58,72.759 C94.462,74.042 95.46,75.251 96.514,76.419 C97.028,77.018 97.595,77.565 98.137,78.144 L99.856,79.795 C99.19,79.361 98.515,78.932 97.861,78.471 C97.227,77.988 96.557,77.538 95.945,77.019 C94.709,75.994 93.508,74.908 92.405,73.717 C91.825,73.144 91.338,72.492 90.803,71.875 C90.318,71.22 89.796,70.586 89.352,69.897 C88.878,69.226 88.454,68.522 88.031,67.813 C87.632,67.094 87.216,66.375 86.888,65.615 C86.527,64.869 86.225,64.097 85.919,63.324 C85.639,62.542 85.366,61.755 85.141,60.952 C84.912,60.151 84.705,59.34 84.542,58.52 C84.372,57.702 84.226,56.875 84.136,56.042 C83.947,54.377 83.876,52.694 83.944,51.007 C83.978,50.164 84.047,49.319 84.149,48.472 C84.263,47.602 84.377,46.826 84.627,45.843 L85.744,41.444 L88.4,45.359 C90.514,48.476 93.262,51.273 96.197,53.872 C99.155,56.459 102.321,58.864 105.585,61.15 C108.855,63.432 112.223,65.601 115.645,67.7 C119.068,69.798 122.551,71.813 126.06,73.796 L131.355,76.725 L136.688,79.601 C140.242,81.531 143.856,83.35 147.453,85.219 L158.308,90.728 L169.224,96.205" id="Fill-57"></path>
                <path d="M165.642,102.309 C163.455,102.102 161.263,101.897 159.085,101.614 C156.906,101.334 154.723,101.064 152.553,100.724 L146.039,99.695 L139.553,98.509 C137.395,98.089 135.231,97.69 133.084,97.212 C130.935,96.745 128.786,96.274 126.643,95.774 C122.348,94.81 118.088,93.693 113.841,92.514 C111.715,91.938 109.6,91.313 107.481,90.7 C105.371,90.056 103.269,89.386 101.175,88.686 C99.075,88.007 96.993,87.264 94.906,86.538 C92.831,85.775 90.743,85.043 88.691,84.209 C86.63,83.403 84.595,82.519 82.556,81.648 C80.527,80.749 78.502,79.839 76.502,78.864 C74.495,77.908 72.511,76.892 70.567,75.794 C68.611,74.723 66.699,73.556 64.794,72.383 L67.966,69.347 C68.405,70.157 68.961,71.075 69.502,71.928 C70.054,72.794 70.624,73.652 71.213,74.501 C72.371,76.212 73.606,77.88 74.898,79.504 C76.189,81.129 77.542,82.708 78.957,84.232 C79.665,84.992 80.362,85.767 81.097,86.504 C81.818,87.256 82.57,87.977 83.317,88.705 C84.083,89.411 84.84,90.131 85.632,90.809 C86.409,91.508 87.226,92.157 88.019,92.839 C88.838,93.488 89.641,94.164 90.487,94.78 C91.318,95.418 92.173,96.025 93.037,96.621 C94.771,97.801 96.529,98.968 98.37,100.002 C99.283,100.533 100.211,101.04 101.148,101.538 C102.078,102.052 103.046,102.485 103.999,102.964 C102.988,102.641 101.954,102.36 100.95,101.996 C99.94,101.649 98.929,101.292 97.946,100.867 C95.963,100.056 94.012,99.148 92.119,98.124 C91.173,97.611 90.233,97.085 89.312,96.524 C88.377,95.986 87.482,95.384 86.569,94.807 C84.769,93.613 83.04,92.313 81.342,90.971 C79.659,89.611 78.017,88.196 76.44,86.708 C74.871,85.211 73.362,83.652 71.91,82.037 C70.457,80.423 69.059,78.756 67.729,77.027 C67.065,76.163 66.435,75.27 65.81,74.369 C65.182,73.451 64.599,72.576 63.988,71.542 L59.707,64.299 L67.16,68.505 C69.027,69.559 70.895,70.607 72.82,71.568 C73.766,72.074 74.746,72.525 75.713,72.997 C76.676,73.476 77.639,73.956 78.624,74.398 C80.573,75.319 82.555,76.18 84.541,77.031 C86.541,77.855 88.534,78.694 90.563,79.457 C92.577,80.252 94.602,81.028 96.633,81.791 C98.674,82.528 100.708,83.284 102.768,83.978 C104.816,84.701 106.889,85.358 108.948,86.057 C111.014,86.738 113.077,87.432 115.156,88.079 C117.229,88.745 119.316,89.371 121.4,90.007 L127.665,91.887 C129.755,92.513 131.854,93.11 133.955,93.703 L140.26,95.491 L152.922,98.941 L165.642,102.309" id="Fill-58"></path>
                <path d="M165.288,107.852 C165.288,107.852 164.69,108.189 163.536,108.766 C162.38,109.335 160.679,110.176 158.44,111.076 C156.206,111.985 153.456,113.028 150.217,113.977 C146.983,114.943 143.269,115.874 139.128,116.496 C134.995,117.137 130.43,117.53 125.575,117.279 C124.363,117.22 123.131,117.136 121.888,116.991 C121.268,116.913 120.639,116.865 120.013,116.759 C119.422,116.669 118.827,116.578 118.229,116.487 C115.685,116.165 113.2,115.689 110.64,115.195 C105.546,114.173 100.309,112.987 95.071,111.461 C89.832,109.947 84.56,108.222 79.365,106.268 C74.186,104.271 69.099,102.025 64.192,99.6 C59.274,97.192 54.63,94.422 50.252,91.574 C48.101,90.162 45.983,88.745 43.966,87.464 C41.918,86.169 39.869,84.949 37.841,83.843 C33.782,81.633 29.827,79.768 26.052,78.382 C22.275,77.009 18.701,76.076 15.472,75.603 C12.245,75.17 9.374,75.121 7.042,75.434 C4.709,75.731 2.912,76.275 1.741,76.78 C1.156,77.031 0.721,77.26 0.432,77.423 C0.147,77.594 2.27373675e-13,77.682 2.27373675e-13,77.682 C2.27373675e-13,77.682 0.134,77.574 0.393,77.365 C0.658,77.162 1.06,76.871 1.616,76.534 C2.728,75.874 4.468,75.007 6.857,74.44 C9.233,73.839 12.229,73.51 15.652,73.665 C19.071,73.828 22.912,74.435 26.951,75.601 C28.978,76.165 31.044,76.88 33.167,77.666 C35.273,78.484 37.42,79.414 39.577,80.459 C41.744,81.492 43.918,82.631 46.119,83.862 C48.361,85.094 50.464,86.453 52.658,87.778 C56.961,90.419 61.588,92.848 66.366,95.165 C71.153,97.465 76.123,99.596 81.189,101.485 C86.23,103.441 91.359,105.184 96.465,106.719 C101.579,108.219 106.632,109.664 111.583,110.79 C114.046,111.367 116.518,111.867 118.856,112.319 C119.474,112.448 120.089,112.576 120.7,112.703 C121.274,112.835 121.856,112.909 122.428,113.014 C123.576,113.213 124.723,113.354 125.856,113.471 C128.125,113.718 130.355,113.787 132.516,113.801 C134.679,113.818 136.777,113.743 138.789,113.579 C142.813,113.253 146.501,112.706 149.748,112.077 C152.993,111.432 155.81,110.752 158.111,110.113 C160.409,109.465 162.214,108.924 163.43,108.509 C164.648,108.102 165.288,107.852 165.288,107.852" id="Fill-59"></path>
                <path d="M165.358,112.548 C165.358,112.548 165.049,113.138 164.39,114.204 C163.726,115.263 162.738,116.822 161.292,118.673 C159.851,120.526 157.996,122.714 155.604,124.987 C153.225,127.267 150.303,129.641 146.763,131.752 C143.218,133.83 139.046,135.702 134.313,136.618 C129.613,137.632 124.397,137.641 119.236,136.622 C117.965,136.302 116.646,136.081 115.388,135.649 C114.751,135.452 114.113,135.254 113.472,135.056 C112.872,134.856 112.27,134.656 111.666,134.454 C109.235,133.639 106.847,132.913 104.366,132.174 C99.433,130.75 94.354,129.565 89.256,128.914 C84.182,128.21 79.023,127.995 74.295,128.9 C73.118,129.128 71.974,129.428 70.896,129.826 C69.795,130.182 68.79,130.682 67.841,131.229 C65.97,132.358 64.461,133.872 63.534,135.72 C63.278,136.168 63.109,136.662 62.908,137.14 L62.68,137.89 L62.622,138.076 L62.607,138.123 C62.656,137.877 62.615,138.087 62.623,138.047 L62.601,138.16 L62.513,138.611 C62.397,139.211 62.281,139.807 62.167,140.401 C62.128,140.9 62.09,141.396 62.052,141.889 C61.972,143.95 62.3,146.051 63.038,147.906 C63.759,149.782 64.924,151.419 66.303,152.716 C67.675,154.021 69.296,154.978 70.952,155.448 C72.6,155.932 74.302,155.867 75.683,155.345 L76.311,155.09 C76.534,155.008 76.605,154.901 76.762,154.813 C77.036,154.63 77.333,154.483 77.586,154.196 C77.846,153.942 78.138,153.717 78.326,153.404 C78.528,153.107 78.786,152.845 78.918,152.511 C79.612,151.265 79.908,149.865 79.878,148.581 C79.836,147.306 79.6,146.089 79.067,145.141 C78.97,144.882 78.815,144.669 78.665,144.46 C78.517,144.246 78.374,144.039 78.235,143.839 C77.882,143.51 77.585,143.143 77.243,142.881 C76.884,142.646 76.555,142.406 76.236,142.214 C75.891,142.07 75.577,141.94 75.296,141.823 C75.017,141.683 74.748,141.643 74.517,141.597 C74.286,141.549 74.091,141.509 73.934,141.477 C73.617,141.412 73.454,141.378 73.454,141.378 C73.454,141.378 73.619,141.388 73.941,141.406 C74.103,141.416 74.305,141.427 74.544,141.441 C74.785,141.454 75.068,141.456 75.37,141.555 C75.681,141.634 76.027,141.723 76.408,141.82 C76.771,141.971 77.157,142.171 77.586,142.374 C77.996,142.606 78.383,142.945 78.828,143.273 C79.011,143.477 79.2,143.688 79.394,143.905 C79.593,144.123 79.797,144.348 79.943,144.622 C80.678,145.638 81.129,146.979 81.358,148.475 C81.585,149.978 81.391,151.686 80.684,153.359 C80.548,153.796 80.269,154.177 80.037,154.591 C79.82,155.018 79.48,155.37 79.157,155.748 C78.865,156.139 78.427,156.472 77.984,156.808 C77.771,156.96 77.521,157.179 77.328,157.271 L76.728,157.587 C74.796,158.558 72.497,158.755 70.279,158.31 C65.849,157.409 61.67,154.128 59.538,149.442 C58.457,147.105 57.879,144.513 57.836,141.782 C57.861,141.078 57.886,140.37 57.911,139.659 C58.006,139.059 58.101,138.456 58.197,137.851 C58.428,136.385 58.853,135.068 59.487,133.733 C60.705,131.069 62.841,128.781 65.305,127.193 C67.778,125.597 70.544,124.603 73.316,124.054 C78.881,122.937 84.497,123.148 89.936,123.842 C95.378,124.602 100.668,125.905 105.768,127.438 C107.044,127.826 108.303,128.223 109.558,128.646 C110.807,129.087 112.068,129.519 113.253,129.974 C113.859,130.199 114.462,130.423 115.063,130.646 C115.634,130.843 116.202,131.04 116.769,131.236 C117.892,131.671 119.058,131.894 120.19,132.228 C122.486,132.719 124.774,133.1 127.033,133.177 C128.163,133.285 129.28,133.193 130.389,133.203 C131.489,133.091 132.59,133.067 133.655,132.868 C137.946,132.252 141.894,130.857 145.366,129.181 C148.81,127.44 151.82,125.474 154.33,123.511 C156.831,121.536 158.907,119.65 160.53,118.006 C162.143,116.353 163.372,115.001 164.166,114.042 C164.967,113.087 165.358,112.548 165.358,112.548" id="Fill-60"></path>
                <path d="M160.587,126.964 C160.587,126.964 159.31,126.585 157.077,126.066 C154.848,125.557 151.64,124.91 147.852,124.658 C145.962,124.538 143.925,124.581 141.873,124.861 C139.827,125.15 137.76,125.737 135.974,126.788 C135.069,127.298 134.256,127.948 133.514,128.681 L132.971,129.249 L132.481,129.875 C132.328,130.062 132.122,130.331 131.933,130.591 L131.355,131.368 C129.779,133.482 128.109,135.571 126.296,137.595 C124.464,139.595 122.536,141.547 120.402,143.254 C118.283,144.972 116.009,146.499 113.587,147.627 C111.176,148.767 108.64,149.519 106.18,149.802 C103.715,150.085 101.361,149.859 99.306,149.376 C97.236,148.917 95.486,148.111 94.011,147.344 C92.539,146.56 91.361,145.729 90.438,145.005 C89.498,144.302 88.834,143.663 88.381,143.235 C87.932,142.804 87.692,142.575 87.692,142.575 C87.692,142.575 87.99,142.721 88.55,142.994 C88.825,143.132 89.165,143.303 89.564,143.504 C89.97,143.686 90.436,143.895 90.958,144.13 C91.995,144.598 93.289,145.072 94.762,145.534 C96.251,145.949 97.934,146.337 99.764,146.472 C101.594,146.593 103.556,146.462 105.545,146 C107.534,145.529 109.541,144.704 111.503,143.593 C113.472,142.493 115.359,141.04 117.204,139.454 C119.038,137.85 120.803,136.055 122.494,134.168 C124.205,132.302 125.828,130.299 127.428,128.34 L128.03,127.586 C128.231,127.334 128.416,127.095 128.684,126.799 L129.429,125.962 L130.246,125.197 C131.357,124.213 132.579,123.365 133.878,122.776 C135.162,122.161 136.48,121.712 137.782,121.462 C139.081,121.183 140.353,121.058 141.576,121.034 C144.025,120.98 146.269,121.308 148.269,121.761 C150.276,122.194 152.042,122.793 153.571,123.384 C155.105,123.96 156.386,124.588 157.426,125.116 C159.505,126.185 160.587,126.964 160.587,126.964" id="Fill-61"></path>
                <path d="M172.004,121.252 C172.004,121.252 171.842,122.148 171.348,123.787 C170.853,125.423 170.014,127.809 168.525,130.659 C167.043,133.506 164.957,136.86 161.947,140.24 C161.169,141.056 160.39,141.93 159.535,142.776 C158.641,143.585 157.722,144.416 156.779,145.27 C155.781,146.058 154.725,146.829 153.653,147.635 C152.569,148.422 151.368,149.085 150.186,149.841 L149.286,150.397 L148.336,150.88 C147.696,151.2 147.051,151.524 146.399,151.851 C145.741,152.163 145.099,152.54 144.407,152.807 C143.716,153.079 143.019,153.353 142.317,153.629 C141.611,153.904 140.9,154.181 140.183,154.46 C139.521,154.718 138.781,154.961 138.075,155.216 C136.658,155.73 135.161,156.207 133.768,156.789 C132.354,157.363 130.903,157.883 129.481,158.551 C128.766,158.869 128.047,159.19 127.323,159.512 C126.606,159.844 125.91,160.219 125.197,160.572 C123.753,161.257 122.409,162.103 121.002,162.88 C120.339,163.316 119.672,163.754 119.002,164.194 C118.326,164.627 117.734,165.148 117.091,165.62 C115.845,166.604 114.72,167.701 113.699,168.865 C112.751,170.072 111.849,171.316 111.274,172.718 C110.666,174.105 110.226,175.566 110.013,177.158 C109.945,177.548 109.916,177.964 109.86,178.366 L109.823,178.67 L109.814,178.746 C109.807,178.806 109.83,178.488 109.819,178.662 L109.794,179.496 C109.79,179.712 109.775,179.954 109.78,180.15 L109.845,180.59 L109.89,181.03 C109.909,181.183 109.97,181.359 110.005,181.523 C110.58,184.209 112.698,186.499 115.17,186.944 C116.395,187.186 117.686,186.999 118.924,186.427 C119.23,186.271 119.552,186.167 119.84,185.936 L120.287,185.637 L120.511,185.49 L120.624,185.418 C120.786,185.289 120.467,185.554 120.523,185.504 L120.586,185.447 L121.09,184.989 C121.198,184.867 121.17,184.837 121.232,184.773 C121.272,184.748 121.34,184.613 121.406,184.495 C121.468,184.375 121.555,184.278 121.596,184.131 C122.078,183.094 122.22,181.639 122.031,180.173 C121.862,178.7 121.384,177.199 120.694,175.812 C119.319,173.025 117.09,170.672 114.412,169.325 C113.074,168.645 111.628,168.212 110.137,168.019 C108.649,167.797 107.106,167.852 105.578,168.106 C102.477,168.528 99.649,169.964 96.467,171.421 C93.361,172.832 90.323,174.266 87.254,175.531 C84.201,176.816 81.155,178.015 78.048,178.935 C74.954,179.849 71.773,180.536 68.569,180.471 C65.37,180.427 62.254,179.514 59.711,178.046 C59.092,177.656 58.47,177.281 57.879,176.886 C57.327,176.447 56.78,176.013 56.24,175.584 C55.742,175.182 55.249,174.783 54.762,174.39 L54.026,173.79 C53.784,173.606 53.546,173.457 53.307,173.289 C51.448,171.924 49.368,170.9 47.375,170.259 C45.373,169.597 43.389,169.288 41.548,169.296 C39.707,169.281 37.998,169.514 36.51,169.942 C33.514,170.76 31.339,172.033 29.967,173.01 C29.255,173.475 28.775,173.916 28.432,174.192 C28.093,174.472 27.917,174.617 27.917,174.617 C27.917,174.617 28.076,174.455 28.383,174.14 C28.696,173.829 29.131,173.334 29.796,172.791 C31.08,171.675 33.124,170.089 36.202,168.971 C37.724,168.386 39.512,167.973 41.494,167.814 C43.479,167.616 45.666,167.82 47.911,168.375 C50.172,168.933 52.456,169.843 54.714,171.255 C54.996,171.425 55.298,171.592 55.569,171.77 L56.34,172.323 C56.866,172.701 57.398,173.084 57.937,173.471 C58.438,173.825 58.946,174.183 59.459,174.546 C60,174.845 60.547,175.148 61.099,175.454 C63.347,176.574 65.878,177.155 68.557,177.045 C71.236,176.953 74.046,176.274 76.885,175.294 C79.729,174.325 82.614,173.054 85.546,171.674 C88.475,170.294 91.482,168.847 94.534,167.348 C96.091,166.599 97.522,165.842 99.295,165.082 C100.142,164.695 101.055,164.412 101.949,164.094 C102.878,163.848 103.793,163.555 104.766,163.409 C108.579,162.623 112.908,163.034 116.627,164.906 C120.36,166.754 123.346,169.891 125.198,173.567 C126.128,175.411 126.797,177.405 127.068,179.537 C127.334,181.652 127.272,183.961 126.251,186.256 C126.144,186.542 125.964,186.818 125.807,187.094 C125.644,187.369 125.497,187.635 125.23,187.948 C125.001,188.231 124.71,188.576 124.503,188.779 L123.995,189.233 L123.931,189.29 C123.948,189.279 123.584,189.579 123.696,189.48 L123.525,189.594 L123.182,189.822 L122.492,190.273 C122.051,190.593 121.515,190.809 121.007,191.051 C118.959,191.987 116.499,192.362 114.176,191.872 C111.851,191.402 109.764,190.139 108.23,188.476 C106.686,186.812 105.658,184.753 105.187,182.608 C105.13,182.335 105.055,182.082 105.016,181.793 L104.927,180.901 L104.86,180.01 C104.859,179.762 104.874,179.558 104.88,179.33 L104.906,178.664 L104.912,178.497 L104.93,178.248 L104.941,178.158 L104.987,177.801 C105.054,177.324 105.096,176.853 105.192,176.373 C105.499,174.458 106.111,172.516 106.959,170.723 C107.779,168.896 108.97,167.31 110.198,165.844 C111.487,164.435 112.868,163.17 114.321,162.077 C115.06,161.557 115.768,160.978 116.524,160.517 C117.277,160.05 118.027,159.584 118.773,159.12 C120.306,158.304 121.812,157.451 123.361,156.793 C124.131,156.449 124.888,156.083 125.655,155.765 C126.425,155.459 127.19,155.155 127.951,154.853 C129.459,154.22 131.01,153.731 132.512,153.194 C134.027,152.638 135.486,152.241 136.939,151.78 C137.67,151.55 138.37,151.352 139.111,151.101 C139.798,150.873 140.479,150.647 141.155,150.423 C141.833,150.201 142.506,149.981 143.172,149.762 C143.842,149.548 144.457,149.227 145.095,148.968 C145.727,148.696 146.353,148.426 146.973,148.158 L147.898,147.754 L148.773,147.278 C153.495,144.878 157.448,141.935 160.538,138.893 C163.633,135.853 165.959,132.809 167.646,130.156 C169.322,127.495 170.443,125.262 171.088,123.693 C171.748,122.128 172.004,121.252 172.004,121.252" id="Fill-62"></path>
                <path d="M183.041,126.296 C183.041,126.296 183.249,126.685 183.55,127.462 C183.853,128.236 184.261,129.393 184.603,130.924 C184.92,132.453 185.271,134.357 185.222,136.581 C185.264,137.697 185.114,138.875 184.985,140.135 C184.921,140.765 184.73,141.388 184.594,142.041 C184.518,142.367 184.442,142.696 184.365,143.029 C184.279,143.36 184.143,143.679 184.031,144.011 C183.241,146.721 181.611,149.383 179.574,151.9 C178.455,153.056 177.376,154.364 176.011,155.36 C175.353,155.89 174.697,156.451 174,156.958 C173.27,157.406 172.534,157.859 171.791,158.316 L170.667,159.002 L170.384,159.175 L170.314,159.218 L170.278,159.239 C170.253,159.253 170.366,159.196 170.302,159.229 L170.167,159.307 L169.624,159.616 L168.53,160.234 C168.185,160.441 167.89,160.649 167.566,160.856 C166.29,161.669 165.021,162.671 163.876,163.707 C161.602,165.83 159.747,168.364 158.706,171.262 C157.615,174.142 157.28,177.323 157.411,180.515 C157.554,183.714 158.146,186.916 158.881,190.039 C159.269,191.623 159.651,193.181 160.025,194.706 C160.209,195.493 160.394,196.255 160.555,197.075 C160.706,197.829 160.857,198.575 160.978,199.388 C161.245,200.969 161.385,202.509 161.405,204.036 C161.369,204.807 161.386,205.552 161.273,206.298 C161.227,206.667 161.182,207.034 161.137,207.396 C161.06,207.757 160.983,208.114 160.908,208.467 C160.789,209.175 160.498,209.84 160.302,210.496 C160.038,211.134 159.762,211.753 159.453,212.326 C159.095,212.875 158.793,213.435 158.416,213.916 C158.026,214.387 157.682,214.87 157.288,215.279 C155.767,216.981 154.092,217.989 152.783,218.838 C151.416,219.61 150.316,220.134 149.543,220.442 C148.779,220.761 148.372,220.931 148.372,220.931 C148.372,220.931 148.729,220.672 149.398,220.186 C149.728,219.939 150.157,219.67 150.616,219.293 C151.074,218.92 151.599,218.492 152.188,218.012 C153.284,216.977 154.639,215.738 155.758,214.055 C156.881,212.385 157.777,210.324 158.014,207.951 C158.275,205.589 157.927,202.933 157.237,200.171 C157.082,199.503 156.868,198.766 156.65,198.019 C156.454,197.335 156.207,196.592 155.966,195.856 C155.465,194.374 154.976,192.813 154.492,191.203 C153.543,187.98 152.703,184.503 152.453,180.803 C152.176,177.12 152.54,173.174 153.911,169.47 C155.275,165.762 157.711,162.491 160.562,160.017 C162.001,158.77 163.477,157.701 165.097,156.767 C165.496,156.536 165.908,156.284 166.293,156.075 L167.412,155.505 L168.553,154.915 L169.575,154.368 C170.257,154.006 170.933,153.647 171.603,153.291 C172.223,152.868 172.836,152.45 173.443,152.035 C174.726,151.27 175.703,150.232 176.772,149.321 C177.299,148.858 177.684,148.291 178.143,147.792 C178.586,147.279 179.041,146.783 179.377,146.221 C179.745,145.674 180.108,145.137 180.464,144.61 C180.751,144.041 181.033,143.482 181.309,142.935 C182.339,140.705 183,138.477 183.278,136.436 C183.61,134.4 183.636,132.567 183.599,131.056 C183.522,129.548 183.412,128.347 183.268,127.54 C183.143,126.729 183.041,126.296 183.041,126.296" id="Fill-63"></path>
                <path d="M184.347,121.252 C184.347,121.252 183.97,121.627 183.332,122.381 C182.68,123.12 181.795,124.269 180.763,125.772 C179.709,127.26 178.647,129.209 177.583,131.465 C176.529,133.734 175.722,136.438 175.196,139.392 C174.643,142.355 174.759,145.632 175.3,148.972 C175.482,149.804 175.592,150.658 175.83,151.497 C176.099,152.329 176.37,153.171 176.645,154.022 L176.849,154.66 L177.103,155.4 C177.256,155.858 177.411,156.319 177.566,156.782 C177.844,157.82 178.146,158.881 178.32,159.922 C179.151,164.106 178.991,168.721 177.688,173.067 C176.42,177.43 174.075,181.462 171.18,184.903 C168.256,188.333 164.818,191.233 161.149,193.583 C157.488,195.951 153.584,197.769 149.642,199.052 C148.942,199.288 147.69,199.706 147.183,200.022 L146.678,200.27 L146.155,200.602 C145.798,200.807 145.451,201.032 145.129,201.297 C143.799,202.287 142.636,203.518 141.628,204.848 C139.657,207.555 138.22,210.555 137.128,213.421 C136.061,216.304 135.269,219.053 134.675,221.524 C134.093,223.997 133.653,226.184 133.348,227.998 C132.734,231.626 132.521,233.739 132.521,233.739 C132.521,233.739 132.286,231.628 132.334,227.905 C132.364,226.045 132.445,223.779 132.745,221.188 C133.024,218.596 133.474,215.668 134.329,212.523 C135.174,209.382 136.38,205.978 138.484,202.676 C139.549,201.038 140.846,199.427 142.473,198.02 C142.866,197.655 143.297,197.324 143.751,197.013 L144.429,196.539 L145.203,196.101 L145.994,195.671 C146.255,195.536 146.453,195.468 146.686,195.363 L147.364,195.073 L147.533,195 L147.814,194.893 L148.143,194.766 C151.661,193.438 155.15,191.636 158.42,189.433 C161.677,187.219 164.737,184.612 167.268,181.602 C169.817,178.613 171.794,175.205 172.946,171.618 C173.512,169.822 173.88,167.986 174.037,166.146 C174.199,164.305 174.091,162.464 173.854,160.664 C173.749,159.745 173.545,158.91 173.376,158.059 C173.247,157.594 173.119,157.131 172.992,156.67 L172.897,156.322 L172.85,156.149 L172.827,156.062 C172.865,156.177 172.831,156.067 172.836,156.081 L172.825,156.034 L172.641,155.295 C172.401,154.315 172.163,153.345 171.928,152.387 C171.729,151.423 171.661,150.439 171.528,149.489 C171.14,145.667 171.404,141.975 172.334,138.778 C173.201,135.572 174.45,132.797 175.86,130.553 C177.255,128.303 178.672,126.495 179.972,125.14 C181.24,123.758 182.357,122.801 183.128,122.171 C183.898,121.537 184.347,121.252 184.347,121.252" id="Fill-64"></path>
                <path d="M208.788,101.061 C210.191,101.743 211.519,102.656 212.56,103.91 C213.623,105.123 214.23,106.936 213.828,108.663 C213.452,110.384 212.396,111.804 211.237,112.958 C210.656,113.546 210.029,114.071 209.387,114.572 C208.995,114.873 208.784,115.035 208.347,115.296 C207.95,115.539 207.573,115.728 207.157,115.902 C205.522,116.612 203.584,116.746 201.827,116.287 C200.063,115.83 198.508,114.87 197.211,113.704 C194.631,111.34 192.945,108.148 192.314,104.718 C191.67,101.293 192.181,97.561 193.882,94.398 C195.558,91.21 198.309,88.753 201.286,87.09 C204.103,85.522 206.829,84.106 209.593,82.633 L217.838,78.276 C223.327,75.377 228.713,72.322 234.037,69.198 C236.697,67.631 239.324,66.017 241.905,64.342 C244.489,62.673 247.01,60.918 249.497,59.132 C251.983,57.345 254.399,55.473 256.711,53.497 C259.023,51.522 261.204,49.418 263.244,47.214 C265.281,45.007 267.107,42.632 268.579,40.085 C270.03,37.535 271.148,34.809 271.56,31.957 L272.399,26.155 L274.48,31.497 C274.748,32.186 274.938,32.784 275.133,33.428 C275.322,34.062 275.498,34.696 275.652,35.334 C275.963,36.609 276.228,37.891 276.411,39.185 C276.779,41.771 276.914,44.383 276.809,46.979 C276.706,49.575 276.29,52.15 275.625,54.639 C274.97,57.133 273.947,59.508 272.737,61.738 C272.948,61.137 273.189,60.552 273.372,59.944 C273.564,59.341 273.752,58.738 273.902,58.125 C274.227,56.907 274.463,55.67 274.662,54.435 C275.051,51.96 275.119,49.459 275.014,46.982 C274.886,44.505 274.529,42.047 273.959,39.648 C273.672,38.449 273.355,37.259 272.973,36.094 C272.787,35.51 272.581,34.934 272.366,34.365 C272.154,33.809 271.911,33.213 271.683,32.736 L274.602,32.276 C274.369,35.641 273.323,38.894 271.824,41.824 C270.33,44.765 268.464,47.465 266.404,49.955 C264.36,52.466 262.07,54.728 259.721,56.894 C257.36,59.049 254.905,61.08 252.389,63.015 C249.877,64.958 247.264,66.749 244.639,68.505 C242.007,70.254 239.337,71.934 236.641,73.561 C231.253,76.826 225.698,79.769 220.143,82.666 C217.363,84.111 214.573,85.526 211.764,86.888 C208.978,88.259 206.125,89.632 203.446,91.012 C200.963,92.316 198.827,94.123 197.442,96.399 C196.06,98.671 195.5,101.432 195.857,104.163 C196.2,106.877 197.345,109.602 199.246,111.595 C201.113,113.591 203.823,114.731 206.408,113.885 C207.633,113.521 208.945,112.601 210.08,111.695 C211.204,110.762 212.228,109.676 212.667,108.356 C213.144,107.047 212.84,105.552 212.038,104.284 C211.248,103.006 210.082,101.923 208.788,101.061" id="Fill-65"></path>
                <path d="M214.056,96.205 L224.972,90.728 L235.828,85.219 C239.424,83.35 243.038,81.531 246.592,79.601 L251.926,76.725 L257.22,73.796 C260.729,71.813 264.212,69.798 267.636,67.7 C271.057,65.601 274.425,63.432 277.695,61.15 C280.96,58.864 284.126,56.459 287.083,53.872 C290.018,51.273 292.766,48.476 294.881,45.359 L297.536,41.444 L298.654,45.843 C298.904,46.826 299.018,47.602 299.131,48.472 C299.233,49.319 299.303,50.164 299.336,51.007 C299.404,52.694 299.333,54.377 299.144,56.042 C299.055,56.875 298.908,57.702 298.738,58.52 C298.576,59.34 298.368,60.151 298.14,60.952 C297.914,61.755 297.641,62.542 297.361,63.324 C297.055,64.097 296.753,64.869 296.393,65.615 C296.064,66.375 295.648,67.094 295.249,67.813 C294.826,68.522 294.402,69.226 293.928,69.897 C293.485,70.586 292.962,71.22 292.478,71.875 C291.942,72.492 291.455,73.144 290.876,73.717 C289.772,74.908 288.571,75.994 287.335,77.019 C286.723,77.538 286.053,77.988 285.419,78.471 C284.766,78.932 284.09,79.361 283.425,79.795 L285.143,78.144 C285.685,77.565 286.253,77.018 286.766,76.419 C287.82,75.251 288.819,74.042 289.7,72.759 C290.163,72.134 290.561,71.465 290.992,70.826 C291.373,70.152 291.791,69.505 292.126,68.811 C292.492,68.135 292.805,67.435 293.116,66.737 C293.402,66.028 293.701,65.328 293.943,64.607 C294.208,63.895 294.415,63.164 294.628,62.439 C294.813,61.705 294.994,60.972 295.128,60.229 C295.266,59.488 295.384,58.745 295.459,57.997 C295.548,57.251 295.592,56.501 295.624,55.753 C295.692,54.258 295.653,52.76 295.492,51.283 C295.412,50.545 295.301,49.812 295.164,49.092 C295.03,48.396 294.842,47.612 294.661,47.069 L298.434,47.553 C297.349,49.454 296.051,51.181 294.681,52.812 C293.311,54.446 291.835,55.959 290.311,57.404 C288.79,58.855 287.205,60.216 285.583,61.521 C283.96,62.823 282.317,64.094 280.628,65.29 C277.261,67.7 273.794,69.936 270.263,72.044 C266.73,74.149 263.141,76.142 259.499,78.019 C257.678,78.959 255.852,79.884 254.008,80.771 C252.163,81.657 250.322,82.547 248.454,83.377 C244.719,85.042 240.985,86.696 237.188,88.201 L231.483,90.425 C229.579,91.156 227.649,91.826 225.727,92.508 C221.879,93.863 217.991,95.115 214.056,96.205" id="Fill-66"></path>
                <path d="M217.638,102.309 L230.358,98.941 L243.021,95.491 L249.325,93.703 C251.426,93.11 253.525,92.513 255.615,91.887 L261.88,90.007 C263.965,89.371 266.051,88.745 268.124,88.079 C270.204,87.432 272.266,86.738 274.332,86.057 C276.391,85.358 278.464,84.701 280.513,83.978 C282.572,83.284 284.607,82.528 286.648,81.791 C288.678,81.028 290.703,80.252 292.717,79.457 C294.746,78.694 296.739,77.855 298.739,77.031 C300.725,76.18 302.707,75.319 304.656,74.398 C305.641,73.956 306.604,73.476 307.568,72.997 C308.535,72.525 309.515,72.074 310.461,71.568 C312.386,70.607 314.253,69.559 316.12,68.505 L323.573,64.299 L319.292,71.542 C318.681,72.576 318.098,73.451 317.471,74.369 C316.846,75.27 316.215,76.163 315.551,77.027 C314.221,78.756 312.823,80.423 311.37,82.037 C309.918,83.652 308.409,85.211 306.84,86.708 C305.263,88.196 303.621,89.611 301.938,90.971 C300.24,92.313 298.512,93.613 296.712,94.807 C295.798,95.384 294.903,95.986 293.968,96.524 C293.047,97.085 292.107,97.611 291.161,98.124 C289.268,99.148 287.317,100.056 285.334,100.867 C284.351,101.292 283.34,101.649 282.33,101.996 C281.327,102.36 280.293,102.641 279.281,102.964 C280.235,102.485 281.203,102.052 282.133,101.538 C283.069,101.04 283.997,100.533 284.91,100.002 C286.751,98.968 288.509,97.801 290.243,96.621 C291.107,96.025 291.962,95.418 292.793,94.78 C293.64,94.164 294.443,93.488 295.261,92.839 C296.055,92.157 296.871,91.508 297.648,90.809 C298.441,90.131 299.197,89.411 299.963,88.705 C300.711,87.977 301.462,87.256 302.183,86.504 C302.918,85.767 303.615,84.992 304.324,84.232 C305.738,82.708 307.091,81.129 308.383,79.504 C309.675,77.88 310.909,76.212 312.067,74.501 C312.656,73.652 313.227,72.794 313.778,71.928 C314.319,71.075 314.875,70.157 315.314,69.347 L318.487,72.383 C316.581,73.556 314.67,74.723 312.713,75.794 C310.77,76.892 308.785,77.908 306.778,78.864 C304.778,79.839 302.753,80.749 300.724,81.648 C298.686,82.519 296.651,83.403 294.589,84.209 C292.537,85.043 290.45,85.775 288.374,86.538 C286.287,87.264 284.205,88.007 282.105,88.686 C280.011,89.386 277.909,90.056 275.799,90.7 C273.68,91.313 271.566,91.938 269.439,92.514 C265.193,93.693 260.933,94.81 256.637,95.774 C254.494,96.274 252.345,96.745 250.196,97.212 C248.05,97.69 245.885,98.089 243.728,98.509 L237.241,99.695 L230.728,100.724 C228.557,101.064 226.374,101.334 224.195,101.614 C222.017,101.897 219.825,102.102 217.638,102.309" id="Fill-67"></path>
                <path d="M217.993,107.852 C217.993,107.852 218.632,108.102 219.851,108.509 C221.066,108.924 222.871,109.465 225.169,110.113 C227.47,110.752 230.288,111.432 233.532,112.077 C236.779,112.706 240.468,113.253 244.491,113.579 C246.503,113.743 248.601,113.818 250.764,113.801 C252.926,113.787 255.156,113.718 257.424,113.471 C258.558,113.354 259.704,113.213 260.852,113.014 C261.425,112.909 262.007,112.835 262.58,112.703 C263.191,112.576 263.806,112.448 264.424,112.319 C266.763,111.867 269.235,111.367 271.697,110.79 C276.648,109.664 281.701,108.219 286.816,106.719 C291.921,105.184 297.051,103.441 302.091,101.485 C307.158,99.596 312.127,97.465 316.914,95.165 C321.692,92.848 326.32,90.419 330.623,87.778 C332.817,86.453 334.919,85.094 337.161,83.862 C339.362,82.631 341.537,81.492 343.703,80.459 C345.86,79.414 348.007,78.484 350.114,77.666 C352.236,76.88 354.303,76.165 356.329,75.601 C360.368,74.435 364.21,73.828 367.628,73.665 C371.051,73.51 374.048,73.839 376.424,74.44 C378.812,75.007 380.552,75.874 381.664,76.534 C382.22,76.871 382.622,77.162 382.887,77.365 C383.146,77.574 383.28,77.682 383.28,77.682 C383.28,77.682 383.133,77.594 382.848,77.423 C382.559,77.26 382.125,77.031 381.539,76.78 C380.368,76.275 378.571,75.731 376.238,75.434 C373.907,75.121 371.036,75.17 367.808,75.603 C364.58,76.076 361.005,77.009 357.228,78.382 C353.453,79.768 349.498,81.633 345.439,83.843 C343.412,84.949 341.362,86.169 339.315,87.464 C337.298,88.745 335.18,90.162 333.028,91.574 C328.651,94.422 324.006,97.192 319.088,99.6 C314.181,102.025 309.094,104.271 303.916,106.268 C298.721,108.222 293.449,109.947 288.209,111.461 C282.972,112.987 277.734,114.173 272.64,115.195 C270.08,115.689 267.596,116.165 265.052,116.487 C264.454,116.578 263.859,116.669 263.267,116.759 C262.641,116.865 262.013,116.913 261.392,116.991 C260.149,117.136 258.917,117.22 257.705,117.279 C252.851,117.53 248.286,117.137 244.152,116.496 C240.012,115.874 236.297,114.943 233.064,113.977 C229.824,113.028 227.075,111.985 224.84,111.076 C222.601,110.176 220.9,109.335 219.744,108.766 C218.59,108.189 217.993,107.852 217.993,107.852" id="Fill-68"></path>
                <path d="M217.922,112.548 C217.922,112.548 218.314,113.087 219.114,114.042 C219.909,115.001 221.138,116.353 222.75,118.006 C224.374,119.65 226.45,121.536 228.95,123.511 C231.46,125.474 234.47,127.44 237.914,129.181 C241.387,130.857 245.334,132.252 249.625,132.868 C250.691,133.067 251.792,133.091 252.891,133.203 C254,133.193 255.118,133.285 256.247,133.177 C258.507,133.1 260.795,132.719 263.09,132.228 C264.222,131.894 265.388,131.671 266.512,131.236 C267.078,131.04 267.646,130.843 268.217,130.646 C268.818,130.423 269.422,130.199 270.027,129.974 C271.213,129.519 272.474,129.087 273.722,128.646 C274.977,128.223 276.236,127.826 277.512,127.438 C282.612,125.905 287.902,124.602 293.345,123.842 C298.783,123.148 304.399,122.937 309.965,124.054 C312.736,124.603 315.503,125.597 317.975,127.193 C320.439,128.781 322.575,131.069 323.793,133.733 C324.427,135.068 324.852,136.385 325.083,137.851 C325.179,138.456 325.275,139.059 325.369,139.659 C325.395,140.37 325.42,141.078 325.445,141.782 C325.401,144.513 324.823,147.105 323.742,149.442 C321.61,154.128 317.431,157.409 313.001,158.31 C310.783,158.755 308.484,158.558 306.552,157.587 L305.953,157.271 C305.76,157.179 305.509,156.96 305.296,156.808 C304.853,156.472 304.415,156.139 304.123,155.748 C303.8,155.37 303.461,155.018 303.243,154.591 C303.011,154.177 302.733,153.796 302.596,153.359 C301.89,151.686 301.695,149.978 301.923,148.475 C302.152,146.979 302.602,145.638 303.337,144.622 C303.484,144.348 303.688,144.123 303.886,143.905 C304.081,143.688 304.269,143.477 304.453,143.273 C304.898,142.945 305.284,142.606 305.694,142.374 C306.124,142.171 306.509,141.971 306.872,141.82 C307.253,141.723 307.6,141.634 307.91,141.555 C308.213,141.456 308.496,141.454 308.736,141.441 C308.976,141.427 309.177,141.416 309.339,141.406 C309.661,141.388 309.827,141.378 309.827,141.378 C309.827,141.378 309.663,141.412 309.346,141.477 C309.189,141.509 308.994,141.549 308.763,141.597 C308.532,141.643 308.263,141.683 307.984,141.823 C307.703,141.94 307.39,142.07 307.044,142.214 C306.725,142.406 306.396,142.646 306.037,142.881 C305.696,143.143 305.398,143.51 305.045,143.839 C304.906,144.039 304.763,144.246 304.615,144.46 C304.465,144.669 304.311,144.882 304.214,145.141 C303.68,146.089 303.444,147.306 303.402,148.581 C303.372,149.865 303.669,151.265 304.362,152.511 C304.495,152.845 304.752,153.107 304.954,153.404 C305.143,153.717 305.434,153.942 305.695,154.196 C305.947,154.483 306.244,154.63 306.518,154.813 C306.675,154.901 306.746,155.008 306.969,155.09 L307.597,155.345 C308.978,155.867 310.681,155.932 312.328,155.448 C313.985,154.978 315.605,154.021 316.977,152.716 C318.356,151.419 319.522,149.782 320.242,147.906 C320.98,146.051 321.308,143.95 321.228,141.889 C321.19,141.396 321.152,140.9 321.114,140.401 C320.999,139.807 320.884,139.211 320.768,138.611 L320.68,138.16 L320.658,138.047 C320.666,138.087 320.624,137.877 320.673,138.123 L320.658,138.076 L320.6,137.89 L320.372,137.14 C320.171,136.662 320.003,136.168 319.746,135.72 C318.82,133.872 317.311,132.358 315.439,131.229 C314.49,130.682 313.485,130.182 312.384,129.826 C311.306,129.428 310.162,129.128 308.985,128.9 C304.257,127.995 299.098,128.21 294.025,128.914 C288.926,129.565 283.847,130.75 278.914,132.174 C276.433,132.913 274.045,133.639 271.615,134.454 C271.011,134.656 270.408,134.856 269.808,135.056 C269.167,135.254 268.529,135.452 267.892,135.649 C266.634,136.081 265.315,136.302 264.044,136.622 C258.883,137.641 253.667,137.632 248.967,136.618 C244.234,135.702 240.062,133.83 236.517,131.752 C232.977,129.641 230.055,127.267 227.676,124.987 C225.284,122.714 223.43,120.526 221.988,118.673 C220.542,116.822 219.555,115.263 218.89,114.204 C218.232,113.138 217.922,112.548 217.922,112.548" id="Fill-69"></path>
                <path d="M222.693,126.964 C222.693,126.964 223.776,126.185 225.854,125.116 C226.895,124.588 228.175,123.96 229.709,123.384 C231.238,122.793 233.005,122.194 235.011,121.761 C237.012,121.308 239.256,120.98 241.704,121.034 C242.927,121.058 244.2,121.183 245.498,121.462 C246.8,121.712 248.118,122.161 249.402,122.776 C250.701,123.365 251.923,124.213 253.034,125.197 L253.851,125.962 L254.596,126.799 C254.864,127.095 255.049,127.334 255.25,127.586 L255.852,128.34 C257.453,130.299 259.075,132.302 260.786,134.168 C262.478,136.055 264.242,137.85 266.076,139.454 C267.921,141.04 269.809,142.493 271.778,143.593 C273.739,144.704 275.746,145.529 277.736,146 C279.724,146.462 281.686,146.593 283.517,146.472 C285.346,146.337 287.03,145.949 288.518,145.534 C289.991,145.072 291.286,144.598 292.322,144.13 C292.844,143.895 293.31,143.686 293.716,143.504 C294.115,143.303 294.455,143.132 294.73,142.994 C295.29,142.721 295.588,142.575 295.588,142.575 C295.588,142.575 295.349,142.804 294.899,143.235 C294.446,143.663 293.783,144.302 292.843,145.005 C291.919,145.729 290.741,146.56 289.269,147.344 C287.795,148.111 286.045,148.917 283.974,149.376 C281.919,149.859 279.565,150.085 277.1,149.802 C274.64,149.519 272.104,148.767 269.693,147.627 C267.271,146.499 264.997,144.972 262.879,143.254 C260.744,141.547 258.816,139.595 256.984,137.595 C255.172,135.571 253.501,133.482 251.925,131.368 L251.347,130.591 C251.158,130.331 250.953,130.062 250.799,129.875 L250.309,129.249 L249.766,128.681 C249.024,127.948 248.212,127.298 247.307,126.788 C245.52,125.737 243.453,125.15 241.407,124.861 C239.356,124.581 237.319,124.538 235.428,124.658 C231.64,124.91 228.432,125.557 226.203,126.066 C223.971,126.585 222.693,126.964 222.693,126.964" id="Fill-70"></path>
                <path d="M211.277,121.252 C211.277,121.252 211.533,122.128 212.192,123.693 C212.837,125.262 213.958,127.495 215.635,130.156 C217.321,132.809 219.647,135.853 222.742,138.893 C225.833,141.935 229.786,144.878 234.507,147.278 L235.382,147.754 L236.307,148.158 C236.927,148.426 237.553,148.696 238.185,148.968 C238.823,149.227 239.439,149.548 240.108,149.762 C240.775,149.981 241.447,150.201 242.125,150.423 C242.801,150.647 243.482,150.873 244.17,151.101 C244.911,151.352 245.61,151.55 246.341,151.78 C247.794,152.241 249.253,152.638 250.768,153.194 C252.271,153.731 253.821,154.22 255.329,154.853 C256.09,155.155 256.855,155.459 257.625,155.765 C258.392,156.083 259.149,156.449 259.919,156.793 C261.469,157.451 262.975,158.304 264.507,159.12 C265.253,159.584 266.003,160.05 266.756,160.517 C267.512,160.978 268.221,161.557 268.959,162.077 C270.412,163.17 271.793,164.435 273.082,165.844 C274.311,167.31 275.502,168.896 276.321,170.723 C277.169,172.516 277.781,174.458 278.088,176.373 C278.184,176.853 278.227,177.324 278.293,177.801 L278.339,178.158 L278.35,178.248 L278.368,178.497 L278.374,178.664 L278.4,179.33 C278.406,179.558 278.422,179.762 278.421,180.01 L278.353,180.901 L278.264,181.793 C278.225,182.082 278.151,182.335 278.093,182.608 C277.622,184.753 276.594,186.812 275.05,188.476 C273.517,190.139 271.429,191.402 269.104,191.872 C266.781,192.362 264.321,191.987 262.273,191.051 C261.765,190.809 261.229,190.593 260.789,190.273 L260.099,189.822 L259.755,189.594 L259.584,189.48 C259.696,189.579 259.333,189.279 259.349,189.29 L259.285,189.233 L258.778,188.779 C258.57,188.576 258.279,188.231 258.05,187.948 C257.783,187.635 257.636,187.369 257.474,187.094 C257.317,186.818 257.136,186.542 257.03,186.256 C256.008,183.961 255.946,181.652 256.212,179.537 C256.483,177.405 257.152,175.411 258.082,173.567 C259.935,169.891 262.92,166.754 266.653,164.906 C270.372,163.034 274.701,162.623 278.514,163.409 C279.487,163.555 280.403,163.848 281.331,164.094 C282.225,164.412 283.138,164.695 283.986,165.082 C285.758,165.842 287.19,166.599 288.746,167.348 C291.798,168.847 294.805,170.294 297.734,171.674 C300.666,173.054 303.551,174.325 306.396,175.294 C309.235,176.274 312.044,176.953 314.723,177.045 C317.402,177.155 319.933,176.574 322.181,175.454 C322.734,175.148 323.28,174.845 323.821,174.546 C324.334,174.183 324.842,173.825 325.344,173.471 C325.882,173.084 326.414,172.701 326.94,172.323 L327.711,171.77 C327.982,171.592 328.284,171.425 328.566,171.255 C330.825,169.843 333.108,168.933 335.369,168.375 C337.614,167.82 339.802,167.616 341.786,167.814 C343.769,167.973 345.556,168.386 347.079,168.971 C350.156,170.089 352.201,171.675 353.485,172.791 C354.149,173.334 354.585,173.829 354.897,174.14 C355.204,174.455 355.363,174.617 355.363,174.617 C355.363,174.617 355.188,174.472 354.848,174.192 C354.505,173.916 354.025,173.475 353.313,173.01 C351.941,172.033 349.766,170.76 346.77,169.942 C345.282,169.514 343.573,169.281 341.732,169.296 C339.891,169.288 337.907,169.597 335.905,170.259 C333.913,170.9 331.833,171.924 329.973,173.289 C329.735,173.457 329.496,173.606 329.254,173.79 L328.518,174.39 C328.031,174.783 327.539,175.182 327.04,175.584 C326.5,176.013 325.954,176.447 325.401,176.886 C324.81,177.281 324.189,177.656 323.569,178.046 C321.026,179.514 317.91,180.427 314.712,180.471 C311.507,180.536 308.326,179.849 305.232,178.935 C302.125,178.015 299.079,176.816 296.026,175.531 C292.957,174.266 289.919,172.832 286.814,171.421 C283.632,169.964 280.804,168.528 277.702,168.106 C276.174,167.852 274.631,167.797 273.143,168.019 C271.653,168.212 270.206,168.645 268.869,169.325 C266.19,170.672 263.961,173.025 262.587,175.812 C261.897,177.199 261.418,178.7 261.25,180.173 C261.06,181.639 261.202,183.094 261.684,184.131 C261.725,184.278 261.813,184.375 261.875,184.495 C261.94,184.613 262.008,184.748 262.048,184.773 C262.111,184.837 262.082,184.867 262.19,184.989 L262.694,185.447 L262.757,185.504 C262.813,185.554 262.494,185.289 262.656,185.418 L262.769,185.49 L262.994,185.637 L263.44,185.936 C263.728,186.167 264.051,186.271 264.357,186.427 C265.594,186.999 266.885,187.186 268.111,186.944 C270.582,186.499 272.7,184.209 273.275,181.523 C273.31,181.359 273.371,181.183 273.391,181.03 L273.435,180.59 L273.501,180.15 C273.505,179.954 273.49,179.712 273.486,179.496 L273.461,178.662 C273.451,178.488 273.473,178.806 273.467,178.746 L273.457,178.67 L273.42,178.366 C273.365,177.964 273.335,177.548 273.267,177.158 C273.054,175.566 272.614,174.105 272.007,172.718 C271.432,171.316 270.529,170.072 269.581,168.865 C268.56,167.701 267.435,166.604 266.19,165.62 C265.546,165.148 264.955,164.627 264.278,164.194 C263.609,163.754 262.942,163.316 262.278,162.88 C260.871,162.103 259.527,161.257 258.083,160.572 C257.37,160.219 256.675,159.844 255.957,159.512 C255.234,159.19 254.514,158.869 253.799,158.551 C252.377,157.883 250.926,157.363 249.512,156.789 C248.119,156.207 246.623,155.73 245.205,155.216 C244.499,154.961 243.759,154.718 243.097,154.46 C242.38,154.181 241.669,153.904 240.964,153.629 C240.261,153.353 239.564,153.079 238.873,152.807 C238.181,152.54 237.54,152.163 236.881,151.851 C236.23,151.524 235.584,151.2 234.945,150.88 L233.994,150.397 L233.094,149.841 C231.913,149.085 230.711,148.422 229.627,147.635 C228.555,146.829 227.499,146.058 226.502,145.27 C225.558,144.416 224.639,143.585 223.746,142.776 C222.89,141.93 222.112,141.056 221.333,140.24 C218.324,136.86 216.237,133.506 214.756,130.659 C213.266,127.809 212.427,125.423 211.932,123.787 C211.438,122.148 211.277,121.252 211.277,121.252" id="Fill-71"></path>
                <path d="M200.24,126.296 C200.24,126.296 200.137,126.729 200.013,127.54 C199.868,128.347 199.759,129.548 199.681,131.056 C199.644,132.567 199.67,134.4 200.002,136.436 C200.281,138.477 200.941,140.705 201.971,142.935 C202.247,143.482 202.529,144.041 202.816,144.61 C203.172,145.137 203.535,145.674 203.904,146.221 C204.239,146.783 204.694,147.279 205.137,147.792 C205.596,148.291 205.982,148.858 206.508,149.321 C207.577,150.232 208.554,151.27 209.837,152.035 C210.444,152.45 211.058,152.868 211.677,153.291 C212.347,153.647 213.023,154.006 213.705,154.368 L214.727,154.915 L215.868,155.505 L216.988,156.075 C217.373,156.284 217.785,156.536 218.184,156.767 C219.804,157.701 221.279,158.77 222.718,160.017 C225.569,162.491 228.005,165.762 229.369,169.47 C230.74,173.174 231.104,177.12 230.828,180.803 C230.578,184.503 229.737,187.98 228.788,191.203 C228.304,192.813 227.815,194.374 227.314,195.856 C227.073,196.592 226.826,197.335 226.631,198.019 C226.413,198.766 226.199,199.503 226.043,200.171 C225.353,202.933 225.005,205.589 225.267,207.951 C225.503,210.324 226.399,212.385 227.523,214.055 C228.642,215.738 229.997,216.977 231.092,218.012 C231.681,218.492 232.207,218.92 232.664,219.293 C233.124,219.67 233.552,219.939 233.882,220.186 C234.551,220.672 234.908,220.931 234.908,220.931 C234.908,220.931 234.501,220.761 233.738,220.442 C232.965,220.134 231.864,219.61 230.497,218.838 C229.189,217.989 227.514,216.981 225.992,215.279 C225.599,214.87 225.255,214.387 224.865,213.916 C224.487,213.435 224.185,212.875 223.828,212.326 C223.518,211.753 223.242,211.134 222.978,210.496 C222.782,209.84 222.492,209.175 222.372,208.467 C222.297,208.114 222.221,207.757 222.144,207.396 C222.099,207.034 222.053,206.667 222.007,206.298 C221.894,205.552 221.911,204.807 221.876,204.036 C221.895,202.509 222.036,200.969 222.302,199.388 C222.423,198.575 222.574,197.829 222.725,197.075 C222.886,196.255 223.071,195.493 223.256,194.706 C223.629,193.181 224.011,191.623 224.399,190.039 C225.134,186.916 225.726,183.714 225.87,180.515 C226,177.323 225.665,174.142 224.575,171.262 C223.533,168.364 221.679,165.83 219.405,163.707 C218.259,162.671 216.991,161.669 215.714,160.856 C215.39,160.649 215.095,160.441 214.75,160.234 L213.656,159.616 L213.113,159.307 L212.978,159.229 C212.914,159.196 213.027,159.253 213.002,159.239 L212.967,159.218 L212.896,159.175 L212.613,159.002 L211.489,158.316 C210.747,157.859 210.01,157.406 209.281,156.958 C208.583,156.451 207.927,155.89 207.269,155.36 C205.905,154.364 204.826,153.056 203.706,151.9 C201.669,149.383 200.039,146.721 199.25,144.011 C199.138,143.679 199.001,143.36 198.915,143.029 C198.838,142.696 198.762,142.367 198.686,142.041 C198.551,141.388 198.359,140.765 198.296,140.135 C198.166,138.875 198.016,137.697 198.058,136.581 C198.009,134.357 198.361,132.453 198.677,130.924 C199.02,129.393 199.428,128.236 199.731,127.462 C200.031,126.685 200.24,126.296 200.24,126.296" id="Fill-72"></path>
                <path d="M198.933,121.252 C198.933,121.252 199.382,121.537 200.152,122.171 C200.923,122.801 202.041,123.758 203.309,125.14 C204.608,126.495 206.025,128.303 207.42,130.553 C208.83,132.797 210.079,135.572 210.946,138.778 C211.877,141.975 212.141,145.667 211.753,149.489 C211.619,150.439 211.551,151.423 211.352,152.387 C211.117,153.345 210.879,154.315 210.639,155.295 L210.455,156.034 L210.444,156.081 C210.449,156.067 210.415,156.177 210.453,156.062 L210.43,156.149 L210.383,156.322 L210.289,156.67 C210.161,157.131 210.033,157.594 209.905,158.059 C209.735,158.91 209.531,159.745 209.426,160.664 C209.189,162.464 209.081,164.305 209.243,166.146 C209.4,167.986 209.768,169.822 210.335,171.618 C211.486,175.205 213.464,178.613 216.013,181.602 C218.544,184.612 221.604,187.219 224.86,189.433 C228.13,191.636 231.619,193.438 235.138,194.766 L235.467,194.893 L235.747,195 L235.917,195.073 L236.594,195.363 C236.827,195.468 237.026,195.536 237.286,195.671 L238.077,196.101 L238.852,196.539 L239.529,197.013 C239.984,197.324 240.415,197.655 240.808,198.02 C242.434,199.427 243.731,201.038 244.797,202.676 C246.901,205.978 248.106,209.382 248.951,212.523 C249.807,215.668 250.257,218.596 250.536,221.188 C250.836,223.779 250.917,226.045 250.946,227.905 C250.995,231.628 250.759,233.739 250.759,233.739 C250.759,233.739 250.546,231.626 249.932,227.998 C249.627,226.184 249.187,223.997 248.605,221.524 C248.012,219.053 247.22,216.304 246.152,213.421 C245.06,210.555 243.624,207.555 241.652,204.848 C240.644,203.518 239.481,202.287 238.151,201.297 C237.829,201.032 237.482,200.807 237.125,200.602 L236.602,200.27 L236.097,200.022 C235.59,199.706 234.339,199.288 233.638,199.052 C229.697,197.769 225.793,195.951 222.132,193.583 C218.462,191.233 215.025,188.333 212.101,184.903 C209.205,181.462 206.86,177.43 205.592,173.067 C204.29,168.721 204.129,164.106 204.96,159.922 C205.134,158.881 205.436,157.82 205.715,156.782 C205.87,156.319 206.024,155.858 206.178,155.4 L206.432,154.66 L206.635,154.022 C206.91,153.171 207.181,152.329 207.45,151.497 C207.688,150.658 207.798,149.804 207.98,148.972 C208.521,145.632 208.637,142.355 208.085,139.392 C207.558,136.438 206.752,133.734 205.697,131.465 C204.633,129.209 203.571,127.26 202.517,125.772 C201.485,124.269 200.6,123.12 199.948,122.381 C199.31,121.627 198.933,121.252 198.933,121.252" id="Fill-73"></path>
                <path d="M191.64,130.921 C191.64,130.921 192.368,132.756 193.448,136.031 C194.525,139.306 195.985,144.015 197.375,149.772 C198.08,152.649 198.79,155.784 199.379,159.14 C199.985,162.493 200.552,166.056 200.867,169.806 C201.037,171.681 201.132,173.602 201.144,175.571 C201.157,177.54 201.073,179.557 200.773,181.634 C200.451,183.704 200.014,185.875 198.747,188.071 C198.109,189.154 197.194,190.267 195.907,191.063 C194.636,191.866 193.036,192.204 191.723,192.155 C190.32,192.113 188.879,191.744 187.634,190.96 C186.398,190.187 185.473,189.124 184.808,188.062 C183.473,185.908 182.994,183.732 182.619,181.661 C181.969,177.504 182.102,173.567 182.386,169.808 C182.675,166.05 183.238,162.483 183.835,159.126 C184.418,155.767 185.135,152.632 185.842,149.755 C187.242,143.998 188.717,139.293 189.808,136.022 C190.902,132.752 191.64,130.921 191.64,130.921 Z M191.64,130.921 C191.64,130.921 191.332,132.864 190.792,136.263 C190.257,139.656 189.511,144.501 188.716,150.299 C188.328,153.2 187.961,156.344 187.604,159.657 C187.266,162.972 187.02,166.471 186.905,170.053 C186.816,173.624 186.872,177.336 187.503,180.803 C187.827,182.507 188.341,184.179 189.094,185.349 C189.87,186.54 190.663,186.998 191.81,187.038 C192.452,187.051 192.844,186.944 193.244,186.715 C193.632,186.481 194.031,186.067 194.385,185.475 C195.093,184.283 195.58,182.594 195.865,180.871 C196.425,177.377 196.451,173.658 196.333,170.083 C196.195,166.495 195.935,162.995 195.594,159.678 C195.234,156.363 194.864,153.218 194.484,150.315 C193.699,144.514 192.974,139.665 192.457,136.268 C191.937,132.866 191.64,130.921 191.64,130.921 L191.64,130.921 Z" id="Fill-74"></path>
                <path d="M191.64,36.393 C192.031,35.756 192.492,35.202 192.838,34.561 L193.392,33.643 C193.566,33.333 193.714,33.008 193.874,32.695 C194.202,32.073 194.446,31.414 194.719,30.785 C194.933,30.125 195.172,29.488 195.308,28.819 C195.498,28.17 195.593,27.497 195.707,26.842 C195.781,26.174 195.868,25.517 195.876,24.85 C195.905,24.188 195.893,23.522 195.856,22.862 C195.822,22.2 195.737,21.541 195.657,20.883 C195.55,20.226 195.444,19.572 195.283,18.923 C195.15,18.272 194.974,17.625 194.783,16.984 C194.595,16.342 194.372,15.707 194.155,15.072 C193.926,14.439 193.676,13.813 193.412,13.191 C193.137,12.573 192.87,11.952 192.575,11.342 C192.275,10.733 191.966,10.129 191.637,9.536 C191.319,8.938 190.981,8.35 190.634,7.772 C190.294,7.213 189.892,6.602 189.575,6.15 L193.79,6.026 L192.695,7.78 L191.674,9.566 L190.722,11.377 L189.87,13.223 C189.624,13.847 189.326,14.462 189.121,15.098 C188.891,15.73 188.659,16.36 188.478,17.002 C188.258,17.638 188.143,18.289 187.961,18.935 C187.838,19.584 187.68,20.236 187.608,20.894 C187.505,21.551 187.45,22.21 187.402,22.874 C187.37,23.537 187.365,24.201 187.385,24.869 C187.442,26.2 187.622,27.537 187.946,28.86 C188.102,29.524 188.299,30.182 188.534,30.833 C188.776,31.479 189.049,32.12 189.35,32.757 C189.966,34.022 190.707,35.256 191.64,36.393 Z M191.64,36.393 C190.337,35.683 189.2,34.67 188.187,33.544 C187.666,32.987 187.223,32.366 186.787,31.733 C186.363,31.094 185.97,30.427 185.617,29.735 C184.926,28.343 184.409,26.85 184.077,25.311 L183.856,24.149 L183.715,22.976 C183.658,22.192 183.587,21.399 183.618,20.614 C183.61,19.822 183.692,19.043 183.747,18.256 C183.856,17.482 183.945,16.695 184.118,15.935 C184.265,15.165 184.44,14.405 184.663,13.66 C184.855,12.901 185.137,12.184 185.375,11.444 C185.633,10.715 185.939,10.009 186.231,9.294 L187.215,7.214 C187.569,6.539 187.937,5.869 188.31,5.205 L191.46,2.84217094e-14 L193.705,3.132 C194.228,3.86 194.596,4.477 195.004,5.157 C195.395,5.826 195.769,6.5 196.121,7.185 C196.809,8.563 197.43,9.975 197.949,11.431 C198.456,12.892 198.896,14.385 199.183,15.92 C199.33,16.686 199.461,17.457 199.54,18.238 C199.629,19.016 199.659,19.805 199.684,20.59 C199.69,21.379 199.664,22.166 199.583,22.953 C199.504,23.737 199.409,24.523 199.225,25.292 C199.068,26.066 198.84,26.823 198.597,27.568 C198.307,28.301 198.042,29.037 197.667,29.724 C197.328,30.425 196.888,31.071 196.48,31.718 C196.008,32.329 195.598,32.971 195.048,33.504 C194.543,34.071 193.992,34.583 193.427,35.071 C192.866,35.56 192.238,35.973 191.64,36.393 L191.64,36.393 Z" id="Fill-75"></path>
                <path d="M195.978,38.189 C196.704,38.016 197.422,37.949 198.119,37.741 L199.16,37.484 C199.503,37.388 199.837,37.262 200.172,37.154 C200.844,36.947 201.482,36.653 202.12,36.401 C202.738,36.086 203.357,35.805 203.927,35.428 C204.52,35.103 205.063,34.694 205.607,34.311 C206.131,33.892 206.657,33.489 207.135,33.022 C207.623,32.575 208.086,32.096 208.526,31.602 C208.971,31.111 209.376,30.584 209.784,30.063 C210.174,29.523 210.561,28.985 210.907,28.413 C211.272,27.858 211.606,27.276 211.924,26.688 C212.245,26.101 212.536,25.494 212.832,24.891 C213.117,24.282 213.384,23.662 213.636,23.036 C213.879,22.405 214.13,21.777 214.352,21.136 C214.571,20.494 214.779,19.849 214.966,19.197 C215.164,18.549 215.341,17.894 215.504,17.24 C215.659,16.604 215.807,15.888 215.902,15.344 L218.971,18.237 L216.956,18.703 L214.971,19.244 L213.017,19.852 L211.11,20.554 C210.494,20.821 209.848,21.046 209.254,21.351 C208.644,21.635 208.035,21.916 207.453,22.242 C206.847,22.537 206.306,22.916 205.721,23.243 C205.174,23.615 204.602,23.965 204.086,24.379 C203.548,24.771 203.044,25.198 202.54,25.633 C202.049,26.08 201.575,26.546 201.117,27.032 C200.216,28.013 199.398,29.086 198.692,30.251 C198.333,30.83 198.007,31.435 197.713,32.061 C197.427,32.69 197.167,33.336 196.929,33.999 C196.47,35.329 196.121,36.726 195.978,38.189 Z M195.978,38.189 C195.558,36.766 195.471,35.246 195.551,33.733 C195.576,32.971 195.701,32.218 195.841,31.463 C195.993,30.711 196.186,29.961 196.426,29.222 C196.922,27.75 197.612,26.329 198.466,25.006 L199.131,24.028 L199.861,23.098 C200.375,22.504 200.885,21.893 201.463,21.36 C202.017,20.794 202.626,20.302 203.222,19.783 C203.845,19.314 204.465,18.819 205.124,18.405 C205.772,17.964 206.434,17.551 207.119,17.182 C207.791,16.781 208.497,16.473 209.189,16.118 C209.887,15.784 210.603,15.502 211.315,15.203 L213.481,14.428 C214.209,14.201 214.943,13.987 215.676,13.782 L217.888,13.238 L221.584,12.329 L220.957,16.131 C220.811,17.015 220.635,17.712 220.443,18.481 C220.247,19.23 220.035,19.971 219.799,20.705 C219.312,22.166 218.752,23.603 218.089,25 C217.415,26.391 216.67,27.758 215.787,29.047 C215.349,29.692 214.897,30.33 214.4,30.938 C213.913,31.551 213.377,32.131 212.84,32.703 C212.286,33.265 211.711,33.803 211.098,34.303 C210.487,34.801 209.864,35.289 209.19,35.704 C208.533,36.14 207.836,36.514 207.137,36.869 C206.413,37.182 205.706,37.515 204.955,37.735 C204.219,37.991 203.452,38.137 202.705,38.306 C201.94,38.404 201.196,38.569 200.43,38.557 C199.673,38.6 198.92,38.573 198.176,38.518 C197.433,38.467 196.697,38.315 195.978,38.189 L195.978,38.189 Z" id="Fill-76"></path>
                <path d="M197.774,42.527 C198.411,42.918 198.965,43.378 199.606,43.725 L200.524,44.278 C200.834,44.453 201.159,44.6 201.472,44.76 C202.094,45.089 202.753,45.333 203.382,45.606 C204.042,45.819 204.679,46.059 205.348,46.195 C205.997,46.384 206.67,46.479 207.325,46.594 C207.993,46.668 208.65,46.755 209.317,46.763 C209.979,46.792 210.645,46.78 211.305,46.742 C211.967,46.709 212.626,46.623 213.284,46.543 C213.941,46.437 214.595,46.331 215.244,46.17 C215.895,46.037 216.542,45.861 217.183,45.67 C217.825,45.481 218.459,45.259 219.095,45.041 C219.728,44.812 220.354,44.563 220.976,44.299 C221.594,44.024 222.215,43.757 222.825,43.461 C223.434,43.162 224.038,42.853 224.631,42.524 C225.229,42.206 225.817,41.868 226.395,41.52 C226.954,41.181 227.565,40.779 228.017,40.462 L228.141,44.677 L226.387,43.582 L224.601,42.561 L222.79,41.609 L220.944,40.757 C220.32,40.51 219.705,40.212 219.069,40.008 C218.437,39.778 217.807,39.545 217.165,39.365 C216.528,39.145 215.878,39.03 215.232,38.848 C214.583,38.724 213.931,38.567 213.273,38.495 C212.616,38.392 211.957,38.337 211.293,38.288 C210.63,38.257 209.966,38.252 209.298,38.272 C207.967,38.328 206.63,38.508 205.307,38.833 C204.643,38.989 203.985,39.186 203.334,39.42 C202.688,39.663 202.047,39.936 201.41,40.237 C200.145,40.852 198.91,41.594 197.774,42.527 Z M197.774,42.527 C198.484,41.224 199.497,40.087 200.623,39.074 C201.18,38.553 201.801,38.109 202.434,37.674 C203.073,37.249 203.74,36.856 204.433,36.503 C205.824,35.813 207.317,35.296 208.856,34.964 L210.017,34.743 L211.191,34.602 C211.975,34.545 212.767,34.473 213.553,34.505 C214.345,34.4971121 215.123,34.579 215.912,34.634 C216.685,34.743 217.472,34.831 218.232,35.005 C219.002,35.151 219.762,35.327 220.507,35.55 C221.266,35.742 221.983,36.024 222.723,36.262 C223.452,36.519 224.158,36.826 224.873,37.118 L226.953,38.102 C227.628,38.456 228.298,38.824 228.962,39.197 L230.911,40.376 L234.167,42.347 L231.035,44.592 C230.307,45.114 229.69,45.483 229.01,45.891 C228.341,46.281 227.667,46.656 226.982,47.008 C225.604,47.696 224.192,48.317 222.736,48.836 C221.275,49.343 219.782,49.783 218.247,50.069 C217.481,50.216 216.71,50.348 215.929,50.426 C215.15,50.515 214.362,50.546 213.577,50.571 C212.788,50.577 212.001,50.551 211.214,50.47 C210.43,50.39 209.644,50.295 208.875,50.112 C208.101,49.955 207.344,49.727 206.599,49.484 C205.866,49.193 205.13,48.929 204.443,48.553 C203.742,48.214 203.096,47.775 202.449,47.367 C201.838,46.894 201.196,46.485 200.663,45.935 C200.096,45.43 199.584,44.879 199.096,44.314 C198.607,43.752 198.194,43.125 197.774,42.527 L197.774,42.527 Z" id="Fill-77"></path>
                <path d="M195.978,46.864 C196.151,47.591 196.218,48.308 196.426,49.006 L196.683,50.047 C196.779,50.389 196.905,50.724 197.013,51.059 C197.22,51.73 197.514,52.369 197.766,53.007 C198.081,53.624 198.362,54.244 198.739,54.814 C199.064,55.406 199.473,55.949 199.855,56.493 C200.275,57.018 200.678,57.544 201.145,58.022 C201.592,58.51 202.071,58.972 202.565,59.413 C203.056,59.857 203.583,60.263 204.104,60.671 C204.644,61.06 205.182,61.448 205.754,61.793 C206.309,62.159 206.891,62.492 207.479,62.811 C208.066,63.131 208.673,63.423 209.275,63.718 C209.885,64.004 210.504,64.27 211.131,64.523 C211.762,64.766 212.39,65.016 213.031,65.239 C213.673,65.458 214.318,65.666 214.97,65.853 C215.618,66.051 216.273,66.228 216.927,66.39 C217.563,66.546 218.279,66.694 218.823,66.789 L215.93,69.857 L215.464,67.842 L214.923,65.857 L214.315,63.904 L213.613,61.996 C213.346,61.38 213.121,60.735 212.816,60.14 C212.532,59.531 212.251,58.922 211.925,58.34 C211.63,57.734 211.251,57.193 210.924,56.607 C210.552,56.061 210.202,55.488 209.788,54.973 C209.396,54.435 208.969,53.93 208.534,53.426 C208.087,52.935 207.621,52.462 207.135,52.004 C206.154,51.102 205.081,50.285 203.916,49.579 C203.337,49.22 202.732,48.894 202.106,48.599 C201.477,48.313 200.831,48.053 200.168,47.816 C198.838,47.357 197.441,47.008 195.978,46.864 Z M195.978,46.864 C197.401,46.445 198.921,46.357 200.434,46.437 C201.196,46.463 201.948,46.588 202.704,46.728 C203.456,46.879 204.206,47.073 204.945,47.313 C206.417,47.809 207.838,48.499 209.161,49.353 L210.139,50.018 L211.069,50.748 C211.663,51.261 212.274,51.771 212.807,52.349 C213.373,52.903 213.865,53.512 214.384,54.108 C214.853,54.732 215.348,55.351 215.762,56.011 C216.203,56.659 216.616,57.321 216.985,58.005 C217.386,58.677 217.694,59.384 218.049,60.075 C218.383,60.773 218.665,61.489 218.964,62.201 L219.739,64.367 C219.966,65.095 220.18,65.83 220.385,66.563 L221.838,72.471 L218.036,71.844 C217.152,71.698 216.455,71.522 215.686,71.33 C214.937,71.133 214.196,70.921 213.462,70.686 C212.001,70.198 210.564,69.639 209.167,68.976 C207.776,68.302 206.409,67.557 205.12,66.674 C204.475,66.236 203.837,65.784 203.229,65.287 C202.616,64.8 202.036,64.264 201.464,63.726 C200.902,63.173 200.364,62.598 199.864,61.984 C199.366,61.373 198.878,60.751 198.463,60.077 C198.027,59.419 197.653,58.722 197.298,58.023 C196.985,57.3 196.652,56.593 196.432,55.841 C196.176,55.106 196.03,54.338 195.86,53.592 C195.763,52.826 195.598,52.082 195.61,51.316 C195.567,50.559 195.594,49.807 195.649,49.063 C195.7,48.319 195.852,47.584 195.978,46.864 L195.978,46.864 Z" id="Fill-78"></path>
                <path d="M191.64,48.661 C191.249,49.297 190.789,49.852 190.442,50.492 L189.889,51.41 C189.714,51.72 189.567,52.046 189.407,52.359 C189.078,52.98 188.834,53.639 188.561,54.268 C188.348,54.928 188.108,55.565 187.972,56.235 C187.783,56.884 187.688,57.556 187.573,58.212 C187.499,58.88 187.412,59.536 187.404,60.204 C187.375,60.866 187.387,61.531 187.424,62.192 C187.458,62.854 187.544,63.513 187.624,64.17 C187.73,64.827 187.836,65.481 187.997,66.13 C188.13,66.781 188.306,67.428 188.497,68.069 C188.686,68.711 188.908,69.346 189.126,69.981 C189.355,70.614 189.604,71.241 189.868,71.863 C190.143,72.481 190.41,73.102 190.706,73.712 C191.005,74.321 191.314,74.924 191.643,75.518 C191.961,76.116 192.299,76.704 192.647,77.281 C192.986,77.841 193.388,78.452 193.705,78.904 L189.49,79.028 L190.585,77.273 L191.606,75.487 L192.558,73.676 L193.41,71.831 C193.657,71.206 193.955,70.591 194.159,69.955 C194.389,69.323 194.622,68.694 194.802,68.052 C195.022,67.415 195.137,66.764 195.319,66.119 C195.443,65.47 195.6,64.817 195.672,64.16 C195.775,63.502 195.83,62.844 195.879,62.18 C195.91,61.517 195.915,60.852 195.895,60.185 C195.839,58.853 195.659,57.517 195.334,56.194 C195.178,55.53 194.981,54.872 194.747,54.221 C194.504,53.574 194.231,52.933 193.93,52.297 C193.315,51.032 192.573,49.797 191.64,48.661 Z M191.64,48.661 C192.943,49.371 194.08,50.384 195.093,51.51 C195.614,52.067 196.058,52.687 196.493,53.321 C196.918,53.96 197.311,54.626 197.664,55.319 C198.354,56.71 198.871,58.203 199.203,59.743 L199.424,60.904 L199.565,62.078 C199.622,62.861 199.694,63.654 199.662,64.44 C199.669888,65.231 199.588,66.01 199.533,66.798 C199.424,67.571 199.336,68.359 199.162,69.118 C199.016,69.888 198.84,70.648 198.617,71.393 C198.425,72.152 198.143,72.869 197.905,73.609 C197.648,74.339 197.341,75.045 197.049,75.76 L196.065,77.839 C195.711,78.514 195.343,79.185 194.97,79.849 L191.82,85.054 L189.575,81.922 C189.053,81.193 188.684,80.576 188.276,79.896 C187.886,79.228 187.511,78.554 187.159,77.869 C186.471,76.491 185.85,75.079 185.331,73.622 C184.824,72.162 184.384,70.669 184.098,69.133 C183.951,68.367 183.819,67.597 183.741,66.815 C183.652,66.037 183.621,65.248 183.596,64.464 C183.59,63.675 183.616,62.888 183.697,62.101 C183.777,61.316 183.872,60.531 184.055,59.761 C184.212,58.988 184.44,58.231 184.683,57.485 C184.974,56.752 185.238,56.017 185.614,55.33 C185.953,54.628 186.392,53.983 186.8,53.335 C187.273,52.725 187.682,52.082 188.232,51.549 C188.737,50.983 189.288,50.47 189.853,49.983 C190.415,49.493 191.042,49.081 191.64,48.661 L191.64,48.661 Z" id="Fill-79"></path>
                <path d="M187.303,46.864 C186.576,47.038 185.859,47.104 185.161,47.312 L184.12,47.57 C183.778,47.666 183.443,47.792 183.108,47.9 C182.437,48.107 181.798,48.4 181.16,48.652 C180.543,48.968 179.923,49.249 179.353,49.626 C178.761,49.951 178.218,50.359 177.674,50.742 C177.149,51.162 176.623,51.565 176.145,52.031 C175.657,52.479 175.195,52.958 174.754,53.451 C174.31,53.943 173.904,54.47 173.496,54.991 C173.107,55.531 172.719,56.068 172.374,56.641 C172.008,57.196 171.675,57.777 171.356,58.366 C171.036,58.953 170.744,59.559 170.449,60.162 C170.163,60.772 169.897,61.391 169.644,62.018 C169.401,62.649 169.151,63.277 168.928,63.917 C168.709,64.559 168.501,65.205 168.314,65.857 C168.116,66.505 167.939,67.159 167.777,67.814 C167.621,68.45 167.473,69.166 167.378,69.709 L164.31,66.816 L166.325,66.35 L168.31,65.81 L170.263,65.202 L172.171,64.499 C172.787,64.232 173.432,64.008 174.027,63.703 C174.636,63.419 175.245,63.138 175.827,62.812 C176.433,62.517 176.974,62.138 177.56,61.811 C178.106,61.439 178.679,61.089 179.194,60.675 C179.732,60.282 180.237,59.856 180.741,59.42 C181.232,58.974 181.705,58.508 182.163,58.022 C183.064,57.04 183.882,55.968 184.588,54.803 C184.947,54.223 185.273,53.618 185.568,52.993 C185.854,52.364 186.114,51.717 186.351,51.054 C186.81,49.725 187.159,48.328 187.303,46.864 Z M187.303,46.864 C187.722,48.288 187.81,49.808 187.73,51.32 C187.704,52.083 187.579,52.835 187.439,53.591 C187.287,54.343 187.094,55.092 186.854,55.832 C186.358,57.303 185.668,58.725 184.814,60.048 L184.149,61.026 L183.419,61.955 C182.906,62.55 182.396,63.161 181.818,63.694 C181.264,64.259 180.655,64.752 180.059,65.27 C179.435,65.74 178.816,66.234 178.156,66.649 C177.508,67.09 176.846,67.503 176.162,67.872 C175.49,68.273 174.783,68.581 174.091,68.935 C173.394,69.269 172.678,69.551 171.966,69.851 L169.8,70.626 C169.072,70.852 168.337,71.066 167.604,71.272 L161.696,72.725 L162.323,68.923 C162.469,68.039 162.645,67.342 162.837,66.572 C163.034,65.824 163.246,65.083 163.481,64.349 C163.969,62.888 164.528,61.451 165.191,60.054 C165.865,58.662 166.61,57.295 167.493,56.007 C167.931,55.362 168.383,54.724 168.88,54.115 C169.367,53.502 169.903,52.923 170.441,52.351 C170.994,51.788 171.569,51.25 172.183,50.751 C172.794,50.253 173.416,49.764 174.09,49.35 C174.748,48.914 175.444,48.54 176.144,48.185 C176.867,47.872 177.574,47.539 178.326,47.319 C179.061,47.062 179.829,46.917 180.575,46.747 C181.341,46.649 182.085,46.485 182.851,46.497 C183.608,46.453 184.36,46.48 185.104,46.536 C185.847,46.586 186.583,46.738 187.303,46.864 L187.303,46.864 Z" id="Fill-80"></path>
                <path d="M185.506,42.527 C184.87,42.136 184.315,41.675 183.675,41.329 L182.757,40.775 C182.447,40.601 182.121,40.453 181.808,40.293 C181.186,39.965 180.528,39.721 179.899,39.448 C179.239,39.234 178.602,38.995 177.932,38.858 C177.283,38.669 176.611,38.574 175.955,38.46 C175.287,38.386 174.631,38.299 173.963,38.291 C173.301,38.262 172.636,38.274 171.975,38.311 C171.313,38.345 170.654,38.43 169.997,38.51 C169.34,38.617 168.686,38.723 168.037,38.883 C167.386,39.017 166.739,39.193 166.098,39.384 C165.456,39.572 164.821,39.795 164.186,40.012 C163.553,40.241 162.926,40.491 162.304,40.755 C161.686,41.03 161.065,41.297 160.455,41.592 C159.846,41.892 159.243,42.201 158.649,42.529 C158.051,42.848 157.463,43.186 156.886,43.533 C156.326,43.873 155.715,44.275 155.263,44.592 L155.139,40.377 L156.894,41.472 L158.68,42.493 L160.491,43.445 L162.336,44.297 C162.961,44.543 163.576,44.841 164.212,45.046 C164.844,45.276 165.473,45.508 166.115,45.689 C166.752,45.909 167.403,46.024 168.048,46.206 C168.697,46.329 169.35,46.487 170.007,46.559 C170.665,46.662 171.323,46.717 171.987,46.765 C172.65,46.797 173.315,46.802 173.982,46.782 C175.314,46.725 176.65,46.545 177.973,46.221 C178.637,46.065 179.295,45.868 179.946,45.633 C180.593,45.391 181.234,45.118 181.87,44.817 C183.135,44.201 184.37,43.46 185.506,42.527 Z M185.506,42.527 C184.796,43.83 183.783,44.967 182.657,45.98 C182.1,46.501 181.48,46.944 180.846,47.38 C180.207,47.804 179.541,48.197 178.848,48.55 C177.457,49.241 175.964,49.758 174.424,50.09 L173.263,50.311 L172.089,50.452 C171.306,50.509 170.513,50.58 169.727,50.549 C168.936,50.557 168.157,50.474 167.369,50.42 C166.596,50.311 165.808,50.222 165.049,50.049 C164.279,49.902 163.519,49.727 162.774,49.504 C162.015,49.312 161.298,49.03 160.558,48.792 C159.828,48.534 159.122,48.228 158.407,47.936 L156.328,46.952 C155.653,46.597 154.982,46.23 154.318,45.857 L149.113,42.706 L152.245,40.462 C152.974,39.94 153.591,39.571 154.271,39.163 C154.939,38.772 155.613,38.398 156.298,38.046 C157.676,37.358 159.088,36.737 160.545,36.218 C162.005,35.711 163.498,35.271 165.034,34.984 C165.8,34.837 166.57,34.706 167.352,34.627 C168.13,34.538 168.919,34.508 169.703,34.483 C170.492,34.477 171.279,34.503 172.066,34.584 C172.851,34.663 173.636,34.758 174.406,34.942 C175.179,35.099 175.936,35.327 176.682,35.57 C177.415,35.86 178.15,36.125 178.837,36.5 C179.539,36.839 180.184,37.279 180.832,37.687 C181.442,38.159 182.085,38.569 182.618,39.119 C183.184,39.623 183.697,40.175 184.184,40.74 C184.674,41.301 185.086,41.929 185.506,42.527 L185.506,42.527 Z" id="Fill-81"></path>
                <path d="M187.303,38.189 C187.129,37.463 187.063,36.745 186.855,36.047 L186.597,35.007 C186.501,34.664 186.375,34.329 186.267,33.995 C186.06,33.323 185.767,32.685 185.515,32.047 C185.199,31.429 184.918,30.81 184.541,30.24 C184.216,29.647 183.808,29.104 183.425,28.56 C183.005,28.036 182.602,27.51 182.136,27.032 C181.688,26.544 181.209,26.081 180.716,25.641 C180.224,25.196 179.697,24.791 179.176,24.383 C178.636,23.993 178.098,23.606 177.526,23.26 C176.971,22.895 176.39,22.561 175.801,22.243 C175.214,21.922 174.608,21.631 174.005,21.335 C173.395,21.05 172.776,20.783 172.149,20.53 C171.518,20.288 170.89,20.037 170.25,19.815 C169.608,19.596 168.962,19.388 168.31,19.201 C167.662,19.003 167.008,18.826 166.353,18.663 C165.717,18.508 165.001,18.36 164.458,18.265 L167.351,15.196 L167.817,17.211 L168.357,19.196 L168.965,21.15 L169.668,23.057 C169.935,23.673 170.159,24.319 170.464,24.913 C170.748,25.523 171.029,26.132 171.355,26.714 C171.65,27.32 172.029,27.861 172.356,28.446 C172.728,28.993 173.078,29.565 173.492,30.081 C173.885,30.619 174.311,31.123 174.746,31.627 C175.193,32.118 175.659,32.592 176.145,33.05 C177.127,33.951 178.199,34.769 179.364,35.475 C179.944,35.834 180.549,36.16 181.174,36.454 C181.803,36.74 182.45,37 183.113,37.238 C184.442,37.697 185.839,38.046 187.303,38.189 Z M187.303,38.189 C185.879,38.609 184.359,38.696 182.847,38.616 C182.084,38.591 181.332,38.466 180.576,38.326 C179.824,38.174 179.075,37.981 178.335,37.74 C176.864,37.245 175.442,36.555 174.119,35.701 L173.141,35.036 L172.212,34.306 C171.617,33.792 171.006,33.282 170.473,32.704 C169.908,32.15 169.415,31.541 168.897,30.945 C168.427,30.322 167.933,29.702 167.518,29.043 C167.077,28.395 166.664,27.733 166.295,27.048 C165.894,26.376 165.586,25.67 165.232,24.978 C164.898,24.28 164.616,23.564 164.316,22.852 L163.541,20.686 C163.315,19.958 163.101,19.224 162.895,18.491 L161.442,12.583 L165.244,13.21 C166.128,13.356 166.825,13.532 167.595,13.724 C168.343,13.92 169.084,14.132 169.818,14.368 C171.279,14.855 172.716,15.415 174.113,16.078 C175.505,16.752 176.871,17.497 178.16,18.38 C178.805,18.818 179.443,19.27 180.051,19.767 C180.665,20.254 181.244,20.79 181.816,21.327 C182.379,21.881 182.917,22.456 183.416,23.069 C183.914,23.68 184.403,24.303 184.817,24.977 C185.253,25.634 185.627,26.331 185.982,27.03 C186.295,27.754 186.628,28.461 186.848,29.212 C187.105,29.948 187.25,30.715 187.42,31.462 C187.517,32.227 187.682,32.971 187.67,33.737 C187.714,34.494 187.687,35.247 187.631,35.991 C187.581,36.734 187.429,37.47 187.303,38.189 L187.303,38.189 Z" id="Fill-82"></path>
            </g>
        </g>
    </g>
</svg>
