<?xml version="1.0" encoding="UTF-8"?>
<svg width="257px" height="578px" viewBox="0 0 257 578" version="1.1" xmlns="http://www.w3.org/2000/svg" xmlns:xlink="http://www.w3.org/1999/xlink">
    <!-- Generator: Sketch 61.2 (89653) - https://sketch.com -->
    <title>Shape</title>
    <desc>Created with Sketch.</desc>
    <g id="Page-1" stroke="none" stroke-width="1" fill="none" fill-rule="evenodd">
        <g id="Artboard-1" transform="translate(-874.000000, -382.000000)" fill-rule="nonzero" stroke="#8a6960" stroke-width="3">
            <path d="M1121.39,674.3 C1121.29359,674.01342 1121.07268,673.785851 1120.7891,673.680962 C1120.50551,673.576074 1120.18969,673.605129 1119.93,673.76 C1094.75,693.49 1059.68,703.01 1041.53,730.92 C1034.53,741.63 1032.33,754.72 1031.82,767.42 C1029.76,757.42 1027.56,747.42 1025.35,737.42 C1018.03,704.42 1011.79,671.42 1005.48,638.23 C1026.87,640.78 1045.61,627.09 1058.95,611.48 C1073.44,594.53 1075.95,570.36 1092.95,555.18 C1093.2504,554.855601 1093.38385,554.41049 1093.31149,553.974327 C1093.23912,553.538164 1092.96907,553.160003 1092.58,552.95 C1078.61999,546.488324 1062.66718,545.82662 1048.22,551.11 C1048.13723,551.047584 1048.03158,551.023874 1047.93008,551.04494 C1047.82858,551.066006 1047.74109,551.129802 1047.69,551.22 L1047.63,551.32 C1037.42038,555.260658 1028.29309,561.57059 1021,569.73 C1010.45162,581.427082 1003.41871,595.863782 1000.71,611.38 C997.65,592.65 995.23,573.89 993.83,554.97 C1023.92,544.36 1044.31,510.58 1038.05,479.12 C1033.85,457.99 1021.49,439.55 1015.34,419.03 C1013.03,411.31 1013,404.79 1013.48,396.96 C1013.72,393.04 1014.24,388.89 1013.28,385.07 C1013.16596,384.717733 1012.87481,384.451572 1012.51375,384.369513 C1012.15269,384.287453 1011.7751,384.401628 1011.52,384.67 C1003.28,393.67 992.46,399.28 982.15,405.48 C972.260193,411.282859 963.717836,419.123011 957.09,428.48 C945.09,445.48 939.63,467.21 940.03,487.85 C940.33,504.08 943.9,520.95 952.51,534.85 C956.408533,541.282435 961.880343,546.616589 968.41,550.35 C974.67,553.86 981.41,554.66 988.29,554.56 C988.45,558.25 988.65,561.95 988.94,565.64 C991.59,600.26 998.44,634.06 1004.7,668.15 C1006.57,678.31 1008.59,688.43 1010.7,698.53 C1008.12066,693.314748 1005.1102,688.324064 1001.7,683.61 C993,671.72 981.07,663.39 968.32,656.34 C954.4,648.65 938.78,642.91 922.86,641.6 C906.5,640.24 890.59,647.6 876.39,654.85 C875.907664,655.166379 875.625568,655.711678 875.644971,656.288156 C875.666453,656.864633 875.986465,657.388581 876.49,657.67 C906.6,675 918.53,711 947.07,730.32 C959.34,738.6 973.34,740.79 987.88,739.16 C997.88,738.03 1009.75,734.48 1016.64,726.59 C1019.55,739.94 1022.5,753.28 1025.37,766.66 C1031.12088,793.237436 1034.7589,820.228402 1036.25,847.38 C1025.83,823.88 1002.68,806.78 978.36,799.32 C954.93,792.14 919.18,788.47 903.31,811.79 C902.941694,812.45232 903.078444,813.281107 903.64,813.79 C926.2,833.55 939.86,863.6 968.14,876.51 C987.64,885.41 1026.3,886.17 1036.5,863.11 C1036.6143,863.146115 1036.73136,863.17287 1036.85,863.19 C1036.85,864.96 1036.92,866.73 1036.94,868.5 L1036.94,868.87 C1036.77,870.87 1036.63,872.93 1036.55,874.98 C1036.39,879.24 1036.39,883.5 1036.43,887.77 C1036.21,891.19 1036,894.63 1035.83,898.06 C1035.21,910.06 1032.24,921.67 1031.74,933.61 C1030.54328,938.667263 1029.87305,943.834777 1029.74,949.03 C1029.71928,949.704966 1030.02441,950.348716 1030.56,950.76 C1030.56,950.9 1030.56,951.03 1030.56,951.16 C1030.64035,952.066593 1031.22459,952.850586 1032.07037,953.186783 C1032.91614,953.522979 1033.87918,953.354024 1034.56,952.75 C1034.67,953.6 1034.75,954.45 1034.79,955.32 C1034.93,958.11 1039.2,958.66 1039.79,955.82 C1041.05317,949.068761 1041.76883,942.226502 1041.93,935.36 C1043.5,928.53 1043.93,921.16 1044.56,914.91 C1045.70002,901.63109 1045.70002,888.27891 1044.56,875 C1044.11,868.79 1043.51,862.57 1042.83,856.35 C1042.59,849.25 1042.23,842.18 1041.75,835.14 C1040.61215,819.497115 1038.62589,803.927537 1035.8,788.5 C1040.34,785.04 1047.39,785.39 1052.9,785.5 C1059.96,785.64 1067.04,786.5 1074.1,785.98 C1089.84,784.78 1106.1,774.08 1115.99,762.33 C1136.71,737.74 1127.37,702.45 1121.31,674.33 M1036.31,627.95 C1026.7,634.24 1016.17,636.44 1004.92,635.95 L1004.32,632.79 C1005.08,631.23 1005.86,629.69 1006.68,628.15 C1006.61,628.39 1006.54,628.62 1006.49,628.86 C1006.47147,629.001173 1006.55149,629.136819 1006.68401,629.188882 C1006.81654,629.240945 1006.96749,629.196037 1007.05,629.08 C1014.3,615.97 1027.43,611.01 1040.53,605.16 C1049.24,601.28 1061.34,599.52 1067.53,591.68 C1065.61273,595.798937 1063.46259,599.805416 1061.09,603.68 C1055.09,613.35 1045.77,621.68 1036.32,627.89 M1071.02,550.74 C1077.19044,551.035753 1083.27085,552.339663 1089.02,554.6 C1081.11,554.02 1072.97,557.82 1066.02,561.24 C1065.23,561.63 1064.45,562.06 1063.67,562.48 C1064.16528,560.995189 1064.73602,559.536625 1065.38,558.11 C1066.75665,555.324899 1068.64636,552.824508 1070.95,550.74 M1063.33,565.74 C1070.63,561.74 1078.6,557.74 1087.02,556.96 C1078.96,565.82 1074.31,576.8 1069.33,587.64 C1069.14493,587.568253 1068.93582,587.651026 1068.85,587.83 C1065.26,594.16 1057.85,597.49 1051.34,599.94 C1045.18,602.27 1039.2,604.62 1033.19,607.3 C1026.14,610.44 1016.99,614.01 1011.29,620.09 C1019.61,606.73 1030.09,594.41 1040.59,583.09 C1047.12957,576.043678 1054.81904,570.159919 1063.33,565.69 M1022.33,572.91 C1028.43239,565.699283 1036.02724,559.899085 1044.59,555.91 C1039.71,564.51 1036.98,574.19 1035.25,584.03 C1035.25,584.17 1035.44,584.28 1035.51,584.12 C1039.66,574.88 1040.42,564.31 1045.51,555.49 C1053.11913,552.125038 1061.37151,550.462958 1069.69,550.62 C1067.81181,552.012051 1066.2166,553.749814 1064.99,555.74 C1063.35693,558.078546 1062.23895,560.737156 1061.71,563.54 C1054.75506,567.643317 1048.4184,572.713989 1042.89,578.6 C1027.89,594.42 1013.27,611.6 1004.07,631.5 C1003.67667,629.36 1003.29,627.22 1002.91,625.08 C1002.92335,605.925106 1009.87563,587.423588 1022.48,573 M1031.72,467.18 C1038.04,485.04 1038.12,502.28 1029.52,519.36 C1021.8126,534.278625 1009.21221,546.095241 993.83,552.83 C993.783136,552.715157 993.715315,552.610035 993.63,552.52 C993.43,549.58 993.253333,546.636667 993.1,543.69 C999.3,538.55 1006.79,535.78 1012.95,530.35 C1020.95,523.35 1024.54,512.16 1028.71,502.73 C1028.86,502.39 1028.36,502.12 1028.2,502.46 C1023.53,512.46 1018.96,524.33 1010.01,531.33 C1005.29,535.02 997.81,537.12 993.01,541.33 C992.87,538.33 992.74,535.33 992.66,532.25 C992.36,521.25 992.36,510.17 991.56,499.18 C991.5,498.34 991.42,497.5 991.34,496.66 C991.970598,492.891591 993.01007,489.203143 994.44,485.66 C996.773032,480.440144 999.563943,475.437252 1002.78,470.71 C1009,461.09 1016.1,451.88 1018.65,440.51 C1018.65248,440.420871 1018.59266,440.342003 1018.50616,440.320378 C1018.41965,440.298752 1018.32975,440.340187 1018.29,440.42 C1013.84,452.05 1006.44,461.95 999.74,472.32 C996.22,477.77 992.66,484.1 990.69,490.71 C990.23,486.88 989.78,483.02 989.69,479.19 C989.69,477.44 989.69,475.69 989.69,473.94 C989.799618,471.979493 990.060392,470.030371 990.47,468.11 C990.504149,467.911717 990.420847,467.711527 990.256116,467.596001 C990.091385,467.480476 989.874791,467.470349 989.7,467.57 C989.7,455.91 989.87,444.25 992.43,432.99 C994.52,423.85 999,415.5 1003.43,407.32 C1005.72,403.1 1008.86,398.32 1011,393.51 C1011,394.32 1011,395.13 1010.95,395.91 C1010.64,401.34 1009.95,406.62 1010.95,411.99 C1014.77,431.45 1025.17,448.62 1031.73,467.16 M953,530.55 C945.24,516.79 942.51,500.02 942.37,484.41 C942.167574,463.186982 949.003893,442.495161 961.81,425.57 C974.1,409.57 993.69,403.57 1008.3,390.71 C1007.62,392.33 1006.97,393.96 1006.25,395.52 C1004.36,399.57 1002.34,403.57 1000.36,407.58 C996.36,415.58 992.66,423.81 990.36,432.5 C987.9,441.85 988.51,451.75 988.3,461.32 C988.2,466.18 988.06,471.09 988.01,475.99 C986.51,488.42 987.66,501.07 987.7,513.59 C987.7,517.81 987.7,522.02 987.7,526.23 C982.45,514.23 971.33,504.33 965.42,492.89 C956.93,476.43 951.3,451.26 960.06,433.89 C960.06,433.83 959.99,433.77 959.96,433.84 C951.77,450.76 954.64,469.17 961.05,486.34 C964.26,494.94 969.05,502.4 974.52,509.74 C979.634305,516.369252 984.076193,523.491011 987.78,531 C987.78,535.3 987.85,539.6 987.94,543.9 C983.08,542.06 978.44,540.56 973.94,537.62 C968.312891,533.86977 963.486268,529.039747 959.74,523.41 C959.65201,523.315426 959.50936,523.296424 959.399682,523.364668 C959.290005,523.432912 959.244029,523.569281 959.29,523.69 C964.97,532.9 976.18,544.69 987.94,545.26 C987.986667,547.553333 988.053333,549.84 988.14,552.12 C981.33,551.96 974.98,551.12 968.69,547.55 C961.84,543.69 956.81,537.27 953,530.55 M921.32,645.06 C937.11,645.73 952.78,652.21 966.52,659.61 C979.3,666.5 990.77,675.05 999.37,686.85 C1005.28,694.94 1009.37,703.95 1013.19,713.12 C1008.34,709.23 1001.38,707.58 995.35,705.27 C994.49,704.94 993.64,704.58 992.8,704.21 C984.93,694.91 986.48,681.87 983.38,670.59 C983.32,670.35 982.98,670.47 983.02,670.7 C984.33,677.49 984.57,684.45 985.86,691.25 C986.56,694.93 987.72,699.88 990.4,703.08 C977.4,696.67 967.09,685.98 956.02,676.86 C945.78,668.42 932.9,663.27 920.32,659.47 C909.41,656.17 896.81,653.77 885.05,654.26 C896.46,648.9 908.63,644.53 921.32,645.06 M880.55,656.44 L880.79,656.32 C907.69,657.04 934.67,660.97 955.96,679.08 C958.46,681.22 960.96,683.37 963.37,685.51 C957.09,682.43 947.56,686.59 942.02,688.81 C933.91,692.05 923.02,696.81 915.1,692.51 C905,679.07 895,665.64 880.55,656.44 M982.55,736.69 C972.849687,737.336979 963.153262,735.372141 954.47,731 C971.88,732.77 987.32,720 1001.24,711.19 C1001.51,711.02 1001.31,710.54 1001,710.67 C993.28,713.82 987,719.44 980,723.81 C971.61,729.05 962.83,730.1 953.24,730.37 C948.794482,727.996994 944.62284,725.143242 940.8,721.86 C931.28,713.78 923.68,703.86 916.19,693.94 C921.19,695.94 926.98,694.94 932.83,692.94 C943.37,689.32 954.83,682.29 965.68,688.01 C965.75489,688.057725 965.847519,688.068506 965.931368,688.039256 C966.015218,688.010006 966.081043,687.943951 966.11,687.86 C973.38,694.12 980.73,700.12 989.31,704.86 C993.18,707.03 997.93,708.49 1002.48,710.27 C1002.30084,710.761965 1002.37703,711.310731 1002.68343,711.735286 C1002.98983,712.15984 1003.48664,712.405038 1004.01,712.39 C1004.60832,712.388684 1005.14614,712.024863 1005.37,711.47 C1008.97976,712.909535 1012.20732,715.165067 1014.8,718.06 L1016.03,723.74 C1007.84,732.81 994.4,735.94 982.55,736.62 M1124.74,704.5 C1124.68996,704.262747 1124.45741,704.110694 1124.22,704.16 C1119.83,704.95 1115.48,707.16 1111.36,708.83 C1108.25612,709.996689 1105.21826,711.332011 1102.26,712.83 C1111.19,702.83 1117.85,691.32 1119.94,677.07 C1121.6,685.92 1123.51,695.19 1124.74,704.48 M1043.21,731.74 C1050.32,720.09 1062.08,711.58 1073.74,704.37 C1071.22856,708.787996 1069.01368,713.368099 1067.11,718.08 C1065.11,723.39 1064.11,729.08 1062.86,734.59 C1062.86,734.617614 1062.88239,734.64 1062.91,734.64 C1062.93761,734.64 1062.96,734.617614 1062.96,734.59 C1065.57975,724.051043 1069.35251,713.832748 1074.21,704.12 C1074.21,704.12 1074.21,704.12 1074.21,704.05 C1076.21,702.843333 1078.17667,701.66 1080.11,700.5 C1093.23,692.74 1106.85,685.83 1119.11,676.71 C1115.04,703.39 1094.88,720.23 1074.3,735.61 C1059.91,746.37 1039.57,759.28 1033.85,777.44 L1033.4,775.12 C1033.18,759.93 1035.04,745.12 1043.21,731.71 M1027.83,853.2 C1025.88533,850.1477 1024.43733,846.806149 1023.54,843.3 C1022.33,838.67 1021.37,833.97 1020.28,829.3 C1027.55233,837.453015 1033.13054,846.970975 1036.69,857.3 L1036.69,858.54 C1033.71667,856.76 1030.75333,854.966667 1027.8,853.16 M1019.58,828.52 C1020.72,833.98 1021.06,839.63 1022.42,845.08 C1022.90488,847.12755 1023.5502,849.133749 1024.35,851.08 C1018.54,847.57 1012.69,844.08 1006.7,840.92 L1005.94,840.52 C1002.90482,836.238546 1000.54405,831.517019 998.94,826.52 C996.94,820.43 995.41,814.2 992.81,808.35 C1002.90086,813.355861 1011.97462,820.191698 1019.57,828.51 M977.57,802.33 C982.253263,803.717038 986.820587,805.469072 991.23,807.57 C994.5,814.64 995.99,822.36 998.46,829.72 C999.421242,832.778046 1000.6632,835.740658 1002.17,838.57 C992.34,833.57 982.24,829.42 971.98,825.37 C952.09,817.53 929.21,808.02 907.38,811.52 C922.77,791.22 956.38,796.02 977.57,802.33 M907.86,812.98 C919.16,812.88 930.08,813.6 941.09,816.52 C946.870718,818.083016 952.565246,819.948925 958.15,822.11 C948.15,825.74 929.01,835.83 920.67,826.53 C920.58,826.42 920.48,826.31 920.39,826.19 C920.169962,825.93397 919.963031,825.666961 919.77,825.39 C919.733423,825.335318 919.675181,825.298917 919.61,825.29 C915.957587,820.942325 912.033039,816.830734 907.86,812.98 M1002.82,878 C989.236185,879.470795 975.529923,876.704393 963.58,870.08 C946.58,860.53 935.27,844.31 922.92,829.32 C932.98,836.04 949.3,826.27 959.35,822.7 C964.43,824.65 969.45,826.7 974.45,828.86 C981.45,831.8 988.21,834.86 994.83,838.36 C990.01,837.78 984.24,839.51 980.45,840.63 C969.71,843.81 956.13,850.63 945.45,843.91 C945.1,843.69 944.78,844.28 945.15,844.46 C953.57,848.87 962.15,847.61 970.97,845.27 C975.91,843.97 980.72,842.21 985.7,841.05 C991.48,839.71 995.7,840.46 1001.05,842.61 C1001.36,842.73 1001.76,842.42 1001.53,842.09 C1001.50644,842.054292 1001.47967,842.020819 1001.45,841.99 C1002.66,842.68 1003.86,843.39 1005.05,844.11 C1014.33,849.74 1023.5,855.56 1032.88,861.02 C1026.2,858.68 1017.88,861.47 1011.56,863.54 C1001.45,866.85 990.25,871.67 979.93,866.46 C979.798688,866.412032 979.652114,866.468269 979.586588,866.591761 C979.521062,866.715253 979.556663,866.868155 979.67,866.95 C987.41,871.05 995.28,870.05 1003.43,867.78 C1008.24,866.45 1012.95,864.78 1017.79,863.48 C1023.47,861.99 1028.43,862.08 1034.21,862.37 C1034.30812,862.372968 1034.40298,862.334592 1034.47144,862.264234 C1034.53989,862.193876 1034.57565,862.098003 1034.57,862 L1034.78,862.13 C1027.9,872.65 1014.88,876.77 1002.78,878 M1109.6,765.12 C1097.75,776.64 1080.6,782.82 1064.23,782.12 C1056.23,781.74 1044.66,779.88 1036.91,783.86 C1039.91,774.22 1046.6,764.86 1052.75,757.86 C1061.08,748.29 1070.66,740.18 1080.67,732.45 C1087.93802,726.973946 1094.73811,720.90303 1101,714.3 L1101.06,714.3 C1105.29,713.15 1109.33,711.3 1113.42,709.76 C1117.14,708.36 1121.23,707.15 1124.56,704.94 C1124.67878,704.864383 1124.74758,704.730607 1124.74,704.59 C1126.01,714.17 1126.54,723.77 1125.31,732.92 C1114.65,741.33 1100.31,739.27 1087.61,741.48 C1073.05,744.02 1061.15,752.12 1050.73,762.18 C1050.47,762.43 1050.87,762.79 1051.13,762.56 C1063.82,751.48 1077.41,743.56 1094.44,742.02 C1103.44,741.22 1117.33,741.75 1124.96,735.19 C1123.2595,746.577844 1117.86245,757.090855 1109.6,765.11" id="Shape" transform="translate(1002.195728, 671.021436) scale(-1, -1) translate(-1002.195728, -671.021436) "></path>
        </g>
    </g>
</svg>
