<?xml version="1.0" encoding="UTF-8"?>
<svg width="1059px" height="121px" viewBox="0 0 1059 121" version="1.1" xmlns="http://www.w3.org/2000/svg" xmlns:xlink="http://www.w3.org/1999/xlink">
    <g id="Page-1" class="title_svg__g" stroke-width="1" fill="none" fill-rule="evenodd" stroke="#e2ddd7">
        <path d="M0,43.5512414 L26.0425618,43.5512414 L48.980049,26.2798692 C68.7122977,12.0209456 91.2491301,0.67405567 116.189891,4.89148377 C138.62656,8.70725206 158.959791,24.2715701 165.770922,46.4632751 C172.48189,68.1529053 166.572232,92.9553992 148.242275,107.013493 C131.014119,120.268267 106.173521,122.276566 88.4445465,108.921377 C71.5168813,96.1686777 63.4036217,71.7678437 73.620319,52.2873425 C83.5365252,33.409331 107.074995,22.4641009 127.308062,31.2002019 C147.641293,40.036718 157.056681,64.7387969 144.235727,83.7172233 C138.62656,91.9512496 129.211172,97.4740722 119.094639,97.1728273 C109.37876,96.8715824 99.6628808,91.4491749 94.5545322,83.1147336 C84.2376711,66.4458511 97.5594431,43.6516563 116.390219,43.5512414 L118.693984,43.5512414 L126.70708,43.5512414 L152.749641,43.5512414 L175.687129,26.2798692 C195.419377,12.0209456 217.95621,0.67405567 242.896971,4.89148377 C265.33364,8.70725206 285.66687,24.2715701 292.478002,46.4632751 C299.18897,68.1529053 293.279312,92.9553992 274.949355,107.013493 C257.721198,120.268267 232.880601,122.276566 215.151626,108.921377 C198.223961,96.1686777 190.110701,71.7678437 200.327399,52.2873425 C210.243605,33.409331 233.782074,22.4641009 254.015141,31.2002019 C274.348372,40.036718 283.76376,64.7387969 270.942807,83.7172233 C265.33364,91.9512496 255.918252,97.4740722 245.801718,97.1728273 C236.085839,96.8715824 226.36996,91.4491749 221.261612,83.1147336 C210.944751,66.4458511 224.266523,43.6516563 243.097298,43.5512414 L245.401063,43.5512414 L253.414159,43.5512414 L279.456721,43.5512414 L302.394208,26.2798692 C322.126457,12.0209456 344.663289,0.67405567 369.604051,4.89148377 C392.040719,8.70725206 412.37395,24.2715701 419.185082,46.4632751 C425.89605,68.1529053 419.986391,92.9553992 401.656434,107.013493 C384.428278,120.268267 359.587681,122.276566 341.858706,108.921377 C324.931041,96.1686777 316.817781,71.7678437 327.034478,52.2873425 C336.950685,33.409331 360.489154,22.4641009 380.722221,31.2002019 C401.055452,40.036718 410.47084,64.7387969 397.649886,83.7172233 C392.040719,91.9512496 382.625331,97.4740722 372.508798,97.1728273 C362.792919,96.8715824 353.07704,91.4491749 347.968691,83.1147336 C337.65183,66.4458511 350.973602,43.6516563 369.804378,43.5512414 L372.108143,43.5512414 L380.121239,43.5512414 L406.163801,43.5512414 L428.900961,26.2798692 C448.633209,12.0209456 471.170042,0.67405567 496.110803,4.89148377 C518.547471,8.70725206 538.880702,24.2715701 545.691834,46.4632751 C552.402802,68.1529053 546.493144,92.9553992 528.163187,107.013493 C510.93503,120.268267 486.094433,122.276566 468.365458,108.921377 C451.437793,96.1686777 443.324533,71.7678437 453.541231,52.2873425 C463.457437,33.409331 486.995906,22.4641009 507.228973,31.2002019 C527.562204,40.036718 536.977592,64.7387969 524.156639,83.7172233 C518.547471,91.9512496 509.132084,97.4740722 499.01555,97.1728273 C489.299671,96.8715824 479.583792,91.4491749 474.475444,83.1147336 C464.158583,66.4458511 477.480355,43.6516563 496.31113,43.5512414 L498.614895,43.5512414 L506.627991,43.5512414 L532.670553,43.5512414 L555.60804,26.2798692 C575.340289,12.0209456 597.877121,0.67405567 622.817882,4.89148377 C645.254551,8.70725206 665.587782,24.2715701 672.398914,46.4632751 C679.109881,68.1529053 673.200223,92.9553992 654.870266,107.013493 C637.64211,120.268267 612.801512,122.276566 595.072538,108.921377 C578.144873,96.1686777 570.031613,71.7678437 580.24831,52.2873425 C590.164516,33.409331 613.702986,22.4641009 633.936053,31.2002019 C654.269284,40.036718 663.684672,64.7387969 650.863718,83.7172233 C645.254551,91.9512496 635.839163,97.4740722 625.72263,97.1728273 C616.006751,96.8715824 606.290872,91.4491749 601.182523,83.1147336 C590.865662,66.4458511 604.187434,43.6516563 623.01821,43.5512414 L625.321975,43.5512414 L633.335071,43.5512414 L659.377633,43.5512414 L682.31512,26.2798692 C702.047369,12.0209456 724.584201,0.67405567 749.524962,4.89148377 C771.961631,8.70725206 792.294862,24.2715701 799.105993,46.4632751 C805.816961,68.1529053 799.907303,92.9553992 781.577346,107.013493 C764.34919,120.268267 739.508592,122.276566 721.779617,108.921377 C704.851952,96.1686777 696.738693,71.7678437 706.95539,52.2873425 C716.871596,33.409331 740.410065,22.4641009 760.643133,31.2002019 C780.976364,40.036718 790.391751,64.7387969 777.570798,83.7172233 C771.961631,91.9512496 762.546243,97.4740722 752.429709,97.1728273 C742.713831,96.8715824 732.997952,91.4491749 727.889603,83.1147336 C717.572742,66.4458511 730.894514,43.6516563 749.725289,43.5512414 L752.029055,43.5512414 L760.042151,43.5512414 L786.084712,43.5512414 L809.022199,26.2798692 C828.554121,12.0209456 851.090953,0.67405567 876.031714,4.89148377 C898.468383,8.70725206 918.801614,24.2715701 925.612746,46.4632751 C932.323713,68.1529053 926.414055,92.9553992 908.084098,107.013493 C890.855942,120.268267 866.015344,122.276566 848.28637,108.921377 C831.358704,96.1686777 823.245445,71.7678437 833.462142,52.2873425 C843.378348,33.409331 866.916818,22.4641009 887.149885,31.2002019 C907.483116,40.036718 916.898504,64.7387969 904.07755,83.7172233 C898.468383,91.9512496 889.052995,97.4740722 878.936462,97.1728273 C869.220583,96.8715824 859.504704,91.4491749 854.396355,83.1147336 C844.079494,66.4458511 857.401266,43.6516563 876.232042,43.5512414 L878.535807,43.5512414 L886.548903,43.5512414 L912.591465,43.5512414 L935.528952,26.2798692 C955.261201,12.0209456 977.798033,0.67405567 1002.73879,4.89148377 C1025.17546,8.70725206 1045.50869,24.2715701 1052.31983,46.4632751 C1059.03079,68.1529053 1053.12113,92.9553992 1034.79118,107.013493 C1017.56302,120.268267 992.722424,122.276566 974.993449,108.921377 C958.065784,96.1686777 949.952524,71.7678437 960.169222,52.2873425 C970.085428,33.409331 993.623897,22.4641009 1013.85696,31.2002019 C1034.1902,40.036718 1043.60558,64.7387969 1030.78463,83.7172233 C1025.17546,91.9512496 1015.76007,97.4740722 1005.64354,97.1728273 C995.927662,96.8715824 986.211784,91.4491749 981.103435,83.1147336 C970.786574,66.4458511 984.108346,43.6516563 1002.93912,43.5512414 L1005.24289,43.5512414" id="Path"  stroke-width="8"></path>
    </g>
</svg>
