 <svg version="1.0" xmlns="http://www.w3.org/2000/svg" width="700.000000pt" height="213.000000pt" viewBox="0 0 700.000000 213.000000" preserveAspectRatio="xMidYMid meet">
<metadata>
Created by potrace 1.12, written by Peter Selinger 2001-2015
</metadata>
<g transform="translate(0.000000,213.000000) scale(0.100000,-0.100000)" fill="#f3f1ef" stroke="none">
<path d="M650 1714 c-239 -20 -419 -62 -556 -129 -52 -25 -94 -50 -94 -55 0
-14 5 -13 140 20 227 55 381 73 625 73 429 0 714 -68 1251 -299 337 -145 455
-189 614 -233 l135 -37 17 -69 c53 -219 231 -419 472 -530 214 -100 587 -141
843 -94 46 8 79 8 126 0 89 -15 296 -14 392 3 171 30 308 74 473 152 157 74
271 151 542 369 342 274 507 378 682 429 162 46 290 42 436 -14 82 -32 104
-24 40 14 -130 76 -230 100 -393 93 -94 -3 -135 -10 -190 -29 -147 -53 -300
-144 -525 -316 -69 -53 -197 -151 -286 -218 -428 -326 -689 -444 -984 -444
-38 0 -71 4 -74 8 -3 5 18 17 47 27 120 42 308 129 445 206 137 76 224 131
722 451 214 138 485 276 615 314 109 32 281 42 407 25 101 -15 290 -63 370
-96 44 -18 58 -20 58 -10 0 8 -39 28 -92 49 -325 124 -630 139 -928 44 -232
-74 -430 -182 -890 -488 -486 -323 -634 -408 -834 -475 l-84 -29 -59 18 c-240
75 -418 281 -440 511 -3 34 -3 78 1 98 6 33 10 36 98 67 357 124 615 358 554
503 -28 69 -109 84 -227 44 -93 -32 -170 -81 -262 -167 -98 -91 -169 -197
-201 -299 l-24 -76 -73 -17 c-129 -30 -263 -41 -438 -35 -91 3 -193 12 -226
20 l-60 13 1 45 c3 89 91 206 192 258 118 60 339 90 539 73 l128 -11 29 29
c17 16 27 32 24 36 -4 3 -48 12 -100 20 -124 19 -339 18 -436 -1 -103 -21
-228 -83 -292 -145 -58 -57 -115 -165 -125 -241 -7 -50 -7 -50 -39 -43 -71 15
-336 113 -546 201 -591 249 -827 325 -1132 368 -109 15 -332 25 -408 19z
m3571 -134 c61 -33 -30 -170 -184 -274 -88 -60 -329 -164 -336 -144 -2 5 17
51 42 102 70 140 191 262 305 307 52 20 143 25 173 9z m-610 -596 c10 -118 44
-206 125 -320 59 -84 160 -174 247 -220 l72 -39 -70 -9 c-88 -12 -355 6 -480
33 -109 23 -253 76 -331 122 -80 47 -215 178 -271 262 -46 70 -93 179 -93 218
0 17 5 20 28 15 185 -38 573 -31 717 13 17 5 35 8 40 7 6 -2 13 -38 16 -82z"></path>
</g>
</svg>
