 <svg version="1.0" xmlns="http://www.w3.org/2000/svg" width="700.000000pt" height="220.000000pt" viewBox="0 0 700.000000 220.000000" preserveAspectRatio="xMidYMid meet">
<metadata>
Created by potrace 1.12, written by Peter Selinger 2001-2015
</metadata>
<g transform="translate(0.000000,220.000000) scale(0.100000,-0.100000)" fill="#e2ddd7" stroke="none">
<path d="M410 1943 c-85 -8 -168 -26 -212 -45 -44 -19 -48 -24 -48 -54 0 -31
3 -34 43 -45 59 -17 278 -17 582 1 332 19 1382 20 1780 2 430 -20 472 -25 621
-71 72 -22 160 -45 195 -51 48 -9 328 -11 1139 -5 1142 7 2012 -7 1987 -32
-14 -13 -405 -25 -1162 -33 -467 -5 -915 -14 -995 -20 -402 -28 -702 -70 -955
-135 -318 -81 -506 -175 -651 -326 -75 -79 -109 -131 -151 -234 l-32 -80 -183
1 c-199 1 -314 17 -447 60 -106 34 -176 73 -203 113 -22 32 -32 36 -183 77
-315 84 -407 125 -589 264 -68 52 -88 33 -37 -37 78 -108 358 -268 656 -375
265 -95 663 -165 947 -168 35 0 37 -2 43 -37 9 -66 46 -165 79 -217 54 -84
165 -178 269 -230 142 -69 194 -80 392 -80 157 0 177 2 258 27 100 31 241 99
338 163 74 49 196 173 250 254 20 30 76 115 123 188 106 162 192 254 306 331
168 112 322 160 540 168 119 4 167 2 269 -16 137 -23 171 -26 171 -11 0 5 -17
18 -38 29 -244 124 -657 118 -1139 -19 -146 -41 -306 -96 -678 -233 -477 -175
-729 -240 -975 -249 -112 -4 -110 -7 -53 111 43 89 154 210 252 276 142 94
389 189 606 234 227 46 672 91 1105 111 173 8 1153 22 2062 30 38 0 54 6 79
28 18 16 29 33 26 39 -3 5 -76 13 -164 16 -87 4 -302 13 -478 21 -176 8 -516
17 -755 21 -892 12 -1829 58 -1927 96 -25 9 -609 38 -1288 64 -520 20 -951 40
-1370 65 -181 11 -339 19 -350 18 -11 0 -36 -3 -55 -5z m4225 -678 c-390 -176
-676 -457 -760 -747 -15 -52 -23 -62 -83 -108 -132 -100 -307 -170 -464 -186
-137 -14 -330 36 -454 117 -82 53 -190 167 -220 233 -28 60 -49 155 -37 166 4
4 69 12 143 19 260 22 521 90 935 241 615 226 878 307 1005 309 30 1 20 -6
-65 -44z"></path>
</g>
</svg>
