<?xml version="1.0" encoding="UTF-8"?>
<svg width="1047px" height="70px" viewBox="0 0 1047 70" version="1.1" xmlns="http://www.w3.org/2000/svg" xmlns:xlink="http://www.w3.org/1999/xlink">
    <!-- Generator: Sketch 61.2 (89653) - https://sketch.com -->
    <title>wave</title>
    <desc>Created with Sketch.</desc>
    <g id="Page-1"  fill="none" fill-rule="evenodd">
        <g id="WAVES" transform="translate(-1427.000000, -226.000000)" fill-rule="nonzero" >
            <g id="wave" transform="translate(1428.000000, 227.000000)" stroke-width="4" stroke="#e2ddd7">
                <path stroke-width="4" d="M173.818119,47.6269266 C171.413517,50.5269266 168.908723,53.8269266 165.402012,55.4269266 C160.192041,57.9269266 155.182453,55.5269266 154.781686,49.6269266 C154.481111,45.8269266 155.983987,42.1269266 156.384754,38.4269266 C156.785521,35.1269266 156.685329,31.9269266 156.184371,28.6269266 C154.280727,17.2269266 146.265387,6.92692657 135.645061,2.42692657 C124.924543,-2.07307343 112.20019,-0.0730734318 102.782165,6.42692657 C93.6647158,12.8269266 86.5511012,25.0269266 90.6589631,36.3269266 C94.9672086,48.2269266 112.099999,53.9269266 122.720325,46.9269266 C129.533364,42.4269266 130.334898,34.4269266 126.126844,27.9269266 C124.423584,25.2269266 122.319558,22.0269266 125.425502,19.4269266 C130.535281,15.2269266 136.045828,21.0269266 138.149855,25.4269266 C142.157525,33.6269266 140.955224,43.9269266 135.544869,51.2269266 C124.423584,66.4269266 104.084658,62.8269266 89.6570456,54.9269266 C74.5280907,46.7269266 61.4029708,34.1269266 44.169989,30.4269266 C31.2452527,27.6269266 18.1201328,31.0269266 8.5017244,39.8269266 C7.29942335,40.9269266 1.78887685,46.3269266 0.686767549,47.5269266 C-1.51745105,50.1269266 2.08945211,54.1269266 4.39386247,51.5269266 C5.39578001,50.3269266 10.9063265,45.0269266 12.0084358,44.0269266 C22.8291453,34.2269266 37.4571415,32.8269266 51.2836036,38.3269266 C66.212175,44.3269266 78.0348021,55.8269266 92.5626065,62.4269266 C105.086576,68.0269266 120.415914,69.9269266 132.338733,61.7269266 C142.959059,54.4269266 148.068838,40.9269266 144.862702,28.4269266 C142.4581,19.0269266 132.338733,7.42692657 122.119174,15.1269266 C119.01323,17.5269266 117.410162,21.2269266 118.412079,25.0269266 C119.514188,29.2269266 123.722242,32.1269266 123.421667,36.7269266 C122.720325,47.3269266 108.19252,46.3269266 101.88044,42.5269266 C92.6627982,36.9269266 93.965291,23.7269266 99.9767963,16.2269266 C108.693479,5.32692657 125.425502,1.92692657 137.348321,9.32692657 C144.061168,13.5269266 148.870373,20.6269266 150.573632,28.2269266 C152.377084,36.2269266 148.269222,43.6269266 149.471523,51.4269266 C150.373249,57.2269266 154.481111,61.6269266 160.592808,61.8269266 C167.906806,62.0269266 173.116777,56.6269266 177.525214,51.4269266 C179.729433,48.9269266 176.022338,44.9269266 173.818119,47.6269266 Z" id="Path"  ></path>
                <path stroke-width="4" d="M346.949471,47.6269266 C344.544869,50.5269266 342.040075,53.8269266 338.533364,55.4269266 C333.323393,57.9269266 328.313805,55.5269266 327.913038,49.6269266 C327.612463,45.8269266 329.115339,42.1269266 329.516106,38.4269266 C329.916873,35.1269266 329.816681,31.9269266 329.315722,28.6269266 C327.412079,17.2269266 319.396739,6.92692657 308.776413,2.42692657 C298.055895,-2.07307343 285.331542,-0.0730734318 275.913517,6.42692657 C266.796068,12.8269266 259.682453,25.0269266 263.790315,36.3269266 C268.09856,48.2269266 285.23135,53.9269266 295.851676,46.9269266 C302.664716,42.4269266 303.46625,34.4269266 299.258196,27.9269266 C297.554936,25.2269266 295.450909,22.0269266 298.556854,19.4269266 C303.666633,15.2269266 309.17718,21.0269266 311.281207,25.4269266 C315.288877,33.6269266 314.086576,43.9269266 308.676221,51.2269266 C297.554936,66.4269266 277.21601,62.8269266 262.788397,54.9269266 C247.659443,46.7269266 234.534323,34.1269266 217.301341,30.4269266 C204.376605,27.6269266 191.251485,31.0269266 181.633076,39.8269266 C180.430775,40.9269266 174.920229,46.3269266 173.818119,47.5269266 C171.613901,50.1269266 175.220804,54.1269266 177.525214,51.5269266 C178.527132,50.3269266 184.037678,45.0269266 185.139788,44.0269266 C195.960497,34.2269266 210.588493,32.8269266 224.414955,38.3269266 C239.343527,44.3269266 251.166154,55.8269266 265.693958,62.4269266 C278.217928,68.0269266 293.547266,69.9269266 305.470085,61.7269266 C316.090411,54.4269266 321.20019,40.9269266 317.994054,28.4269266 C315.589452,19.0269266 305.470085,7.42692657 295.250526,15.1269266 C292.144582,17.5269266 290.541513,21.2269266 291.543431,25.0269266 C292.64554,29.2269266 296.853594,32.1269266 296.553019,36.7269266 C295.851676,47.3269266 281.323872,46.3269266 275.011792,42.5269266 C265.79415,36.9269266 267.096643,23.7269266 273.108148,16.2269266 C281.824831,5.32692657 298.556854,1.92692657 310.479673,9.32692657 C317.19252,13.5269266 322.001724,20.6269266 323.704984,28.2269266 C325.508436,36.2269266 321.400574,43.6269266 322.602875,51.4269266 C323.504601,57.2269266 327.612463,61.6269266 333.72416,61.8269266 C341.038158,62.0269266 346.248129,56.6269266 350.656566,51.4269266 C352.860785,48.9269266 349.15369,44.9269266 346.949471,47.6269266 Z" id="Path"></path>
                <path stroke-width="4" d="M520.181015,47.6269266 C517.776413,50.5269266 515.271619,53.8269266 511.764908,55.4269266 C506.554936,57.9269266 501.545349,55.5269266 501.144582,49.6269266 C500.844006,45.8269266 502.346883,42.1269266 502.74765,38.4269266 C503.148417,35.1269266 503.048225,31.9269266 502.547266,28.6269266 C500.643623,17.2269266 492.628282,6.92692657 482.007956,2.42692657 C471.287439,-2.07307343 458.563086,-0.0730734318 449.145061,6.42692657 C440.027611,12.8269266 432.913997,25.0269266 437.021859,36.3269266 C441.330104,48.2269266 458.462894,53.9269266 469.08322,46.9269266 C475.896259,42.4269266 476.697793,34.4269266 472.48974,27.9269266 C470.78648,25.2269266 468.682453,22.0269266 471.788397,19.4269266 C476.898177,15.2269266 482.408723,21.0269266 484.51275,25.4269266 C488.52042,33.6269266 487.318119,43.9269266 481.907765,51.2269266 C470.78648,66.4269266 450.447554,62.8269266 436.019941,54.9269266 C420.890986,46.7269266 407.765866,34.1269266 390.532885,30.4269266 C377.608148,27.6269266 364.483028,31.0269266 354.86462,39.8269266 C353.662319,40.9269266 348.151772,46.3269266 347.049663,47.5269266 C344.845444,50.1269266 348.452348,54.1269266 350.756758,51.5269266 C351.758676,50.3269266 357.269222,45.0269266 358.371331,44.0269266 C369.192041,34.2269266 383.820037,32.8269266 397.646499,38.3269266 C412.575071,44.3269266 424.397698,55.8269266 438.925502,62.4269266 C451.449471,68.0269266 466.77881,69.9269266 478.701629,61.7269266 C489.321955,54.4269266 494.431734,40.9269266 491.225598,28.4269266 C488.820996,19.0269266 478.701629,7.42692657 468.48207,15.1269266 C465.376125,17.5269266 463.773057,21.2269266 464.774975,25.0269266 C465.877084,29.2269266 470.085138,32.1269266 469.784562,36.7269266 C469.08322,47.3269266 454.555416,46.3269266 448.243335,42.5269266 C439.025694,36.9269266 440.328187,23.7269266 446.339692,16.2269266 C455.056374,5.32692657 471.788397,1.92692657 483.711216,9.32692657 C490.424064,13.5269266 495.233268,20.6269266 496.936528,28.2269266 C498.739979,36.2269266 494.632118,43.6269266 495.834419,51.4269266 C496.736144,57.2269266 500.844006,61.6269266 506.955703,61.8269266 C514.269701,62.0269266 519.479673,56.6269266 523.88811,51.4269266 C526.092328,48.9269266 522.385234,44.9269266 520.181015,47.6269266 Z" id="Path" ></path>
                <path stroke-width="4" d="M693.312367,47.6269266 C690.907765,50.5269266 688.402971,53.8269266 684.896259,55.4269266 C679.686288,57.9269266 674.6767,55.5269266 674.275933,49.6269266 C673.975358,45.8269266 675.478234,42.1269266 675.879001,38.4269266 C676.279769,35.1269266 676.179577,31.9269266 675.678618,28.6269266 C673.774975,17.2269266 665.759634,6.92692657 655.139308,2.42692657 C644.418791,-2.07307343 631.694438,-0.0730734318 622.276413,6.42692657 C613.158963,12.8269266 606.045349,25.0269266 610.153211,36.3269266 C614.461456,48.2269266 631.594246,53.9269266 642.214572,46.9269266 C649.027611,42.4269266 649.829145,34.4269266 645.621092,27.9269266 C643.917832,25.2269266 641.813805,22.0269266 644.919749,19.4269266 C650.029529,15.2269266 655.540075,21.0269266 657.644102,25.4269266 C661.651772,33.6269266 660.449471,43.9269266 655.039117,51.2269266 C643.917832,66.4269266 623.578906,62.8269266 609.151293,54.9269266 C594.022338,46.7269266 580.897218,34.1269266 563.664236,30.4269266 C550.7395,27.6269266 537.61438,31.0269266 527.995972,39.8269266 C526.793671,40.9269266 521.283124,46.3269266 520.181015,47.5269266 C517.976796,50.1269266 521.583699,54.1269266 523.88811,51.5269266 C524.890027,50.3269266 530.400574,45.0269266 531.502683,44.0269266 C542.323393,34.2269266 556.951389,32.8269266 570.777851,38.3269266 C585.706422,44.3269266 597.529049,55.8269266 612.056854,62.4269266 C624.580823,68.0269266 639.910162,69.9269266 651.83298,61.7269266 C662.453306,54.4269266 667.563086,40.9269266 664.35695,28.4269266 C661.952348,19.0269266 651.83298,7.42692657 641.613421,15.1269266 C638.507477,17.5269266 636.904409,21.2269266 637.906327,25.0269266 C639.008436,29.2269266 643.21649,32.1269266 642.915914,36.7269266 C642.214572,47.3269266 627.686768,46.3269266 621.374687,42.5269266 C612.157046,36.9269266 613.459538,23.7269266 619.471044,16.2269266 C628.187726,5.32692657 644.919749,1.92692657 656.842568,9.32692657 C663.555416,13.5269266 668.36462,20.6269266 670.06788,28.2269266 C671.871331,36.2269266 667.763469,43.6269266 668.96577,51.4269266 C669.867496,57.2269266 673.975358,61.6269266 680.087055,61.8269266 C687.401053,62.0269266 692.611025,56.6269266 697.019462,51.4269266 C699.22368,48.9269266 695.616777,44.9269266 693.312367,47.6269266 Z" id="Path"></path>
                <path stroke-width="4" d="M866.54391,47.6269266 C864.139308,50.5269266 861.634514,53.8269266 858.127803,55.4269266 C852.917832,57.9269266 847.908244,55.5269266 847.507477,49.6269266 C847.206902,45.8269266 848.709778,42.1269266 849.110545,38.4269266 C849.511312,35.1269266 849.41112,31.9269266 848.910162,28.6269266 C847.006518,17.2269266 838.991178,6.92692657 828.370852,2.42692657 C817.650334,-2.07307343 804.925981,-0.0730734318 795.507956,6.42692657 C786.290315,12.8269266 779.276892,25.0269266 783.384754,36.3269266 C787.693,48.2269266 804.82579,53.9269266 815.446116,46.9269266 C822.259155,42.4269266 823.060689,34.4269266 818.852635,27.9269266 C817.149375,25.2269266 815.045349,22.0269266 818.151293,19.4269266 C823.261072,15.2269266 828.771619,21.0269266 830.875646,25.4269266 C834.883316,33.6269266 833.681015,43.9269266 828.27066,51.2269266 C817.149375,66.4269266 796.810449,62.8269266 782.382837,54.9269266 C767.253882,46.7269266 754.128762,34.1269266 736.89578,30.4269266 C723.971044,27.6269266 710.845924,31.0269266 701.227515,39.8269266 C700.025214,40.9269266 694.514668,46.3269266 693.412559,47.5269266 C691.20834,50.1269266 694.815243,54.1269266 697.119653,51.5269266 C698.121571,50.3269266 703.632118,45.0269266 704.734227,44.0269266 C715.554936,34.2269266 730.182932,32.8269266 744.009395,38.3269266 C758.937966,44.3269266 770.760593,55.8269266 785.288397,62.4269266 C797.812367,68.0269266 813.141705,69.9269266 825.064524,61.7269266 C835.68485,54.4269266 840.794629,40.9269266 837.588493,28.4269266 C835.183891,19.0269266 825.064524,7.42692657 814.844965,15.1269266 C811.739021,17.5269266 810.135953,21.2269266 811.13787,25.0269266 C812.239979,29.2269266 816.448033,32.1269266 816.147458,36.7269266 C815.446116,47.3269266 800.918311,46.3269266 794.606231,42.5269266 C785.388589,36.9269266 786.691082,23.7269266 792.702587,16.2269266 C801.41927,5.32692657 818.151293,1.92692657 830.074112,9.32692657 C836.786959,13.5269266 841.596164,20.6269266 843.299423,28.2269266 C845.102875,36.2269266 840.995013,43.6269266 842.197314,51.4269266 C843.09904,57.2269266 847.206902,61.6269266 853.318599,61.8269266 C860.632597,62.0269266 865.842568,56.6269266 870.251005,51.4269266 C872.455224,48.9269266 868.748129,44.9269266 866.54391,47.6269266 Z" id="Path" ></path>
                <path stroke-width="4" d="M1039.67526,47.6269266 C1037.27066,50.5269266 1034.76587,53.8269266 1031.25915,55.4269266 C1026.04918,57.9269266 1021.0396,55.5269266 1020.63883,49.6269266 C1020.33825,45.8269266 1021.84113,42.1269266 1022.2419,38.4269266 C1022.64266,35.1269266 1022.54247,31.9269266 1022.04151,28.6269266 C1020.13787,17.2269266 1012.12253,6.92692657 1001.5022,2.42692657 C990.781686,-2.07307343 978.057333,-0.0730734318 968.639308,6.42692657 C959.521859,12.8269266 952.408244,25.0269266 956.516106,36.3269266 C960.824351,48.2269266 977.957141,53.9269266 988.577467,46.9269266 C995.390507,42.4269266 996.192041,34.4269266 991.983987,27.9269266 C990.280727,25.2269266 988.1767,22.0269266 991.282645,19.4269266 C996.392424,15.2269266 1001.90297,21.0269266 1004.007,25.4269266 C1008.01467,33.6269266 1006.81237,43.9269266 1001.40201,51.2269266 C990.280727,66.4269266 969.941801,62.8269266 955.514188,54.9269266 C940.385234,46.7269266 927.260114,34.1269266 910.027132,30.4269266 C897.102396,27.6269266 883.977276,31.0269266 874.358867,39.8269266 C873.156566,40.9269266 867.64602,46.3269266 866.54391,47.5269266 C864.339692,50.1269266 867.946595,54.1269266 870.251005,51.5269266 C871.252923,50.3269266 876.763469,45.0269266 877.865579,44.0269266 C888.686288,34.2269266 903.314284,32.8269266 917.140746,38.3269266 C932.069318,44.3269266 943.891945,55.8269266 958.419749,62.4269266 C970.943719,68.0269266 986.273057,69.9269266 998.195876,61.7269266 C1008.8162,54.4269266 1013.92598,40.9269266 1010.71985,28.4269266 C1008.31524,19.0269266 998.195876,7.42692657 987.976317,15.1269266 C984.870373,17.5269266 983.267304,21.2269266 984.269222,25.0269266 C985.371331,29.2269266 989.579385,32.1269266 989.27881,36.7269266 C988.577467,47.3269266 974.049663,46.3269266 967.737583,42.5269266 C958.519941,36.9269266 959.822434,23.7269266 965.833939,16.2269266 C974.550622,5.32692657 991.282645,1.92692657 1003.20546,9.32692657 C1009.91831,13.5269266 1014.72752,20.6269266 1016.43078,28.2269266 C1018.23423,36.2269266 1014.12636,43.6269266 1015.32867,51.4269266 C1016.23039,57.2269266 1020.33825,61.6269266 1026.44995,61.8269266 C1033.76395,62.0269266 1038.97392,56.6269266 1043.38236,51.4269266 C1045.58658,48.9269266 1041.97967,44.9269266 1039.67526,47.6269266 Z" id="Path"></path>
                <path stroke-width="4" d="M1039.67526,47.6269266 C1037.27066,50.5269266 1034.76587,53.8269266 1031.25915,55.4269266 C1026.04918,57.9269266 1021.0396,55.5269266 1020.63883,49.6269266 C1020.33825,45.8269266 1021.84113,42.1269266 1022.2419,38.4269266 C1022.64266,35.1269266 1022.54247,31.9269266 1022.04151,28.6269266 C1020.13787,17.2269266 1012.12253,6.92692657 1001.5022,2.42692657 C990.781686,-2.07307343 978.057333,-0.0730734318 968.639308,6.42692657 C959.521859,12.8269266 952.408244,25.0269266 956.516106,36.3269266 C960.824351,48.2269266 977.957141,53.9269266 988.577467,46.9269266 C995.390507,42.4269266 996.192041,34.4269266 991.983987,27.9269266 C990.280727,25.2269266 988.1767,22.0269266 991.282645,19.4269266 C996.392424,15.2269266 1001.90297,21.0269266 1004.007,25.4269266 C1008.01467,33.6269266 1006.81237,43.9269266 1001.40201,51.2269266 C990.280727,66.4269266 969.941801,62.8269266 955.514188,54.9269266 C940.385234,46.7269266 927.260114,34.1269266 910.027132,30.4269266 C897.102396,27.6269266 883.977276,31.0269266 874.358867,39.8269266 C873.156566,40.9269266 867.64602,46.3269266 866.54391,47.5269266 C864.339692,50.1269266 867.946595,54.1269266 870.251005,51.5269266 C871.252923,50.3269266 876.763469,45.0269266 877.865579,44.0269266 C888.686288,34.2269266 903.314284,32.8269266 917.140746,38.3269266 C932.069318,44.3269266 943.891945,55.8269266 958.419749,62.4269266 C970.943719,68.0269266 986.273057,69.9269266 998.195876,61.7269266 C1008.8162,54.4269266 1013.92598,40.9269266 1010.71985,28.4269266 C1008.31524,19.0269266 998.195876,7.42692657 987.976317,15.1269266 C984.870373,17.5269266 983.267304,21.2269266 984.269222,25.0269266 C985.371331,29.2269266 989.579385,32.1269266 989.27881,36.7269266 C988.577467,47.3269266 974.049663,46.3269266 967.737583,42.5269266 C958.519941,36.9269266 959.822434,23.7269266 965.833939,16.2269266 C974.550622,5.32692657 991.282645,1.92692657 1003.20546,9.32692657 C1009.91831,13.5269266 1014.72752,20.6269266 1016.43078,28.2269266 C1018.23423,36.2269266 1014.12636,43.6269266 1015.32867,51.4269266 C1016.23039,57.2269266 1020.33825,61.6269266 1026.44995,61.8269266 C1033.76395,62.0269266 1038.97392,56.6269266 1043.38236,51.4269266 C1045.58658,48.9269266 1041.97967,44.9269266 1039.67526,47.6269266 Z" id="Path"></path>
            </g>
        </g>
    </g>
</svg>
