<?xml version="1.0" encoding="UTF-8"?>
<svg width="1550px" height="70px" viewBox="0 0 1550 70" version="1.1" xmlns="http://www.w3.org/2000/svg" xmlns:xlink="http://www.w3.org/1999/xlink">
    <!-- Generator: Sketch 61.2 (89653) - https://sketch.com -->
    <title>Group 2</title>
    <desc>Created with Sketch.</desc>
    <g id="Page-1" stroke="none" stroke-width="1" fill="none" fill-rule="evenodd">
        <g id="WAVES" transform="translate(1.000000, -1026.000000)"  stroke="#f3f1ef" stroke-width="6">
            <g id="Group-2" transform="translate(0.000000, 1027.000000)">
                <path d="M509.426903,47.7550798 C490.735105,19.5789384 471.316963,21.3561837 448.460248,38.2750638 C434.219008,48.8189528 422.200326,62.0225244 405.554261,62.9544442 C397.795709,63.3832923 389.98275,60.5957799 382.893414,56.2825582 C371.606517,49.416866 370.319773,38.1224929 378.206183,25.5663169 C378.657768,24.8488211 378.078325,24.036484 377.528806,24.35812 C372.147875,27.5167508 366.386089,36.1885531 369.60159,45.2727094 C374.759449,59.8246782 387.403821,64.8141603 397.763065,67.2181834 C438.408408,76.6610876 469.62216,-3.63658569 506.488882,51.7755302 C508.262576,54.4310893 511.260446,50.5260979 509.426903,47.7550798 Z M395.749983,23.4681882 C377.063409,-4.70953962 357.639601,-2.93219428 334.782622,13.9917622 C320.541216,24.5321211 308.525116,37.7364361 291.881578,38.6684084 C284.122937,39.0972806 276.309887,36.3137351 269.220469,31.9961468 C257.930721,25.1300679 256.643962,13.8391827 264.530463,1.28229977 C264.984773,0.560639826 264.402603,-0.251743077 263.853078,0.0740348381 C258.469364,3.22871972 252.710233,11.9010103 255.928491,20.985678 C261.080969,35.5384661 273.728207,40.5282292 284.087571,42.9323877 C324.736106,52.3758235 355.947499,-27.922247 392.814648,27.488865 C394.585642,30.1486973 397.588987,26.2393624 395.749983,23.4681882 Z M254.426794,47.7550798 C235.731431,19.5789384 216.312308,21.3561837 193.464839,38.2750638 C179.223604,48.8189528 167.202631,62.0225244 150.561554,62.9544442 C142.804244,63.3832923 134.987074,60.5957799 127.896387,56.2825582 C116.610058,49.416866 115.320348,38.1224929 123.210982,25.5663169 C123.659932,24.8488211 123.080379,24.036484 122.530755,24.35812 C117.146077,27.5167508 111.385914,36.1885531 114.602028,45.2727094 C119.75815,59.8246782 132.407653,64.8141603 142.768872,67.2181834 C183.413803,76.6610876 214.619903,-3.63658569 251.488212,51.7755302 C253.262245,54.4310893 256.260686,50.5260979 254.426794,47.7550798 Z M137.815781,27.488865 C100.949057,-27.922247 69.7353029,52.3758235 29.0872364,42.9323877 C18.7279915,40.5282292 6.08361911,35.5384661 0.928480179,20.985678 C-2.28974112,11.9010103 3.46932438,3.22871972 8.85297607,0.0740348381 C9.40249484,-0.251743077 9.98465828,0.560639826 9.53307355,1.28229977 C1.64394273,13.8391827 2.93340756,25.1300679 14.217585,31.9961468 C21.3096416,36.3137351 29.1198811,39.0972806 36.8811536,38.6684084 C53.5244992,37.7364361 65.543182,24.5321211 79.7844233,13.9917622 C102.64114,-2.93219428 122.059283,-4.70953962 140.751082,23.4681882 C142.587345,26.2393624 139.586755,30.1486973 137.815781,27.488865 L137.815781,27.488865 Z" id="Fill-77"></path>
                <path d="M1028.4269,47.7550798 C1009.7351,19.5789384 990.316963,21.3561837 967.460248,38.2750638 C953.219008,48.8189528 941.200326,62.0225244 924.554261,62.9544442 C916.795709,63.3832923 908.98275,60.5957799 901.893414,56.2825582 C890.606517,49.416866 889.319773,38.1224929 897.206183,25.5663169 C897.657768,24.8488211 897.078325,24.036484 896.528806,24.35812 C891.147875,27.5167508 885.386089,36.1885531 888.60159,45.2727094 C893.759449,59.8246782 906.403821,64.8141603 916.763065,67.2181834 C957.408408,76.6610876 988.62216,-3.63658569 1025.48888,51.7755302 C1027.26258,54.4310893 1030.26045,50.5260979 1028.4269,47.7550798 Z M914.749983,23.4681882 C896.063409,-4.70953962 876.639601,-2.93219428 853.782622,13.9917622 C839.541216,24.5321211 827.525116,37.7364361 810.881578,38.6684084 C803.122937,39.0972806 795.309887,36.3137351 788.220469,31.9961468 C776.930721,25.1300679 775.643962,13.8391827 783.530463,1.28229977 C783.984773,0.560639826 783.402603,-0.251743077 782.853078,0.0740348381 C777.469364,3.22871972 771.710233,11.9010103 774.928491,20.985678 C780.080969,35.5384661 792.728207,40.5282292 803.087571,42.9323877 C843.736106,52.3758235 874.947499,-27.922247 911.814648,27.488865 C913.585642,30.1486973 916.588987,26.2393624 914.749983,23.4681882 Z M773.426794,47.7550798 C754.731431,19.5789384 735.312308,21.3561837 712.464839,38.2750638 C698.223604,48.8189528 686.202631,62.0225244 669.561554,62.9544442 C661.804244,63.3832923 653.987074,60.5957799 646.896387,56.2825582 C635.610058,49.416866 634.320348,38.1224929 642.210982,25.5663169 C642.659932,24.8488211 642.080379,24.036484 641.530755,24.35812 C636.146077,27.5167508 630.385914,36.1885531 633.602028,45.2727094 C638.75815,59.8246782 651.407653,64.8141603 661.768872,67.2181834 C702.413803,76.6610876 733.619903,-3.63658569 770.488212,51.7755302 C772.262245,54.4310893 775.260686,50.5260979 773.426794,47.7550798 Z M656.815781,27.488865 C619.949057,-27.922247 588.735303,52.3758235 548.087236,42.9323877 C537.727992,40.5282292 525.083619,35.5384661 519.92848,20.985678 C516.710259,11.9010103 522.469324,3.22871972 527.852976,0.0740348381 C528.402495,-0.251743077 528.984658,0.560639826 528.533074,1.28229977 C520.643943,13.8391827 521.933408,25.1300679 533.217585,31.9961468 C540.309642,36.3137351 548.119881,39.0972806 555.881154,38.6684084 C572.524499,37.7364361 584.543182,24.5321211 598.784423,13.9917622 C621.64114,-2.93219428 641.059283,-4.70953962 659.751082,23.4681882 C661.587345,26.2393624 658.586755,30.1486973 656.815781,27.488865 L656.815781,27.488865 Z" id="Fill-77"></path>
                <path d="M1547.4269,47.7550798 C1528.7351,19.5789384 1509.31696,21.3561837 1486.46025,38.2750638 C1472.21901,48.8189528 1460.20033,62.0225244 1443.55426,62.9544442 C1435.79571,63.3832923 1427.98275,60.5957799 1420.89341,56.2825582 C1409.60652,49.416866 1408.31977,38.1224929 1416.20618,25.5663169 C1416.65777,24.8488211 1416.07832,24.036484 1415.52881,24.35812 C1410.14787,27.5167508 1404.38609,36.1885531 1407.60159,45.2727094 C1412.75945,59.8246782 1425.40382,64.8141603 1435.76306,67.2181834 C1476.40841,76.6610876 1507.62216,-3.63658569 1544.48888,51.7755302 C1546.26258,54.4310893 1549.26045,50.5260979 1547.4269,47.7550798 Z M1433.74998,23.4681882 C1415.06341,-4.70953962 1395.6396,-2.93219428 1372.78262,13.9917622 C1358.54122,24.5321211 1346.52512,37.7364361 1329.88158,38.6684084 C1322.12294,39.0972806 1314.30989,36.3137351 1307.22047,31.9961468 C1295.93072,25.1300679 1294.64396,13.8391827 1302.53046,1.28229977 C1302.98477,0.560639826 1302.4026,-0.251743077 1301.85308,0.0740348381 C1296.46936,3.22871972 1290.71023,11.9010103 1293.92849,20.985678 C1299.08097,35.5384661 1311.72821,40.5282292 1322.08757,42.9323877 C1362.73611,52.3758235 1393.9475,-27.922247 1430.81465,27.488865 C1432.58564,30.1486973 1435.58899,26.2393624 1433.74998,23.4681882 Z M1292.42679,47.7550798 C1273.73143,19.5789384 1254.31231,21.3561837 1231.46484,38.2750638 C1217.2236,48.8189528 1205.20263,62.0225244 1188.56155,62.9544442 C1180.80424,63.3832923 1172.98707,60.5957799 1165.89639,56.2825582 C1154.61006,49.416866 1153.32035,38.1224929 1161.21098,25.5663169 C1161.65993,24.8488211 1161.08038,24.036484 1160.53076,24.35812 C1155.14608,27.5167508 1149.38591,36.1885531 1152.60203,45.2727094 C1157.75815,59.8246782 1170.40765,64.8141603 1180.76887,67.2181834 C1221.4138,76.6610876 1252.6199,-3.63658569 1289.48821,51.7755302 C1291.26224,54.4310893 1294.26069,50.5260979 1292.42679,47.7550798 Z M1175.81578,27.488865 C1138.94906,-27.922247 1107.7353,52.3758235 1067.08724,42.9323877 C1056.72799,40.5282292 1044.08362,35.5384661 1038.92848,20.985678 C1035.71026,11.9010103 1041.46932,3.22871972 1046.85298,0.0740348381 C1047.40249,-0.251743077 1047.98466,0.560639826 1047.53307,1.28229977 C1039.64394,13.8391827 1040.93341,25.1300679 1052.21759,31.9961468 C1059.30964,36.3137351 1067.11988,39.0972806 1074.88115,38.6684084 C1091.5245,37.7364361 1103.54318,24.5321211 1117.78442,13.9917622 C1140.64114,-2.93219428 1160.05928,-4.70953962 1178.75108,23.4681882 C1180.58735,26.2393624 1177.58676,30.1486973 1175.81578,27.488865 L1175.81578,27.488865 Z" id="Fill-77"></path>
            </g>
        </g>
    </g>
</svg>
