<?xml version="1.0" encoding="UTF-8"?>
<svg width="1331px" height="65px" viewBox="0 0 1331 65" version="1.1" xmlns="http://www.w3.org/2000/svg" xmlns:xlink="http://www.w3.org/1999/xlink">
    <!-- Generator: Sketch 61.2 (89653) - https://sketch.com -->
    <title>Group</title>
    <desc>Created with Sketch.</desc>
    <g id="Page-1" stroke="none" stroke-width="1" fill="none" fill-rule="evenodd">
        <g id="WAVES" transform="translate(-1.000000, -749.000000)" stroke="#979797">
            <g id="Group" transform="translate(0.848062, 750.000000)">
                <path d="M3.8,14.6 C4.9,13.1 6.9,12.7 9.7,12.7 C12.4,12.7 14.8,12.9 16.3,14 C23.2,18.9 33.3,21.8 43.5,24.4 C56.8,27.8 70.8,28.4 83.9,23.7 C87,22.6 91.2,21.9 93.3,20.4 C96.6,18.1 101.3,16.5 104.7,14.4 C112.1,9.8 122.4,7.8 133.5,6.9 C139.9,6.4 146.8,6.3 153.1,6.9 C158.6,7.5 164.1,9 168.7,10.7 C178.4,14.4 189,17.1 200.4,18.9 C205.9,19.8 211.8,20.6 218.2,19.9 C225.3,19.2 230.8,17.4 235.6,15.1 C242.3,11.9 248.4,8.4 254.4,4.9 C259.4,2 265.9,1.1 273,0.8 C276.4,0.6 279.8,0.6 283.2,0.4 C293.7,-0.1 302.7,2 311.4,4.5 C315.2,5.6 318.9,7.1 322,8.6 C332,13.5 342.2,18.2 355,21.1 C363.5,23 372.9,23.5 382.2,23.5 C382.9,23.5 383.6,23.5 384.2,23.4 C392.4,21.3 400.3,18.8 408.7,17 C418.1,15 423.9,11 431,7.8 C440,3.7 450.2,2.3 461.8,2.2 C474.4,2.1 486,3.5 496.4,7.2 C498.5,8 501.3,8.2 503.6,8.9 C516.1,12.7 528.1,16.8 541.6,19.8 C552.5,22.2 563.7,22.8 575.2,21.7 C578.2,21.4 581.3,20.6 583.6,19.6 C590.6,16.7 597.4,13.6 604.1,10.5 C610.4,7.6 617.1,5.6 626,5 C634.7,4.4 643.1,4.2 651.6,4.9 C666.4,6.1 679.2,9.4 691.3,13.7 C697.7,16 704.6,18 711.6,19.8 C716.4,21 721.8,21.6 727.1,22 C731.5,22.3 736.1,22.2 739.9,20.6 C744,18.9 748.5,17.3 752.3,15.4 C764.8,9.2 779.3,4.8 797,4 C803.5,3.7 810.4,4.6 816.9,5.5 C831.4,7.4 842.9,12.3 855.6,16 C862.2,17.9 868.7,20.1 875.5,21.8 C880.7,23.2 886.6,24 892.5,23.5 C905.5,22.5 917.1,20.2 925.9,14.9 C933.2,10.5 942.4,7.1 953.2,5.2 C957.8,4.4 963.3,3.8 967.8,4.3 C976.8,5.3 986.4,4.8 994.9,7 C997.6,7.7 1001.1,8.2 1002.8,9.4 C1006.8,12.3 1012.9,13.8 1017.9,16 C1026.6,19.8 1037,22.3 1047.9,23.7 C1056.3,24.8 1065.2,24.8 1072.2,20.7 C1077.7,17.5 1084.2,14.6 1090.9,11.9 C1100.5,8 1111.5,5.9 1124.2,5.5 C1130.5,5.3 1136.6,4.4 1142.7,5.8 C1145.8,6.5 1149,7.1 1151.9,7.9 C1157.8,9.5 1164.5,10.8 1169.3,13.1 C1176.9,16.6 1186.3,18.5 1195,20.9 C1200.3,22.4 1207.4,23.9 1214.2,22.4 C1217.4,21.7 1220.2,20.5 1223.1,19.5 C1230.5,16.9 1237.4,13.9 1245.3,11.7 C1263.7,6.5 1282.8,5.1 1302.8,9.9 C1309.2,11.4 1315.6,12.7 1319.9,15.6 C1321,16.4 1323.1,17 1324.9,17.3 C1330,18.2 1331.5,19.8 1329.9,22.3 C1323.2,24 1320.5,23.8 1314.9,21.3 C1310.9,19.5 1306.8,17.6 1302.2,16.2 C1284.2,10.9 1266.3,11.6 1249.1,17.2 C1243.7,19 1239.2,21.4 1234.6,23.8 C1228.9,26.7 1222.1,28.6 1214.5,29.7 C1211.8,30.1 1208.2,29.8 1205.4,29.3 C1193.8,27.3 1183,24.4 1172.6,21.1 C1163.8,18.4 1155.6,15.3 1146.3,12.8 C1132.5,9.1 1119.7,10.3 1106.6,13.3 C1096.7,15.6 1090.2,19.9 1082.5,23.5 C1074.1,27.4 1064.8,30.7 1052.4,29.9 C1046.8,29.5 1041.2,28.9 1036,27.9 C1027.5,26.1 1019.5,23.8 1012.3,20.8 C1006.6,18.4 1001.2,15.7 995,13.8 C984.2,10.3 971.9,9.1 959.2,10.1 C952.8,10.6 947.2,12.7 942.7,15.2 C940.7,16.3 939,17.5 937.1,18.6 C933.9,20.5 929.8,21.8 925.5,23.1 C914.7,26.3 903.4,28.9 890.7,29.5 C887.2,29.7 883.5,29.4 880.1,28.9 C871.6,27.6 864,25.4 856.5,23.1 C847,20.1 837.4,17 827.8,14.1 C815.8,10.4 802.8,8.8 788.9,10.5 C784.4,11.1 779.6,11.8 776,13.2 C769.5,15.8 764.1,19 757.7,21.7 C753.5,23.5 748.4,24.8 743.7,26.2 C737.1,28.2 729.8,27.8 722.6,27.4 C710.8,26.7 701,23.8 691.6,20.4 C679.2,16 666.4,11.9 650.9,10.7 C646,10.3 640.9,10.3 636,10.3 C627.7,10.1 620.5,11.5 614.4,14.4 C608.3,17.3 602.1,20.1 595.7,22.7 C586.2,26.5 575.4,28.2 562.9,28.2 C548.9,28.2 536.7,25.9 525.1,22.4 C516,19.7 507.5,16.5 498.2,14 C485.9,10.8 473.4,7.4 458.5,8.4 C451.2,8.9 444.4,9.9 438.9,12.5 C434.5,14.6 430.4,16.9 425.7,18.8 C421.5,20.5 416.9,22 412,23.1 C403,25.2 393.8,27.1 384.6,29 C382.6,29.4 380.1,29.5 378,29.4 C369.5,28.7 361,28.1 352.7,26.9 C346.3,26 340.2,24.6 335.2,22.3 C334.4,21.9 333.4,21.6 332.5,21.3 C325.4,19.3 320.7,15.9 314.8,13.2 C301.8,7.4 286.8,4.7 269.3,7 C264.1,7.7 260.6,9.6 258.2,11.7 C252,17.1 241.9,20.4 232.3,23.9 C227.5,25.7 221.3,26.3 214.8,25.5 C210.5,25 205.7,25.5 201.6,24.9 C192.6,23.5 183.7,21.9 175,20 C171.3,19.2 168.1,17.5 165.1,16 C158.6,12.9 150.9,12.1 142.2,12.1 C125.6,12.1 114.1,16.7 104.4,22.5 C96.2,27.4 85.4,30.1 74,32.3 C70.8,32.9 66.8,32.6 63.2,32.5 C53.6,32.2 44.4,30.9 35.9,28.8 C30.9,27.5 26.3,25.7 22.1,23.9 C16.1,21.2 10.5,18.2 4.9,15.3 C4.7,15.6 4.3,15 3.8,14.6 Z" id="Path"></path>
                <path d="M2.5,29.7 C3.6,28.2 5.6,27.8 8.4,27.8 C11.1,27.8 13.5,28 15,29.1 C21.9,34 32,36.9 42.2,39.5 C55.5,42.9 69.5,43.5 82.6,38.8 C85.7,37.7 89.9,37 92,35.5 C95.3,33.2 100,31.6 103.4,29.4 C110.8,24.8 121.1,22.8 132.2,21.9 C138.6,21.4 145.5,21.3 151.8,21.9 C157.3,22.5 162.8,24 167.4,25.7 C177.1,29.4 187.7,32.1 199.1,33.9 C204.6,34.8 210.5,35.6 216.9,34.9 C224,34.2 229.5,32.4 234.3,30.1 C241,26.9 247.1,23.4 253.1,19.9 C258.1,17 264.6,16.1 271.7,15.8 C275.1,15.6 278.5,15.6 281.9,15.4 C292.4,14.9 301.5,17 310.1,19.5 C313.9,20.6 317.5,22.1 320.8,23.6 C330.8,28.5 341,33.3 353.8,36.1 C362.3,38 371.7,38.5 381,38.5 C381.7,38.5 382.4,38.5 383,38.4 C391.2,36.3 399.1,33.8 407.5,32 C416.9,30 422.7,26 429.8,22.8 C438.8,18.7 449,17.3 460.6,17.2 C473.2,17.1 484.8,18.5 495.2,22.2 C497.3,23 500.1,23.2 502.4,23.9 C514.9,27.7 526.9,31.8 540.4,34.8 C551.3,37.2 562.5,37.8 574,36.7 C577,36.4 580.1,35.6 582.4,34.6 C589.4,31.7 596.2,28.6 602.9,25.5 C609.2,22.6 615.9,20.6 624.8,20 C633.5,19.4 641.9,19.2 650.4,19.9 C665.2,21.1 678,24.4 690.1,28.7 C696.5,31 703.4,33 710.4,34.8 C715.2,36 720.6,36.6 725.9,37 C730.3,37.3 735,37.2 738.7,35.6 C742.8,33.9 747.3,32.3 751.1,30.4 C763.6,24.2 778.1,19.8 795.8,19 C802.3,18.7 809.2,19.6 815.6,20.5 C830.2,22.4 841.6,27.3 854.3,31 C860.9,32.9 867.4,35.1 874.2,36.8 C879.4,38.2 885.3,39 891.2,38.5 C904.2,37.5 915.8,35.2 924.6,29.9 C931.9,25.5 941.1,22.1 951.9,20.2 C956.5,19.4 962,18.8 966.5,19.3 C975.5,20.3 985.1,19.8 993.6,22 C996.3,22.7 999.8,23.2 1001.4,24.4 C1005.4,27.3 1011.5,28.8 1016.5,31 C1025.2,34.8 1035.5,37.3 1046.5,38.7 C1054.9,39.8 1063.8,39.8 1070.8,35.7 C1076.3,32.5 1082.8,29.6 1089.4,26.9 C1099,23 1110,20.9 1122.7,20.5 C1129,20.3 1135.1,19.4 1141.2,20.8 C1144.3,21.5 1147.5,22.1 1150.4,22.9 C1156.3,24.5 1163,25.8 1167.8,28.1 C1175.4,31.6 1184.8,33.5 1193.5,35.9 C1198.8,37.4 1205.9,38.9 1212.7,37.4 C1215.9,36.7 1218.7,35.5 1221.6,34.5 C1229,31.9 1235.9,28.9 1243.8,26.7 C1262.2,21.5 1281.4,20.1 1301.3,24.9 C1307.7,26.4 1314.1,27.7 1318.4,30.7 C1319.5,31.5 1321.5,32.1 1323.4,32.4 C1328.5,33.3 1330,34.9 1328.4,37.4 C1321.7,39.1 1319,38.9 1313.4,36.4 C1309.3,34.6 1305.3,32.7 1300.7,31.3 C1282.7,26 1264.8,26.7 1247.6,32.3 C1242.2,34.1 1237.7,36.5 1233.1,38.9 C1227.4,41.8 1220.6,43.7 1213,44.8 C1210.3,45.2 1206.7,44.9 1203.9,44.4 C1192.3,42.4 1181.5,39.5 1171.2,36.2 C1162.4,33.4 1154.2,30.3 1144.9,27.9 C1131.1,24.2 1118.3,25.4 1105.2,28.4 C1095.3,30.7 1088.8,35 1081.1,38.6 C1072.7,42.6 1063.4,45.8 1051,45 C1045.4,44.6 1039.8,44 1034.6,43 C1026.1,41.2 1018.1,38.9 1010.9,35.9 C1005.2,33.5 999.8,30.8 993.6,28.9 C982.8,25.4 970.5,24.2 957.8,25.2 C951.3,25.7 945.8,27.8 941.3,30.3 C939.3,31.4 937.6,32.6 935.7,33.7 C932.5,35.6 928.4,36.9 924.1,38.2 C913.2,41.4 902,44 889.3,44.6 C885.8,44.8 882.1,44.5 878.7,44 C870.2,42.7 862.6,40.5 855.1,38.2 C845.6,35.2 836,32.1 826.4,29.2 C814.4,25.5 801.4,23.9 787.5,25.6 C783,26.2 778.2,26.9 774.6,28.3 C768.1,30.9 762.7,34.1 756.3,36.8 C752.1,38.6 747,39.9 742.3,41.3 C735.7,43.3 728.4,42.9 721.2,42.5 C709.4,41.8 699.6,38.9 690.2,35.5 C677.8,31.1 665,27 649.5,25.8 C644.6,25.4 639.5,25.4 634.6,25.4 C626.3,25.2 619.1,26.6 613,29.5 C606.9,32.4 600.7,35.2 594.3,37.8 C584.8,41.6 574,43.3 561.5,43.3 C547.5,43.3 535.3,41 523.7,37.5 C514.6,34.8 506.1,31.6 496.8,29.1 C484.5,25.9 472,22.5 457.1,23.5 C449.7,24 443,25 437.5,27.6 C433,29.7 429,32 424.3,33.9 C420.1,35.6 415.5,37.1 410.6,38.2 C401.6,40.3 392.4,42.2 383.2,44.1 C381.2,44.5 378.7,44.6 376.6,44.4 C368.1,43.7 359.6,43.1 351.3,41.9 C344.9,41 338.8,39.6 333.8,37.3 C333,36.9 332,36.6 331.1,36.3 C324,34.2 319.3,30.9 313.4,28.2 C300.4,22.4 285.4,19.7 267.9,22 C262.7,22.7 259.2,24.6 256.8,26.7 C250.6,32.1 240.5,35.4 230.9,38.9 C226.1,40.7 219.9,41.3 213.4,40.5 C209.1,40 204.3,40.5 200.2,39.9 C191.2,38.5 182.3,36.9 173.6,35 C169.8,34.2 166.7,32.5 163.7,31 C157.2,27.9 149.5,27.1 140.7,27.1 C124.1,27.1 112.6,31.7 102.9,37.5 C94.7,42.4 83.9,45.1 72.5,47.3 C69.3,47.9 65.3,47.6 61.7,47.5 C52.1,47.2 42.9,45.9 34.4,43.8 C29.4,42.5 24.8,40.7 20.6,38.9 C14.6,36.2 9,33.2 3.4,30.3 C3.4,30.7 3,30.1 2.5,29.7 Z" id="Path"></path>
                <path d="M0.9,45.1 C2,43.6 4,43.2 6.8,43.2 C9.5,43.2 11.9,43.4 13.4,44.5 C20.3,49.4 30.4,52.4 40.6,54.9 C53.9,58.3 67.9,58.9 81,54.2 C84.1,53.1 88.3,52.4 90.4,50.9 C93.7,48.6 98.4,47 101.8,44.9 C109.2,40.3 119.5,38.3 130.6,37.4 C137,36.9 143.9,36.8 150.2,37.4 C155.7,38 161.2,39.5 165.8,41.2 C175.5,44.9 186.1,47.6 197.5,49.4 C203,50.3 208.9,51.1 215.3,50.4 C222.4,49.7 227.9,47.9 232.7,45.6 C239.4,42.4 245.5,38.9 251.5,35.4 C256.5,32.5 263,31.6 270.1,31.3 C273.5,31.1 276.9,31.1 280.3,30.9 C290.8,30.4 299.8,32.5 308.5,35 C312.4,36.1 316,37.6 319.2,39.1 C329.2,44 339.4,48.7 352.2,51.6 C360.7,53.5 370.1,54 379.4,54 C380.1,54 380.8,54 381.4,53.9 C389.6,51.8 397.5,49.3 405.9,47.5 C415.3,45.5 421.1,41.5 428.2,38.3 C437.2,34.2 447.4,32.8 459,32.7 C471.6,32.6 483.2,34 493.6,37.7 C495.7,38.5 498.5,38.7 500.8,39.4 C513.3,43.2 525.3,47.3 538.8,50.3 C549.7,52.7 560.9,53.3 572.4,52.2 C575.4,51.9 578.5,51.1 580.8,50.1 C587.8,47.2 594.6,44.1 601.3,41 C607.6,38.1 614.3,36.1 623.2,35.5 C631.9,34.9 640.3,34.7 648.8,35.4 C663.6,36.6 676.4,39.9 688.5,44.2 C694.9,46.5 701.8,48.5 708.8,50.3 C713.6,51.5 719,52.1 724.3,52.5 C728.7,52.8 733.3,52.7 737.1,51.1 C741.2,49.4 745.7,47.8 749.5,45.9 C762,39.7 776.5,35.3 794.2,34.5 C800.7,34.2 807.6,35.1 814,36 C828.6,37.9 840,42.8 852.7,46.5 C859.3,48.4 865.8,50.6 872.6,52.3 C877.8,53.7 883.7,54.5 889.6,54 C902.6,53 914.2,50.7 923,45.4 C930.3,41 939.5,37.6 950.3,35.7 C954.9,34.9 960.4,34.3 964.9,34.8 C973.9,35.8 983.5,35.3 992,37.5 C994.7,38.2 998.2,38.7 999.8,39.9 C1003.8,42.8 1009.9,44.3 1014.9,46.5 C1023.6,50.3 1033.9,52.8 1044.9,54.2 C1053.3,55.3 1062.2,55.3 1069.2,51.3 C1074.7,48.1 1081.2,45.2 1087.9,42.5 C1097.5,38.6 1108.5,36.5 1121.2,36.1 C1127.5,35.9 1133.6,35 1139.7,36.4 C1142.8,37.1 1146,37.7 1148.9,38.5 C1154.8,40.1 1161.5,41.4 1166.3,43.7 C1173.9,47.2 1183.3,49.1 1192,51.5 C1197.3,53 1204.4,54.5 1211.2,53 C1214.4,52.3 1217.2,51.1 1220.1,50.1 C1227.5,47.5 1234.4,44.5 1242.3,42.3 C1260.7,37.1 1279.9,35.7 1299.8,40.5 C1306.2,42 1312.6,43.3 1316.9,46.2 C1318,47 1320.1,47.6 1321.9,47.9 C1327,48.8 1328.5,50.4 1326.9,52.9 C1320.2,54.6 1317.5,54.4 1311.9,51.9 C1307.9,50.1 1303.8,48.2 1299.2,46.8 C1281.2,41.5 1263.2,42.2 1246.1,47.8 C1240.7,49.6 1236.2,52 1231.6,54.4 C1225.9,57.3 1219.1,59.2 1211.5,60.3 C1208.7,60.7 1205.2,60.4 1202.4,59.9 C1190.8,57.9 1180,55 1169.7,51.7 C1160.9,48.9 1152.6,45.8 1143.4,43.4 C1129.6,39.7 1116.8,40.9 1103.7,43.9 C1093.8,46.2 1087.3,50.5 1079.5,54.1 C1071.1,58.1 1061.8,61.3 1049.4,60.5 C1043.8,60.1 1038.2,59.5 1033,58.5 C1024.5,56.7 1016.5,54.4 1009.3,51.4 C1003.6,49 998.2,46.3 992,44.4 C981.2,40.9 968.9,39.7 956.2,40.7 C949.7,41.2 944.2,43.3 939.7,45.8 C937.7,46.9 936,48.1 934.1,49.2 C930.9,51.1 926.8,52.4 922.5,53.7 C911.6,56.9 900.4,59.5 887.7,60.1 C884.2,60.3 880.5,60 877.1,59.5 C868.6,58.2 861,56 853.5,53.7 C844,50.7 834.4,47.6 824.8,44.7 C812.8,41 799.8,39.4 785.9,41.1 C781.4,41.7 776.5,42.4 773,43.8 C766.5,46.4 761.1,49.6 754.7,52.3 C750.5,54.1 745.4,55.4 740.7,56.8 C734.1,58.8 726.8,58.4 719.6,58 C707.8,57.3 698,54.4 688.6,51 C676.2,46.6 663.4,42.5 647.9,41.3 C643,40.9 637.9,40.9 633,40.9 C624.7,40.8 617.5,42.1 611.4,45 C605.3,47.9 599.1,50.7 592.7,53.3 C583.2,57.1 572.4,58.8 560,58.8 C546,58.8 533.8,56.5 522.2,53 C513.1,50.3 504.6,47.1 495.3,44.6 C483,41.4 470.5,38 455.6,39 C448.3,39.5 441.5,40.5 436,43.1 C431.6,45.2 427.5,47.5 422.8,49.4 C418.6,51.1 414,52.6 409.1,53.7 C400.1,55.8 390.9,57.7 381.7,59.6 C379.7,60 377.2,60.1 375.1,60 C366.6,59.3 358.1,58.7 349.8,57.5 C343.4,56.6 337.3,55.2 332.3,52.9 C331.5,52.5 330.5,52.2 329.6,51.9 C322.5,49.8 317.8,46.5 311.9,43.8 C298.9,38 283.9,35.3 266.4,37.6 C261.2,38.3 257.7,40.2 255.3,42.3 C249.1,47.7 239,51 229.4,54.5 C224.6,56.3 218.4,56.9 211.9,56.1 C207.6,55.6 202.8,56.1 198.7,55.5 C189.7,54.1 180.8,52.5 172.1,50.6 C168.3,49.8 165.2,48.1 162.2,46.6 C155.7,43.5 148,42.7 139.2,42.7 C122.6,42.7 111.1,47.3 101.4,53.1 C93.2,58 82.4,60.7 71,62.9 C67.8,63.5 63.8,63.2 60.2,63.1 C50.6,62.8 41.4,61.5 32.9,59.4 C27.9,58.1 23.3,56.3 19.1,54.5 C13.1,51.8 7.5,48.8 1.9,45.9 C1.8,46.1 1.4,45.5 0.9,45.1 Z" id="Path"></path>
            </g>
        </g>
    </g>
</svg>